<?xml version="1.0" encoding="UTF-8" standalone="no"?>
<!-- Created with Inkscape (http://www.inkscape.org/) -->

<svg
   xmlns:dc="http://purl.org/dc/elements/1.1/"
   xmlns:cc="http://creativecommons.org/ns#"
   xmlns:rdf="http://www.w3.org/1999/02/22-rdf-syntax-ns#"
   xmlns:svg="http://www.w3.org/2000/svg"
   xmlns="http://www.w3.org/2000/svg"
   xmlns:sodipodi="http://sodipodi.sourceforge.net/DTD/sodipodi-0.dtd"
   xmlns:inkscape="http://www.inkscape.org/namespaces/inkscape"
   version="1.1"
   viewBox="0 0 327 146"
   id="svg6697"
   inkscape:version="0.91 r13725"
   sodipodi:docname="Banner1.svg">
  <sodipodi:namedview
     pagecolor="#ffffff"
     bordercolor="#666666"
     borderopacity="1"
     objecttolerance="10"
     gridtolerance="10"
     guidetolerance="10"
     inkscape:pageopacity="0"
     inkscape:pageshadow="2"
     inkscape:window-width="2220"
     inkscape:window-height="1028"
     id="namedview6985"
     showgrid="false"
     inkscape:zoom="1.5489297"
     inkscape:cx="261.05036"
     inkscape:cy="-63.064583"
     inkscape:window-x="43"
     inkscape:window-y="24"
     inkscape:window-maximized="0"
     inkscape:current-layer="svg6697" />
  <defs
     id="defs6699" />
  <metadata
     id="metadata6701">
    <rdf:RDF>
      <cc:Work
         rdf:about="">
        <dc:format>image/svg+xml</dc:format>
        <dc:type
           rdf:resource="http://purl.org/dc/dcmitype/StillImage" />
        <dc:title></dc:title>
      </cc:Work>
    </rdf:RDF>
  </metadata>
  <rect
     style="fill:#000000;fill-opacity:1;stroke:none;stroke-width:4;stroke-miterlimit:4;stroke-dasharray:none;stroke-dashoffset:0;stroke-opacity:0.60240933"
     id="rect6987"
     width="750"
     height="150"
     x="-27.986166"
     y="-1.6308008"
     ry="0.11660963"
     sodipodi:insensitive="true" />
  <g
     id="g7009"
     transform="matrix(1.8414146,0,0,1.8414146,0.87181418,-62.214058)">
    <g
       style="fill:#ffff4f;fill-rule:nonzero"
       id="g6707"
       transform="matrix(0.80316891,0,0,0.80316891,-34.9427,-20.74772)">
      <path
         inkscape:connector-curvature="0"
         id="path6709"
         transform="matrix(0.49497477,0,0,0.49497477,108.11348,49.969525)"
         d="m 29,54.4 c 0,0.837 -0.678,1.52 -1.52,1.52 -0.837,0 -1.52,-0.678 -1.52,-1.52 0,-0.837 0.678,-1.52 1.52,-1.52 0.837,0 1.52,0.678 1.52,1.52 z" />
      <path
         inkscape:connector-curvature="0"
         id="path6711"
         transform="matrix(0.49497477,0,0,0.49497477,113.26353,53.737087)"
         d="m 29,54.4 c 0,0.837 -0.678,1.52 -1.52,1.52 -0.837,0 -1.52,-0.678 -1.52,-1.52 0,-0.837 0.678,-1.52 1.52,-1.52 0.837,0 1.52,0.678 1.52,1.52 z" />
      <path
         inkscape:connector-curvature="0"
         id="path6713"
         transform="matrix(0.49497477,0,0,0.49497477,109.71552,50.876743)"
         d="m 29,54.4 c 0,0.837 -0.678,1.52 -1.52,1.52 -0.837,0 -1.52,-0.678 -1.52,-1.52 0,-0.837 0.678,-1.52 1.52,-1.52 0.837,0 1.52,0.678 1.52,1.52 z" />
      <path
         inkscape:connector-curvature="0"
         id="path6715"
         transform="matrix(0.49497477,0,0,0.49497477,118.99285,53.301008)"
         d="m 29,54.4 c 0,0.837 -0.678,1.52 -1.52,1.52 -0.837,0 -1.52,-0.678 -1.52,-1.52 0,-0.837 0.678,-1.52 1.52,-1.52 0.837,0 1.52,0.678 1.52,1.52 z" />
      <path
         inkscape:connector-curvature="0"
         id="path6717"
         transform="matrix(0.49497477,0,0,0.49497477,63.96948,46.06121)"
         d="m 29,54.4 c 0,0.837 -0.678,1.52 -1.52,1.52 -0.837,0 -1.52,-0.678 -1.52,-1.52 0,-0.837 0.678,-1.52 1.52,-1.52 0.837,0 1.52,0.678 1.52,1.52 z" />
      <path
         inkscape:connector-curvature="0"
         id="path6719"
         transform="matrix(0.49497477,0,0,0.49497477,107.53863,103.42447)"
         d="m 29,54.4 c 0,0.837 -0.678,1.52 -1.52,1.52 -0.837,0 -1.52,-0.678 -1.52,-1.52 0,-0.837 0.678,-1.52 1.52,-1.52 0.837,0 1.52,0.678 1.52,1.52 z" />
      <path
         inkscape:connector-curvature="0"
         id="path6721"
         transform="matrix(0.49497477,0,0,0.49497477,100.97554,118.77413)"
         d="m 29,54.4 c 0,0.837 -0.678,1.52 -1.52,1.52 -0.837,0 -1.52,-0.678 -1.52,-1.52 0,-0.837 0.678,-1.52 1.52,-1.52 0.837,0 1.52,0.678 1.52,1.52 z" />
      <path
         inkscape:connector-curvature="0"
         id="path6723"
         transform="matrix(0.49497477,0,0,0.49497477,111.98282,136.66312)"
         d="m 29,54.4 c 0,0.837 -0.678,1.52 -1.52,1.52 -0.837,0 -1.52,-0.678 -1.52,-1.52 0,-0.837 0.678,-1.52 1.52,-1.52 0.837,0 1.52,0.678 1.52,1.52 z" />
      <path
         inkscape:connector-curvature="0"
         id="path6725"
         transform="matrix(0.49497477,0,0,0.49497477,59.1307,133.5388)"
         d="m 29,54.4 c 0,0.837 -0.678,1.52 -1.52,1.52 -0.837,0 -1.52,-0.678 -1.52,-1.52 0,-0.837 0.678,-1.52 1.52,-1.52 0.837,0 1.52,0.678 1.52,1.52 z" />
      <path
         inkscape:connector-curvature="0"
         id="path6727"
         transform="matrix(0.49497477,0,0,0.49497477,61.480526,126.14229)"
         d="m 29,54.4 c 0,0.837 -0.678,1.52 -1.52,1.52 -0.837,0 -1.52,-0.678 -1.52,-1.52 0,-0.837 0.678,-1.52 1.52,-1.52 0.837,0 1.52,0.678 1.52,1.52 z" />
      <path
         inkscape:connector-curvature="0"
         id="path6729"
         transform="matrix(0.49497477,0,0,0.49497477,94.947076,140.64138)"
         d="m 29,54.4 c 0,0.837 -0.678,1.52 -1.52,1.52 -0.837,0 -1.52,-0.678 -1.52,-1.52 0,-0.837 0.678,-1.52 1.52,-1.52 0.837,0 1.52,0.678 1.52,1.52 z" />
      <path
         inkscape:connector-curvature="0"
         id="path6731"
         transform="matrix(0.49497477,0,0,0.49497477,79.742306,85.10945)"
         d="m 29,54.4 c 0,0.837 -0.678,1.52 -1.52,1.52 -0.837,0 -1.52,-0.678 -1.52,-1.52 0,-0.837 0.678,-1.52 1.52,-1.52 0.837,0 1.52,0.678 1.52,1.52 z" />
      <path
         inkscape:connector-curvature="0"
         id="path6733"
         transform="matrix(0.49497477,0,0,0.49497477,65.443245,138.10344)"
         d="m 29,54.4 c 0,0.837 -0.678,1.52 -1.52,1.52 -0.837,0 -1.52,-0.678 -1.52,-1.52 0,-0.837 0.678,-1.52 1.52,-1.52 0.837,0 1.52,0.678 1.52,1.52 z" />
      <path
         inkscape:connector-curvature="0"
         id="path6735"
         transform="matrix(0.49497477,0,0,0.49497477,72.579518,132.88188)"
         d="m 29,54.4 c 0,0.837 -0.678,1.52 -1.52,1.52 -0.837,0 -1.52,-0.678 -1.52,-1.52 0,-0.837 0.678,-1.52 1.52,-1.52 0.837,0 1.52,0.678 1.52,1.52 z" />
      <path
         inkscape:connector-curvature="0"
         id="path6737"
         transform="matrix(0.49497477,0,0,0.49497477,81.382506,83.90632)"
         d="m 29,54.4 c 0,0.837 -0.678,1.52 -1.52,1.52 -0.837,0 -1.52,-0.678 -1.52,-1.52 0,-0.837 0.678,-1.52 1.52,-1.52 0.837,0 1.52,0.678 1.52,1.52 z" />
      <path
         inkscape:connector-curvature="0"
         id="path6739"
         transform="matrix(0.49497477,0,0,0.49497477,148.96823,100.97778)"
         d="m 29,54.4 c 0,0.837 -0.678,1.52 -1.52,1.52 -0.837,0 -1.52,-0.678 -1.52,-1.52 0,-0.837 0.678,-1.52 1.52,-1.52 0.837,0 1.52,0.678 1.52,1.52 z" />
      <path
         inkscape:connector-curvature="0"
         id="path6741"
         transform="matrix(0.49497477,0,0,0.49497477,140.26818,114.66577)"
         d="m 29,54.4 c 0,0.837 -0.678,1.52 -1.52,1.52 -0.837,0 -1.52,-0.678 -1.52,-1.52 0,-0.837 0.678,-1.52 1.52,-1.52 0.837,0 1.52,0.678 1.52,1.52 z" />
      <path
         inkscape:connector-curvature="0"
         id="path6743"
         transform="matrix(0.49497477,0,0,0.49497477,131.3103,107.83722)"
         d="m 29,54.4 c 0,0.837 -0.678,1.52 -1.52,1.52 -0.837,0 -1.52,-0.678 -1.52,-1.52 0,-0.837 0.678,-1.52 1.52,-1.52 0.837,0 1.52,0.678 1.52,1.52 z" />
      <path
         inkscape:connector-curvature="0"
         id="path6745"
         transform="matrix(0.49497477,0,0,0.49497477,116.67786,100.20279)"
         d="m 29,54.4 c 0,0.837 -0.678,1.52 -1.52,1.52 -0.837,0 -1.52,-0.678 -1.52,-1.52 0,-0.837 0.678,-1.52 1.52,-1.52 0.837,0 1.52,0.678 1.52,1.52 z" />
      <path
         inkscape:connector-curvature="0"
         id="path6747"
         transform="matrix(0.49497477,0,0,0.49497477,129.17381,112.08925)"
         d="m 29,54.4 c 0,0.837 -0.678,1.52 -1.52,1.52 -0.837,0 -1.52,-0.678 -1.52,-1.52 0,-0.837 0.678,-1.52 1.52,-1.52 0.837,0 1.52,0.678 1.52,1.52 z" />
      <path
         inkscape:connector-curvature="0"
         id="path6749"
         transform="matrix(0.49497477,0,0,0.49497477,137.31285,103.42885)"
         d="m 29,54.4 c 0,0.837 -0.678,1.52 -1.52,1.52 -0.837,0 -1.52,-0.678 -1.52,-1.52 0,-0.837 0.678,-1.52 1.52,-1.52 0.837,0 1.52,0.678 1.52,1.52 z" />
      <path
         inkscape:connector-curvature="0"
         id="path6751"
         transform="matrix(0.49497477,0,0,0.49497477,151.22579,98.748187)"
         d="m 29,54.4 c 0,0.837 -0.678,1.52 -1.52,1.52 -0.837,0 -1.52,-0.678 -1.52,-1.52 0,-0.837 0.678,-1.52 1.52,-1.52 0.837,0 1.52,0.678 1.52,1.52 z" />
      <path
         inkscape:connector-curvature="0"
         id="path6753"
         transform="matrix(0.49497477,0,0,0.49497477,145.77194,69.101363)"
         d="m 29,54.4 c 0,0.837 -0.678,1.52 -1.52,1.52 -0.837,0 -1.52,-0.678 -1.52,-1.52 0,-0.837 0.678,-1.52 1.52,-1.52 0.837,0 1.52,0.678 1.52,1.52 z" />
      <path
         inkscape:connector-curvature="0"
         id="path6755"
         transform="matrix(0.49497477,0,0,0.49497477,144.94857,65.874359)"
         d="m 29,54.4 c 0,0.837 -0.678,1.52 -1.52,1.52 -0.837,0 -1.52,-0.678 -1.52,-1.52 0,-0.837 0.678,-1.52 1.52,-1.52 0.837,0 1.52,0.678 1.52,1.52 z" />
      <path
         inkscape:connector-curvature="0"
         id="path6757"
         transform="matrix(0.49497477,0,0,0.49497477,146.23207,58.690155)"
         d="m 29,54.4 c 0,0.837 -0.678,1.52 -1.52,1.52 -0.837,0 -1.52,-0.678 -1.52,-1.52 0,-0.837 0.678,-1.52 1.52,-1.52 0.837,0 1.52,0.678 1.52,1.52 z" />
      <path
         inkscape:connector-curvature="0"
         id="path6759"
         transform="matrix(0.49497477,0,0,0.49497477,153.46439,60.150653)"
         d="m 29,54.4 c 0,0.837 -0.678,1.52 -1.52,1.52 -0.837,0 -1.52,-0.678 -1.52,-1.52 0,-0.837 0.678,-1.52 1.52,-1.52 0.837,0 1.52,0.678 1.52,1.52 z" />
      <path
         inkscape:connector-curvature="0"
         id="path6761"
         transform="matrix(0.49497477,0,0,0.49497477,147.41102,65.769227)"
         d="m 29,54.4 c 0,0.837 -0.678,1.52 -1.52,1.52 -0.837,0 -1.52,-0.678 -1.52,-1.52 0,-0.837 0.678,-1.52 1.52,-1.52 0.837,0 1.52,0.678 1.52,1.52 z" />
      <path
         inkscape:connector-curvature="0"
         id="path6763"
         transform="matrix(0.49497477,0,0,0.49497477,73.798501,35.873306)"
         d="m 29,54.4 c 0,0.837 -0.678,1.52 -1.52,1.52 -0.837,0 -1.52,-0.678 -1.52,-1.52 0,-0.837 0.678,-1.52 1.52,-1.52 0.837,0 1.52,0.678 1.52,1.52 z" />
      <path
         inkscape:connector-curvature="0"
         id="path6765"
         transform="matrix(0.49497477,0,0,0.49497477,74.497984,30.184796)"
         d="m 29,54.4 c 0,0.837 -0.678,1.52 -1.52,1.52 -0.837,0 -1.52,-0.678 -1.52,-1.52 0,-0.837 0.678,-1.52 1.52,-1.52 0.837,0 1.52,0.678 1.52,1.52 z" />
      <path
         inkscape:connector-curvature="0"
         id="path6767"
         transform="matrix(0.49497477,0,0,0.49497477,69.790632,34.613147)"
         d="m 29,54.4 c 0,0.837 -0.678,1.52 -1.52,1.52 -0.837,0 -1.52,-0.678 -1.52,-1.52 0,-0.837 0.678,-1.52 1.52,-1.52 0.837,0 1.52,0.678 1.52,1.52 z" />
      <path
         inkscape:connector-curvature="0"
         id="path6769"
         transform="matrix(0.49497477,0,0,0.49497477,59.249341,41.760319)"
         d="m 29,54.4 c 0,0.837 -0.678,1.52 -1.52,1.52 -0.837,0 -1.52,-0.678 -1.52,-1.52 0,-0.837 0.678,-1.52 1.52,-1.52 0.837,0 1.52,0.678 1.52,1.52 z" />
      <path
         inkscape:connector-curvature="0"
         id="path6771"
         transform="matrix(0.49497477,0,0,0.49497477,65.191498,46.423167)"
         d="m 29,54.4 c 0,0.837 -0.678,1.52 -1.52,1.52 -0.837,0 -1.52,-0.678 -1.52,-1.52 0,-0.837 0.678,-1.52 1.52,-1.52 0.837,0 1.52,0.678 1.52,1.52 z" />
      <path
         inkscape:connector-curvature="0"
         id="path6773"
         transform="matrix(0.49497477,0,0,0.49497477,56.564188,44.281245)"
         d="m 29,54.4 c 0,0.837 -0.678,1.52 -1.52,1.52 -0.837,0 -1.52,-0.678 -1.52,-1.52 0,-0.837 0.678,-1.52 1.52,-1.52 0.837,0 1.52,0.678 1.52,1.52 z" />
      <path
         inkscape:connector-curvature="0"
         id="path6775"
         transform="matrix(0.49497477,0,0,0.49497477,118.21321,97.154134)"
         d="m 29,54.4 c 0,0.837 -0.678,1.52 -1.52,1.52 -0.837,0 -1.52,-0.678 -1.52,-1.52 0,-0.837 0.678,-1.52 1.52,-1.52 0.837,0 1.52,0.678 1.52,1.52 z" />
      <path
         inkscape:connector-curvature="0"
         id="path6777"
         transform="matrix(0.49497477,0,0,0.49497477,121.31191,101.11723)"
         d="m 29,54.4 c 0,0.837 -0.678,1.52 -1.52,1.52 -0.837,0 -1.52,-0.678 -1.52,-1.52 0,-0.837 0.678,-1.52 1.52,-1.52 0.837,0 1.52,0.678 1.52,1.52 z" />
      <path
         inkscape:connector-curvature="0"
         id="path6779"
         transform="matrix(0.49497477,0,0,0.49497477,108.24241,87.68755)"
         d="m 29,54.4 c 0,0.837 -0.678,1.52 -1.52,1.52 -0.837,0 -1.52,-0.678 -1.52,-1.52 0,-0.837 0.678,-1.52 1.52,-1.52 0.837,0 1.52,0.678 1.52,1.52 z" />
      <path
         inkscape:connector-curvature="0"
         id="path6781"
         transform="matrix(0.49497477,0,0,0.49497477,109.16165,88.581135)"
         d="m 29,54.4 c 0,0.837 -0.678,1.52 -1.52,1.52 -0.837,0 -1.52,-0.678 -1.52,-1.52 0,-0.837 0.678,-1.52 1.52,-1.52 0.837,0 1.52,0.678 1.52,1.52 z" />
      <path
         inkscape:connector-curvature="0"
         id="path6783"
         transform="matrix(0.49497477,0,0,0.49497477,109.78068,69.706464)"
         d="m 29,54.4 c 0,0.837 -0.678,1.52 -1.52,1.52 -0.837,0 -1.52,-0.678 -1.52,-1.52 0,-0.837 0.678,-1.52 1.52,-1.52 0.837,0 1.52,0.678 1.52,1.52 z" />
      <path
         inkscape:connector-curvature="0"
         id="path6785"
         transform="matrix(0.49497477,0,0,0.49497477,121.33733,55.87959)"
         d="m 29,54.4 c 0,0.837 -0.678,1.52 -1.52,1.52 -0.837,0 -1.52,-0.678 -1.52,-1.52 0,-0.837 0.678,-1.52 1.52,-1.52 0.837,0 1.52,0.678 1.52,1.52 z" />
      <path
         inkscape:connector-curvature="0"
         id="path6787"
         transform="matrix(0.49497477,0,0,0.49497477,127.25237,56.605015)"
         d="m 29,54.4 c 0,0.837 -0.678,1.52 -1.52,1.52 -0.837,0 -1.52,-0.678 -1.52,-1.52 0,-0.837 0.678,-1.52 1.52,-1.52 0.837,0 1.52,0.678 1.52,1.52 z" />
      <path
         inkscape:connector-curvature="0"
         id="path6789"
         transform="matrix(0.49497477,0,0,0.49497477,126.4076,53.671508)"
         d="m 29,54.4 c 0,0.837 -0.678,1.52 -1.52,1.52 -0.837,0 -1.52,-0.678 -1.52,-1.52 0,-0.837 0.678,-1.52 1.52,-1.52 0.837,0 1.52,0.678 1.52,1.52 z" />
      <path
         inkscape:connector-curvature="0"
         id="path6791"
         transform="matrix(0.49497477,0,0,0.49497477,121.09406,54.294434)"
         d="m 29,54.4 c 0,0.837 -0.678,1.52 -1.52,1.52 -0.837,0 -1.52,-0.678 -1.52,-1.52 0,-0.837 0.678,-1.52 1.52,-1.52 0.837,0 1.52,0.678 1.52,1.52 z" />
      <path
         inkscape:connector-curvature="0"
         id="path6793"
         transform="matrix(0.49497477,0,0,0.49497477,124.35763,53.244177)"
         d="m 29,54.4 c 0,0.837 -0.678,1.52 -1.52,1.52 -0.837,0 -1.52,-0.678 -1.52,-1.52 0,-0.837 0.678,-1.52 1.52,-1.52 0.837,0 1.52,0.678 1.52,1.52 z" />
      <path
         inkscape:connector-curvature="0"
         id="path6795"
         transform="matrix(0.49497477,0,0,0.49497477,127.69047,55.042596)"
         d="m 29,54.4 c 0,0.837 -0.678,1.52 -1.52,1.52 -0.837,0 -1.52,-0.678 -1.52,-1.52 0,-0.837 0.678,-1.52 1.52,-1.52 0.837,0 1.52,0.678 1.52,1.52 z" />
      <path
         inkscape:connector-curvature="0"
         id="path6797"
         transform="matrix(0.49497477,0,0,0.49497477,120.37445,50.217598)"
         d="m 29,54.4 c 0,0.837 -0.678,1.52 -1.52,1.52 -0.837,0 -1.52,-0.678 -1.52,-1.52 0,-0.837 0.678,-1.52 1.52,-1.52 0.837,0 1.52,0.678 1.52,1.52 z" />
      <path
         inkscape:connector-curvature="0"
         id="path6799"
         transform="matrix(0.49497477,0,0,0.49497477,120.19976,55.053234)"
         d="m 29,54.4 c 0,0.837 -0.678,1.52 -1.52,1.52 -0.837,0 -1.52,-0.678 -1.52,-1.52 0,-0.837 0.678,-1.52 1.52,-1.52 0.837,0 1.52,0.678 1.52,1.52 z" />
      <path
         inkscape:connector-curvature="0"
         id="path6801"
         transform="matrix(0.49497477,0,0,0.49497477,117.06476,51.007394)"
         d="m 29,54.4 c 0,0.837 -0.678,1.52 -1.52,1.52 -0.837,0 -1.52,-0.678 -1.52,-1.52 0,-0.837 0.678,-1.52 1.52,-1.52 0.837,0 1.52,0.678 1.52,1.52 z" />
      <path
         inkscape:connector-curvature="0"
         id="path6803"
         transform="matrix(0.49497477,0,0,0.49497477,112.82665,55.676307)"
         d="m 29,54.4 c 0,0.837 -0.678,1.52 -1.52,1.52 -0.837,0 -1.52,-0.678 -1.52,-1.52 0,-0.837 0.678,-1.52 1.52,-1.52 0.837,0 1.52,0.678 1.52,1.52 z" />
      <path
         inkscape:connector-curvature="0"
         id="path6805"
         transform="matrix(0.49497477,0,0,0.49497477,113.39296,54.777715)"
         d="m 29,54.4 c 0,0.837 -0.678,1.52 -1.52,1.52 -0.837,0 -1.52,-0.678 -1.52,-1.52 0,-0.837 0.678,-1.52 1.52,-1.52 0.837,0 1.52,0.678 1.52,1.52 z" />
      <path
         inkscape:connector-curvature="0"
         id="path6807"
         transform="matrix(0.49497477,0,0,0.49497477,102.87201,60.900567)"
         d="m 29,54.4 c 0,0.837 -0.678,1.52 -1.52,1.52 -0.837,0 -1.52,-0.678 -1.52,-1.52 0,-0.837 0.678,-1.52 1.52,-1.52 0.837,0 1.52,0.678 1.52,1.52 z" />
      <path
         inkscape:connector-curvature="0"
         id="path6809"
         transform="matrix(0.49497477,0,0,0.49497477,111.1377,87.343322)"
         d="m 29,54.4 c 0,0.837 -0.678,1.52 -1.52,1.52 -0.837,0 -1.52,-0.678 -1.52,-1.52 0,-0.837 0.678,-1.52 1.52,-1.52 0.837,0 1.52,0.678 1.52,1.52 z" />
      <path
         inkscape:connector-curvature="0"
         id="path6811"
         transform="matrix(0.49497477,0,0,0.49497477,108.71,87.278991)"
         d="m 29,54.4 c 0,0.837 -0.678,1.52 -1.52,1.52 -0.837,0 -1.52,-0.678 -1.52,-1.52 0,-0.837 0.678,-1.52 1.52,-1.52 0.837,0 1.52,0.678 1.52,1.52 z" />
      <path
         inkscape:connector-curvature="0"
         id="path6813"
         transform="matrix(0.49497477,0,0,0.49497477,123.37511,112.53249)"
         d="m 29,54.4 c 0,0.837 -0.678,1.52 -1.52,1.52 -0.837,0 -1.52,-0.678 -1.52,-1.52 0,-0.837 0.678,-1.52 1.52,-1.52 0.837,0 1.52,0.678 1.52,1.52 z" />
      <path
         inkscape:connector-curvature="0"
         id="path6815"
         transform="matrix(0.49497477,0,0,0.49497477,114.5924,97.385311)"
         d="m 29,54.4 c 0,0.837 -0.678,1.52 -1.52,1.52 -0.837,0 -1.52,-0.678 -1.52,-1.52 0,-0.837 0.678,-1.52 1.52,-1.52 0.837,0 1.52,0.678 1.52,1.52 z" />
      <path
         inkscape:connector-curvature="0"
         id="path6817"
         transform="matrix(0.49497477,0,0,0.49497477,117.61317,100.50229)"
         d="m 29,54.4 c 0,0.837 -0.678,1.52 -1.52,1.52 -0.837,0 -1.52,-0.678 -1.52,-1.52 0,-0.837 0.678,-1.52 1.52,-1.52 0.837,0 1.52,0.678 1.52,1.52 z" />
      <path
         inkscape:connector-curvature="0"
         id="path6819"
         transform="matrix(0.49497477,0,0,0.49497477,114.0738,97.522178)"
         d="m 29,54.4 c 0,0.837 -0.678,1.52 -1.52,1.52 -0.837,0 -1.52,-0.678 -1.52,-1.52 0,-0.837 0.678,-1.52 1.52,-1.52 0.837,0 1.52,0.678 1.52,1.52 z" />
      <path
         inkscape:connector-curvature="0"
         id="path6821"
         transform="matrix(0.49497477,0,0,0.49497477,109.43311,96.021167)"
         d="m 29,54.4 c 0,0.837 -0.678,1.52 -1.52,1.52 -0.837,0 -1.52,-0.678 -1.52,-1.52 0,-0.837 0.678,-1.52 1.52,-1.52 0.837,0 1.52,0.678 1.52,1.52 z" />
      <path
         inkscape:connector-curvature="0"
         id="path6823"
         transform="matrix(0.49497477,0,0,0.49497477,121.40299,105.50846)"
         d="m 29,54.4 c 0,0.837 -0.678,1.52 -1.52,1.52 -0.837,0 -1.52,-0.678 -1.52,-1.52 0,-0.837 0.678,-1.52 1.52,-1.52 0.837,0 1.52,0.678 1.52,1.52 z" />
      <path
         inkscape:connector-curvature="0"
         id="path6825"
         transform="matrix(0.49497477,0,0,0.49497477,107.48266,100.8104)"
         d="m 29,54.4 c 0,0.837 -0.678,1.52 -1.52,1.52 -0.837,0 -1.52,-0.678 -1.52,-1.52 0,-0.837 0.678,-1.52 1.52,-1.52 0.837,0 1.52,0.678 1.52,1.52 z" />
      <path
         inkscape:connector-curvature="0"
         id="path6827"
         transform="matrix(0.49497477,0,0,0.49497477,108.69157,103.47318)"
         d="m 29,54.4 c 0,0.837 -0.678,1.52 -1.52,1.52 -0.837,0 -1.52,-0.678 -1.52,-1.52 0,-0.837 0.678,-1.52 1.52,-1.52 0.837,0 1.52,0.678 1.52,1.52 z" />
      <path
         inkscape:connector-curvature="0"
         id="path6829"
         transform="matrix(0.49497477,0,0,0.49497477,104.80063,101.10326)"
         d="m 29,54.4 c 0,0.837 -0.678,1.52 -1.52,1.52 -0.837,0 -1.52,-0.678 -1.52,-1.52 0,-0.837 0.678,-1.52 1.52,-1.52 0.837,0 1.52,0.678 1.52,1.52 z" />
      <path
         inkscape:connector-curvature="0"
         id="path6831"
         transform="matrix(0.49497477,0,0,0.49497477,101.7386,115.20222)"
         d="m 29,54.4 c 0,0.837 -0.678,1.52 -1.52,1.52 -0.837,0 -1.52,-0.678 -1.52,-1.52 0,-0.837 0.678,-1.52 1.52,-1.52 0.837,0 1.52,0.678 1.52,1.52 z" />
      <path
         inkscape:connector-curvature="0"
         id="path6833"
         transform="matrix(0.49497477,0,0,0.49497477,98.130496,129.30288)"
         d="m 29,54.4 c 0,0.837 -0.678,1.52 -1.52,1.52 -0.837,0 -1.52,-0.678 -1.52,-1.52 0,-0.837 0.678,-1.52 1.52,-1.52 0.837,0 1.52,0.678 1.52,1.52 z" />
      <path
         inkscape:connector-curvature="0"
         id="path6835"
         transform="matrix(0.49497477,0,0,0.49497477,92.154396,132.66827)"
         d="m 29,54.4 c 0,0.837 -0.678,1.52 -1.52,1.52 -0.837,0 -1.52,-0.678 -1.52,-1.52 0,-0.837 0.678,-1.52 1.52,-1.52 0.837,0 1.52,0.678 1.52,1.52 z" />
      <path
         inkscape:connector-curvature="0"
         id="path6837"
         transform="matrix(0.49497477,0,0,0.49497477,92.564006,139.82027)"
         d="m 29,54.4 c 0,0.837 -0.678,1.52 -1.52,1.52 -0.837,0 -1.52,-0.678 -1.52,-1.52 0,-0.837 0.678,-1.52 1.52,-1.52 0.837,0 1.52,0.678 1.52,1.52 z" />
      <path
         inkscape:connector-curvature="0"
         id="path6839"
         transform="matrix(0.49497477,0,0,0.49497477,96.475776,134.79413)"
         d="m 29,54.4 c 0,0.837 -0.678,1.52 -1.52,1.52 -0.837,0 -1.52,-0.678 -1.52,-1.52 0,-0.837 0.678,-1.52 1.52,-1.52 0.837,0 1.52,0.678 1.52,1.52 z" />
      <path
         inkscape:connector-curvature="0"
         id="path6841"
         transform="matrix(0.49497477,0,0,0.49497477,96.838086,125.83372)"
         d="m 29,54.4 c 0,0.837 -0.678,1.52 -1.52,1.52 -0.837,0 -1.52,-0.678 -1.52,-1.52 0,-0.837 0.678,-1.52 1.52,-1.52 0.837,0 1.52,0.678 1.52,1.52 z" />
      <path
         inkscape:connector-curvature="0"
         id="path6843"
         transform="matrix(0.49497477,0,0,0.49497477,100.49776,119.59874)"
         d="m 29,54.4 c 0,0.837 -0.678,1.52 -1.52,1.52 -0.837,0 -1.52,-0.678 -1.52,-1.52 0,-0.837 0.678,-1.52 1.52,-1.52 0.837,0 1.52,0.678 1.52,1.52 z" />
      <path
         inkscape:connector-curvature="0"
         id="path6845"
         transform="matrix(0.49497477,0,0,0.49497477,91.846206,135.14994)"
         d="m 29,54.4 c 0,0.837 -0.678,1.52 -1.52,1.52 -0.837,0 -1.52,-0.678 -1.52,-1.52 0,-0.837 0.678,-1.52 1.52,-1.52 0.837,0 1.52,0.678 1.52,1.52 z" />
      <path
         inkscape:connector-curvature="0"
         id="path6847"
         transform="matrix(0.49497477,0,0,0.49497477,94.388596,120.8651)"
         d="m 29,54.4 c 0,0.837 -0.678,1.52 -1.52,1.52 -0.837,0 -1.52,-0.678 -1.52,-1.52 0,-0.837 0.678,-1.52 1.52,-1.52 0.837,0 1.52,0.678 1.52,1.52 z" />
      <path
         inkscape:connector-curvature="0"
         id="path6849"
         transform="matrix(0.49497477,0,0,0.49497477,88.545826,132.98776)"
         d="m 29,54.4 c 0,0.837 -0.678,1.52 -1.52,1.52 -0.837,0 -1.52,-0.678 -1.52,-1.52 0,-0.837 0.678,-1.52 1.52,-1.52 0.837,0 1.52,0.678 1.52,1.52 z" />
      <path
         inkscape:connector-curvature="0"
         id="path6851"
         transform="matrix(0.49497477,0,0,0.49497477,64.625376,41.43156)"
         d="m 29,54.4 c 0,0.837 -0.678,1.52 -1.52,1.52 -0.837,0 -1.52,-0.678 -1.52,-1.52 0,-0.837 0.678,-1.52 1.52,-1.52 0.837,0 1.52,0.678 1.52,1.52 z" />
      <path
         inkscape:connector-curvature="0"
         id="path6853"
         transform="matrix(0.49497477,0,0,0.49497477,147.97755,69.40133)"
         d="m 29,54.4 c 0,0.837 -0.678,1.52 -1.52,1.52 -0.837,0 -1.52,-0.678 -1.52,-1.52 0,-0.837 0.678,-1.52 1.52,-1.52 0.837,0 1.52,0.678 1.52,1.52 z" />
      <path
         inkscape:connector-curvature="0"
         id="path6855"
         transform="matrix(0.49497477,0,0,0.49497477,75.137583,134.70154)"
         d="m 29,54.4 c 0,0.837 -0.678,1.52 -1.52,1.52 -0.837,0 -1.52,-0.678 -1.52,-1.52 0,-0.837 0.678,-1.52 1.52,-1.52 0.837,0 1.52,0.678 1.52,1.52 z" />
      <path
         inkscape:connector-curvature="0"
         id="path6857"
         transform="matrix(0.49497477,0,0,0.49497477,76.337566,134.99141)"
         d="m 29,54.4 c 0,0.837 -0.678,1.52 -1.52,1.52 -0.837,0 -1.52,-0.678 -1.52,-1.52 0,-0.837 0.678,-1.52 1.52,-1.52 0.837,0 1.52,0.678 1.52,1.52 z" />
      <path
         inkscape:connector-curvature="0"
         id="path6859"
         transform="matrix(0.49497477,0,0,0.49497477,87.076686,131.56621)"
         d="m 29,54.4 c 0,0.837 -0.678,1.52 -1.52,1.52 -0.837,0 -1.52,-0.678 -1.52,-1.52 0,-0.837 0.678,-1.52 1.52,-1.52 0.837,0 1.52,0.678 1.52,1.52 z" />
      <path
         inkscape:connector-curvature="0"
         id="path6861"
         transform="matrix(0.49497477,0,0,0.49497477,90.241676,138.69304)"
         d="m 29,54.4 c 0,0.837 -0.678,1.52 -1.52,1.52 -0.837,0 -1.52,-0.678 -1.52,-1.52 0,-0.837 0.678,-1.52 1.52,-1.52 0.837,0 1.52,0.678 1.52,1.52 z" />
      <path
         inkscape:connector-curvature="0"
         id="path6863"
         transform="matrix(0.49497477,0,0,0.49497477,89.213206,132.05244)"
         d="m 29,54.4 c 0,0.837 -0.678,1.52 -1.52,1.52 -0.837,0 -1.52,-0.678 -1.52,-1.52 0,-0.837 0.678,-1.52 1.52,-1.52 0.837,0 1.52,0.678 1.52,1.52 z" />
      <path
         inkscape:connector-curvature="0"
         id="path6865"
         transform="matrix(0.49497477,0,0,0.49497477,73.483336,131.62014)"
         d="m 29,54.4 c 0,0.837 -0.678,1.52 -1.52,1.52 -0.837,0 -1.52,-0.678 -1.52,-1.52 0,-0.837 0.678,-1.52 1.52,-1.52 0.837,0 1.52,0.678 1.52,1.52 z" />
      <path
         inkscape:connector-curvature="0"
         id="path6867"
         transform="matrix(0.49497477,0,0,0.49497477,76.378476,134.14462)"
         d="m 29,54.4 c 0,0.837 -0.678,1.52 -1.52,1.52 -0.837,0 -1.52,-0.678 -1.52,-1.52 0,-0.837 0.678,-1.52 1.52,-1.52 0.837,0 1.52,0.678 1.52,1.52 z" />
      <path
         inkscape:connector-curvature="0"
         id="path6869"
         transform="matrix(0.49497477,0,0,0.49497477,77.291826,130.5995)"
         d="m 29,54.4 c 0,0.837 -0.678,1.52 -1.52,1.52 -0.837,0 -1.52,-0.678 -1.52,-1.52 0,-0.837 0.678,-1.52 1.52,-1.52 0.837,0 1.52,0.678 1.52,1.52 z" />
      <path
         inkscape:connector-curvature="0"
         id="path6871"
         transform="matrix(0.49497477,0,0,0.49497477,99.364606,115.84436)"
         d="m 29,54.4 c 0,0.837 -0.678,1.52 -1.52,1.52 -0.837,0 -1.52,-0.678 -1.52,-1.52 0,-0.837 0.678,-1.52 1.52,-1.52 0.837,0 1.52,0.678 1.52,1.52 z" />
      <path
         inkscape:connector-curvature="0"
         id="path6873"
         transform="matrix(0.49497477,0,0,0.49497477,101.52437,119.87594)"
         d="m 29,54.4 c 0,0.837 -0.678,1.52 -1.52,1.52 -0.837,0 -1.52,-0.678 -1.52,-1.52 0,-0.837 0.678,-1.52 1.52,-1.52 0.837,0 1.52,0.678 1.52,1.52 z" />
      <path
         inkscape:connector-curvature="0"
         id="path6875"
         transform="matrix(0.49497477,0,0,0.49497477,99.365936,117.08499)"
         d="m 29,54.4 c 0,0.837 -0.678,1.52 -1.52,1.52 -0.837,0 -1.52,-0.678 -1.52,-1.52 0,-0.837 0.678,-1.52 1.52,-1.52 0.837,0 1.52,0.678 1.52,1.52 z" />
      <path
         inkscape:connector-curvature="0"
         id="path6877"
         transform="matrix(0.49497477,0,0,0.49497477,97.637746,121.48921)"
         d="m 29,54.4 c 0,0.837 -0.678,1.52 -1.52,1.52 -0.837,0 -1.52,-0.678 -1.52,-1.52 0,-0.837 0.678,-1.52 1.52,-1.52 0.837,0 1.52,0.678 1.52,1.52 z" />
      <path
         inkscape:connector-curvature="0"
         id="path6879"
         transform="matrix(0.49497477,0,0,0.49497477,96.467026,123.54815)"
         d="m 29,54.4 c 0,0.837 -0.678,1.52 -1.52,1.52 -0.837,0 -1.52,-0.678 -1.52,-1.52 0,-0.837 0.678,-1.52 1.52,-1.52 0.837,0 1.52,0.678 1.52,1.52 z" />
      <path
         inkscape:connector-curvature="0"
         id="path6881"
         transform="matrix(0.49497477,0,0,0.49497477,100.96004,125.91045)"
         d="m 29,54.4 c 0,0.837 -0.678,1.52 -1.52,1.52 -0.837,0 -1.52,-0.678 -1.52,-1.52 0,-0.837 0.678,-1.52 1.52,-1.52 0.837,0 1.52,0.678 1.52,1.52 z" />
      <path
         inkscape:connector-curvature="0"
         id="path6883"
         transform="matrix(0.49497477,0,0,0.49497477,106.27031,121.94295)"
         d="m 29,54.4 c 0,0.837 -0.678,1.52 -1.52,1.52 -0.837,0 -1.52,-0.678 -1.52,-1.52 0,-0.837 0.678,-1.52 1.52,-1.52 0.837,0 1.52,0.678 1.52,1.52 z" />
    </g>
    <g
       style="fill:#ffff00;fill-rule:nonzero;stroke-linecap:butt;stroke-linejoin:round;stroke-miterlimit:4;stroke-dasharray:none;stroke-dashoffset:0"
       id="g6885"
       transform="matrix(0.80316891,0,0,0.80316891,-34.9427,-20.74772)"
       stroke-miterlimit="4">
      <path
         style="stroke:#ffffff;stroke-width:2.29498482;stroke-opacity:0.19838059"
         inkscape:connector-curvature="0"
         id="path6887"
         transform="matrix(1.3071982,0,0,1.3071982,-184.63568,80.913639)"
         d="m 223,64.7 c 0,0.542 -0.44,0.982 -0.982,0.982 -0.542,0 -0.982,-0.44 -0.982,-0.982 0,-0.542 0.44,-0.982 0.982,-0.982 0.542,0 0.982,0.44 0.982,0.982 z" />
      <path
         style="stroke:#ffffff;stroke-width:2.29498482;stroke-opacity:0.19838059"
         inkscape:connector-curvature="0"
         id="path6889"
         transform="matrix(1.3071982,0,0,1.3071982,-174.33174,66.906534)"
         d="m 223,64.7 c 0,0.542 -0.44,0.982 -0.982,0.982 -0.542,0 -0.982,-0.44 -0.982,-0.982 0,-0.542 0.44,-0.982 0.982,-0.982 0.542,0 0.982,0.44 0.982,0.982 z" />
      <path
         style="stroke:#ffffff;stroke-width:2.29498482;stroke-opacity:0.19838059"
         inkscape:connector-curvature="0"
         id="path6891"
         transform="matrix(1.3071982,0,0,1.3071982,-181.72529,61.84972)"
         d="m 223,64.7 c 0,0.542 -0.44,0.982 -0.982,0.982 -0.542,0 -0.982,-0.44 -0.982,-0.982 0,-0.542 0.44,-0.982 0.982,-0.982 0.542,0 0.982,0.44 0.982,0.982 z" />
      <path
         style="stroke:#ffffff;stroke-width:2.29498482;stroke-opacity:0.19838059"
         inkscape:connector-curvature="0"
         id="path6893"
         transform="matrix(1.3071982,0,0,1.3071982,-148.44701,47.38982)"
         d="m 223,64.7 c 0,0.542 -0.44,0.982 -0.982,0.982 -0.542,0 -0.982,-0.44 -0.982,-0.982 0,-0.542 0.44,-0.982 0.982,-0.982 0.542,0 0.982,0.44 0.982,0.982 z" />
      <path
         style="stroke:#ffffff;stroke-width:2.29498482;stroke-opacity:0.19838059"
         inkscape:connector-curvature="0"
         id="path6895"
         transform="matrix(1.3071982,0,0,1.3071982,-196.35462,25.057162)"
         d="m 223,64.7 c 0,0.542 -0.44,0.982 -0.982,0.982 -0.542,0 -0.982,-0.44 -0.982,-0.982 0,-0.542 0.44,-0.982 0.982,-0.982 0.542,0 0.982,0.44 0.982,0.982 z" />
      <path
         style="stroke:#ffffff;stroke-width:2.29498482;stroke-opacity:0.19838059"
         inkscape:connector-curvature="0"
         id="path6897"
         transform="matrix(1.3071982,0,0,1.3071982,-174.4712,-0.945204)"
         d="m 223,64.7 c 0,0.542 -0.44,0.982 -0.982,0.982 -0.542,0 -0.982,-0.44 -0.982,-0.982 0,-0.542 0.44,-0.982 0.982,-0.982 0.542,0 0.982,0.44 0.982,0.982 z" />
      <path
         style="stroke:#ffffff;stroke-width:2.29498482;stroke-opacity:0.19838059"
         inkscape:connector-curvature="0"
         id="path6899"
         transform="matrix(1.3071982,0,0,1.3071982,-167.82775,5.489739)"
         d="m 223,64.7 c 0,0.542 -0.44,0.982 -0.982,0.982 -0.542,0 -0.982,-0.44 -0.982,-0.982 0,-0.542 0.44,-0.982 0.982,-0.982 0.542,0 0.982,0.44 0.982,0.982 z" />
      <path
         style="stroke:#ffffff;stroke-width:2.29498482;stroke-opacity:0.19838059"
         inkscape:connector-curvature="0"
         id="path6901"
         transform="matrix(1.3071982,0,0,1.3071982,-125.76847,9.72281)"
         d="m 223,64.7 c 0,0.542 -0.44,0.982 -0.982,0.982 -0.542,0 -0.982,-0.44 -0.982,-0.982 0,-0.542 0.44,-0.982 0.982,-0.982 0.542,0 0.982,0.44 0.982,0.982 z" />
      <path
         style="stroke:#ffffff;stroke-width:2.29498482;stroke-opacity:0.19838059"
         inkscape:connector-curvature="0"
         id="path6903"
         transform="matrix(1.3071982,0,0,1.3071982,-209.37846,-16.740655)"
         d="m 223,64.7 c 0,0.542 -0.44,0.982 -0.982,0.982 -0.542,0 -0.982,-0.44 -0.982,-0.982 0,-0.542 0.44,-0.982 0.982,-0.982 0.542,0 0.982,0.44 0.982,0.982 z" />
      <path
         style="stroke:#ffffff;stroke-width:2.29498482;stroke-opacity:0.19838059"
         inkscape:connector-curvature="0"
         id="path6905"
         transform="matrix(1.3071982,0,0,1.3071982,-161.17769,32.417533)"
         d="m 223,64.7 c 0,0.542 -0.44,0.982 -0.982,0.982 -0.542,0 -0.982,-0.44 -0.982,-0.982 0,-0.542 0.44,-0.982 0.982,-0.982 0.542,0 0.982,0.44 0.982,0.982 z" />
      <path
         style="stroke:#ffffff;stroke-width:2.29498482;stroke-opacity:0.19838059"
         inkscape:connector-curvature="0"
         id="path6907"
         transform="matrix(1.3071982,0,0,1.3071982,-127.40811,46.214303)"
         d="m 223,64.7 c 0,0.542 -0.44,0.982 -0.982,0.982 -0.542,0 -0.982,-0.44 -0.982,-0.982 0,-0.542 0.44,-0.982 0.982,-0.982 0.542,0 0.982,0.44 0.982,0.982 z" />
      <path
         style="stroke:#ffffff;stroke-width:2.29498482;stroke-opacity:0.19838059"
         inkscape:connector-curvature="0"
         id="path6909"
         transform="matrix(1.3071982,0,0,1.3071982,-128.89185,14.561653)"
         d="m 223,64.7 c 0,0.542 -0.44,0.982 -0.982,0.982 -0.542,0 -0.982,-0.44 -0.982,-0.982 0,-0.542 0.44,-0.982 0.982,-0.982 0.542,0 0.982,0.44 0.982,0.982 z" />
      <path
         style="stroke:#ffffff;stroke-width:2.29498482;stroke-opacity:0.19838059"
         inkscape:connector-curvature="0"
         id="path6911"
         transform="matrix(1.3071982,0,0,1.3071982,-177.3489,-22.10399)"
         d="m 223,64.7 c 0,0.542 -0.44,0.982 -0.982,0.982 -0.542,0 -0.982,-0.44 -0.982,-0.982 0,-0.542 0.44,-0.982 0.982,-0.982 0.542,0 0.982,0.44 0.982,0.982 z" />
      <path
         style="stroke:#ffffff;stroke-width:2.29498482;stroke-opacity:0.19838059"
         inkscape:connector-curvature="0"
         id="path6913"
         transform="matrix(1.3071982,0,0,1.3071982,-134.25711,-9.065061)"
         d="m 223,64.7 c 0,0.542 -0.44,0.982 -0.982,0.982 -0.542,0 -0.982,-0.44 -0.982,-0.982 0,-0.542 0.44,-0.982 0.982,-0.982 0.542,0 0.982,0.44 0.982,0.982 z" />
      <path
         style="stroke:#ffffff;stroke-width:2.29498482;stroke-opacity:0.19838059"
         inkscape:connector-curvature="0"
         id="path6915"
         transform="matrix(1.3071982,0,0,1.3071982,-152.84573,-3.067046)"
         d="m 223,64.7 c 0,0.542 -0.44,0.982 -0.982,0.982 -0.542,0 -0.982,-0.44 -0.982,-0.982 0,-0.542 0.44,-0.982 0.982,-0.982 0.542,0 0.982,0.44 0.982,0.982 z" />
      <path
         style="stroke:#ffffff;stroke-width:2.29498482;stroke-opacity:0.19838059"
         inkscape:connector-curvature="0"
         id="path6917"
         transform="matrix(1.3071982,0,0,1.3071982,-155.0223,-12.895167)"
         d="m 223,64.7 c 0,0.542 -0.44,0.982 -0.982,0.982 -0.542,0 -0.982,-0.44 -0.982,-0.982 0,-0.542 0.44,-0.982 0.982,-0.982 0.542,0 0.982,0.44 0.982,0.982 z" />
      <path
         style="stroke:#ffffff;stroke-width:2.29498482;stroke-opacity:0.19838059"
         inkscape:connector-curvature="0"
         id="path6919"
         transform="matrix(1.3071982,0,0,1.3071982,-205.97961,81.309709)"
         d="m 223,64.7 c 0,0.542 -0.44,0.982 -0.982,0.982 -0.542,0 -0.982,-0.44 -0.982,-0.982 0,-0.542 0.44,-0.982 0.982,-0.982 0.542,0 0.982,0.44 0.982,0.982 z" />
      <path
         style="stroke:#ffffff;stroke-width:2.29498482;stroke-opacity:0.19838059"
         inkscape:connector-curvature="0"
         id="path6921"
         transform="matrix(1.3071982,0,0,1.3071982,-156.3211,-15.970467)"
         d="m 223,64.7 c 0,0.542 -0.44,0.982 -0.982,0.982 -0.542,0 -0.982,-0.44 -0.982,-0.982 0,-0.542 0.44,-0.982 0.982,-0.982 0.542,0 0.982,0.44 0.982,0.982 z" />
      <path
         style="stroke:#ffffff;stroke-width:2.29498482;stroke-opacity:0.19838059"
         inkscape:connector-curvature="0"
         id="path6923"
         transform="matrix(1.3071982,0,0,1.3071982,-178.07778,59.094025)"
         d="m 223,64.7 c 0,0.542 -0.44,0.982 -0.982,0.982 -0.542,0 -0.982,-0.44 -0.982,-0.982 0,-0.542 0.44,-0.982 0.982,-0.982 0.542,0 0.982,0.44 0.982,0.982 z" />
      <path
         style="stroke:#ffffff;stroke-width:2.29498482;stroke-opacity:0.19838059"
         inkscape:connector-curvature="0"
         id="path6925"
         transform="matrix(1.3071982,0,0,1.3071982,-175.91258,71.782749)"
         d="m 223,64.7 c 0,0.542 -0.44,0.982 -0.982,0.982 -0.542,0 -0.982,-0.44 -0.982,-0.982 0,-0.542 0.44,-0.982 0.982,-0.982 0.542,0 0.982,0.44 0.982,0.982 z" />
      <path
         style="stroke:#ffec00;stroke-width:1.82981026;stroke-opacity:0.36842107"
         inkscape:connector-curvature="0"
         id="path6927"
         transform="matrix(1.0930095,0,0,1.0930095,-114.39876,20.596156)"
         d="m 218,50.9 c 0,0.345 -0.28,0.625 -0.625,0.625 -0.345,0 -0.625,-0.28 -0.625,-0.625 0,-0.345 0.28,-0.625 0.625,-0.625 0.345,0 0.625,0.28 0.625,0.625 z" />
      <path
         style="stroke:#ffec00;stroke-width:1.82981026;stroke-opacity:0.36842107"
         inkscape:connector-curvature="0"
         id="path6929"
         transform="matrix(1.0930095,0,0,1.0930095,-122.56326,32.884601)"
         d="m 218,50.9 c 0,0.345 -0.28,0.625 -0.625,0.625 -0.345,0 -0.625,-0.28 -0.625,-0.625 0,-0.345 0.28,-0.625 0.625,-0.625 0.345,0 0.625,0.28 0.625,0.625 z" />
      <path
         style="stroke:#ffec00;stroke-width:1.82981026;stroke-opacity:0.36842107"
         inkscape:connector-curvature="0"
         id="path6931"
         transform="matrix(1.0930095,0,0,1.0930095,-105.85518,19.417876)"
         d="m 218,50.9 c 0,0.345 -0.28,0.625 -0.625,0.625 -0.345,0 -0.625,-0.28 -0.625,-0.625 0,-0.345 0.28,-0.625 0.625,-0.625 0.345,0 0.625,0.28 0.625,0.625 z" />
      <path
         style="stroke:#ffec00;stroke-width:1.82981026;stroke-opacity:0.36842107"
         inkscape:connector-curvature="0"
         id="path6933"
         transform="matrix(1.0930095,0,0,1.0930095,-82.32305,95.173887)"
         d="m 218,50.9 c 0,0.345 -0.28,0.625 -0.625,0.625 -0.345,0 -0.625,-0.28 -0.625,-0.625 0,-0.345 0.28,-0.625 0.625,-0.625 0.345,0 0.625,0.28 0.625,0.625 z" />
      <path
         style="stroke:#ffec00;stroke-width:1.82981026;stroke-opacity:0.36842107"
         inkscape:connector-curvature="0"
         id="path6935"
         transform="matrix(1.0930095,0,0,1.0930095,-99.58736,72.78724)"
         d="m 218,50.9 c 0,0.345 -0.28,0.625 -0.625,0.625 -0.345,0 -0.625,-0.28 -0.625,-0.625 0,-0.345 0.28,-0.625 0.625,-0.625 0.345,0 0.625,0.28 0.625,0.625 z" />
      <path
         style="stroke:#ffec00;stroke-width:1.82981026;stroke-opacity:0.36842107"
         inkscape:connector-curvature="0"
         id="path6937"
         transform="matrix(1.0930095,0,0,1.0930095,-107.81079,69.072602)"
         d="m 218,50.9 c 0,0.345 -0.28,0.625 -0.625,0.625 -0.345,0 -0.625,-0.28 -0.625,-0.625 0,-0.345 0.28,-0.625 0.625,-0.625 0.345,0 0.625,0.28 0.625,0.625 z" />
      <path
         style="stroke:#ffec00;stroke-width:1.82981026;stroke-opacity:0.36842107"
         inkscape:connector-curvature="0"
         id="path6939"
         transform="matrix(1.0930095,0,0,1.0930095,-89.51902,74.961658)"
         d="m 218,50.9 c 0,0.345 -0.28,0.625 -0.625,0.625 -0.345,0 -0.625,-0.28 -0.625,-0.625 0,-0.345 0.28,-0.625 0.625,-0.625 0.345,0 0.625,0.28 0.625,0.625 z" />
      <path
         style="stroke:#ffec00;stroke-width:1.82981026;stroke-opacity:0.36842107"
         inkscape:connector-curvature="0"
         id="path6941"
         transform="matrix(1.0930095,0,0,1.0930095,-102.49111,73.890166)"
         d="m 218,50.9 c 0,0.345 -0.28,0.625 -0.625,0.625 -0.345,0 -0.625,-0.28 -0.625,-0.625 0,-0.345 0.28,-0.625 0.625,-0.625 0.345,0 0.625,0.28 0.625,0.625 z" />
      <path
         style="stroke:#ffec00;stroke-width:1.82981026;stroke-opacity:0.36842107"
         inkscape:connector-curvature="0"
         id="path6943"
         transform="matrix(1.0930095,0,0,1.0930095,-124.20204,76.290851)"
         d="m 218,50.9 c 0,0.345 -0.28,0.625 -0.625,0.625 -0.345,0 -0.625,-0.28 -0.625,-0.625 0,-0.345 0.28,-0.625 0.625,-0.625 0.345,0 0.625,0.28 0.625,0.625 z" />
      <path
         style="stroke:#ffec00;stroke-width:1.82981026;stroke-opacity:0.36842107"
         inkscape:connector-curvature="0"
         id="path6945"
         transform="matrix(1.0930095,0,0,1.0930095,-120.12938,78.629277)"
         d="m 218,50.9 c 0,0.345 -0.28,0.625 -0.625,0.625 -0.345,0 -0.625,-0.28 -0.625,-0.625 0,-0.345 0.28,-0.625 0.625,-0.625 0.345,0 0.625,0.28 0.625,0.625 z" />
      <path
         style="stroke:#ffec00;stroke-width:1.82981026;stroke-opacity:0.36842107"
         inkscape:connector-curvature="0"
         id="path6947"
         transform="matrix(1.0930095,0,0,1.0930095,-124.54447,92.625617)"
         d="m 218,50.9 c 0,0.345 -0.28,0.625 -0.625,0.625 -0.345,0 -0.625,-0.28 -0.625,-0.625 0,-0.345 0.28,-0.625 0.625,-0.625 0.345,0 0.625,0.28 0.625,0.625 z" />
      <path
         style="stroke:#ffec00;stroke-width:1.82981026;stroke-opacity:0.36842107"
         inkscape:connector-curvature="0"
         id="path6949"
         transform="matrix(1.0930095,0,0,1.0930095,-84.15262,88.765107)"
         d="m 218,50.9 c 0,0.345 -0.28,0.625 -0.625,0.625 -0.345,0 -0.625,-0.28 -0.625,-0.625 0,-0.345 0.28,-0.625 0.625,-0.625 0.345,0 0.625,0.28 0.625,0.625 z" />
      <path
         style="stroke:#ffec00;stroke-width:1.82981026;stroke-opacity:0.36842107"
         inkscape:connector-curvature="0"
         id="path6951"
         transform="matrix(1.0930095,0,0,1.0930095,-163.86945,93.98534)"
         d="m 218,50.9 c 0,0.345 -0.28,0.625 -0.625,0.625 -0.345,0 -0.625,-0.28 -0.625,-0.625 0,-0.345 0.28,-0.625 0.625,-0.625 0.345,0 0.625,0.28 0.625,0.625 z" />
      <path
         style="stroke:#ffec00;stroke-width:1.82981026;stroke-opacity:0.36842107"
         inkscape:connector-curvature="0"
         id="path6953"
         transform="matrix(1.0930095,0,0,1.0930095,-148.11735,115.88353)"
         d="m 218,50.9 c 0,0.345 -0.28,0.625 -0.625,0.625 -0.345,0 -0.625,-0.28 -0.625,-0.625 0,-0.345 0.28,-0.625 0.625,-0.625 0.345,0 0.625,0.28 0.625,0.625 z" />
      <path
         style="stroke:#ffec00;stroke-width:1.82981026;stroke-opacity:0.36842107"
         inkscape:connector-curvature="0"
         id="path6955"
         transform="matrix(1.0930095,0,0,1.0930095,-130.33358,106.21256)"
         d="m 218,50.9 c 0,0.345 -0.28,0.625 -0.625,0.625 -0.345,0 -0.625,-0.28 -0.625,-0.625 0,-0.345 0.28,-0.625 0.625,-0.625 0.345,0 0.625,0.28 0.625,0.625 z" />
      <path
         style="stroke:#ffec00;stroke-width:1.82981026;stroke-opacity:0.36842107"
         inkscape:connector-curvature="0"
         id="path6957"
         transform="matrix(1.0930095,0,0,1.0930095,-148.68282,111.72419)"
         d="m 218,50.9 c 0,0.345 -0.28,0.625 -0.625,0.625 -0.345,0 -0.625,-0.28 -0.625,-0.625 0,-0.345 0.28,-0.625 0.625,-0.625 0.345,0 0.625,0.28 0.625,0.625 z" />
      <path
         style="stroke:#ffec00;stroke-width:1.82981026;stroke-opacity:0.36842107"
         inkscape:connector-curvature="0"
         id="path6959"
         transform="matrix(1.0930095,0,0,1.0930095,-140.91099,3.769859)"
         d="m 218,50.9 c 0,0.345 -0.28,0.625 -0.625,0.625 -0.345,0 -0.625,-0.28 -0.625,-0.625 0,-0.345 0.28,-0.625 0.625,-0.625 0.345,0 0.625,0.28 0.625,0.625 z" />
      <path
         style="stroke:#ffec00;stroke-width:1.82981026;stroke-opacity:0.36842107"
         inkscape:connector-curvature="0"
         id="path6961"
         transform="matrix(1.0930095,0,0,1.0930095,-127.08029,6.70765)"
         d="m 218,50.9 c 0,0.345 -0.28,0.625 -0.625,0.625 -0.345,0 -0.625,-0.28 -0.625,-0.625 0,-0.345 0.28,-0.625 0.625,-0.625 0.345,0 0.625,0.28 0.625,0.625 z" />
      <path
         style="stroke:#ffec00;stroke-width:1.82981026;stroke-opacity:0.36842107"
         inkscape:connector-curvature="0"
         id="path6963"
         transform="matrix(1.0930095,0,0,1.0930095,-129.11483,5.613343)"
         d="m 218,50.9 c 0,0.345 -0.28,0.625 -0.625,0.625 -0.345,0 -0.625,-0.28 -0.625,-0.625 0,-0.345 0.28,-0.625 0.625,-0.625 0.345,0 0.625,0.28 0.625,0.625 z" />
    </g>
    <g
       id="g6965"
       transform="matrix(0.80316891,0,0,0.80316891,266.67709,-113.46414)">
      <path
         style="fill:#ebe9cf"
         inkscape:connector-curvature="0"
         id="path6967"
         d="m -335,228 c -0.0429,39.5 31.6,70.1 69.7,70 -26.3,0 -58.7,-27.7 -58.7,-69.1 0.0189,-42.4 32.6,-70.3 58.7,-70.3 -37.3,0.133 -69.7,30.2 -69.7,69.4 z" />
      <g
         style="fill:#a0a091"
         id="g6969">
        <path
           style="fill-rule:evenodd"
           inkscape:connector-curvature="0"
           id="path6971"
           transform="matrix(0.32790531,-0.10651501,0.09712413,0.35961033,-363.35782,162.50846)"
           clip-path="none"
           d="m 35.7,230 c 0,5.42 -1.68,9.82 -3.75,9.82 -2.07,0 -3.75,-4.4 -3.75,-9.82 0,-5.42 1.68,-9.82 3.75,-9.82 2.07,0 3.75,4.4 3.75,9.82 z" />
        <path
           inkscape:connector-curvature="0"
           id="path6973"
           transform="matrix(0.39707321,0,0,0.39616491,-342.64819,150.41476)"
           mask="none"
           clip-path="none"
           d="M 58.3,262 C 41.6,210 41.8,132 91.9,76 111,53.8 99.8,62.5 99.8,62.5 106,55.3 111,44.8 93.3,59.4 80.1,70.3 85,70.2 80.5,71 c -4.6,0.7 -5.6,3.4 -9.1,7 -3.54,3.54 -1.38,3.47 -2.39,6.25 -1.01,2.78 -4.13,8.01 -5.9,9.27 -0.696,-8.2 -9.24,5.73 -10.2,9.02 -1.01,3.28 -10.2,8.02 -13.5,13.3 -4.25,6.88 -5.12,14.1 -4.36,16.1 0.758,2.02 -0.709,5.96 -1.47,7.22 -0.758,1.26 -0.691,4.66 -3.97,11.7 -3.28,7.07 -5.27,27.5 -2.75,28.7 2.53,1.26 2.49,0.191 5.96,1.32 3.26,1.07 -4.22,8.34 -1.44,12.6 2.78,4.29 4.32,7.88 3.74,12.1 -0.968,7.05 -0.975,12.2 0.941,17.8 3.11,9.02 6.42,4.63 8.06,12.2 9.35,43.4 14.3,26.6 14.3,26.6 z" />
      </g>
      <path
         style="display:none;fill:#e1e1c8;fill-opacity:0.23744291"
         inkscape:connector-curvature="0"
         id="path6975"
         display="none"
         d="m -335,228 c -0.0429,39.5 31.6,70.1 69.7,70 -26.3,0 -58.7,-27.7 -58.7,-69.1 0.0189,-42.4 32.6,-70.3 58.7,-70.3 -37.3,0.133 -69.7,30.2 -69.7,69.4 z" />
      <g
         style="fill:#ebe9cf;stroke:#e1e1c8;stroke-width:0.29436806;stroke-miterlimit:4;stroke-dasharray:none"
         id="g6977"
         stroke-miterlimit="4"
         transform="matrix(0.39707321,0,0,0.39616491,-343.80872,-21.806507)">
        <g
           style="fill:#ebe9cf;stroke:#e1e1c8;stroke-width:0.29436806;stroke-miterlimit:4;stroke-dasharray:none"
           id="g6979"
           stroke-miterlimit="4">
          <path
             inkscape:connector-curvature="0"
             id="path6981"
             d="m 248,624 c 0,19.5 -16.1,35.7 -35.7,35.7 -19.9,0 -35.8,-16.1 -35.8,-36.2 0,-19.2 16.4,-35.4 35.8,-35.4 19.6,0 35.7,16.1 35.7,35.8 z m -65.4,-0.296 c 0,16.5 13.3,29.8 29.6,29.8 16.1,0 29.5,-13.4 29.5,-29.4 0,-16.3 -13.4,-29.7 -29.5,-29.7 -16,0 -29.6,13.4 -29.6,29.3 z m 159,0.296 c 0,19.5 -16.1,35.7 -35.7,35.7 -19.9,0 -35.8,-16.1 -35.8,-36.2 0,-19.2 16.4,-35.4 35.8,-35.4 19.6,0 35.7,16.1 35.7,35.8 z m -65.4,-0.296 c 0,16.5 13.3,29.8 29.6,29.8 16.1,0 29.5,-13.4 29.5,-29.4 0,-16.3 -13.4,-29.7 -29.5,-29.7 -16,0 -29.6,13.4 -29.6,29.3 z m 90.3,-34 8.61,0 38.1,56.8 0,-56.8 6.23,0 0,68.5 -6.23,0 -40.5,-60.2 0,60.2 -6.23,0 z m 77.9,-0.327 6.4,0 16.4,56.4 15.5,-56.3 6.55,0 15.2,57.2 16.8,-57.1 6.2,0 -19.4,68.5 -6.84,-0.105 -15.3,-56.2 -15.1,56.2 -7.02,-0.074 z m 120,0.327 7.73,0 29.7,68.5 -7.55,0 -10,-23.3 -32.1,0 -10.1,23.3 -7.28,0 z m 17.2,38.9 -13.3,-31.2 -13.5,31.2 z m 85.1,29.6 -7.91,0 -23.1,-31 c 7.61,0 12.1,-0.358 15.3,-1.18 6.88,-1.88 10.4,-6.66 10.4,-14.4 0,-6.21 -2.6,-10.8 -7.25,-13.1 -3.72,-1.77 -8.53,-2.49 -15.8,-2.49 l -9.65,0 0,62.2 -6.23,0 0,-68.5 16.3,0 c 8.78,0 14.6,1.03 18.8,3.33 6.51,3.63 10,10.1 10,18.8 0,12.1 -6.82,19.5 -19.5,20.8 z m 24.3,-68.5 15.7,0 c 12.5,0 19.7,1.48 26.2,5.37 10.2,6.04 15.6,16.2 15.6,29.1 0,12.8 -5.48,22.8 -15.9,28.9 -6.05,3.52 -13.3,5.1 -23.6,5.1 l -18.1,0 z m 16,62.2 c 12.5,0 19.7,-1.74 25.3,-6.1 6.44,-5.07 10.1,-13 10.1,-21.9 0,-10.2 -4.64,-18.8 -12.7,-23.5 -5.29,-3.17 -12,-4.45 -22.6,-4.45 l -9.77,0 0,56 z m 70,-12.6 c 0.586,4.28 1.7,6.61 4.22,9.04 3.25,3.16 8.69,5.14 14.4,5.14 10.3,0 17.9,-5.76 17.9,-13.7 0,-4.2 -2.14,-7.73 -6.1,-9.87 -2.87,-1.6 -6.69,-2.89 -13.6,-4.58 -10.2,-2.43 -13,-3.45 -16.5,-6.07 -3.96,-2.89 -6.22,-7.45 -6.22,-12.2 0,-10.9 10.1,-18.9 24,-18.9 14.4,0 24.2,7.61 24.6,19 l -8.63,0 c -0.606,-7.75 -7.01,-12.8 -16.2,-12.8 -9.07,0 -15.7,5.35 -15.7,12.5 0,3.16 1.68,6.24 4.2,8.01 2.36,1.59 5.01,2.41 13,4.28 9.09,2.15 12.8,3.45 16.4,5.49 5.64,3.27 8.85,8.68 8.85,14.7 0,11.7 -11.2,20.3 -26.2,20.3 -15.7,0 -26.4,-8.08 -27.2,-20.4 z" />
          <path
             inkscape:connector-curvature="0"
             id="path6983"
             d="m 77.1,659 6.58,0 16.4,-56.4 15.5,56.3 6.55,0 15.2,-57.2 16.8,57.1 6.38,0 -19.5,-68.5 -6.93,0.105 -15.3,56.2 -15.1,-56.2 -7.11,0.074 z" />
        </g>
      </g>
    </g>
  </g>
  <text
     xml:space="preserve"
     style="font-style:normal;font-weight:normal;font-size:45px;line-height:125%;font-family:monospace;text-align:end;letter-spacing:0px;word-spacing:0px;writing-mode:lr-tb;text-anchor:end;fill:#7e8c00;fill-opacity:1;stroke:none;stroke-width:1px;stroke-linecap:butt;stroke-linejoin:miter;stroke-opacity:1;-inkscape-font-specification:monospace;font-stretch:normal;font-variant:normal;"
     x="279.38605"
     y="135.04369"
     id="text7150"
     sodipodi:linespacing="125%"><tspan
       sodipodi:role="line"
       id="tspan7152"
       x="279.38605"
       y="135.04369" /></text>
  <text
     xml:space="preserve"
     style="font-style:normal;font-variant:normal;font-weight:normal;font-stretch:normal;font-size:17.5px;line-height:125%;font-family:monospace;-inkscape-font-specification:monospace;text-align:end;letter-spacing:-0.40000001px;word-spacing:0px;writing-mode:lr-tb;text-anchor:end;fill:#a0a091;fill-opacity:1;stroke:none;stroke-width:1px;stroke-linecap:butt;stroke-linejoin:miter;stroke-opacity:1;"
     x="712.28625"
     y="131.53383"
     id="text7158"
     sodipodi:linespacing="125%"><tspan
       sodipodi:role="line"
       id="tspan7160"
       x="711.88623"
       y="131.53383"
       style="font-style:normal;font-variant:normal;font-weight:normal;font-stretch:normal;font-size:17.5px;font-family:monospace;-inkscape-font-specification:monospace;letter-spacing:-0.40000001px;fill:#a0a091;fill-opacity:1;">What would it really be like to live on the Moon?</tspan></text>
</svg>
