<?xml version="1.0" encoding="UTF-8"?>
<svg xmlns="http://www.w3.org/2000/svg" xmlns:xlink="http://www.w3.org/1999/xlink" version="1.1" width="100%" height="100%" viewBox="0 0 550 100">
	<rect x="0" y="0" width="100%" height="100%" fill="black"/>
	<g stroke="white" stroke-width="5" fill="none" stroke-linecap="round" stroke-linejoin="round">
		<path d="m20 75l0 0l0 0l0 0l0 0">
			<animate attributeName="d" attributeType="XML" begin="1.2s" dur="1s" fill="freeze"
				values="
					m20 75l0 0l0 0l0 0l0 0;
					m20 75l0 -50l0 0l0 0l0 0;
					m20 75l0 -50l25 25l0 0l0 0;
					m20 75l0 -50l25 25l25 -25l0 0;
					m20 75l0 -50l25 25l25 -25l0 50;"
			/>
		</path>
		<circle cx="110" cy="50" r="0">
			<animate attributeName="r" attributeType="XML" begin="2s" dur="1s" fill="freeze" from="0" to="25"/>
		</circle>
		<circle cx="170" cy="50" r="25" stroke="black">
			<animate attributeName="stroke" attributeType="XML" begin="2.5s" dur="1s" fill="freeze" from="black" to="white"/>
		</circle>
		<path d="m210 -10l0 -50l50 50l0 -50">
			<animateTransform
				attributeName="transform"
				attributeType="XML"
				type="translate"
				from="0 0"
				to="0 85"
				begin="3s"
				dur="0.5s"
				fill="freeze"
				repeatCount="1"/>
		</path>
		<defs>
			<path id="curve1" d="m0 65l50 0a40 40 0 0 1 30 10a40 40 0 0 0 30 10l90 0c10 0 30 -10 40 -10c10 0 30 10 40 10l250 0"/>
		</defs>
		<text x="-200" y="-10" font-size="70" stroke="none" fill="rgb(255,200,0)" font-family="sans-serif">
			<textPath xlink:href="#curve1" startOffset ="0">
				<animate attributeName="startOffset" dur="3s" from="0" to="480" fill="freeze" repeatCount="1" />
				WARDS
			</textPath>
		</text>
	</g>
</svg>
