<?xml version="1.0" encoding="UTF-8" standalone="no"?>
<!-- Created with Inkscape (http://www.inkscape.org/) -->
<svg xmlns:rdf="http://www.w3.org/1999/02/22-rdf-syntax-ns#" xmlns="http://www.w3.org/2000/svg" height="1200" width="1200" version="1.1" xmlns:cc="http://creativecommons.org/ns#" xmlns:dc="http://purl.org/dc/elements/1.1/" viewBox="0 0 1200 1200">
<rect ry=".1253" height="1240" width="1270" y="-14" x="-20"/>
<g transform="matrix(2.649 5.952 -5.952 2.649 686.6 110.5)">
<g fill="#ffff4f" transform="translate(-36.14 -39.9)">
<path d="m29 54.4c0 .837-.678 1.52-1.52 1.52-.837 0-1.52-.678-1.52-1.52 0-.837.678-1.52 1.52-1.52.837 0 1.52.678 1.52 1.52z" transform="matrix(.4950 0 0 .4950 108.1 49.97)"/>
<path d="m29 54.4c0 .837-.678 1.52-1.52 1.52-.837 0-1.52-.678-1.52-1.52 0-.837.678-1.52 1.52-1.52.837 0 1.52.678 1.52 1.52z" transform="matrix(.4950 0 0 .4950 113.3 53.74)"/>
<path d="m29 54.4c0 .837-.678 1.52-1.52 1.52-.837 0-1.52-.678-1.52-1.52 0-.837.678-1.52 1.52-1.52.837 0 1.52.678 1.52 1.52z" transform="matrix(.4950 0 0 .4950 109.7 50.88)"/>
<path d="m29 54.4c0 .837-.678 1.52-1.52 1.52-.837 0-1.52-.678-1.52-1.52 0-.837.678-1.52 1.52-1.52.837 0 1.52.678 1.52 1.52z" transform="matrix(.4950 0 0 .4950 119 53.3)"/>
<path d="m29 54.4c0 .837-.678 1.52-1.52 1.52-.837 0-1.52-.678-1.52-1.52 0-.837.678-1.52 1.52-1.52.837 0 1.52.678 1.52 1.52z" transform="matrix(.4950 0 0 .4950 63.97 46.06)"/>
<path d="m29 54.4c0 .837-.678 1.52-1.52 1.52-.837 0-1.52-.678-1.52-1.52 0-.837.678-1.52 1.52-1.52.837 0 1.52.678 1.52 1.52z" transform="matrix(.4950 0 0 .4950 107.5 103.4)"/>
<path d="m29 54.4c0 .837-.678 1.52-1.52 1.52-.837 0-1.52-.678-1.52-1.52 0-.837.678-1.52 1.52-1.52.837 0 1.52.678 1.52 1.52z" transform="matrix(.4950 0 0 .4950 101 118.8)"/>
<path d="m29 54.4c0 .837-.678 1.52-1.52 1.52-.837 0-1.52-.678-1.52-1.52 0-.837.678-1.52 1.52-1.52.837 0 1.52.678 1.52 1.52z" transform="matrix(.4950 0 0 .4950 112 136.7)"/>
<path d="m29 54.4c0 .837-.678 1.52-1.52 1.52-.837 0-1.52-.678-1.52-1.52 0-.837.678-1.52 1.52-1.52.837 0 1.52.678 1.52 1.52z" transform="matrix(.4950 0 0 .4950 59.13 133.5)"/>
<path d="m29 54.4c0 .837-.678 1.52-1.52 1.52-.837 0-1.52-.678-1.52-1.52 0-.837.678-1.52 1.52-1.52.837 0 1.52.678 1.52 1.52z" transform="matrix(.4950 0 0 .4950 61.48 126.1)"/>
<path d="m29 54.4c0 .837-.678 1.52-1.52 1.52-.837 0-1.52-.678-1.52-1.52 0-.837.678-1.52 1.52-1.52.837 0 1.52.678 1.52 1.52z" transform="matrix(.4950 0 0 .4950 94.95 140.6)"/>
<path d="m29 54.4c0 .837-.678 1.52-1.52 1.52-.837 0-1.52-.678-1.52-1.52 0-.837.678-1.52 1.52-1.52.837 0 1.52.678 1.52 1.52z" transform="matrix(.4950 0 0 .4950 79.74 85.11)"/>
<path d="m29 54.4c0 .837-.678 1.52-1.52 1.52-.837 0-1.52-.678-1.52-1.52 0-.837.678-1.52 1.52-1.52.837 0 1.52.678 1.52 1.52z" transform="matrix(.4950 0 0 .4950 65.44 138.1)"/>
<path d="m29 54.4c0 .837-.678 1.52-1.52 1.52-.837 0-1.52-.678-1.52-1.52 0-.837.678-1.52 1.52-1.52.837 0 1.52.678 1.52 1.52z" transform="matrix(.4950 0 0 .4950 72.58 132.9)"/>
<path d="m29 54.4c0 .837-.678 1.52-1.52 1.52-.837 0-1.52-.678-1.52-1.52 0-.837.678-1.52 1.52-1.52.837 0 1.52.678 1.52 1.52z" transform="matrix(.4950 0 0 .4950 81.38 83.91)"/>
<path d="m29 54.4c0 .837-.678 1.52-1.52 1.52-.837 0-1.52-.678-1.52-1.52 0-.837.678-1.52 1.52-1.52.837 0 1.52.678 1.52 1.52z" transform="matrix(.4950 0 0 .4950 149 101)"/>
<path d="m29 54.4c0 .837-.678 1.52-1.52 1.52-.837 0-1.52-.678-1.52-1.52 0-.837.678-1.52 1.52-1.52.837 0 1.52.678 1.52 1.52z" transform="matrix(.4950 0 0 .4950 140.3 114.7)"/>
<path d="m29 54.4c0 .837-.678 1.52-1.52 1.52-.837 0-1.52-.678-1.52-1.52 0-.837.678-1.52 1.52-1.52.837 0 1.52.678 1.52 1.52z" transform="matrix(.4950 0 0 .4950 131.3 107.8)"/>
<path d="m29 54.4c0 .837-.678 1.52-1.52 1.52-.837 0-1.52-.678-1.52-1.52 0-.837.678-1.52 1.52-1.52.837 0 1.52.678 1.52 1.52z" transform="matrix(.4950 0 0 .4950 116.7 100.2)"/>
<path d="m29 54.4c0 .837-.678 1.52-1.52 1.52-.837 0-1.52-.678-1.52-1.52 0-.837.678-1.52 1.52-1.52.837 0 1.52.678 1.52 1.52z" transform="matrix(.4950 0 0 .4950 129.2 112.1)"/>
<path d="m29 54.4c0 .837-.678 1.52-1.52 1.52-.837 0-1.52-.678-1.52-1.52 0-.837.678-1.52 1.52-1.52.837 0 1.52.678 1.52 1.52z" transform="matrix(.4950 0 0 .4950 137.3 103.4)"/>
<path d="m29 54.4c0 .837-.678 1.52-1.52 1.52-.837 0-1.52-.678-1.52-1.52 0-.837.678-1.52 1.52-1.52.837 0 1.52.678 1.52 1.52z" transform="matrix(.4950 0 0 .4950 151.2 98.75)"/>
<path d="m29 54.4c0 .837-.678 1.52-1.52 1.52-.837 0-1.52-.678-1.52-1.52 0-.837.678-1.52 1.52-1.52.837 0 1.52.678 1.52 1.52z" transform="matrix(.4950 0 0 .4950 145.8 69.1)"/>
<path d="m29 54.4c0 .837-.678 1.52-1.52 1.52-.837 0-1.52-.678-1.52-1.52 0-.837.678-1.52 1.52-1.52.837 0 1.52.678 1.52 1.52z" transform="matrix(.4950 0 0 .4950 144.9 65.87)"/>
<path d="m29 54.4c0 .837-.678 1.52-1.52 1.52-.837 0-1.52-.678-1.52-1.52 0-.837.678-1.52 1.52-1.52.837 0 1.52.678 1.52 1.52z" transform="matrix(.4950 0 0 .4950 146.2 58.69)"/>
<path d="m29 54.4c0 .837-.678 1.52-1.52 1.52-.837 0-1.52-.678-1.52-1.52 0-.837.678-1.52 1.52-1.52.837 0 1.52.678 1.52 1.52z" transform="matrix(.4950 0 0 .4950 153.5 60.15)"/>
<path d="m29 54.4c0 .837-.678 1.52-1.52 1.52-.837 0-1.52-.678-1.52-1.52 0-.837.678-1.52 1.52-1.52.837 0 1.52.678 1.52 1.52z" transform="matrix(.4950 0 0 .4950 147.4 65.77)"/>
<path d="m29 54.4c0 .837-.678 1.52-1.52 1.52-.837 0-1.52-.678-1.52-1.52 0-.837.678-1.52 1.52-1.52.837 0 1.52.678 1.52 1.52z" transform="matrix(.4950 0 0 .4950 73.8 35.87)"/>
<path d="m29 54.4c0 .837-.678 1.52-1.52 1.52-.837 0-1.52-.678-1.52-1.52 0-.837.678-1.52 1.52-1.52.837 0 1.52.678 1.52 1.52z" transform="matrix(.4950 0 0 .4950 74.5 30.18)"/>
<path d="m29 54.4c0 .837-.678 1.52-1.52 1.52-.837 0-1.52-.678-1.52-1.52 0-.837.678-1.52 1.52-1.52.837 0 1.52.678 1.52 1.52z" transform="matrix(.4950 0 0 .4950 69.79 34.61)"/>
<path d="m29 54.4c0 .837-.678 1.52-1.52 1.52-.837 0-1.52-.678-1.52-1.52 0-.837.678-1.52 1.52-1.52.837 0 1.52.678 1.52 1.52z" transform="matrix(.4950 0 0 .4950 59.25 41.76)"/>
<path d="m29 54.4c0 .837-.678 1.52-1.52 1.52-.837 0-1.52-.678-1.52-1.52 0-.837.678-1.52 1.52-1.52.837 0 1.52.678 1.52 1.52z" transform="matrix(.4950 0 0 .4950 65.19 46.42)"/>
<path d="m29 54.4c0 .837-.678 1.52-1.52 1.52-.837 0-1.52-.678-1.52-1.52 0-.837.678-1.52 1.52-1.52.837 0 1.52.678 1.52 1.52z" transform="matrix(.4950 0 0 .4950 56.56 44.28)"/>
<path d="m29 54.4c0 .837-.678 1.52-1.52 1.52-.837 0-1.52-.678-1.52-1.52 0-.837.678-1.52 1.52-1.52.837 0 1.52.678 1.52 1.52z" transform="matrix(.4950 0 0 .4950 118.2 97.15)"/>
<path d="m29 54.4c0 .837-.678 1.52-1.52 1.52-.837 0-1.52-.678-1.52-1.52 0-.837.678-1.52 1.52-1.52.837 0 1.52.678 1.52 1.52z" transform="matrix(.4950 0 0 .4950 121.3 101.1)"/>
<path d="m29 54.4c0 .837-.678 1.52-1.52 1.52-.837 0-1.52-.678-1.52-1.52 0-.837.678-1.52 1.52-1.52.837 0 1.52.678 1.52 1.52z" transform="matrix(.4950 0 0 .4950 108.2 87.69)"/>
<path d="m29 54.4c0 .837-.678 1.52-1.52 1.52-.837 0-1.52-.678-1.52-1.52 0-.837.678-1.52 1.52-1.52.837 0 1.52.678 1.52 1.52z" transform="matrix(.4950 0 0 .4950 109.2 88.58)"/>
<path d="m29 54.4c0 .837-.678 1.52-1.52 1.52-.837 0-1.52-.678-1.52-1.52 0-.837.678-1.52 1.52-1.52.837 0 1.52.678 1.52 1.52z" transform="matrix(.4950 0 0 .4950 109.8 69.71)"/>
<path d="m29 54.4c0 .837-.678 1.52-1.52 1.52-.837 0-1.52-.678-1.52-1.52 0-.837.678-1.52 1.52-1.52.837 0 1.52.678 1.52 1.52z" transform="matrix(.4950 0 0 .4950 121.3 55.88)"/>
<path d="m29 54.4c0 .837-.678 1.52-1.52 1.52-.837 0-1.52-.678-1.52-1.52 0-.837.678-1.52 1.52-1.52.837 0 1.52.678 1.52 1.52z" transform="matrix(.4950 0 0 .4950 127.3 56.61)"/>
<path d="m29 54.4c0 .837-.678 1.52-1.52 1.52-.837 0-1.52-.678-1.52-1.52 0-.837.678-1.52 1.52-1.52.837 0 1.52.678 1.52 1.52z" transform="matrix(.4950 0 0 .4950 126.4 53.67)"/>
<path d="m29 54.4c0 .837-.678 1.52-1.52 1.52-.837 0-1.52-.678-1.52-1.52 0-.837.678-1.52 1.52-1.52.837 0 1.52.678 1.52 1.52z" transform="matrix(.4950 0 0 .4950 121.1 54.29)"/>
<path d="m29 54.4c0 .837-.678 1.52-1.52 1.52-.837 0-1.52-.678-1.52-1.52 0-.837.678-1.52 1.52-1.52.837 0 1.52.678 1.52 1.52z" transform="matrix(.4950 0 0 .4950 124.4 53.24)"/>
<path d="m29 54.4c0 .837-.678 1.52-1.52 1.52-.837 0-1.52-.678-1.52-1.52 0-.837.678-1.52 1.52-1.52.837 0 1.52.678 1.52 1.52z" transform="matrix(.4950 0 0 .4950 127.7 55.04)"/>
<path d="m29 54.4c0 .837-.678 1.52-1.52 1.52-.837 0-1.52-.678-1.52-1.52 0-.837.678-1.52 1.52-1.52.837 0 1.52.678 1.52 1.52z" transform="matrix(.4950 0 0 .4950 120.4 50.22)"/>
<path d="m29 54.4c0 .837-.678 1.52-1.52 1.52-.837 0-1.52-.678-1.52-1.52 0-.837.678-1.52 1.52-1.52.837 0 1.52.678 1.52 1.52z" transform="matrix(.4950 0 0 .4950 120.2 55.05)"/>
<path d="m29 54.4c0 .837-.678 1.52-1.52 1.52-.837 0-1.52-.678-1.52-1.52 0-.837.678-1.52 1.52-1.52.837 0 1.52.678 1.52 1.52z" transform="matrix(.4950 0 0 .4950 117.1 51.01)"/>
<path d="m29 54.4c0 .837-.678 1.52-1.52 1.52-.837 0-1.52-.678-1.52-1.52 0-.837.678-1.52 1.52-1.52.837 0 1.52.678 1.52 1.52z" transform="matrix(.4950 0 0 .4950 112.8 55.68)"/>
<path d="m29 54.4c0 .837-.678 1.52-1.52 1.52-.837 0-1.52-.678-1.52-1.52 0-.837.678-1.52 1.52-1.52.837 0 1.52.678 1.52 1.52z" transform="matrix(.4950 0 0 .4950 113.4 54.78)"/>
<path d="m29 54.4c0 .837-.678 1.52-1.52 1.52-.837 0-1.52-.678-1.52-1.52 0-.837.678-1.52 1.52-1.52.837 0 1.52.678 1.52 1.52z" transform="matrix(.4950 0 0 .4950 102.9 60.9)"/>
<path d="m29 54.4c0 .837-.678 1.52-1.52 1.52-.837 0-1.52-.678-1.52-1.52 0-.837.678-1.52 1.52-1.52.837 0 1.52.678 1.52 1.52z" transform="matrix(.4950 0 0 .4950 111.1 87.34)"/>
<path d="m29 54.4c0 .837-.678 1.52-1.52 1.52-.837 0-1.52-.678-1.52-1.52 0-.837.678-1.52 1.52-1.52.837 0 1.52.678 1.52 1.52z" transform="matrix(.4950 0 0 .4950 108.7 87.28)"/>
<path d="m29 54.4c0 .837-.678 1.52-1.52 1.52-.837 0-1.52-.678-1.52-1.52 0-.837.678-1.52 1.52-1.52.837 0 1.52.678 1.52 1.52z" transform="matrix(.4950 0 0 .4950 123.4 112.5)"/>
<path d="m29 54.4c0 .837-.678 1.52-1.52 1.52-.837 0-1.52-.678-1.52-1.52 0-.837.678-1.52 1.52-1.52.837 0 1.52.678 1.52 1.52z" transform="matrix(.4950 0 0 .4950 114.6 97.39)"/>
<path d="m29 54.4c0 .837-.678 1.52-1.52 1.52-.837 0-1.52-.678-1.52-1.52 0-.837.678-1.52 1.52-1.52.837 0 1.52.678 1.52 1.52z" transform="matrix(.4950 0 0 .4950 117.6 100.5)"/>
<path d="m29 54.4c0 .837-.678 1.52-1.52 1.52-.837 0-1.52-.678-1.52-1.52 0-.837.678-1.52 1.52-1.52.837 0 1.52.678 1.52 1.52z" transform="matrix(.4950 0 0 .4950 114.1 97.52)"/>
<path d="m29 54.4c0 .837-.678 1.52-1.52 1.52-.837 0-1.52-.678-1.52-1.52 0-.837.678-1.52 1.52-1.52.837 0 1.52.678 1.52 1.52z" transform="matrix(.4950 0 0 .4950 109.4 96.02)"/>
<path d="m29 54.4c0 .837-.678 1.52-1.52 1.52-.837 0-1.52-.678-1.52-1.52 0-.837.678-1.52 1.52-1.52.837 0 1.52.678 1.52 1.52z" transform="matrix(.4950 0 0 .4950 121.4 105.5)"/>
<path d="m29 54.4c0 .837-.678 1.52-1.52 1.52-.837 0-1.52-.678-1.52-1.52 0-.837.678-1.52 1.52-1.52.837 0 1.52.678 1.52 1.52z" transform="matrix(.4950 0 0 .4950 107.5 100.8)"/>
<path d="m29 54.4c0 .837-.678 1.52-1.52 1.52-.837 0-1.52-.678-1.52-1.52 0-.837.678-1.52 1.52-1.52.837 0 1.52.678 1.52 1.52z" transform="matrix(.4950 0 0 .4950 108.7 103.5)"/>
<path d="m29 54.4c0 .837-.678 1.52-1.52 1.52-.837 0-1.52-.678-1.52-1.52 0-.837.678-1.52 1.52-1.52.837 0 1.52.678 1.52 1.52z" transform="matrix(.4950 0 0 .4950 104.8 101.1)"/>
<path d="m29 54.4c0 .837-.678 1.52-1.52 1.52-.837 0-1.52-.678-1.52-1.52 0-.837.678-1.52 1.52-1.52.837 0 1.52.678 1.52 1.52z" transform="matrix(.4950 0 0 .4950 101.7 115.2)"/>
<path d="m29 54.4c0 .837-.678 1.52-1.52 1.52-.837 0-1.52-.678-1.52-1.52 0-.837.678-1.52 1.52-1.52.837 0 1.52.678 1.52 1.52z" transform="matrix(.4950 0 0 .4950 98.13 129.3)"/>
<path d="m29 54.4c0 .837-.678 1.52-1.52 1.52-.837 0-1.52-.678-1.52-1.52 0-.837.678-1.52 1.52-1.52.837 0 1.52.678 1.52 1.52z" transform="matrix(.4950 0 0 .4950 92.15 132.7)"/>
<path d="m29 54.4c0 .837-.678 1.52-1.52 1.52-.837 0-1.52-.678-1.52-1.52 0-.837.678-1.52 1.52-1.52.837 0 1.52.678 1.52 1.52z" transform="matrix(.4950 0 0 .4950 92.56 139.8)"/>
<path d="m29 54.4c0 .837-.678 1.52-1.52 1.52-.837 0-1.52-.678-1.52-1.52 0-.837.678-1.52 1.52-1.52.837 0 1.52.678 1.52 1.52z" transform="matrix(.4950 0 0 .4950 96.48 134.8)"/>
<path d="m29 54.4c0 .837-.678 1.52-1.52 1.52-.837 0-1.52-.678-1.52-1.52 0-.837.678-1.52 1.52-1.52.837 0 1.52.678 1.52 1.52z" transform="matrix(.4950 0 0 .4950 96.84 125.8)"/>
<path d="m29 54.4c0 .837-.678 1.52-1.52 1.52-.837 0-1.52-.678-1.52-1.52 0-.837.678-1.52 1.52-1.52.837 0 1.52.678 1.52 1.52z" transform="matrix(.4950 0 0 .4950 100.5 119.6)"/>
<path d="m29 54.4c0 .837-.678 1.52-1.52 1.52-.837 0-1.52-.678-1.52-1.52 0-.837.678-1.52 1.52-1.52.837 0 1.52.678 1.52 1.52z" transform="matrix(.4950 0 0 .4950 91.85 135.1)"/>
<path d="m29 54.4c0 .837-.678 1.52-1.52 1.52-.837 0-1.52-.678-1.52-1.52 0-.837.678-1.52 1.52-1.52.837 0 1.52.678 1.52 1.52z" transform="matrix(.4950 0 0 .4950 94.39 120.9)"/>
<path d="m29 54.4c0 .837-.678 1.52-1.52 1.52-.837 0-1.52-.678-1.52-1.52 0-.837.678-1.52 1.52-1.52.837 0 1.52.678 1.52 1.52z" transform="matrix(.4950 0 0 .4950 88.55 133)"/>
<path d="m29 54.4c0 .837-.678 1.52-1.52 1.52-.837 0-1.52-.678-1.52-1.52 0-.837.678-1.52 1.52-1.52.837 0 1.52.678 1.52 1.52z" transform="matrix(.4950 0 0 .4950 64.63 41.43)"/>
<path d="m29 54.4c0 .837-.678 1.52-1.52 1.52-.837 0-1.52-.678-1.52-1.52 0-.837.678-1.52 1.52-1.52.837 0 1.52.678 1.52 1.52z" transform="matrix(.4950 0 0 .4950 148 69.4)"/>
<path d="m29 54.4c0 .837-.678 1.52-1.52 1.52-.837 0-1.52-.678-1.52-1.52 0-.837.678-1.52 1.52-1.52.837 0 1.52.678 1.52 1.52z" transform="matrix(.4950 0 0 .4950 75.14 134.7)"/>
<path d="m29 54.4c0 .837-.678 1.52-1.52 1.52-.837 0-1.52-.678-1.52-1.52 0-.837.678-1.52 1.52-1.52.837 0 1.52.678 1.52 1.52z" transform="matrix(.4950 0 0 .4950 76.34 135)"/>
<path d="m29 54.4c0 .837-.678 1.52-1.52 1.52-.837 0-1.52-.678-1.52-1.52 0-.837.678-1.52 1.52-1.52.837 0 1.52.678 1.52 1.52z" transform="matrix(.4950 0 0 .4950 87.08 131.6)"/>
<path d="m29 54.4c0 .837-.678 1.52-1.52 1.52-.837 0-1.52-.678-1.52-1.52 0-.837.678-1.52 1.52-1.52.837 0 1.52.678 1.52 1.52z" transform="matrix(.4950 0 0 .4950 90.24 138.7)"/>
<path d="m29 54.4c0 .837-.678 1.52-1.52 1.52-.837 0-1.52-.678-1.52-1.52 0-.837.678-1.52 1.52-1.52.837 0 1.52.678 1.52 1.52z" transform="matrix(.4950 0 0 .4950 89.21 132.1)"/>
<path d="m29 54.4c0 .837-.678 1.52-1.52 1.52-.837 0-1.52-.678-1.52-1.52 0-.837.678-1.52 1.52-1.52.837 0 1.52.678 1.52 1.52z" transform="matrix(.4950 0 0 .4950 73.48 131.6)"/>
<path d="m29 54.4c0 .837-.678 1.52-1.52 1.52-.837 0-1.52-.678-1.52-1.52 0-.837.678-1.52 1.52-1.52.837 0 1.52.678 1.52 1.52z" transform="matrix(.4950 0 0 .4950 76.38 134.1)"/>
<path d="m29 54.4c0 .837-.678 1.52-1.52 1.52-.837 0-1.52-.678-1.52-1.52 0-.837.678-1.52 1.52-1.52.837 0 1.52.678 1.52 1.52z" transform="matrix(.4950 0 0 .4950 77.29 130.6)"/>
<path d="m29 54.4c0 .837-.678 1.52-1.52 1.52-.837 0-1.52-.678-1.52-1.52 0-.837.678-1.52 1.52-1.52.837 0 1.52.678 1.52 1.52z" transform="matrix(.4950 0 0 .4950 99.36 115.8)"/>
<path d="m29 54.4c0 .837-.678 1.52-1.52 1.52-.837 0-1.52-.678-1.52-1.52 0-.837.678-1.52 1.52-1.52.837 0 1.52.678 1.52 1.52z" transform="matrix(.4950 0 0 .4950 101.5 119.9)"/>
<path d="m29 54.4c0 .837-.678 1.52-1.52 1.52-.837 0-1.52-.678-1.52-1.52 0-.837.678-1.52 1.52-1.52.837 0 1.52.678 1.52 1.52z" transform="matrix(.4950 0 0 .4950 99.37 117.1)"/>
<path d="m29 54.4c0 .837-.678 1.52-1.52 1.52-.837 0-1.52-.678-1.52-1.52 0-.837.678-1.52 1.52-1.52.837 0 1.52.678 1.52 1.52z" transform="matrix(.4950 0 0 .4950 97.64 121.5)"/>
<path d="m29 54.4c0 .837-.678 1.52-1.52 1.52-.837 0-1.52-.678-1.52-1.52 0-.837.678-1.52 1.52-1.52.837 0 1.52.678 1.52 1.52z" transform="matrix(.4950 0 0 .4950 96.47 123.5)"/>
<path d="m29 54.4c0 .837-.678 1.52-1.52 1.52-.837 0-1.52-.678-1.52-1.52 0-.837.678-1.52 1.52-1.52.837 0 1.52.678 1.52 1.52z" transform="matrix(.4950 0 0 .4950 101 125.9)"/>
<path d="m29 54.4c0 .837-.678 1.52-1.52 1.52-.837 0-1.52-.678-1.52-1.52 0-.837.678-1.52 1.52-1.52.837 0 1.52.678 1.52 1.52z" transform="matrix(.4950 0 0 .4950 106.3 121.9)"/>
</g>
<g stroke-linejoin="round" transform="translate(-36.14 -39.9)" fill="#ff0">
<g stroke="#fff" stroke-width="2.295" stroke-opacity=".1984">
<path d="m223 64.7c0 .542-.44.982-.982.982s-.982-.44-.982-.982.44-.982.982-.982.982.44.982.982z" transform="matrix(1.307 0 0 1.307 -184.6 80.91)"/>
<path d="m223 64.7c0 .542-.44.982-.982.982s-.982-.44-.982-.982.44-.982.982-.982.982.44.982.982z" transform="matrix(1.307 0 0 1.307 -174.3 66.91)"/>
<path d="m223 64.7c0 .542-.44.982-.982.982s-.982-.44-.982-.982.44-.982.982-.982.982.44.982.982z" transform="matrix(1.307 0 0 1.307 -181.7 61.85)"/>
<path d="m223 64.7c0 .542-.44.982-.982.982s-.982-.44-.982-.982.44-.982.982-.982.982.44.982.982z" transform="matrix(1.307 0 0 1.307 -148.4 47.39)"/>
<path d="m223 64.7c0 .542-.44.982-.982.982s-.982-.44-.982-.982.44-.982.982-.982.982.44.982.982z" transform="matrix(1.307 0 0 1.307 -196.4 25.06)"/>
<path d="m223 64.7c0 .542-.44.982-.982.982s-.982-.44-.982-.982.44-.982.982-.982.982.44.982.982z" transform="matrix(1.307 0 0 1.307 -174.5 -.9452)"/>
<path d="m223 64.7c0 .542-.44.982-.982.982s-.982-.44-.982-.982.44-.982.982-.982.982.44.982.982z" transform="matrix(1.307 0 0 1.307 -167.8 5.49)"/>
<path d="m223 64.7c0 .542-.44.982-.982.982s-.982-.44-.982-.982.44-.982.982-.982.982.44.982.982z" transform="matrix(1.307 0 0 1.307 -125.8 9.723)"/>
<path d="m223 64.7c0 .542-.44.982-.982.982s-.982-.44-.982-.982.44-.982.982-.982.982.44.982.982z" transform="matrix(1.307 0 0 1.307 -209.4 -16.74)"/>
<path d="m223 64.7c0 .542-.44.982-.982.982s-.982-.44-.982-.982.44-.982.982-.982.982.44.982.982z" transform="matrix(1.307 0 0 1.307 -161.2 32.42)"/>
<path d="m223 64.7c0 .542-.44.982-.982.982s-.982-.44-.982-.982.44-.982.982-.982.982.44.982.982z" transform="matrix(1.307 0 0 1.307 -127.4 46.21)"/>
<path d="m223 64.7c0 .542-.44.982-.982.982s-.982-.44-.982-.982.44-.982.982-.982.982.44.982.982z" transform="matrix(1.307 0 0 1.307 -128.9 14.56)"/>
<path d="m223 64.7c0 .542-.44.982-.982.982s-.982-.44-.982-.982.44-.982.982-.982.982.44.982.982z" transform="matrix(1.307 0 0 1.307 -177.3 -22.1)"/>
<path d="m223 64.7c0 .542-.44.982-.982.982s-.982-.44-.982-.982.44-.982.982-.982.982.44.982.982z" transform="matrix(1.307 0 0 1.307 -134.3 -9.065)"/>
<path d="m223 64.7c0 .542-.44.982-.982.982s-.982-.44-.982-.982.44-.982.982-.982.982.44.982.982z" transform="matrix(1.307 0 0 1.307 -152.8 -3.067)"/>
<path d="m223 64.7c0 .542-.44.982-.982.982s-.982-.44-.982-.982.44-.982.982-.982.982.44.982.982z" transform="matrix(1.307 0 0 1.307 -155 -12.9)"/>
<path d="m223 64.7c0 .542-.44.982-.982.982s-.982-.44-.982-.982.44-.982.982-.982.982.44.982.982z" transform="matrix(1.307 0 0 1.307 -206 81.31)"/>
<path d="m223 64.7c0 .542-.44.982-.982.982s-.982-.44-.982-.982.44-.982.982-.982.982.44.982.982z" transform="matrix(1.307 0 0 1.307 -156.3 -15.97)"/>
<path d="m223 64.7c0 .542-.44.982-.982.982s-.982-.44-.982-.982.44-.982.982-.982.982.44.982.982z" transform="matrix(1.307 0 0 1.307 -178.1 59.09)"/>
<path d="m223 64.7c0 .542-.44.982-.982.982s-.982-.44-.982-.982.44-.982.982-.982.982.44.982.982z" transform="matrix(1.307 0 0 1.307 -175.9 71.78)"/>
</g>
<g stroke="#ffec00" stroke-width="1.83" stroke-opacity=".3684">
<path d="m218 50.9c0 .345-.28.625-.625.625s-.625-.28-.625-.625.28-.625.625-.625.625.28.625.625z" transform="matrix(1.093 0 0 1.093 -114.4 20.6)"/>
<path d="m218 50.9c0 .345-.28.625-.625.625s-.625-.28-.625-.625.28-.625.625-.625.625.28.625.625z" transform="matrix(1.093 0 0 1.093 -122.6 32.88)"/>
<path d="m218 50.9c0 .345-.28.625-.625.625s-.625-.28-.625-.625.28-.625.625-.625.625.28.625.625z" transform="matrix(1.093 0 0 1.093 -105.9 19.42)"/>
<path d="m218 50.9c0 .345-.28.625-.625.625s-.625-.28-.625-.625.28-.625.625-.625.625.28.625.625z" transform="matrix(1.093 0 0 1.093 -82.32 95.17)"/>
<path d="m218 50.9c0 .345-.28.625-.625.625s-.625-.28-.625-.625.28-.625.625-.625.625.28.625.625z" transform="matrix(1.093 0 0 1.093 -99.59 72.79)"/>
<path d="m218 50.9c0 .345-.28.625-.625.625s-.625-.28-.625-.625.28-.625.625-.625.625.28.625.625z" transform="matrix(1.093 0 0 1.093 -107.8 69.07)"/>
<path d="m218 50.9c0 .345-.28.625-.625.625s-.625-.28-.625-.625.28-.625.625-.625.625.28.625.625z" transform="matrix(1.093 0 0 1.093 -89.52 74.96)"/>
<path d="m218 50.9c0 .345-.28.625-.625.625s-.625-.28-.625-.625.28-.625.625-.625.625.28.625.625z" transform="matrix(1.093 0 0 1.093 -102.5 73.89)"/>
<path d="m218 50.9c0 .345-.28.625-.625.625s-.625-.28-.625-.625.28-.625.625-.625.625.28.625.625z" transform="matrix(1.093 0 0 1.093 -124.2 76.29)"/>
<path d="m218 50.9c0 .345-.28.625-.625.625s-.625-.28-.625-.625.28-.625.625-.625.625.28.625.625z" transform="matrix(1.093 0 0 1.093 -120.1 78.63)"/>
<path d="m218 50.9c0 .345-.28.625-.625.625s-.625-.28-.625-.625.28-.625.625-.625.625.28.625.625z" transform="matrix(1.093 0 0 1.093 -124.5 92.63)"/>
<path d="m218 50.9c0 .345-.28.625-.625.625s-.625-.28-.625-.625.28-.625.625-.625.625.28.625.625z" transform="matrix(1.093 0 0 1.093 -84.15 88.77)"/>
<path d="m218 50.9c0 .345-.28.625-.625.625s-.625-.28-.625-.625.28-.625.625-.625.625.28.625.625z" transform="matrix(1.093 0 0 1.093 -163.9 93.99)"/>
<path d="m218 50.9c0 .345-.28.625-.625.625s-.625-.28-.625-.625.28-.625.625-.625.625.28.625.625z" transform="matrix(1.093 0 0 1.093 -148.1 115.9)"/>
<path d="m218 50.9c0 .345-.28.625-.625.625s-.625-.28-.625-.625.28-.625.625-.625.625.28.625.625z" transform="matrix(1.093 0 0 1.093 -130.3 106.2)"/>
<path d="m218 50.9c0 .345-.28.625-.625.625s-.625-.28-.625-.625.28-.625.625-.625.625.28.625.625z" transform="matrix(1.093 0 0 1.093 -148.7 111.7)"/>
<path d="m218 50.9c0 .345-.28.625-.625.625s-.625-.28-.625-.625.28-.625.625-.625.625.28.625.625z" transform="matrix(1.093 0 0 1.093 -140.9 3.77)"/>
<path d="m218 50.9c0 .345-.28.625-.625.625s-.625-.28-.625-.625.28-.625.625-.625.625.28.625.625z" transform="matrix(1.093 0 0 1.093 -127.1 6.708)"/>
<path d="m218 50.9c0 .345-.28.625-.625.625s-.625-.28-.625-.625.28-.625.625-.625.625.28.625.625z" transform="matrix(1.093 0 0 1.093 -129.1 5.613)"/>
</g>
</g>
<path d="m4.394 72.67c-.0429 39.5 31.6 70.1 69.7 70-26.3 0-58.7-27.7-58.7-69.1.0189-42.4 32.6-70.3 58.7-70.3-37.3.133-69.7 30.2-69.7 69.4z" fill="#ebe9cf"/>
<g fill="#a0a091" transform="translate(339.4 -155.3)">
<path d="m35.7 230c0 5.42-1.68 9.82-3.75 9.82s-3.75-4.4-3.75-9.82 1.68-9.82 3.75-9.82 3.75 4.4 3.75 9.82z" fill-rule="evenodd" transform="matrix(.3279 -.1065 .09712 .3596 -363.4 162.5)"/>
<path d="m58.3 262c-16.7-52-16.5-130 33.6-186 19.1-22.2 7.9-13.5 7.9-13.5 6.2-7.2 11.2-17.7-6.5-3.1-13.2 10.9-8.3 10.8-12.8 11.6-4.6.7-5.6 3.4-9.1 7-3.54 3.54-1.38 3.47-2.39 6.25s-4.13 8.01-5.9 9.27c-.696-8.2-9.24 5.73-10.2 9.02-1.01 3.28-10.2 8.02-13.5 13.3-4.25 6.88-5.12 14.1-4.36 16.1.758 2.02-.709 5.96-1.47 7.22-.758 1.26-.691 4.66-3.97 11.7-3.28 7.07-5.27 27.5-2.75 28.7 2.53 1.26 2.49.191 5.96 1.32 3.26 1.07-4.22 8.34-1.44 12.6 2.78 4.29 4.32 7.88 3.74 12.1-.968 7.05-.975 12.2.941 17.8 3.11 9.02 6.42 4.63 8.06 12.2 9.35 43.4 14.3 26.6 14.3 26.6z" transform="matrix(.3971 0 0 .3962 -342.6 150.4)"/>
</g>
</g>
<path d="m4.394 1127c-.0429 39.5 31.6 70.1 69.7 70-26.3 0-58.7-27.7-58.7-69.1.0189-42.4 32.6-70.3 58.7-70.3-37.3.133-69.7 30.2-69.7 69.4z" fill-opacity=".2374" display="none" fill="#e1e1c8"/>
<g font-size="12.5px" transform="translate(0,1050)" font-family="&apos;Titillium Web&apos;" fill="#000000">
<text style="word-spacing:0px;letter-spacing:0px;text-anchor:end;text-align:end" xml:space="preserve" line-height="125%" y="42" x="23"><tspan x="23" y="42"/></text>
<text style="word-spacing:0px;letter-spacing:0px;text-anchor:end;text-align:end" xml:space="preserve" line-height="125%" y="-148" x="23"><tspan x="23" y="-148"/></text>
</g>
</svg>
