<?xml version="1.0" encoding="UTF-8" standalone="no"?>
<!-- Created with Inkscape (http://www.inkscape.org/) -->

<svg
   xmlns:dc="http://purl.org/dc/elements/1.1/"
   xmlns:cc="http://creativecommons.org/ns#"
   xmlns:rdf="http://www.w3.org/1999/02/22-rdf-syntax-ns#"
   xmlns:svg="http://www.w3.org/2000/svg"
   xmlns="http://www.w3.org/2000/svg"
   xmlns:sodipodi="http://sodipodi.sourceforge.net/DTD/sodipodi-0.dtd"
   xmlns:inkscape="http://www.inkscape.org/namespaces/inkscape"
   version="1.1"
   viewBox="0 0 1200 300"
   id="svg4136"
   inkscape:version="0.91 r13725"
   sodipodi:docname="BlogHeader.svg"
   width="1200"
   height="300">
  <sodipodi:namedview
     pagecolor="#ffffff"
     bordercolor="#666666"
     borderopacity="1"
     objecttolerance="10"
     gridtolerance="10"
     guidetolerance="10"
     inkscape:pageopacity="0"
     inkscape:pageshadow="2"
     inkscape:window-width="2517"
     inkscape:window-height="1056"
     id="namedview4424"
     showgrid="false"
     inkscape:zoom="1"
     inkscape:cx="485.42406"
     inkscape:cy="160.23857"
     inkscape:window-x="43"
     inkscape:window-y="24"
     inkscape:window-maximized="1"
     inkscape:current-layer="svg4136" />
  <defs
     id="defs4138" />
  <metadata
     id="metadata4140">
    <rdf:RDF>
      <cc:Work
         rdf:about="">
        <dc:format>image/svg+xml</dc:format>
        <dc:type
           rdf:resource="http://purl.org/dc/dcmitype/StillImage" />
        <dc:title></dc:title>
      </cc:Work>
    </rdf:RDF>
  </metadata>
  <path
     style="display:none;fill:#e1e1c8;fill-opacity:0.23744291"
     inkscape:connector-curvature="0"
     id="path4414"
     display="none"
     d="m 4.39438,226.66593 c -0.0429,39.5 31.6,70.1 69.7,70 -26.3,0 -58.7,-27.7 -58.7,-69.1 0.0189,-42.4 32.6,-70.3 58.7,-70.3 -37.3,0.133 -69.7,30.2 -69.7,69.4 z" />
  <g
     inkscape:groupmode="layer"
     id="layer1"
     inkscape:label="slice"
     style="display:inline"
     transform="translate(0,150)">
    <path
       style="fill:#ffff4f;fill-rule:nonzero"
       id="path4148-2"
       d="m 882.05201,23.93012 c -0.12998,-2.07124 1.44173,-3.86668 3.52535,-3.99743 2.07124,-0.12999 3.86668,1.44173 3.99744,3.52534 0.12998,2.07124 -1.44174,3.86668 -3.52535,3.99744 -2.07124,0.12998 -3.86668,-1.44173 -3.99744,-3.52535 z"
       inkscape:connector-curvature="0" />
    <path
       style="fill:#ffff4f;fill-rule:nonzero"
       id="path4150-9"
       d="m 855.12257,6.71017 c -0.12998,-2.07124 1.44173,-3.86668 3.52535,-3.99743 2.07124,-0.12999 3.86668,1.44173 3.99744,3.52534 0.12998,2.07124 -1.44174,3.86668 -3.52535,3.99744 -2.07124,0.12998 -3.86668,-1.44173 -3.99744,-3.52535 z"
       inkscape:connector-curvature="0" />
    <path
       style="fill:#ffff4f;fill-rule:nonzero"
       id="path4152-9"
       d="m 873.75807,19.89715 c -0.12998,-2.07124 1.44173,-3.86668 3.52535,-3.99743 2.07124,-0.12999 3.86668,1.44173 3.99744,3.52534 0.12998,2.07124 -1.44174,3.86668 -3.52535,3.99744 -2.07124,0.12998 -3.86668,-1.44173 -3.99744,-3.52535 z"
       inkscape:connector-curvature="0" />
    <path
       style="fill:#ffff4f;fill-rule:nonzero"
       id="path4154-0"
       d="m 826.61595,10.68784 c -0.12998,-2.07124 1.44173,-3.86668 3.52535,-3.99743 2.07124,-0.12999 3.86668,1.44173 3.99744,3.52534 0.12998,2.07124 -1.44174,3.86668 -3.52535,3.99744 -2.07124,0.12998 -3.86668,-1.44173 -3.99744,-3.52535 z"
       inkscape:connector-curvature="0" />
    <path
       style="fill:#ffff4f;fill-rule:nonzero"
       id="path4156-8"
       d="m 1103.9738,29.61979 c -0.1299,-2.07124 1.4418,-3.86668 3.5254,-3.99743 2.0712,-0.12999 3.8667,1.44173 3.9974,3.52534 0.13,2.07124 -1.4417,3.86668 -3.5253,3.99744 -2.0713,0.12998 -3.8667,-1.44173 -3.9975,-3.52535 z"
       inkscape:connector-curvature="0" />
    <path
       style="fill:#ffff4f;fill-rule:nonzero"
       id="path4158-1"
       d="m 251.15498,38.504564 c -0.12998,-2.071241 1.44173,-3.866682 3.52535,-3.997439 2.07124,-0.129981 3.86668,1.441733 3.99744,3.525347 0.12998,2.07124 -1.44174,3.866682 -3.52535,3.997439 -2.07124,0.12998 -3.86668,-1.441733 -3.99744,-3.525347 z"
       inkscape:connector-curvature="0" />
    <path
       style="fill:#ffff4f;fill-rule:nonzero"
       id="path4160-3"
       d="m 279.151,-40.29436 c -0.12998,-2.071241 1.44173,-3.866682 3.52535,-3.997439 2.07124,-0.129981 3.86668,1.441733 3.99744,3.525347 0.12998,2.07124 -1.44174,3.866682 -3.52535,3.997439 -2.07124,0.12998 -3.86668,-1.441733 -3.99744,-3.525347 z"
       inkscape:connector-curvature="0" />
    <path
       style="fill:#ffff4f;fill-rule:nonzero"
       id="path4162-1"
       d="m 218.50818,-126.276 c -0.12998,-2.07124 1.44173,-3.86669 3.52535,-3.99744 2.07124,-0.12998 3.86668,1.44173 3.99744,3.52534 0.12998,2.07124 -1.44174,3.86669 -3.52535,3.99744 -2.07124,0.12998 -3.86668,-1.44173 -3.99744,-3.52534 z"
       inkscape:connector-curvature="0" />
    <path
       style="fill:#ffff4f;fill-rule:nonzero"
       id="path4164-1"
       d="m 483.71982,-127.23796 c -0.12998,-2.07124 1.44173,-3.86669 3.52535,-3.99744 2.07124,-0.12998 3.86668,1.44173 3.99744,3.52534 0.12998,2.07124 -1.44174,3.86669 -3.52535,3.99744 -2.07124,0.12998 -3.86668,-1.44173 -3.99744,-3.52534 z"
       inkscape:connector-curvature="0" />
    <path
       style="fill:#ffff4f;fill-rule:nonzero"
       id="path4166-0"
       d="m 474.29257,-89.522264 c -0.12998,-2.071241 1.44173,-3.866682 3.52535,-3.997439 2.07124,-0.129981 3.86668,1.441733 3.99744,3.525347 0.12998,2.07124 -1.44174,3.866682 -3.52535,3.997439 -2.07124,0.12998 -3.86668,-1.441733 -3.99744,-3.525347 z"
       inkscape:connector-curvature="0" />
    <path
       style="fill:#ffff4f;fill-rule:nonzero"
       id="path4168-3"
       d="m 302.42935,-151.5099 c -0.12998,-2.07124 1.44173,-3.86669 3.52535,-3.99744 2.07124,-0.12998 3.86668,1.44173 3.99744,3.52534 0.12998,2.07124 -1.44174,3.86669 -3.52535,3.99744 -2.07124,0.12998 -3.86668,-1.44173 -3.99744,-3.52534 z"
       inkscape:connector-curvature="0" />
    <path
       style="fill:#ffff4f;fill-rule:nonzero"
       id="path4170-4"
       d="m 395.8674,121.34872 c -0.12998,-2.07124 1.44173,-3.86668 3.52535,-3.99743 2.07124,-0.12999 3.86668,1.44173 3.99744,3.52534 0.12998,2.07124 -1.44174,3.86668 -3.52535,3.99744 -2.07124,0.12998 -3.86668,-1.44173 -3.99744,-3.52535 z"
       inkscape:connector-curvature="0" />
    <path
       style="fill:#ffff4f;fill-rule:nonzero"
       id="path4172-0"
       d="m 450.72847,-148.07814 c -0.12998,-2.07124 1.44173,-3.86669 3.52535,-3.99744 2.07124,-0.12998 3.86668,1.44173 3.99744,3.52534 0.12998,2.07124 -1.44174,3.86669 -3.52535,3.99744 -2.07124,0.12998 -3.86668,-1.44173 -3.99744,-3.52534 z"
       inkscape:connector-curvature="0" />
    <path
       style="fill:#ffff4f;fill-rule:nonzero"
       id="path4174-3"
       d="m 416.68926,-119.73429 c -0.12998,-2.07124 1.44173,-3.86668 3.52535,-3.99744 2.07124,-0.12998 3.86668,1.44173 3.99744,3.52535 0.12998,2.07124 -1.44174,3.86668 -3.52535,3.99743 -2.07124,0.12999 -3.86668,-1.44173 -3.99744,-3.52534 z"
       inkscape:connector-curvature="0" />
    <path
       style="fill:#ffff4f;fill-rule:nonzero"
       id="path4176-9"
       d="m 388.04478,127.87831 c -0.12998,-2.07124 1.44173,-3.86668 3.52535,-3.99743 2.07124,-0.12999 3.86668,1.44173 3.99744,3.52534 0.12998,2.07124 -1.44174,3.86668 -3.52535,3.99744 -2.07124,0.12998 -3.86668,-1.44173 -3.99744,-3.52535 z"
       inkscape:connector-curvature="0" />
    <path
       style="fill:#ffff4f;fill-rule:nonzero"
       id="path4178-1"
       d="m 44.79749,63.734794 c -0.129981,-2.071241 1.441733,-3.866682 3.525346,-3.997439 2.071241,-0.129981 3.866682,1.441733 3.997439,3.525347 0.129981,2.07124 -1.441733,3.866682 -3.525346,3.997439 -2.071241,0.12998 -3.866682,-1.441733 -3.997439,-3.525347 z"
       inkscape:connector-curvature="0" />
    <path
       style="fill:#ffff4f;fill-rule:nonzero"
       id="path4180-9"
       d="m 83.99846,-7.427146 c -0.129981,-2.0712406 1.441733,-3.866682 3.525346,-3.997439 2.071241,-0.129981 3.866682,1.4417332 3.997439,3.5253468 0.129981,2.0712406 -1.441733,3.8666817 -3.525346,3.9974389 -2.071241,0.1299806 -3.866682,-1.4417331 -3.997439,-3.5253467 z"
       inkscape:connector-curvature="0" />
    <path
       style="fill:#ffff4f;fill-rule:nonzero"
       id="path4182-6"
       d="m 130.9253,23.901384 c -0.12998,-2.071241 1.44173,-3.866682 3.52535,-3.997439 2.07124,-0.129981 3.86668,1.441733 3.99744,3.525347 0.12998,2.07124 -1.44174,3.866682 -3.52535,3.997439 -2.07124,0.12998 -3.86668,-1.441733 -3.99744,-3.525347 z"
       inkscape:connector-curvature="0" />
    <path
       style="fill:#ffff4f;fill-rule:nonzero"
       id="path4184-9"
       d="m 206.47465,57.478534 c -0.12998,-2.071241 1.44173,-3.866682 3.52535,-3.997439 2.07124,-0.129981 3.86668,1.441733 3.99744,3.525347 0.12998,2.07124 -1.44174,3.866682 -3.52535,3.997439 -2.07124,0.12998 -3.86668,-1.441733 -3.99744,-3.525347 z"
       inkscape:connector-curvature="0" />
    <path
       style="fill:#ffff4f;fill-rule:nonzero"
       id="path4186-3"
       d="m 140.27254,1.973284 c -0.12998,-2.07124061 1.44173,-3.8666817 3.52535,-3.9974389 2.07124,-0.1299806 3.86668,1.44173308 3.99744,3.5253467 0.12998,2.0712406 -1.44174,3.8666817 -3.52535,3.9974389 -2.07124,0.1299806 -3.86668,-1.4417331 -3.99744,-3.5253467 z"
       inkscape:connector-curvature="0" />
    <path
       style="fill:#ffff4f;fill-rule:nonzero"
       id="path4188-3"
       d="m 102.29895,47.824044 c -0.12998,-2.071241 1.44173,-3.866682 3.52535,-3.997439 2.07124,-0.129981 3.86668,1.441733 3.99744,3.525347 0.12998,2.07124 -1.44174,3.866682 -3.52535,3.997439 -2.07124,0.12998 -3.86668,-1.441733 -3.99744,-3.525347 z"
       inkscape:connector-curvature="0" />
    <path
       style="fill:#ffff4f;fill-rule:nonzero"
       id="path4190-8"
       d="m 34.21045,75.589814 c -0.129981,-2.071241 1.441733,-3.866682 3.525346,-3.997439 2.071241,-0.129981 3.866682,1.441733 3.997439,3.525347 0.129981,2.07124 -1.441733,3.866682 -3.525346,3.997439 -2.071241,0.12998 -3.866682,-1.441733 -3.997439,-3.525347 z"
       inkscape:connector-curvature="0" />
    <path
       style="fill:#ffff4f;fill-rule:nonzero"
       id="path4192-0"
       d="m 687.77808,-59.90353 c -0.12998,-2.07124 1.44173,-3.86668 3.52535,-3.99743 2.07124,-0.12999 3.86668,1.44173 3.99744,3.52534 0.12998,2.07124 -1.44174,3.86668 -3.52535,3.99744 -2.07124,0.12998 -3.86668,-1.44173 -3.99744,-3.52535 z"
       inkscape:connector-curvature="0" />
    <path
       style="fill:#ffff4f;fill-rule:nonzero"
       id="path4194-5"
       d="m 692.90692,-44.02862 c -0.12998,-2.07124 1.44173,-3.86668 3.52535,-3.99743 2.07124,-0.12999 3.86668,1.44173 3.99744,3.52534 0.12998,2.07124 -1.44174,3.86668 -3.52535,3.99744 -2.07124,0.12998 -3.86668,-1.44173 -3.99744,-3.52535 z"
       inkscape:connector-curvature="0" />
    <path
       style="fill:#ffff4f;fill-rule:nonzero"
       id="path4196-6"
       d="m 688.7441,-7.70888 c -0.12998,-2.07124 1.44173,-3.86668 3.52535,-3.99743 2.07124,-0.12999 3.86668,1.44173 3.99743,3.52534 0.12999,2.07124 -1.44173,3.86668 -3.52534,3.99744 -2.07124,0.12998 -3.86668,-1.44173 -3.99744,-3.52535 z"
       inkscape:connector-curvature="0" />
    <path
       style="fill:#ffff4f;fill-rule:nonzero"
       id="path4198-6"
       d="m 652.12828,-12.74149 c -0.12998,-2.07124 1.44173,-3.86668 3.52535,-3.99743 2.07124,-0.12999 3.86668,1.44173 3.99744,3.52534 0.12998,2.07124 -1.44174,3.86668 -3.52535,3.99744 -2.07124,0.12998 -3.86668,-1.44173 -3.99744,-3.52535 z"
       inkscape:connector-curvature="0" />
    <path
       style="fill:#ffff4f;fill-rule:nonzero"
       id="path4200-4"
       d="m 680.62901,-42.73045 c -0.12998,-2.07124 1.44173,-3.86668 3.52535,-3.99743 2.07124,-0.12999 3.86668,1.44173 3.99743,3.52534 0.12999,2.07124 -1.44173,3.86668 -3.52534,3.99744 -2.07124,0.12998 -3.86668,-1.44173 -3.99744,-3.52535 z"
       inkscape:connector-curvature="0" />
    <path
       style="fill:#ffff4f;fill-rule:nonzero"
       id="path4202-0"
       d="m 1058.0305,83.63744 c -0.13,-2.07124 1.4417,-3.86668 3.5254,-3.99743 2.0712,-0.12999 3.8666,1.44173 3.9974,3.52534 0.13,2.07124 -1.4417,3.86668 -3.5253,3.99744 -2.0713,0.12998 -3.8667,-1.44173 -3.9975,-3.52535 z"
       inkscape:connector-curvature="0" />
    <path
       style="fill:#ffff4f;fill-rule:nonzero"
       id="path4204-0"
       d="m 1056.3182,112.2963 c -0.13,-2.07124 1.4417,-3.86668 3.5253,-3.99743 2.0713,-0.12999 3.8667,1.44173 3.9975,3.52534 0.13,2.07124 -1.4418,3.86668 -3.5254,3.99744 -2.0712,0.12998 -3.8666,-1.44173 -3.9974,-3.52535 z"
       inkscape:connector-curvature="0" />
    <path
       style="fill:#ffff4f;fill-rule:nonzero"
       id="path4206-4"
       d="m 1078.463,88.68011 c -0.13,-2.07124 1.4417,-3.86668 3.5254,-3.99743 2.0712,-0.12999 3.8666,1.44173 3.9974,3.52534 0.13,2.07124 -1.4417,3.86668 -3.5254,3.99744 -2.0712,0.12998 -3.8666,-1.44173 -3.9974,-3.52535 z"
       inkscape:connector-curvature="0" />
    <path
       style="fill:#ffff4f;fill-rule:nonzero"
       id="path4208-6"
       d="m 1128.9213,49.64097 c -0.13,-2.07124 1.4417,-3.86668 3.5253,-3.99743 2.0713,-0.12999 3.8667,1.44173 3.9975,3.52534 0.13,2.07124 -1.4418,3.86668 -3.5254,3.99744 -2.0712,0.12998 -3.8667,-1.44173 -3.9974,-3.52535 z"
       inkscape:connector-curvature="0" />
    <path
       style="fill:#ffff4f;fill-rule:nonzero"
       id="path4210-2"
       d="m 1097.7509,28.1936 c -0.13,-2.07124 1.4417,-3.86668 3.5253,-3.99743 2.0712,-0.12999 3.8667,1.44173 3.9974,3.52534 0.13,2.07124 -1.4417,3.86668 -3.5253,3.99744 -2.0712,0.12998 -3.8667,-1.44173 -3.9974,-3.52535 z"
       inkscape:connector-curvature="0" />
    <path
       style="fill:#ffff4f;fill-rule:nonzero"
       id="path4212-6"
       d="m 1141.5546,36.19529 c -0.1299,-2.07124 1.4418,-3.86668 3.5254,-3.99743 2.0712,-0.12999 3.8667,1.44173 3.9974,3.52534 0.13,2.07124 -1.4417,3.86668 -3.5253,3.99744 -2.0713,0.12998 -3.8667,-1.44173 -3.9975,-3.52535 z"
       inkscape:connector-curvature="0" />
    <path
       style="fill:#ffff4f;fill-rule:nonzero"
       id="path4214-7"
       d="m 199.75523,73.201834 c -0.12998,-2.071241 1.44173,-3.866682 3.52535,-3.997439 2.07124,-0.129981 3.86668,1.441733 3.99744,3.525347 0.12998,2.07124 -1.44174,3.866682 -3.52535,3.997439 -2.07124,0.12998 -3.86668,-1.441733 -3.99744,-3.525347 z"
       inkscape:connector-curvature="0" />
    <path
       style="fill:#ffff4f;fill-rule:nonzero"
       id="path4216-5"
       d="m 183.02006,54.360724 c -0.12998,-2.071241 1.44173,-3.866682 3.52535,-3.997439 2.07124,-0.129981 3.86668,1.441733 3.99744,3.525347 0.12998,2.07124 -1.44174,3.866682 -3.52535,3.997439 -2.07124,0.12998 -3.86668,-1.441733 -3.99744,-3.525347 z"
       inkscape:connector-curvature="0" />
    <path
       style="fill:#ffff4f;fill-rule:nonzero"
       id="path4218-6"
       d="m 252.57377,117.40128 c -0.12998,-2.07124 1.44173,-3.86668 3.52535,-3.99743 2.07124,-0.12999 3.86668,1.44173 3.99744,3.52534 0.12998,2.07124 -1.44174,3.86668 -3.52535,3.99744 -2.07124,0.12998 -3.86668,-1.44173 -3.99744,-3.52535 z"
       inkscape:connector-curvature="0" />
    <path
       style="fill:#ffff4f;fill-rule:nonzero"
       id="path4220-9"
       d="m 247.69773,113.22225 c -0.12998,-2.07124 1.44173,-3.86668 3.52535,-3.99743 2.07124,-0.12999 3.86668,1.44173 3.99744,3.52534 0.12998,2.07124 -1.44174,3.86668 -3.52535,3.99744 -2.07124,0.12998 -3.86668,-1.44173 -3.99744,-3.52535 z"
       inkscape:connector-curvature="0" />
    <path
       style="fill:#ffff4f;fill-rule:nonzero"
       id="path4222-8"
       d="m 867.52466,-74.22061 c -0.12998,-2.07124 1.44173,-3.86668 3.52535,-3.99743 2.07124,-0.12999 3.86668,1.44173 3.99744,3.52534 0.12998,2.07124 -1.44174,3.86668 -3.52535,3.99744 -2.07124,0.12998 -3.86668,-1.44173 -3.99744,-3.52535 z"
       inkscape:connector-curvature="0" />
    <path
       style="fill:#ffff4f;fill-rule:nonzero"
       id="path4224-7"
       d="m 814.08584,-1.46809 c -0.12998,-2.07124 1.44173,-3.86668 3.52535,-3.99743 2.07124,-0.12999 3.86668,1.44173 3.99744,3.52534 0.12998,2.07124 -1.44174,3.86668 -3.52535,3.99744 -2.07124,0.12998 -3.86668,-1.44173 -3.99744,-3.52535 z"
       inkscape:connector-curvature="0" />
    <path
       style="fill:#ffff4f;fill-rule:nonzero"
       id="path4226-2"
       d="m 784.28631,-3.23903 c -0.12998,-2.07124 1.44173,-3.86668 3.52535,-3.99743 2.07124,-0.12999 3.86668,1.44173 3.99744,3.52534 0.12998,2.07124 -1.44174,3.86668 -3.52535,3.99744 -2.07124,0.12998 -3.86668,-1.44173 -3.99744,-3.52535 z"
       inkscape:connector-curvature="0" />
    <path
       style="fill:#ffff4f;fill-rule:nonzero"
       id="path4228-8"
       d="m 789.43005,11.16185 c -0.12998,-2.07124 1.44173,-3.86668 3.52535,-3.99743 2.07124,-0.12999 3.86668,1.44173 3.99744,3.52534 0.12998,2.07124 -1.44174,3.86668 -3.52535,3.99744 -2.07124,0.12998 -3.86668,-1.44173 -3.99744,-3.52535 z"
       inkscape:connector-curvature="0" />
    <path
       style="fill:#ffff4f;fill-rule:nonzero"
       id="path4230-2"
       d="m 815.79938,6.38049 c -0.12998,-2.07124 1.44173,-3.86668 3.52535,-3.99743 2.07124,-0.12999 3.86668,1.44173 3.99744,3.52534 0.12998,2.07124 -1.44174,3.86668 -3.52535,3.99744 -2.07124,0.12998 -3.86668,-1.44173 -3.99744,-3.52535 z"
       inkscape:connector-curvature="0" />
    <path
       style="fill:#ffff4f;fill-rule:nonzero"
       id="path4232-9"
       d="m 799.81284,12.65511 c -0.12998,-2.07124 1.44173,-3.86668 3.52535,-3.99743 2.07124,-0.12999 3.86668,1.44173 3.99744,3.52534 0.12998,2.07124 -1.44174,3.86668 -3.52535,3.99744 -2.07124,0.12998 -3.86668,-1.44173 -3.99744,-3.52535 z"
       inkscape:connector-curvature="0" />
    <path
       style="fill:#ffff4f;fill-rule:nonzero"
       id="path4234-9"
       d="m 782.58625,4.70965 c -0.12998,-2.07124 1.44173,-3.86668 3.52535,-3.99743 2.07124,-0.12999 3.86668,1.44173 3.99744,3.52534 0.12998,2.07124 -1.44174,3.86668 -3.52535,3.99744 -2.07124,0.12998 -3.86668,-1.44173 -3.99744,-3.52535 z"
       inkscape:connector-curvature="0" />
    <path
       style="fill:#ffff4f;fill-rule:nonzero"
       id="path4236-6"
       d="m 820.6761,26.53665 c -0.12998,-2.07124 1.44173,-3.86668 3.52535,-3.99743 2.07124,-0.12999 3.86668,1.44173 3.99744,3.52534 0.12998,2.07124 -1.44174,3.86668 -3.52535,3.99744 -2.07124,0.12998 -3.86668,-1.44173 -3.99744,-3.52535 z"
       inkscape:connector-curvature="0" />
    <path
       style="fill:#ffff4f;fill-rule:nonzero"
       id="path4238-0"
       d="m 820.03232,2.30633 c -0.12998,-2.07124 1.44173,-3.86668 3.52535,-3.99743 2.07124,-0.12999 3.86668,1.44173 3.99744,3.52534 0.12998,2.07124 -1.44174,3.86668 -3.52535,3.99744 -2.07124,0.12998 -3.86668,-1.44173 -3.99744,-3.52535 z"
       inkscape:connector-curvature="0" />
    <path
       style="fill:#ffff4f;fill-rule:nonzero"
       id="path4240-2"
       d="m 836.97493,21.54972 c -0.12998,-2.07124 1.44173,-3.86668 3.52535,-3.99743 2.07124,-0.12999 3.86668,1.44173 3.99744,3.52534 0.12998,2.07124 -1.44174,3.86668 -3.52535,3.99744 -2.07124,0.12998 -3.86668,-1.44173 -3.99744,-3.52535 z"
       inkscape:connector-curvature="0" />
    <path
       style="fill:#ffff4f;fill-rule:nonzero"
       id="path4242-7"
       d="m 856.69832,-3.12193 c -0.12998,-2.07124 1.44173,-3.86668 3.52535,-3.99743 2.07124,-0.12999 3.86668,1.44173 3.99744,3.52534 0.12998,2.07124 -1.44174,3.86668 -3.52535,3.99744 -2.07124,0.12998 -3.86668,-1.44173 -3.99744,-3.52535 z"
       inkscape:connector-curvature="0" />
    <path
       style="fill:#ffff4f;fill-rule:nonzero"
       id="path4244-6"
       d="m 854.14901,1.54821 c -0.12998,-2.07124 1.44173,-3.86668 3.52535,-3.99743 2.07124,-0.12999 3.86668,1.44173 3.99744,3.52534 0.12998,2.07124 -1.44174,3.86668 -3.52535,3.99744 -2.07124,0.12998 -3.86668,-1.44173 -3.99744,-3.52535 z"
       inkscape:connector-curvature="0" />
    <path
       style="fill:#ffff4f;fill-rule:nonzero"
       id="path4246-1"
       d="m 904.82696,-32.36351 c -0.12998,-2.07124 1.44173,-3.86668 3.52535,-3.99743 2.07124,-0.12999 3.86668,1.44173 3.99744,3.52534 0.12998,2.07124 -1.44174,3.86668 -3.52535,3.99744 -2.07124,0.12998 -3.86668,-1.44173 -3.99744,-3.52535 z"
       inkscape:connector-curvature="0" />
    <path
       style="fill:#ffff4f;fill-rule:nonzero"
       id="path4248-3"
       d="m 238.20692,120.0306 c -0.12998,-2.07124 1.44173,-3.86668 3.52535,-3.99743 2.07124,-0.12999 3.86668,1.44173 3.99744,3.52534 0.12998,2.07124 -1.44174,3.86668 -3.52535,3.99744 -2.07124,0.12998 -3.86668,-1.44173 -3.99744,-3.52535 z"
       inkscape:connector-curvature="0" />
    <path
       style="fill:#ffff4f;fill-rule:nonzero"
       id="path4250-2"
       d="m 250.36426,119.59055 c -0.12998,-2.07124 1.44173,-3.86668 3.52535,-3.99743 2.07124,-0.12999 3.86668,1.44173 3.99744,3.52534 0.12998,2.07124 -1.44174,3.86668 -3.52535,3.99744 -2.07124,0.12998 -3.86668,-1.44173 -3.99744,-3.52535 z"
       inkscape:connector-curvature="0" />
    <path
       style="fill:#ffff4f;fill-rule:nonzero"
       id="path4252-1"
       d="m 169.12377,-2.061966 c -0.12998,-2.0712406 1.44173,-3.8666817 3.52535,-3.9974389 2.07124,-0.1299806 3.86668,1.4417331 3.99744,3.5253467 0.12998,2.07124062 -1.44174,3.8666817 -3.52535,3.9974389 -2.07124,0.1299806 -3.86668,-1.44173307 -3.99744,-3.5253467 z"
       inkscape:connector-curvature="0" />
    <path
       style="fill:#ffff4f;fill-rule:nonzero"
       id="path4254-5"
       d="m 217.78475,70.910074 c -0.12998,-2.071241 1.44173,-3.866682 3.52535,-3.997439 2.07124,-0.129981 3.86668,1.441733 3.99744,3.525347 0.12998,2.07124 -1.44174,3.866682 -3.52535,3.997439 -2.07124,0.12998 -3.86668,-1.441733 -3.99744,-3.525347 z"
       inkscape:connector-curvature="0" />
    <path
       style="fill:#ffff4f;fill-rule:nonzero"
       id="path4256-9"
       d="m 201.70465,56.274644 c -0.12998,-2.071241 1.44173,-3.866682 3.52535,-3.997439 2.07124,-0.129981 3.86668,1.441733 3.99744,3.525347 0.12998,2.07124 -1.44174,3.866682 -3.52535,3.997439 -2.07124,0.12998 -3.86668,-1.441733 -3.99744,-3.525347 z"
       inkscape:connector-curvature="0" />
    <path
       style="fill:#ffff4f;fill-rule:nonzero"
       id="path4258-9"
       d="m 220.33452,70.063114 c -0.12998,-2.071241 1.44173,-3.866682 3.52535,-3.997439 2.07124,-0.129981 3.86668,1.441733 3.99744,3.525347 0.12998,2.07124 -1.44174,3.866682 -3.52535,3.997439 -2.07124,0.12998 -3.86668,-1.441733 -3.99744,-3.525347 z"
       inkscape:connector-curvature="0" />
    <path
       style="fill:#ffff4f;fill-rule:nonzero"
       id="path4260-1"
       d="m 244.00634,76.111364 c -0.12998,-2.071241 1.44173,-3.866682 3.52535,-3.997439 2.07124,-0.129981 3.86668,1.441733 3.99744,3.525347 0.12998,2.07124 -1.44174,3.866682 -3.52535,3.997439 -2.07124,0.12998 -3.86668,-1.441733 -3.99744,-3.525347 z"
       inkscape:connector-curvature="0" />
    <path
       style="fill:#ffff4f;fill-rule:nonzero"
       id="path4262-4"
       d="m 181.187,32.435574 c -0.12998,-2.071241 1.44173,-3.866682 3.52535,-3.997439 2.07124,-0.129981 3.86668,1.441733 3.99744,3.525347 0.12998,2.07124 -1.44174,3.866682 -3.52535,3.997439 -2.07124,0.12998 -3.86668,-1.441733 -3.99744,-3.525347 z"
       inkscape:connector-curvature="0" />
    <path
       style="fill:#ffff4f;fill-rule:nonzero"
       id="path4264-9"
       d="m 252.25494,51.555914 c -0.12998,-2.071241 1.44173,-3.866682 3.52535,-3.997439 2.07124,-0.129981 3.86668,1.441733 3.99744,3.525347 0.12998,2.07124 -1.44174,3.866682 -3.52535,3.997439 -2.07124,0.12998 -3.86668,-1.441733 -3.99744,-3.525347 z"
       inkscape:connector-curvature="0" />
    <path
       style="fill:#ffff4f;fill-rule:nonzero"
       id="path4266-1"
       d="m 245.37563,38.622764 c -0.12998,-2.071241 1.44173,-3.866682 3.52535,-3.997439 2.07124,-0.129981 3.86668,1.441733 3.99744,3.525347 0.12998,2.07124 -1.44174,3.866682 -3.52535,3.997439 -2.07124,0.12998 -3.86668,-1.441733 -3.99744,-3.525347 z"
       inkscape:connector-curvature="0" />
    <path
       style="fill:#ffff4f;fill-rule:nonzero"
       id="path4268-0"
       d="m 265.57172,49.250314 c -0.12998,-2.071241 1.44173,-3.866682 3.52535,-3.997439 2.07124,-0.129981 3.86668,1.441733 3.99744,3.525347 0.12998,2.07124 -1.44174,3.866682 -3.52535,3.997439 -2.07124,0.12998 -3.86668,-1.441733 -3.99744,-3.525347 z"
       inkscape:connector-curvature="0" />
    <path
       style="fill:#ffff4f;fill-rule:nonzero"
       id="path4270-7"
       d="m 276.45677,-22.197376 c -0.12998,-2.071241 1.44173,-3.866682 3.52535,-3.997439 2.07124,-0.129981 3.86668,1.441733 3.99744,3.525347 0.12998,2.07124 -1.44174,3.866682 -3.52535,3.997439 -2.07124,0.12998 -3.86668,-1.441733 -3.99744,-3.525347 z"
       inkscape:connector-curvature="0" />
    <path
       style="fill:#ffff4f;fill-rule:nonzero"
       id="path4272-5"
       d="m 290.07135,-93.8249 c -0.12998,-2.071241 1.44173,-3.866682 3.52535,-3.997439 2.07124,-0.129981 3.86668,1.441733 3.99744,3.525347 0.12998,2.07124 -1.44174,3.866682 -3.52535,3.997439 -2.07124,0.12998 -3.86668,-1.441733 -3.99744,-3.525347 z"
       inkscape:connector-curvature="0" />
    <path
       style="fill:#ffff4f;fill-rule:nonzero"
       id="path4274-8"
       d="m 318.8927,-112.52493 c -0.12998,-2.07124 1.44173,-3.86669 3.52535,-3.99744 2.07124,-0.12998 3.86668,1.44173 3.99744,3.52534 0.12998,2.07124 -1.44174,3.86669 -3.52535,3.99744 -2.07124,0.12998 -3.86668,-1.44173 -3.99744,-3.52534 z"
       inkscape:connector-curvature="0" />
    <path
       style="fill:#ffff4f;fill-rule:nonzero"
       id="path4276-7"
       d="m 314.601,-148.15247 c -0.12998,-2.07124 1.44173,-3.86668 3.52535,-3.99744 2.07124,-0.12998 3.86668,1.44173 3.99744,3.52534 0.12998,2.07125 -1.44174,3.86669 -3.52535,3.99744 -2.07124,0.12998 -3.86668,-1.44173 -3.99744,-3.52534 z"
       inkscape:connector-curvature="0" />
    <path
       style="fill:#ffff4f;fill-rule:nonzero"
       id="path4278-0"
       d="m 296.62121,-121.79727 c -0.12998,-2.07124 1.44173,-3.86668 3.52535,-3.99744 2.07124,-0.12998 3.86668,1.44174 3.99744,3.52535 0.12998,2.07124 -1.44174,3.86668 -3.52535,3.99744 -2.07124,0.12998 -3.86668,-1.44174 -3.99744,-3.52535 z"
       inkscape:connector-curvature="0" />
    <path
       style="fill:#ffff4f;fill-rule:nonzero"
       id="path4280-4"
       d="m 297.62111,-76.886497 c -0.12998,-2.071241 1.44173,-3.866682 3.52535,-3.997439 2.07124,-0.129981 3.86668,1.441733 3.99744,3.525347 0.12998,2.07124 -1.44174,3.866682 -3.52535,3.997439 -2.07124,0.12998 -3.86668,-1.441733 -3.99744,-3.525347 z"
       inkscape:connector-curvature="0" />
    <path
       style="fill:#ffff4f;fill-rule:nonzero"
       id="path4282-8"
       d="m 281.28092,-44.566853 c -0.12998,-2.071241 1.44173,-3.866682 3.52535,-3.997439 2.07124,-0.129981 3.86668,1.441733 3.99744,3.525347 0.12998,2.07124 -1.44174,3.866682 -3.52535,3.997439 -2.07124,0.12998 -3.86668,-1.441733 -3.99744,-3.525347 z"
       inkscape:connector-curvature="0" />
    <path
       style="fill:#ffff4f;fill-rule:nonzero"
       id="path4284-0"
       d="m 319.65488,-125.0286 c -0.12998,-2.07125 1.44173,-3.86669 3.52535,-3.99744 2.07124,-0.12998 3.86668,1.44173 3.99744,3.52534 0.12998,2.07124 -1.44174,3.86668 -3.52535,3.99744 -2.07124,0.12998 -3.86668,-1.44173 -3.99744,-3.52534 z"
       inkscape:connector-curvature="0" />
    <path
       style="fill:#ffff4f;fill-rule:nonzero"
       id="path4286-4"
       d="m 311.42606,-52.814644 c -0.12998,-2.071241 1.44173,-3.866682 3.52535,-3.997439 2.07124,-0.129981 3.86668,1.441733 3.99744,3.525347 0.12998,2.07124 -1.44174,3.866682 -3.52535,3.997439 -2.07124,0.12998 -3.86668,-1.441733 -3.99744,-3.525347 z"
       inkscape:connector-curvature="0" />
    <path
       style="fill:#ffff4f;fill-rule:nonzero"
       id="path4288-2"
       d="m 336.83332,-115.25436 c -0.12998,-2.07124 1.44173,-3.86668 3.52535,-3.99744 2.07124,-0.12998 3.86668,1.44173 3.99744,3.52535 0.12998,2.07124 -1.44174,3.86668 -3.52535,3.99744 -2.07124,0.12998 -3.86668,-1.44174 -3.99744,-3.52535 z"
       inkscape:connector-curvature="0" />
    <path
       style="fill:#ffff4f;fill-rule:nonzero"
       id="path4290-9"
       d="m 1102.1472,52.97126 c -0.13,-2.07124 1.4418,-3.86668 3.5254,-3.99743 2.0712,-0.12999 3.8667,1.44173 3.9974,3.52534 0.13,2.07124 -1.4417,3.86668 -3.5253,3.99744 -2.0713,0.12998 -3.8667,-1.44173 -3.9975,-3.52535 z"
       inkscape:connector-curvature="0" />
    <path
       style="fill:#ffff4f;fill-rule:nonzero"
       id="path4292-6"
       d="m 676.65714,-60.71121 c -0.12998,-2.07124 1.44173,-3.86668 3.52535,-3.99743 2.07124,-0.12999 3.86668,1.44173 3.99744,3.52534 0.12998,2.07124 -1.44174,3.86668 -3.52535,3.99744 -2.07124,0.12998 -3.86668,-1.44173 -3.99744,-3.52535 z"
       inkscape:connector-curvature="0" />
    <path
       style="fill:#ffff4f;fill-rule:nonzero"
       id="path4294-1"
       d="m 403.32944,-128.02902 c -0.12998,-2.07124 1.44173,-3.86668 3.52535,-3.99744 2.07124,-0.12998 3.86668,1.44173 3.99744,3.52535 0.12998,2.07124 -1.44174,3.86668 -3.52535,3.99744 -2.07124,0.12998 -3.86668,-1.44174 -3.99744,-3.52535 z"
       inkscape:connector-curvature="0" />
    <path
       style="fill:#ffff4f;fill-rule:nonzero"
       id="path4296-0"
       d="m 397.23925,-129.10173 c -0.12998,-2.07124 1.44173,-3.86668 3.52535,-3.99744 2.07124,-0.12998 3.86668,1.44174 3.99744,3.52535 0.12998,2.07124 -1.44174,3.86668 -3.52535,3.99744 -2.07124,0.12998 -3.86668,-1.44173 -3.99744,-3.52535 z"
       inkscape:connector-curvature="0" />
    <path
       style="fill:#ffff4f;fill-rule:nonzero"
       id="path4298-4"
       d="m 344.6242,-108.60832 c -0.12998,-2.07124 1.44173,-3.86669 3.52535,-3.99744 2.07124,-0.12998 3.86668,1.44173 3.99744,3.52534 0.12998,2.07124 -1.44174,3.86669 -3.52535,3.99744 -2.07124,0.12998 -3.86668,-1.44173 -3.99744,-3.52534 z"
       inkscape:connector-curvature="0" />
    <path
       style="fill:#ffff4f;fill-rule:nonzero"
       id="path4300-2"
       d="m 326.56503,-143.24555 c -0.12998,-2.07124 1.44173,-3.86668 3.52535,-3.99744 2.07124,-0.12998 3.86668,1.44173 3.99744,3.52534 0.12998,2.07125 -1.44174,3.86669 -3.52535,3.99744 -2.07124,0.12998 -3.86668,-1.44173 -3.99744,-3.52534 z"
       inkscape:connector-curvature="0" />
    <path
       style="fill:#ffff4f;fill-rule:nonzero"
       id="path4302-2"
       d="m 333.79023,-110.36889 c -0.12998,-2.07124 1.44173,-3.86668 3.52535,-3.99744 2.07124,-0.12998 3.86668,1.44173 3.99744,3.52534 0.12998,2.07125 -1.44174,3.86669 -3.52535,3.99744 -2.07124,0.12998 -3.86668,-1.44173 -3.99744,-3.52534 z"
       inkscape:connector-curvature="0" />
    <path
       style="fill:#ffff4f;fill-rule:nonzero"
       id="path4304-2"
       d="m 412.56652,-113.14272 c -0.12998,-2.07125 1.44173,-3.86669 3.52535,-3.99744 2.07124,-0.12998 3.86668,1.44173 3.99744,3.52534 0.12998,2.07124 -1.44174,3.86668 -3.52535,3.99744 -2.07124,0.12998 -3.86668,-1.44173 -3.99744,-3.52534 z"
       inkscape:connector-curvature="0" />
    <path
       style="fill:#ffff4f;fill-rule:nonzero"
       id="path4306-0"
       d="m 397.30039,-124.85541 c -0.12998,-2.07124 1.44173,-3.86668 3.52535,-3.99744 2.07124,-0.12998 3.86668,1.44174 3.99744,3.52535 0.12998,2.07124 -1.44174,3.86668 -3.52535,3.99744 -2.07124,0.12998 -3.86668,-1.44174 -3.99744,-3.52535 z"
       inkscape:connector-curvature="0" />
    <path
       style="fill:#ffff4f;fill-rule:nonzero"
       id="path4308-5"
       d="m 393.84639,-106.84521 c -0.12998,-2.07124 1.44173,-3.86668 3.52535,-3.99744 2.07124,-0.12998 3.86668,1.44173 3.99744,3.52535 0.12998,2.07124 -1.44174,3.86668 -3.52535,3.99743 -2.07124,0.12999 -3.86668,-1.44173 -3.99744,-3.52534 z"
       inkscape:connector-curvature="0" />
    <path
       style="fill:#ffff4f;fill-rule:nonzero"
       id="path4310-5"
       d="m 288.12397,-26.152546 c -0.12998,-2.071241 1.44173,-3.866682 3.52535,-3.997439 2.07124,-0.129981 3.86668,1.441733 3.99744,3.525347 0.12998,2.07124 -1.44174,3.866682 -3.52535,3.997439 -2.07124,0.12998 -3.86668,-1.441733 -3.99744,-3.525347 z"
       inkscape:connector-curvature="0" />
    <path
       style="fill:#ffff4f;fill-rule:nonzero"
       id="path4312-2"
       d="m 276.06147,-45.630611 c -0.12998,-2.071241 1.44173,-3.866682 3.52535,-3.997439 2.07124,-0.129981 3.86668,1.441733 3.99744,3.525347 0.12998,2.07124 -1.44174,3.866682 -3.52535,3.997439 -2.07124,0.12998 -3.86668,-1.441733 -3.99744,-3.525347 z"
       inkscape:connector-curvature="0" />
    <path
       style="fill:#ffff4f;fill-rule:nonzero"
       id="path4314-9"
       d="m 287.72808,-32.35459 c -0.12998,-2.071241 1.44173,-3.866682 3.52535,-3.997439 2.07124,-0.129981 3.86668,1.441733 3.99744,3.525347 0.12998,2.07124 -1.44174,3.866682 -3.52535,3.997439 -2.07124,0.12998 -3.86668,-1.441733 -3.99744,-3.525347 z"
       inkscape:connector-curvature="0" />
    <path
       style="fill:#ffff4f;fill-rule:nonzero"
       id="path4316-0"
       d="m 294.9863,-54.915461 c -0.12998,-2.071241 1.44173,-3.866682 3.52535,-3.997439 2.07124,-0.129981 3.86668,1.441733 3.99744,3.525347 0.12998,2.07124 -1.44174,3.866682 -3.52535,3.997439 -2.07124,0.12998 -3.86668,-1.441733 -3.99744,-3.525347 z"
       inkscape:connector-curvature="0" />
    <path
       style="fill:#ffff4f;fill-rule:nonzero"
       id="path4318-2"
       d="m 300.19328,-65.576325 c -0.12998,-2.071241 1.44173,-3.866682 3.52535,-3.997439 2.07124,-0.129981 3.86668,1.441733 3.99744,3.525347 0.12998,2.07124 -1.44174,3.866682 -3.52535,3.997439 -2.07124,0.12998 -3.86668,-1.441733 -3.99744,-3.525347 z"
       inkscape:connector-curvature="0" />
    <path
       style="fill:#ffff4f;fill-rule:nonzero"
       id="path4320-8"
       d="m 276.98954,-75.976882 c -0.12998,-2.071241 1.44173,-3.866682 3.52535,-3.997439 2.07124,-0.129981 3.86668,1.441733 3.99744,3.525347 0.12998,2.07124 -1.44174,3.866682 -3.52535,3.997439 -2.07124,0.12998 -3.86668,-1.441733 -3.99744,-3.525347 z"
       inkscape:connector-curvature="0" />
    <path
       style="fill:#ffff4f;fill-rule:nonzero"
       id="path4322-3"
       d="m 251.68589,-54.475528 c -0.12998,-2.071241 1.44173,-3.866682 3.52535,-3.997439 2.07124,-0.129981 3.86668,1.441733 3.99744,3.525347 0.12998,2.07124 -1.44174,3.866682 -3.52535,3.997439 -2.07124,0.12998 -3.86668,-1.441733 -3.99744,-3.525347 z"
       inkscape:connector-curvature="0" />
    <path
       style="fill:#ffff00;fill-rule:nonzero;stroke:#ffffff;stroke-width:15.02784729;stroke-linecap:butt;stroke-linejoin:round;stroke-miterlimit:4;stroke-dasharray:none;stroke-dashoffset:0;stroke-opacity:0.19838059"
       inkscape:connector-curvature="0"
       id="path4326-4"
       d="m 315.23931,-141.88078 c -0.22229,-3.54212 2.47278,-6.59809 6.01489,-6.82037 3.54212,-0.22229 6.59809,2.47278 6.82038,6.01489 0.22228,3.54212 -2.47278,6.59809 -6.0149,6.82037 -3.54212,0.22229 -6.59809,-2.47278 -6.82037,-6.01489 z" />
    <path
       style="fill:#ffff00;fill-rule:nonzero;stroke:#ffffff;stroke-width:15.02784729;stroke-linecap:butt;stroke-linejoin:round;stroke-miterlimit:4;stroke-dasharray:none;stroke-dashoffset:0;stroke-opacity:0.19838059"
       inkscape:connector-curvature="0"
       id="path4328-0"
       d="m 268.11991,-68.620232 c -0.22229,-3.542115 2.47278,-6.598087 6.01489,-6.820372 3.54212,-0.222286 6.59809,2.47278 6.82038,6.014895 0.22228,3.542116 -2.47278,6.598088 -6.0149,6.820373 -3.54212,0.222285 -6.59809,-2.47278 -6.82037,-6.014896 z" />
    <path
       style="fill:#ffff00;fill-rule:nonzero;stroke:#ffffff;stroke-width:15.02784729;stroke-linecap:butt;stroke-linejoin:round;stroke-miterlimit:4;stroke-dasharray:none;stroke-dashoffset:0;stroke-opacity:0.19838059"
       inkscape:connector-curvature="0"
       id="path4330-9"
       d="m 306.67011,-45.658612 c -0.22229,-3.542115 2.47278,-6.598087 6.01489,-6.820372 3.54212,-0.222286 6.59809,2.47278 6.82038,6.014895 0.22228,3.542116 -2.47278,6.598088 -6.0149,6.820373 -3.54212,0.222285 -6.59809,-2.47278 -6.82037,-6.014896 z" />
    <path
       style="fill:#ffff00;fill-rule:nonzero;stroke:#ffffff;stroke-width:15.02784729;stroke-linecap:butt;stroke-linejoin:round;stroke-miterlimit:4;stroke-dasharray:none;stroke-dashoffset:0;stroke-opacity:0.19838059"
       inkscape:connector-curvature="0"
       id="path4332-1"
       d="m 144.83371,37.073638 c -0.22229,-3.542115 2.47278,-6.598087 6.01489,-6.820372 3.54212,-0.222286 6.59809,2.47278 6.82038,6.014895 0.22228,3.542116 -2.47278,6.598088 -6.0149,6.820373 -3.54212,0.222285 -6.59809,-2.47278 -6.82037,-6.014896 z" />
    <path
       style="fill:#ffff00;fill-rule:nonzero;stroke:#ffffff;stroke-width:15.02784729;stroke-linecap:butt;stroke-linejoin:round;stroke-miterlimit:4;stroke-dasharray:none;stroke-dashoffset:0;stroke-opacity:0.19838059"
       inkscape:connector-curvature="0"
       id="path4334-9"
       d="m 391.35191,133.69405 c -0.22229,-3.54212 2.47278,-6.59809 6.01489,-6.82037 3.54212,-0.22229 6.59809,2.47278 6.82038,6.01489 0.22228,3.54212 -2.47278,6.59809 -6.0149,6.82037 -3.54212,0.22229 -6.59809,-2.47278 -6.82037,-6.01489 z" />
    <path
       style="fill:#ffff00;fill-rule:nonzero;stroke:#ffffff;stroke-width:15.02784729;stroke-linecap:butt;stroke-linejoin:round;stroke-miterlimit:4;stroke-dasharray:none;stroke-dashoffset:0;stroke-opacity:0.19838059"
       inkscape:connector-curvature="0"
       id="path4336-6"
       d="m 907.10491,-11.44277 c -0.22229,-3.54212 2.47278,-6.59809 6.01489,-6.82037 3.54212,-0.22229 6.59809,2.47278 6.82038,6.01489 0.22228,3.54212 -2.47278,6.59809 -6.0149,6.82037 -3.54212,0.22229 -6.59809,-2.47278 -6.82037,-6.01489 z" />
    <path
       style="fill:#ffff00;fill-rule:nonzero;stroke:#ffffff;stroke-width:15.02784729;stroke-linecap:butt;stroke-linejoin:round;stroke-miterlimit:4;stroke-dasharray:none;stroke-dashoffset:0;stroke-opacity:0.19838059"
       inkscape:connector-curvature="0"
       id="path4338-2"
       d="m 871.87241,-41.52962 c -0.22229,-3.54212 2.47278,-6.59809 6.01489,-6.82037 3.54212,-0.22229 6.59809,2.47278 6.82038,6.01489 0.22228,3.54212 -2.47278,6.59809 -6.0149,6.82037 -3.54212,0.22229 -6.59809,-2.47278 -6.82037,-6.01489 z" />
    <path
       style="fill:#ffff00;fill-rule:nonzero;stroke:#ffffff;stroke-width:15.02784729;stroke-linecap:butt;stroke-linejoin:round;stroke-miterlimit:4;stroke-dasharray:none;stroke-dashoffset:0;stroke-opacity:0.19838059"
       inkscape:connector-curvature="0"
       id="path4340-5"
       d="m 660.27121,-49.49695 c -0.22229,-3.54212 2.47278,-6.59809 6.01489,-6.82037 3.54212,-0.22229 6.59809,2.47278 6.82038,6.01489 0.22228,3.54212 -2.47278,6.59809 -6.0149,6.82037 -3.54212,0.22229 -6.59809,-2.47278 -6.82037,-6.01489 z" />
    <path
       style="fill:#ffff00;fill-rule:nonzero;stroke:#ffffff;stroke-width:15.02784729;stroke-linecap:butt;stroke-linejoin:round;stroke-miterlimit:4;stroke-dasharray:none;stroke-dashoffset:0;stroke-opacity:0.19838059"
       inkscape:connector-curvature="0"
       id="path4342-4"
       d="m 1086.5776,56.57395 c -0.2223,-3.54212 2.4728,-6.59809 6.0149,-6.82037 3.5421,-0.22229 6.5981,2.47278 6.8204,6.01489 0.2223,3.54212 -2.4728,6.59809 -6.0149,6.82037 -3.5421,0.22229 -6.5981,-2.47278 -6.8204,-6.01489 z" />
    <path
       style="fill:#ffff00;fill-rule:nonzero;stroke:#ffffff;stroke-width:15.02784729;stroke-linecap:butt;stroke-linejoin:round;stroke-miterlimit:4;stroke-dasharray:none;stroke-dashoffset:0;stroke-opacity:0.19838059"
       inkscape:connector-curvature="0"
       id="path4344-4"
       d="m 213.17751,107.93268 c -0.22229,-3.54212 2.47278,-6.59809 6.01489,-6.82037 3.54212,-0.22229 6.59809,2.47278 6.82038,6.01489 0.22228,3.54212 -2.47278,6.59809 -6.0149,6.82037 -3.54212,0.22229 -6.59809,-2.47278 -6.82037,-6.01489 z" />
    <path
       style="fill:#ffff00;fill-rule:nonzero;stroke:#ffffff;stroke-width:15.02784729;stroke-linecap:butt;stroke-linejoin:round;stroke-miterlimit:4;stroke-dasharray:none;stroke-dashoffset:0;stroke-opacity:0.19838059"
       inkscape:connector-curvature="0"
       id="path4346-9"
       d="m 40.019608,49.551318 c -0.222286,-3.542115 2.472779,-6.598087 6.014895,-6.820372 3.542116,-0.222286 6.598088,2.47278 6.820373,6.014895 0.222285,3.542116 -2.47278,6.598088 -6.014896,6.820373 -3.542116,0.222285 -6.598087,-2.47278 -6.820372,-6.014896 z" />
    <path
       style="fill:#ffff00;fill-rule:nonzero;stroke:#ffffff;stroke-width:15.02784729;stroke-linecap:butt;stroke-linejoin:round;stroke-miterlimit:4;stroke-dasharray:none;stroke-dashoffset:0;stroke-opacity:0.19838059"
       inkscape:connector-curvature="0"
       id="path4348-9"
       d="m 674.36821,-74.66842 c -0.22229,-3.54212 2.47278,-6.59809 6.01489,-6.82037 3.54212,-0.22229 6.59809,2.47278 6.82038,6.01489 0.22228,3.54212 -2.47278,6.59809 -6.0149,6.82037 -3.54212,0.22229 -6.59809,-2.47278 -6.82037,-6.01489 z" />
    <path
       style="fill:#ffff00;fill-rule:nonzero;stroke:#ffffff;stroke-width:15.02784729;stroke-linecap:butt;stroke-linejoin:round;stroke-miterlimit:4;stroke-dasharray:none;stroke-dashoffset:0;stroke-opacity:0.19838059"
       inkscape:connector-curvature="0"
       id="path4350-3"
       d="m 928.13021,93.43662 c -0.22229,-3.54212 2.47278,-6.59809 6.01489,-6.82037 3.54212,-0.22229 6.59809,2.47278 6.82038,6.01489 0.22228,3.54212 -2.47278,6.59809 -6.0149,6.82037 -3.54212,0.22229 -6.59809,-2.47278 -6.82037,-6.01489 z" />
    <path
       style="fill:#ffff00;fill-rule:nonzero;stroke:#ffffff;stroke-width:15.02784729;stroke-linecap:butt;stroke-linejoin:round;stroke-miterlimit:4;stroke-dasharray:none;stroke-dashoffset:0;stroke-opacity:0.19838059"
       inkscape:connector-curvature="0"
       id="path4352-6"
       d="m 708.60421,41.7688 c -0.22229,-3.54212 2.47278,-6.59809 6.01489,-6.82037 3.54212,-0.22229 6.59809,2.47278 6.82038,6.01489 0.22228,3.54212 -2.47278,6.59809 -6.0149,6.82037 -3.54212,0.22229 -6.59809,-2.47278 -6.82037,-6.01489 z" />
    <path
       style="fill:#ffff00;fill-rule:nonzero;stroke:#ffffff;stroke-width:15.02784729;stroke-linecap:butt;stroke-linejoin:round;stroke-miterlimit:4;stroke-dasharray:none;stroke-dashoffset:0;stroke-opacity:0.19838059"
       inkscape:connector-curvature="0"
       id="path4354-0"
       d="m 799.65521,5.95004 c -0.22229,-3.54212 2.47278,-6.59809 6.01489,-6.82037 3.54212,-0.22229 6.59809,2.47278 6.82038,6.01489 0.22228,3.54212 -2.47278,6.59809 -6.0149,6.82037 -3.54212,0.22229 -6.59809,-2.47278 -6.82037,-6.01489 z" />
    <path
       style="fill:#ffff00;fill-rule:nonzero;stroke:#ffffff;stroke-width:15.02784729;stroke-linecap:butt;stroke-linejoin:round;stroke-miterlimit:4;stroke-dasharray:none;stroke-dashoffset:0;stroke-opacity:0.19838059"
       inkscape:connector-curvature="0"
       id="path4356-5"
       d="m 813.62031,54.40234 c -0.22229,-3.54212 2.47278,-6.59809 6.01489,-6.82037 3.54212,-0.22229 6.59809,2.47278 6.82038,6.01489 0.22228,3.54212 -2.47278,6.59809 -6.0149,6.82037 -3.54212,0.22229 -6.59809,-2.47278 -6.82037,-6.01489 z" />
    <path
       style="fill:#ffff00;fill-rule:nonzero;stroke:#ffffff;stroke-width:15.02784729;stroke-linecap:butt;stroke-linejoin:round;stroke-miterlimit:4;stroke-dasharray:none;stroke-dashoffset:0;stroke-opacity:0.19838059"
       inkscape:connector-curvature="0"
       id="path4358-0"
       d="m 421.82291,-150.55736 c -0.22229,-3.54212 2.47278,-6.59809 6.01489,-6.82037 3.54212,-0.22229 6.59809,2.47278 6.82038,6.01489 0.22228,3.54212 -2.47278,6.59809 -6.0149,6.82037 -3.54212,0.22229 -6.59809,-2.47278 -6.82037,-6.01489 z" />
    <path
       style="fill:#ffff00;fill-rule:nonzero;stroke:#ffffff;stroke-width:15.02784729;stroke-linecap:butt;stroke-linejoin:round;stroke-miterlimit:4;stroke-dasharray:none;stroke-dashoffset:0;stroke-opacity:0.19838059"
       inkscape:connector-curvature="0"
       id="path4360-2"
       d="m 821.07851,69.36966 c -0.22229,-3.54212 2.47278,-6.59809 6.01489,-6.82037 3.54212,-0.22229 6.59809,2.47278 6.82038,6.01489 0.22228,3.54212 -2.47278,6.59809 -6.0149,6.82037 -3.54212,0.22229 -6.59809,-2.47278 -6.82037,-6.01489 z" />
    <path
       style="fill:#ffff00;fill-rule:nonzero;stroke:#ffffff;stroke-width:15.02784729;stroke-linecap:butt;stroke-linejoin:round;stroke-miterlimit:4;stroke-dasharray:none;stroke-dashoffset:0;stroke-opacity:0.19838059"
       inkscape:connector-curvature="0"
       id="path4362-9"
       d="m 289.29911,-30.737292 c -0.22229,-3.542115 2.47278,-6.598087 6.01489,-6.820372 3.54212,-0.222286 6.59809,2.47278 6.82038,6.014895 0.22228,3.542116 -2.47278,6.598088 -6.0149,6.820373 -3.54212,0.222285 -6.59809,-2.47278 -6.82037,-6.014896 z" />
    <path
       style="fill:#ffff00;fill-rule:nonzero;stroke:#ffffff;stroke-width:15.02784729;stroke-linecap:butt;stroke-linejoin:round;stroke-miterlimit:4;stroke-dasharray:none;stroke-dashoffset:0;stroke-opacity:0.19838059"
       inkscape:connector-curvature="0"
       id="path4364-4"
       d="m 274.49331,-93.494592 c -0.22229,-3.542115 2.47278,-6.598088 6.01489,-6.820368 3.54212,-0.22229 6.59809,2.472776 6.82038,6.014891 0.22228,3.542116 -2.47278,6.598088 -6.0149,6.820373 -3.54212,0.222285 -6.59809,-2.47278 -6.82037,-6.014896 z" />
    <path
       style="fill:#ffff00;fill-rule:nonzero;stroke:#ffec00;stroke-width:10.01856518;stroke-linecap:butt;stroke-linejoin:round;stroke-miterlimit:4;stroke-dasharray:none;stroke-dashoffset:0;stroke-opacity:0.36842107"
       inkscape:connector-curvature="0"
       id="path4366-3"
       d="m 875.21387,27.70106 c -0.11831,-1.88524 1.31572,-3.5113 3.20095,-3.62961 1.88524,-0.11831 3.5113,1.31572 3.62961,3.20095 0.1183,1.88524 -1.31572,3.5113 -3.20096,3.62961 -1.88523,0.1183 -3.51129,-1.31572 -3.6296,-3.20095 z" />
    <path
       style="fill:#ffff00;fill-rule:nonzero;stroke:#ffec00;stroke-width:10.01856518;stroke-linecap:butt;stroke-linejoin:round;stroke-miterlimit:4;stroke-dasharray:none;stroke-dashoffset:0;stroke-opacity:0.36842107"
       inkscape:connector-curvature="0"
       id="path4368-5"
       d="m 912.17647,-36.29591 c -0.11831,-1.88524 1.31572,-3.5113 3.20095,-3.62961 1.88524,-0.11831 3.5113,1.31572 3.62961,3.20095 0.1183,1.88524 -1.31572,3.5113 -3.20096,3.62961 -1.88523,0.1183 -3.51129,-1.31572 -3.6296,-3.20095 z" />
    <path
       style="fill:#ffff00;fill-rule:nonzero;stroke:#ffec00;stroke-width:10.01856518;stroke-linecap:butt;stroke-linejoin:round;stroke-miterlimit:4;stroke-dasharray:none;stroke-dashoffset:0;stroke-opacity:0.36842107"
       inkscape:connector-curvature="0"
       id="path4370-1"
       d="m 832.87037,36.27228 c -0.11831,-1.88524 1.31572,-3.5113 3.20095,-3.62961 1.88524,-0.11831 3.5113,1.31572 3.62961,3.20095 0.1183,1.88524 -1.31572,3.5113 -3.20096,3.62961 -1.88523,0.1183 -3.51129,-1.31572 -3.6296,-3.20095 z" />
    <path
       style="fill:#ffff00;fill-rule:nonzero;stroke:#ffec00;stroke-width:10.01856518;stroke-linecap:butt;stroke-linejoin:round;stroke-miterlimit:4;stroke-dasharray:none;stroke-dashoffset:0;stroke-opacity:0.36842107"
       inkscape:connector-curvature="0"
       id="path4372-7"
       d="m 74.454971,-53.082965 c -0.118308,-1.885233 1.315719,-3.511295 3.200952,-3.629603 1.885233,-0.118308 3.511295,1.315719 3.629603,3.200952 0.118308,1.885233 -1.315719,3.511295 -3.200952,3.629603 -1.885233,0.118308 -3.511295,-1.315719 -3.629603,-3.200952 z" />
    <path
       style="fill:#ffff00;fill-rule:nonzero;stroke:#ffec00;stroke-width:10.01856518;stroke-linecap:butt;stroke-linejoin:round;stroke-miterlimit:4;stroke-dasharray:none;stroke-dashoffset:0;stroke-opacity:0.36842107"
       inkscape:connector-curvature="0"
       id="path4374-4"
       d="m 167.79057,53.421395 c -0.11831,-1.885233 1.31572,-3.511295 3.20095,-3.629603 1.88524,-0.118308 3.5113,1.315719 3.62961,3.200952 0.1183,1.885233 -1.31572,3.511295 -3.20096,3.629603 -1.88523,0.118308 -3.51129,-1.315719 -3.6296,-3.200952 z" />
    <path
       style="fill:#ffff00;fill-rule:nonzero;stroke:#ffec00;stroke-width:10.01856518;stroke-linecap:butt;stroke-linejoin:round;stroke-miterlimit:4;stroke-dasharray:none;stroke-dashoffset:0;stroke-opacity:0.36842107"
       inkscape:connector-curvature="0"
       id="path4376-3"
       d="m 210.06867,69.412515 c -0.11831,-1.885233 1.31572,-3.511295 3.20095,-3.629603 1.88524,-0.118308 3.5113,1.315719 3.62961,3.200952 0.1183,1.885233 -1.31572,3.511295 -3.20096,3.629603 -1.88523,0.118308 -3.51129,-1.315719 -3.6296,-3.200952 z" />
    <path
       style="fill:#ffff00;fill-rule:nonzero;stroke:#ffec00;stroke-width:10.01856518;stroke-linecap:butt;stroke-linejoin:round;stroke-miterlimit:4;stroke-dasharray:none;stroke-dashoffset:0;stroke-opacity:0.36842107"
       inkscape:connector-curvature="0"
       id="path4378-1"
       d="m 116.77227,45.709355 c -0.11831,-1.885233 1.31572,-3.511295 3.20095,-3.629603 1.88524,-0.118308 3.5113,1.315719 3.62961,3.200952 0.1183,1.885233 -1.31572,3.511295 -3.20096,3.629603 -1.88523,0.118308 -3.51129,-1.315719 -3.6296,-3.200952 z" />
    <path
       style="fill:#ffff00;fill-rule:nonzero;stroke:#ffec00;stroke-width:10.01856518;stroke-linecap:butt;stroke-linejoin:round;stroke-miterlimit:4;stroke-dasharray:none;stroke-dashoffset:0;stroke-opacity:0.36842107"
       inkscape:connector-curvature="0"
       id="path4380-4"
       d="m 181.96177,46.996355 c -0.11831,-1.885233 1.31572,-3.511295 3.20095,-3.629603 1.88524,-0.118308 3.5113,1.315719 3.62961,3.200952 0.1183,1.885233 -1.31572,3.511295 -3.20096,3.629603 -1.88523,0.118308 -3.51129,-1.315719 -3.6296,-3.200952 z" />
    <path
       style="fill:#ffff00;fill-rule:nonzero;stroke:#ffec00;stroke-width:10.01856518;stroke-linecap:butt;stroke-linejoin:round;stroke-miterlimit:4;stroke-dasharray:none;stroke-dashoffset:0;stroke-opacity:0.36842107"
       inkscape:connector-curvature="0"
       id="path4382-6"
       d="m 289.75117,28.182665 c -0.11831,-1.885233 1.31572,-3.511295 3.20095,-3.629603 1.88524,-0.118308 3.5113,1.315719 3.62961,3.200952 0.1183,1.885233 -1.31572,3.511295 -3.20096,3.629603 -1.88523,0.118308 -3.51129,-1.315719 -3.6296,-3.200952 z" />
    <path
       style="fill:#ffff00;fill-rule:nonzero;stroke:#ffec00;stroke-width:10.01856518;stroke-linecap:butt;stroke-linejoin:round;stroke-miterlimit:4;stroke-dasharray:none;stroke-dashoffset:0;stroke-opacity:0.36842107"
       inkscape:connector-curvature="0"
       id="path4384-9"
       d="m 268.65647,17.769585 c -0.11831,-1.885233 1.31572,-3.511295 3.20095,-3.629603 1.88524,-0.118308 3.5113,1.315719 3.62961,3.200952 0.1183,1.885233 -1.31572,3.511295 -3.20096,3.629603 -1.88523,0.118308 -3.51129,-1.315719 -3.6296,-3.200952 z" />
    <path
       style="fill:#ffff00;fill-rule:nonzero;stroke:#ffec00;stroke-width:10.01856518;stroke-linecap:butt;stroke-linejoin:round;stroke-miterlimit:4;stroke-dasharray:none;stroke-dashoffset:0;stroke-opacity:0.36842107"
       inkscape:connector-curvature="0"
       id="path4386-4"
       d="m 286.33827,-53.589585 c -0.11831,-1.885233 1.31572,-3.511295 3.20095,-3.629603 1.88524,-0.118308 3.5113,1.315719 3.62961,3.200952 0.1183,1.885233 -1.31572,3.511295 -3.20096,3.629603 -1.88523,0.118308 -3.51129,-1.315719 -3.6296,-3.200952 z" />
    <path
       style="fill:#ffff00;fill-rule:nonzero;stroke:#ffec00;stroke-width:10.01856518;stroke-linecap:butt;stroke-linejoin:round;stroke-miterlimit:4;stroke-dasharray:none;stroke-dashoffset:0;stroke-opacity:0.36842107"
       inkscape:connector-curvature="0"
       id="path4388-2"
       d="m 85.612571,-21.616615 c -0.118308,-1.885233 1.315719,-3.511295 3.200952,-3.629603 1.885233,-0.118308 3.511295,1.315719 3.629603,3.200952 0.118308,1.885233 -1.315719,3.511295 -3.200952,3.629603 -1.885233,0.118308 -3.511295,-1.315719 -3.629603,-3.200952 z" />
    <path
       style="fill:#ffff00;fill-rule:nonzero;stroke:#ffec00;stroke-width:10.01856518;stroke-linecap:butt;stroke-linejoin:round;stroke-miterlimit:4;stroke-dasharray:none;stroke-dashoffset:0;stroke-opacity:0.36842107"
       inkscape:connector-curvature="0"
       id="path4390-2"
       d="m 482.51487,-72.725275 c -0.11831,-1.885233 1.31572,-3.511295 3.20095,-3.629603 1.88524,-0.118308 3.5113,1.315719 3.62961,3.200952 0.1183,1.885233 -1.31572,3.511295 -3.20096,3.629603 -1.88523,0.118308 -3.51129,-1.315719 -3.6296,-3.200952 z" />
    <path
       style="fill:#ffff00;fill-rule:nonzero;stroke:#ffec00;stroke-width:10.01856518;stroke-linecap:butt;stroke-linejoin:round;stroke-miterlimit:4;stroke-dasharray:none;stroke-dashoffset:0;stroke-opacity:0.36842107"
       inkscape:connector-curvature="0"
       id="path4392-6"
       d="m -2.6225615,-116.45088 c -0.11831,-1.88523 1.31572,-3.5113 3.20095002,-3.6296 1.88523998,-0.11831 3.51129998,1.31571 3.62960998,3.20095 0.1183,1.88523 -1.31572,3.51129 -3.20096,3.6296 -1.88522998,0.11831 -3.51129,-1.31572 -3.6296,-3.20095 z" />
    <path
       style="fill:#ffff00;fill-rule:nonzero;stroke:#ffec00;stroke-width:10.01856518;stroke-linecap:butt;stroke-linejoin:round;stroke-miterlimit:4;stroke-dasharray:none;stroke-dashoffset:0;stroke-opacity:0.36842107"
       inkscape:connector-curvature="0"
       id="path4394-4"
       d="m 311.01787,-123.33307 c -0.11831,-1.88523 1.31572,-3.51129 3.20095,-3.6296 1.88524,-0.11831 3.5113,1.31572 3.62961,3.20095 0.1183,1.88523 -1.31572,3.5113 -3.20096,3.6296 -1.88523,0.11831 -3.51129,-1.31572 -3.6296,-3.20095 z" />
    <path
       style="fill:#ffff00;fill-rule:nonzero;stroke:#ffec00;stroke-width:10.01856518;stroke-linecap:butt;stroke-linejoin:round;stroke-miterlimit:4;stroke-dasharray:none;stroke-dashoffset:0;stroke-opacity:0.36842107"
       inkscape:connector-curvature="0"
       id="path4396-1"
       d="m 1021.8644,-146.03847 c -0.1183,-1.88523 1.3157,-3.51129 3.201,-3.6296 1.8852,-0.11831 3.5113,1.31572 3.6296,3.20095 0.1183,1.88523 -1.3157,3.5113 -3.201,3.6296 -1.8852,0.11831 -3.5113,-1.31572 -3.6296,-3.20095 z" />
    <path
       style="fill:#ffff00;fill-rule:nonzero;stroke:#ffec00;stroke-width:10.01856518;stroke-linecap:butt;stroke-linejoin:round;stroke-miterlimit:4;stroke-dasharray:none;stroke-dashoffset:0;stroke-opacity:0.36842107"
       inkscape:connector-curvature="0"
       id="path4398-2"
       d="m 1013.0395,103.5053 c -0.1183,-1.88524 1.3157,-3.5113 3.2009,-3.62961 1.8853,-0.11831 3.5113,1.31572 3.6296,3.20095 0.1183,1.88524 -1.3157,3.5113 -3.2009,3.62961 -1.8853,0.1183 -3.5113,-1.31572 -3.6296,-3.20095 z" />
    <path
       style="fill:#ffff00;fill-rule:nonzero;stroke:#ffec00;stroke-width:10.01856518;stroke-linecap:butt;stroke-linejoin:round;stroke-miterlimit:4;stroke-dasharray:none;stroke-dashoffset:0;stroke-opacity:0.36842107"
       inkscape:connector-curvature="0"
       id="path4400-8"
       d="m 942.97187,93.15722 c -0.11831,-1.88524 1.31572,-3.5113 3.20095,-3.62961 1.88524,-0.11831 3.5113,1.31572 3.62961,3.20095 0.1183,1.88524 -1.31572,3.5113 -3.20096,3.62961 -1.88523,0.1183 -3.51129,-1.31572 -3.6296,-3.20095 z" />
    <path
       style="fill:#ffff00;fill-rule:nonzero;stroke:#ffec00;stroke-width:10.01856518;stroke-linecap:butt;stroke-linejoin:round;stroke-miterlimit:4;stroke-dasharray:none;stroke-dashoffset:0;stroke-opacity:0.36842107"
       inkscape:connector-curvature="0"
       id="path4402-8"
       d="m 953.48677,97.98983 c -0.11831,-1.88524 1.31572,-3.5113 3.20095,-3.62961 1.88524,-0.11831 3.5113,1.31572 3.62961,3.20095 0.1183,1.88524 -1.31572,3.5113 -3.20096,3.62961 -1.88523,0.1183 -3.51129,-1.31572 -3.6296,-3.20095 z" />
    <text
       xml:space="preserve"
       style="font-style:normal;font-variant:normal;font-weight:normal;font-stretch:normal;font-size:12.5px;line-height:125%;font-family:'Titillium Web';-inkscape-font-specification:'Titillium Web, Normal';text-align:end;letter-spacing:0px;word-spacing:0px;writing-mode:lr-tb;text-anchor:end;fill:#000000;fill-opacity:1;stroke:none;stroke-width:1px;stroke-linecap:butt;stroke-linejoin:miter;stroke-opacity:1"
       x="23"
       y="42"
       id="text5180"
       sodipodi:linespacing="125%"><tspan
         sodipodi:role="line"
         id="tspan5182"
         x="23"
         y="42" /></text>
    <text
       xml:space="preserve"
       style="font-style:normal;font-variant:normal;font-weight:normal;font-stretch:normal;font-size:12.5px;line-height:125%;font-family:'Titillium Web';-inkscape-font-specification:'Titillium Web, Normal';text-align:end;letter-spacing:0px;word-spacing:0px;writing-mode:lr-tb;text-anchor:end;fill:#000000;fill-opacity:1;stroke:none;stroke-width:1px;stroke-linecap:butt;stroke-linejoin:miter;stroke-opacity:1"
       x="23"
       y="-148"
       id="text5184"
       sodipodi:linespacing="125%"><tspan
         sodipodi:role="line"
         x="23"
         y="-148"
         id="tspan5190" /></text>
    <path
       d="m 421.82291,151.25592 c -0.22229,-3.54212 2.47278,-6.59809 6.01489,-6.82037 3.54212,-0.22229 6.59809,2.47278 6.82038,6.01489 0.22228,3.54212 -2.47278,6.59809 -6.0149,6.82037 -3.54212,0.22229 -6.59809,-2.47278 -6.82037,-6.01489 z"
       id="path4698"
       inkscape:connector-curvature="0"
       style="fill:#ffff00;fill-rule:nonzero;stroke:#ffffff;stroke-width:15.02784729;stroke-linecap:butt;stroke-linejoin:round;stroke-miterlimit:4;stroke-dasharray:none;stroke-dashoffset:0;stroke-opacity:0.19838059" />
    <path
       inkscape:connector-curvature="0"
       d="m 450.72847,153.85646 c -0.12998,-2.07124 1.44173,-3.86669 3.52535,-3.99744 2.07124,-0.12998 3.86668,1.44173 3.99744,3.52534 0.12998,2.07124 -1.44174,3.86669 -3.52535,3.99744 -2.07124,0.12998 -3.86668,-1.44173 -3.99744,-3.52534 z"
       id="path4700"
       style="fill:#ffff4f;fill-rule:nonzero" />
    <path
       d="m 315.23931,160.6396 c -0.22229,-3.54212 2.47278,-6.59809 6.01489,-6.82037 3.54212,-0.22229 6.59809,2.47278 6.82038,6.01489 0.22228,3.54212 -2.47278,6.59809 -6.0149,6.82037 -3.54212,0.22229 -6.59809,-2.47278 -6.82037,-6.01489 z"
       id="path4702"
       inkscape:connector-curvature="0"
       style="fill:#ffff00;fill-rule:nonzero;stroke:#ffffff;stroke-width:15.02784729;stroke-linecap:butt;stroke-linejoin:round;stroke-miterlimit:4;stroke-dasharray:none;stroke-dashoffset:0;stroke-opacity:0.19838059" />
    <path
       inkscape:connector-curvature="0"
       d="m 302.42935,149.9901 c -0.12998,-2.07124 1.44173,-3.86669 3.52535,-3.99744 2.07124,-0.12998 3.86668,1.44173 3.99744,3.52534 0.12998,2.07124 -1.44174,3.86669 -3.52535,3.99744 -2.07124,0.12998 -3.86668,-1.44173 -3.99744,-3.52534 z"
       id="path4704"
       style="fill:#ffff4f;fill-rule:nonzero" />
    <path
       inkscape:connector-curvature="0"
       d="m 314.601,153.34753 c -0.12998,-2.07124 1.44173,-3.86668 3.52535,-3.99744 2.07124,-0.12998 3.86668,1.44173 3.99744,3.52534 0.12998,2.07125 -1.44174,3.86669 -3.52535,3.99744 -2.07124,0.12998 -3.86668,-1.44173 -3.99744,-3.52534 z"
       id="path4706"
       style="fill:#ffff4f;fill-rule:nonzero" />
    <path
       d="m 1203.7016,-116.45088 c -0.1183,-1.88523 1.3157,-3.5113 3.201,-3.6296 1.8852,-0.11831 3.5113,1.31571 3.6296,3.20095 0.1183,1.88523 -1.3158,3.51129 -3.201,3.6296 -1.8852,0.11831 -3.5113,-1.31572 -3.6296,-3.20095 z"
       id="path4708"
       inkscape:connector-curvature="0"
       style="fill:#ffff00;fill-rule:nonzero;stroke:#ffec00;stroke-width:10.01856518;stroke-linecap:butt;stroke-linejoin:round;stroke-miterlimit:4;stroke-dasharray:none;stroke-dashoffset:0;stroke-opacity:0.36842107" />
    <path
       d="m 1021.1573,156.60323 c -0.1183,-1.88523 1.3157,-3.51129 3.201,-3.6296 1.8852,-0.11831 3.5113,1.31572 3.6296,3.20095 0.1183,1.88523 -1.3157,3.5113 -3.201,3.6296 -1.8852,0.11831 -3.5113,-1.31572 -3.6296,-3.20095 z"
       id="path4710"
       inkscape:connector-curvature="0"
       style="fill:#ffff00;fill-rule:nonzero;stroke:#ffec00;stroke-width:10.01856518;stroke-linecap:butt;stroke-linejoin:round;stroke-miterlimit:4;stroke-dasharray:none;stroke-dashoffset:0;stroke-opacity:0.36842107" />
  </g>
</svg>
