<?xml version="1.0" encoding="UTF-8" standalone="no"?>
<!-- Created with Inkscape (http://www.inkscape.org/) -->

<svg
   xmlns:dc="http://purl.org/dc/elements/1.1/"
   xmlns:cc="http://creativecommons.org/ns#"
   xmlns:rdf="http://www.w3.org/1999/02/22-rdf-syntax-ns#"
   xmlns:svg="http://www.w3.org/2000/svg"
   xmlns="http://www.w3.org/2000/svg"
   xmlns:sodipodi="http://sodipodi.sourceforge.net/DTD/sodipodi-0.dtd"
   xmlns:inkscape="http://www.inkscape.org/namespaces/inkscape"
   width="18.062641"
   height="17.56739"
   id="svg3141"
   version="1.1"
   inkscape:version="0.48.4 r9939"
   sodipodi:docname="moonwards-favicon.svg">
  <defs
     id="defs3143">
    <filter
       color-interpolation-filters="sRGB"
       inkscape:collect="always"
       id="filter4642"
       x="-0.27720228"
       width="1.5544046"
       y="-0.25774875"
       height="1.5154974">
      <feGaussianBlur
         inkscape:collect="always"
         stdDeviation="0.7490458"
         id="feGaussianBlur4644" />
    </filter>
    <filter
       color-interpolation-filters="sRGB"
       inkscape:collect="always"
       id="filter4490"
       x="-0.21600001"
       width="1.432"
       y="-0.27000001"
       height="1.54">
      <feGaussianBlur
         inkscape:collect="always"
         stdDeviation="1.363706"
         id="feGaussianBlur4492" />
    </filter>
    <filter
       color-interpolation-filters="sRGB"
       inkscape:collect="always"
       id="filter4480"
       x="-0.18792786"
       width="1.3758557"
       y="-0.1722672"
       height="1.3445344">
      <feGaussianBlur
         inkscape:collect="always"
         stdDeviation="0.87008081"
         id="feGaussianBlur4482" />
    </filter>
    <clipPath
       clipPathUnits="userSpaceOnUse"
       id="clipPath4505" />
    <filter
       inkscape:collect="always"
       id="filter6255"
       x="-0.15345764"
       width="1.3069153"
       y="-0.047033764"
       height="1.0940675"
       color-interpolation-filters="sRGB">
      <feGaussianBlur
         inkscape:collect="always"
         stdDeviation="0.82086822"
         id="feGaussianBlur6257" />
    </filter>
    <filter
       inkscape:collect="always"
       id="filter6283"
       color-interpolation-filters="sRGB">
      <feGaussianBlur
         inkscape:collect="always"
         stdDeviation="1.1753096"
         id="feGaussianBlur6285" />
    </filter>
    <filter
       inkscape:collect="always"
       id="filter6225"
       color-interpolation-filters="sRGB">
      <feGaussianBlur
         inkscape:collect="always"
         stdDeviation="0.95254961"
         id="feGaussianBlur6227" />
    </filter>
    <filter
       inkscape:collect="always"
       id="filter6177"
       color-interpolation-filters="sRGB">
      <feGaussianBlur
         inkscape:collect="always"
         stdDeviation="2.1190254"
         id="feGaussianBlur6179" />
    </filter>
    <filter
       inkscape:collect="always"
       id="filter6570"
       color-interpolation-filters="sRGB">
      <feGaussianBlur
         inkscape:collect="always"
         stdDeviation="1.5736152"
         id="feGaussianBlur6572" />
    </filter>
    <filter
       color-interpolation-filters="sRGB"
       inkscape:collect="always"
       id="filter4438">
      <feGaussianBlur
         inkscape:collect="always"
         stdDeviation="1.4192996"
         id="feGaussianBlur4440" />
    </filter>
    <filter
       inkscape:collect="always"
       id="filter6067"
       color-interpolation-filters="sRGB">
      <feGaussianBlur
         inkscape:collect="always"
         stdDeviation="1.0364897"
         id="feGaussianBlur6069" />
    </filter>
    <filter
       inkscape:collect="always"
       id="filter6061"
       color-interpolation-filters="sRGB">
      <feGaussianBlur
         inkscape:collect="always"
         stdDeviation="0.81524647"
         id="feGaussianBlur6063" />
    </filter>
    <filter
       inkscape:collect="always"
       id="filter6035"
       color-interpolation-filters="sRGB">
      <feGaussianBlur
         inkscape:collect="always"
         stdDeviation="1.5998371"
         id="feGaussianBlur6037" />
    </filter>
    <filter
       color-interpolation-filters="sRGB"
       inkscape:collect="always"
       id="filter4422">
      <feGaussianBlur
         inkscape:collect="always"
         stdDeviation="1.6019225"
         id="feGaussianBlur4424" />
    </filter>
    <filter
       inkscape:collect="always"
       id="filter5995"
       color-interpolation-filters="sRGB">
      <feGaussianBlur
         inkscape:collect="always"
         stdDeviation="0.98114147"
         id="feGaussianBlur5997" />
    </filter>
    <filter
       inkscape:collect="always"
       id="filter6461"
       color-interpolation-filters="sRGB">
      <feGaussianBlur
         inkscape:collect="always"
         stdDeviation="0.68334171"
         id="feGaussianBlur6463" />
    </filter>
    <filter
       inkscape:collect="always"
       id="filter6443"
       color-interpolation-filters="sRGB">
      <feGaussianBlur
         inkscape:collect="always"
         stdDeviation="0.82938289"
         id="feGaussianBlur6445" />
    </filter>
    <filter
       color-interpolation-filters="sRGB"
       inkscape:collect="always"
       id="filter5362">
      <feGaussianBlur
         inkscape:collect="always"
         stdDeviation="1.8866305"
         id="feGaussianBlur5364" />
    </filter>
    <filter
       inkscape:collect="always"
       id="filter6387"
       color-interpolation-filters="sRGB">
      <feGaussianBlur
         inkscape:collect="always"
         stdDeviation="0.86281246"
         id="feGaussianBlur6389" />
    </filter>
    <filter
       inkscape:collect="always"
       id="filter6361"
       color-interpolation-filters="sRGB">
      <feGaussianBlur
         inkscape:collect="always"
         stdDeviation="1.5272704"
         id="feGaussianBlur6363" />
    </filter>
    <filter
       inkscape:collect="always"
       id="filter6339"
       color-interpolation-filters="sRGB">
      <feGaussianBlur
         inkscape:collect="always"
         stdDeviation="1.5632851"
         id="feGaussianBlur6341" />
    </filter>
    <filter
       inkscape:collect="always"
       id="filter6301"
       color-interpolation-filters="sRGB">
      <feGaussianBlur
         inkscape:collect="always"
         stdDeviation="1.8232521"
         id="feGaussianBlur6303" />
    </filter>
  </defs>
  <sodipodi:namedview
     id="base"
     pagecolor="#ffffff"
     bordercolor="#666666"
     borderopacity="1.0"
     inkscape:pageopacity="0.0"
     inkscape:pageshadow="2"
     inkscape:zoom="2.8"
     inkscape:cx="35.568796"
     inkscape:cy="-108.59561"
     inkscape:document-units="px"
     inkscape:current-layer="layer1"
     showgrid="false"
     fit-margin-top="0"
     fit-margin-left="0"
     fit-margin-right="0"
     fit-margin-bottom="0"
     showborder="false"
     inkscape:showpageshadow="false"
     inkscape:window-width="1418"
     inkscape:window-height="840"
     inkscape:window-x="224"
     inkscape:window-y="104"
     inkscape:window-maximized="0" />
  <metadata
     id="metadata3146">
    <rdf:RDF>
      <cc:Work
         rdf:about="">
        <dc:format>image/svg+xml</dc:format>
        <dc:type
           rdf:resource="http://purl.org/dc/dcmitype/StillImage" />
        <dc:title></dc:title>
      </cc:Work>
    </rdf:RDF>
  </metadata>
  <g
     inkscape:label="Layer 1"
     inkscape:groupmode="layer"
     id="layer1"
     transform="translate(-208.64345,-220.94636)">
    <path
       sodipodi:type="arc"
       style="fill:#000000;fill-opacity:1;fill-rule:evenodd;stroke:none"
       id="path3292"
       sodipodi:cx="471.42856"
       sodipodi:cy="486.64789"
       sodipodi:rx="331.42856"
       sodipodi:ry="331.42856"
       d="m 802.85712,486.64789 c 0,183.04294 -148.38562,331.42856 -331.42856,331.42856 C 288.38562,818.07645 140,669.69083 140,486.64789 140,303.60495 288.38562,155.21933 471.42856,155.21933 c 183.04294,0 331.42856,148.38562 331.42856,331.42856 z"
       transform="matrix(0.02618239,0,0,0.02618239,205.1205,216.90824)" />
    <path
       style="fill:none;stroke:#fffc48;stroke-width:20;stroke-linecap:butt;stroke-linejoin:round;stroke-miterlimit:4;stroke-opacity:1;stroke-dasharray:20, 240;stroke-dashoffset:0;display:inline;filter:url(#filter6301)"
       d="m 777.65423,476.81296 c -20.93315,-1.02931 -25.02288,-80.56304 -12.75968,-74.43144 14.28038,7.14019 0,73.44169 0,89.31773 0,12.30387 2.58196,27.1389 7.79758,37.57015 4.22691,8.45381 13.46855,-6.27838 13.46855,-10.63306 0,-11.10949 -34.77,-43.5779 -14.17742,-53.87419 20.99558,-10.49778 11.84869,40.20353 19.13951,47.49435 1.98698,1.98698 13.33192,10.7697 17.72177,6.37984 9.75575,-9.75575 -25.24132,-33.03891 -30.48144,-38.27903"
       id="path6287"
       inkscape:connector-curvature="0"
       transform="matrix(0.02930894,0,0,0.02930894,202.52833,214.47065)" />
    <path
       style="fill:none;stroke:#fffc48;stroke-width:20;stroke-linecap:butt;stroke-linejoin:round;stroke-miterlimit:4;stroke-opacity:1;stroke-dasharray:20, 240;stroke-dashoffset:0;display:inline;filter:url(#filter6339)"
       d="m 437.39623,527.14279 c 2.31248,-2.52083 17.32267,-8.19668 11.34193,-14.17742 -12.71677,-12.71677 -40.51433,-14.39481 -28.35483,9.92419 0.67671,1.35343 11.37262,8.48599 13.46854,7.08871 1.25889,-0.83926 2.19109,-3.51211 3.54436,-2.83548 1.23234,0.61617 -1.61491,2.2651 -2.12661,3.54435 -0.51171,1.27925 0.77557,-3.27414 2.12661,-3.54435 1.48361,-0.29673 2.28546,1.99622 3.54435,2.83548 7.97377,5.31585 18.38442,-11.43437 14.88629,-18.43064 -9.47567,-18.95135 -48.69997,-9.28782 -41.11451,13.46855 1.00639,3.01917 4.67496,3.25721 6.37984,4.96209 15.69041,15.69042 49.31729,2.02555 34.73467,-19.84838 -23.71689,-35.57533 -65.52168,14.8099 -36.86128,21.97499"
       id="path6305"
       inkscape:connector-curvature="0"
       transform="matrix(0.02930894,0,0,0.02930894,202.52833,214.47065)" />
    <path
       style="fill:none;stroke:#fffc48;stroke-width:20;stroke-linecap:butt;stroke-linejoin:round;stroke-miterlimit:4;stroke-opacity:1;stroke-dasharray:20, 240;stroke-dashoffset:0;display:inline;filter:url(#filter6361)"
       d="m 307.67287,675.29679 c -17.75828,-43.39647 46.71906,-35.31073 38.27902,-18.43064 -9.21014,18.42028 -34.54523,-14.36686 -45.36773,-3.54435 -5.54083,5.54083 -2.46103,18.80509 1.41774,22.68386 4.17459,4.17459 9.70078,-6.60324 13.46854,-2.83548 0.32985,0.32985 0.27727,31.46758 14.17742,45.36773 6.50275,6.50275 23.43607,0.0433 30.48145,7.08871 4.8878,4.8878 -0.66463,13.55703 2.12661,19.13951 3.08018,6.16037 19.49671,16.83707 26.93709,20.55726 7.42531,3.71265 9.31558,-27.34521 7.79758,-31.89919 -4.1348,-12.40441 -11.34193,-24.19649 -11.34193,-37.57015 0,-4.99335 3.71576,-19.67698 11.34193,-12.05081 3.48589,3.4859 -2.12661,16.27294 -2.12661,21.26613 0,11.64848 -7.96244,23.01359 -12.05081,31.19031 -6.77162,13.54325 28.92105,51.46447 49.62096,41.11451 7.9464,-3.9732 -4.04915,-16.05163 17.72177,-26.93709 7.71621,-3.85811 10.27485,-2.48483 15.59516,2.83548 7.58153,7.58153 -10.70812,18.28053 -6.37984,26.93709 11.22391,22.44781 53.69594,34.38093 74.43144,20.55726 24.75689,-16.50459 -15.44146,-58.20426 -48.20322,-41.82338"
       id="path6343"
       inkscape:connector-curvature="0"
       transform="matrix(0.02930894,0,0,0.02930894,202.52833,214.47065)" />
    <path
       style="fill:none;stroke:#fffc48;stroke-width:20;stroke-linecap:butt;stroke-linejoin:round;stroke-miterlimit:4;stroke-opacity:1;stroke-dasharray:20, 240;stroke-dashoffset:0;display:inline;filter:url(#filter6387)"
       d="m 304.12851,662.53712 c 4.8136,-1.93946 8.8478,-4.53769 12.75968,-7.79758 1.29441,-1.07868 12.70183,-7.91326 13.46854,-6.37984 3.12113,6.24226 -21.97499,18.56138 -21.97499,24.81048 0,5.86181 28.66261,-27.33818 33.31693,-22.68387 1.94639,1.9464 -18.25506,21.26831 -19.84839,23.39274 -5.48078,7.30771 -10.63306,13.13444 -10.63306,12.75968 0,-0.2163 5.18959,-3.77185 5.67097,-4.25323 8.51395,-8.51396 18.33538,-18.33538 26.22822,-26.22822 2.59381,-2.59382 -6.96485,2.83548 -10.63307,2.83548 -7.1175,0 -21.22777,-5.74766 -24.81047,1.41774 -1.09651,2.19302 4.14511,3.02776 4.96209,4.25323 8.88651,13.32977 18.61494,27.24425 26.93709,41.11451 8.68159,14.46931 40.97277,36.43605 45.36774,49.62096 0.0881,0.26432 4.3951,8.50645 4.96209,8.50645 2.0134,0 -4.15502,-18.25572 -4.25322,-19.13952 -1.81114,-16.30025 -0.70887,-32.57909 -0.70887,-48.91208 0,-11.64812 -3.01447,-11.34901 -1.41775,-4.9621 2.47253,9.89012 6.26665,19.69346 8.50645,29.77257 0.97624,4.39308 3.18035,8.46816 4.25323,12.75968 0.23629,0.94516 0.70887,3.80973 0.70887,2.83548 0,-12.29686 -5.85171,-24.07339 -4.25322,-36.86128 0.69479,-5.55837 7.79757,-20.48791 7.79757,-14.88629 0,6.75503 -2.83548,15.14567 -2.83548,22.68387 0,2.84531 2.13644,8.50645 -0.70887,8.50645 -7.46749,0 12.79742,-39.77225 14.17742,-42.53225 1.74918,-3.49837 8.87339,-10.63306 4.96209,-10.63306 -2.45972,0 -7.98572,29.51221 -14.17741,32.60806 -2.90164,1.45081 -16.65989,-13.11269 -14.17742,-15.59516 1.21031,-1.21031 34.76659,34.29932 37.57015,37.57015 8.66324,10.10711 15.34281,20.3049 24.81048,29.77258 3.381,3.38099 5.73833,7.93229 7.79758,12.0508 0.29889,0.59777 2.08607,1.41774 1.41774,1.41774 -2.17832,0 -8.87064,-11.71264 -9.92419,-13.46854 -6.07071,-10.11787 -15.9992,-17.68632 -21.97499,-27.64597 -3.61715,-6.02857 -6.02488,-13.29054 -9.9242,-19.13951 -0.72014,-1.08022 -9.21532,-8.22408 -9.21532,-8.50645 0,-6.33637 11.49615,9.23606 17.0129,18.43064 3.94522,6.57536 33.82964,52.28554 39.69677,50.32983 7.22317,-2.40772 15.04864,-2.58995 22.68387,-3.54435 9.40465,-1.17558 21.05749,-7.79758 29.77257,-7.79758 3.69853,0 -6.36797,3.94603 -9.92419,4.96209 -9.46029,2.70294 -19.61862,1.81374 -29.0637,4.9621 -3.41438,1.13812 -9.9242,7.85229 -9.9242,4.25322 0,-4.08647 51.0387,-9.68744 51.0387,-3.54435 0,1.90503 -3.78064,-0.47258 -5.67096,-0.70887 -8.46424,-1.05803 -23.86248,-0.93948 -28.35484,-9.92419 -0.77652,-1.55305 -3.27048,-12.75968 0,-12.75968 3.83292,0 17.09746,19.63541 21.975,22.68387 2.1092,1.31825 19.84838,7.32199 19.84838,7.79758 0,9.40353 -22.59254,-31.76221 -18.43064,-25.51935 5.78772,8.68158 19.37739,15.12417 26.93709,22.68387 5.02715,5.02714 9.61711,10.63306 9.21532,10.63306 -1.9043,0 -9.92419,-24.44112 -9.92419,-26.93709 0,-4.55466 8.47029,12.0508 9.92419,12.0508 8.35495,0 -12.89686,-35.71792 -13.46854,-36.86128 -4.22348,-8.44697 -7.93711,-17.29196 -12.05081,-25.51935 -1.72021,-3.44044 -8.50645,-11.64411 -8.50645,-7.79758 0,5.6602 16.35204,20.14868 19.84839,24.81048 6.01247,8.01662 11.40332,14.88628 11.34193,14.88628 -3.81739,0 -2.35927,-7.31864 -4.25322,-10.63306 -5.03053,-8.80342 -10.78442,-17.76967 -12.75968,-27.64596 -2.20771,-11.03856 18.59303,28.35483 19.13951,28.35483 0.0644,0 -3.22761,-9.78842 -3.54435,-10.63306 -1.67431,-4.46482 -17.18621,-40.23233 -14.17742,-43.24112 2.67535,-2.67534 20.55726,41.71236 20.55726,31.89919 0,-24.30641 -20.55726,-47.62996 -20.55726,-72.30483 0,-2.13593 -1.11213,-28.35483 0,-28.35483 1.90504,0 -0.43946,3.78508 -0.70887,5.67097 -1.00422,7.02955 -1.33515,14.14296 -2.12661,21.26612 -0.77378,6.96404 -0.68431,12.80881 -0.70887,12.75968 -2.02325,-4.04649 -1.5281,-11.01931 -2.83548,-15.59516 -1.148,-4.01797 -0.83376,-7.96292 -1.41775,-12.05081 -4.65093,-32.55654 -2.03272,24.10161 -2.12661,24.10161 -0.90285,0 -5.0533,-22.64866 -5.67097,-24.81048 -0.87091,-3.04819 -6.49487,-10.74809 -4.25322,-8.50645 9.85875,9.85875 19.09087,20.50862 29.0637,30.48145 6.34432,6.34431 14.13764,12.0508 12.75968,12.0508 -0.0939,0 -18.87171,-24.12129 -20.55726,-26.22822 -0.20564,-0.25706 -11.99841,-14.88629 -9.21532,-14.88629 4.04306,0 35.75591,23.78925 36.86129,22.68387 4.53974,-4.53975 -30.58461,-22.78703 -32.60806,-24.81048 -12.62923,-12.62923 27.91977,0.2513 32.60806,2.12661 1.31896,0.52759 12.75967,4.15718 12.75967,4.9621 0,0.74047 -22.4256,-11.08367 -21.97499,-10.63306 4.03877,4.03877 17.29282,13.79814 22.68386,15.59516 9.04398,3.01466 16.93683,-29.62043 19.84839,-35.44355 4.27115,-8.54231 9.87043,-17.72177 9.21532,-17.72177 -5.88223,0 -16.34129,20.61314 -19.13952,24.81048 -1.93523,2.90285 -7.42903,11.68227 -4.96209,9.21532 3.41436,-3.41436 29.10345,-37.5304 29.0637,-37.57015 -10.50049,-10.50049 -22.71508,-8.55847 -33.31693,-26.22822 -0.70887,-1.18145 -3.50441,-3.54436 -2.12661,-3.54436 5.38168,0 22.09187,14.63617 27.64596,17.72178 5.22559,2.9031 10.19392,6.51469 15.59516,9.21532 0.94516,0.47258 3.5827,0.67052 2.83548,1.41774 -0.18081,0.18081 -14.70128,-15.50948 -15.59515,-16.30403 -6.0379,-5.36702 -12.97348,-8.83116 -19.84839,-12.75968 -2.20961,-1.26263 -7.08871,-0.29056 -7.08871,-2.83548 0,-1.18145 2.00008,1.2912 2.83549,2.12661 3.28139,3.2814 7.6564,5.55803 11.34193,8.50645 7.32691,5.86153 16.83013,13.99782 25.51935,17.72177 4.29534,1.84086 12.53194,3.15624 14.17742,4.25323"
       id="path6365"
       inkscape:connector-curvature="0"
       transform="matrix(0.02930894,0,0,0.02930894,202.52833,214.47065)" />
    <path
       style="fill:none;stroke:#fffc48;stroke-width:20;stroke-linecap:butt;stroke-linejoin:round;stroke-miterlimit:4;stroke-opacity:1;stroke-dasharray:20, 240;stroke-dashoffset:0;display:inline;filter:url(#filter5362)"
       d="m 717.40021,420.81216 c -26.18604,-3.75344 -24.29232,-56.09615 -53.87419,-70.88708 -7.74214,-3.87107 -15.58591,5.68021 -21.26612,0 -6.50446,-6.50446 -15.63947,-32.23147 -29.06371,-25.51935 -9.92821,4.96411 -10.43159,26.73563 -7.0887,23.39274 5.41722,-5.41723 8.85593,-7.26345 17.0129,-11.34194 2.64813,-1.32407 10.75828,4.25323 7.79757,4.25323 -5.08128,0 -18.61938,2.92985 -24.1016,5.67097 -16.85904,8.42952 -20.55726,24.2215 -20.55726,44.65886 0,2.59919 -0.35978,20.55725 -2.12661,20.55725 -0.46532,0 2.79735,-4.91124 2.83548,-4.96209 2.76963,-3.69285 4.21805,-11.2364 5.67097,-15.59516 5.99613,-17.98838 -5.43906,-38.04712 -14.88629,-47.49435 -4.98557,-4.98557 -54.333,-48.45327 -46.78547,-56.00079 5.75896,-5.75897 14.64285,18.1872 16.30403,19.84838 4.9938,4.9938 11.35315,-2.11539 7.79758,-5.67097 -7.158,-7.15799 -55.1028,-5.48183 -57.41854,-7.79758 -7.30896,-7.30895 -17.68622,-10.26085 -26.93709,-14.88628 -9.71986,-4.85993 -8.87913,15.59515 -15.59516,15.59515 -2.6862,0 -6.46143,-14.09582 -12.05081,-8.50645 -1.32242,1.32243 -4.53439,20.55726 -4.96209,20.55726 -0.13919,0 0.18515,-4.5918 0,-4.9621 -1.63952,-3.27903 -4.49628,-5.20514 -6.37984,-7.08871 -3.73444,-3.73444 -25.73966,4.00895 -29.0637,5.67097 -2.36291,1.18145 -0.90255,7.08871 -3.54436,7.08871 -3.32525,0 8.43603,-14.49664 -13.46854,-3.54435 -5.22717,2.61358 -38.03962,35.20881 -26.22822,41.1145 4.22114,2.11058 32.69704,-19.75939 19.84838,-32.60805 -9.18859,-9.18859 -35.19301,46.7641 -14.88629,16.30402"
       id="path6391"
       inkscape:connector-curvature="0"
       transform="matrix(0.02930894,0,0,0.02930894,202.52833,214.47065)" />
    <path
       style="fill:none;stroke:#fffc48;stroke-width:20;stroke-linecap:butt;stroke-linejoin:round;stroke-miterlimit:4;stroke-opacity:1;stroke-dasharray:20, 240;stroke-dashoffset:0;display:inline;filter:url(#filter6443)"
       d="m 688.3365,366.22911 c 2.17511,3.53689 5.88052,26.93709 9.21532,26.93709 2.44002,0 -4.61707,-26.22822 -4.25322,-26.22822 0.69544,0 1.84337,7.04226 2.12661,7.79758 2.25485,6.01294 5.63013,11.26026 8.50645,17.0129 6.9182,13.83639 -2.22443,-14.88629 0,-14.88629 1.03295,0 4.88247,26.1486 7.79758,29.06371 1.38423,1.38423 1.00161,-32.31533 3.54435,-29.77258 3.79688,3.79687 1.41775,23.64091 1.41775,29.0637 0,4.01694 4.01693,12.05081 0,12.05081 -1.29882,0 2.50661,-20.55726 4.96209,-20.55726 0.0231,0 -0.70887,11.5714 -0.70887,12.05081 0,9.61371 -3.31037,29.53167 -0.70887,34.73467"
       id="path6425"
       inkscape:connector-curvature="0"
       transform="matrix(0.02930894,0,0,0.02930894,202.52833,214.47065)" />
    <path
       style="fill:none;stroke:#fffc48;stroke-width:20;stroke-linecap:butt;stroke-linejoin:round;stroke-miterlimit:4;stroke-opacity:1;stroke-dasharray:20, 240;stroke-dashoffset:0;display:inline;filter:url(#filter6461)"
       d="m 372.88898,305.97509 c -4.60774,-3.76503 -19.1311,8.51485 -17.72177,9.92419 4.6551,4.6551 25.51935,-13.74575 25.51935,-9.21532 0,2.51268 -27.58924,14.94301 -26.93709,15.59516 2.93306,2.93306 22.68387,-10.31482 22.68387,-2.83549 0,4.01428 -24.10161,7.09112 -24.10161,7.08871 0,-1.32077 29.09565,2.09467 30.48144,0.70887 0.5932,-0.59319 -5.63417,-1.87806 -6.37983,-2.12661 -4.46158,-1.48719 -6.49453,-8.6976 -8.50645,-12.0508 -1.29231,-2.15385 -5.67097,-2.4503 -5.67097,-4.9621 0,-4.25193 17.58984,15.01822 20.55725,12.0508 2.74735,-2.74734 -11.52284,-10.30877 -13.46854,-10.63306 -3.73648,-0.62274 -11.34194,3.07915 -11.34194,-0.70887 0,-4.77867 9.44677,1.45081 14.17742,2.12661 9.74485,1.39213 19.58657,-3.90108 27.64596,-8.50645 7.40961,-4.23405 26.9371,-12.8422 26.9371,-14.17741 0,-1.18297 -45.36774,19.56266 -45.36774,19.13951 0,-2.36165 39.84936,-19.51721 44.65886,-21.26613 4.19751,-1.52636 8.62987,-2.6013 12.75968,-4.25322 0.98114,-0.39246 3.8922,-1.41774 2.83548,-1.41774 -2.04321,0 -50.32983,19.04284 -50.32983,12.0508 0,-3.08085 6.13448,0.70887 9.21532,0.70887 10.50465,0 20.72737,-2.83548 31.19032,-2.83548 20.45453,0 -41.09618,9.21532 -18.43064,9.21532 5.75034,0 11.9913,-1.30797 17.72177,-2.12661"
       id="path6447"
       inkscape:connector-curvature="0"
       transform="matrix(0.02930894,0,0,0.02930894,202.52833,214.47065)" />
    <path
       style="fill:none;stroke:#fffc48;stroke-width:20;stroke-miterlimit:4;stroke-opacity:1;stroke-dasharray:20, 240;stroke-dashoffset:0;filter:url(#filter5995)"
       d="m 551.99744,440.604 c 7.3767,2.19893 10.85267,-6.70533 13.57143,-12.14285 1.07285,-2.14571 13.05349,-19.08937 16.42857,-15.71429 11.79221,11.79221 -35.48758,28.79814 -27.85714,36.42857 3.57508,3.57509 36.60204,-31.2551 33.57143,-34.28571 -10.38406,-10.38405 -24.24251,0.93031 -22.14286,11.42857"
       id="path5977"
       inkscape:connector-curvature="0"
       transform="matrix(0.02930894,0,0,0.02930894,202.52833,214.47065)" />
    <path
       style="fill:none;stroke:#fffc48;stroke-width:20;stroke-linecap:butt;stroke-linejoin:round;stroke-miterlimit:4;stroke-opacity:1;stroke-dasharray:20, 240;stroke-dashoffset:0;filter:url(#filter4422)"
       d="m 506.28316,774.88972 c -8.64924,-0.74048 -22.66626,-6.09607 -27.85715,4.28571 -6.56285,13.12571 38.02548,25.92356 44.28572,7.14286 5.53643,-16.60931 -35.73903,-33.49719 -43.57143,-10 -4.90547,14.71642 32.29826,31.90975 42.14286,17.14286 18.79484,-28.19227 -36.66967,-25.2321 -28.57143,-41.42857 11.26022,-22.52045 31.37987,7.90584 47.14285,-7.85715 0.17677,-0.17676 -25.99398,-26.86316 -17.85714,-35 6.70935,-6.70934 8.57143,25.55522 8.57143,32.14286 0,1.19048 1.19048,3.57143 0,3.57143 -1.47018,0 2.8166,-13.36873 2.85714,-13.57143 1.3396,-6.69797 8.24211,-31.23609 -0.71428,-35.71429 -4.28347,-2.14173 -5.32317,2.14286 -7.85715,2.14286 -10.46136,0 8.57143,-18.63734 8.57143,-0.71428 0,2.37881 0.37484,6.05373 0,6.42857 -1.05925,1.05925 -12.85714,-14.31484 -12.85714,-17.14286 0,-0.6723 12.98484,-6.30088 15,-4.28571 3.00363,3.00363 2.85714,1.30912 2.85714,-5.71429 0,-1.42335 -15.24778,6.20984 -11.42857,-1.42857 1.70811,-3.41623 9.25782,-2.08706 11.42857,-6.42857 2.69494,-5.38988 -6.51209,-6.8923 -5,-11.42857 0.74438,-2.23314 4.12742,-6.74517 2.85715,-9.28572 -2.24291,-4.48581 -15.28703,2.57012 -20.71429,-2.85714 -2.17323,-2.17323 6.92065,-16.65078 7.14286,-16.42857 1.2705,1.2705 6.30552,14.28571 2.14285,14.28571 -3.10623,0 11.88764,-14.08186 6.42858,-25 -4.87199,-9.74397 -12.82401,1.42857 -17.14286,1.42857 -2.25877,0 -1.59503,-4.23724 -2.14286,-6.42857 -0.94004,-3.76018 -5.34648,-5.70717 -8.57143,-7.85714"
       id="path5999"
       inkscape:connector-curvature="0"
       transform="matrix(0.02930894,0,0,0.02930894,202.52833,214.47065)" />
    <path
       style="fill:none;stroke:#fffc48;stroke-width:20;stroke-linecap:butt;stroke-linejoin:round;stroke-miterlimit:4;stroke-opacity:1;stroke-dasharray:20, 240;stroke-dashoffset:0;filter:url(#filter6035)"
       d="m 652.89296,505.16779 c -19.83125,0.51068 -9.81022,-40.29167 3.54435,-26.93709 0.99123,0.99123 1.57618,8.34802 0.70888,9.21532 -2.54733,2.54733 -8.56974,2.1899 -10.63307,4.25323 -5.00056,5.00056 -6.40749,12.81498 -10.63306,21.26612 -0.92092,1.84184 -0.31127,9.76856 1.41774,10.63306 2.12447,1.06224 9.56203,-14.53957 13.46855,-10.63306 3.60146,3.60146 6.51844,24.67188 2.12661,29.06371 -14.75448,14.75448 -29.24086,-16.12688 -41.82338,-3.54436 -10.77789,10.77789 10.4237,25.30999 15.59516,30.48145 8.7008,8.7008 64.05053,34.48251 73.72257,24.81048 2.58265,-2.58266 -3.70585,-10.63307 -6.37984,-10.63307 -28.20221,0 -54.33645,-7.76663 -63.79838,-36.15241 -2.00724,-6.02172 -3.38208,-9.37759 1.41775,-14.17742 11.08222,-11.08222 24.49271,34.05025 31.89918,38.9879"
       id="path6021"
       inkscape:connector-curvature="0"
       transform="matrix(0.02930894,0,0,0.02930894,202.52833,214.47065)" />
    <path
       style="fill:none;stroke:#fffc48;stroke-width:20;stroke-linecap:butt;stroke-linejoin:round;stroke-miterlimit:4;stroke-opacity:1;stroke-dasharray:20, 240;stroke-dashoffset:0;filter:url(#filter6061)"
       d="m 721.65343,435.69845 c -5.02451,-1.78458 -8.50645,0.55175 -8.50645,5.67097 0,11.1985 14.52704,18.08102 21.975,10.63306 7.40222,-7.40222 -9.92419,-18.82807 -9.92419,-9.21532 0,2.67091 6.00786,11.00504 9.21532,7.79758 7.65292,-7.65292 -5.16449,-22.8527 7.0887,-26.93709 23.73779,-7.9126 14.26159,29.94092 19.84839,41.1145 4.03304,8.06608 16.14097,14.72324 14.88629,13.46855 -2.11994,-2.11993 -15.59516,-47.58728 -15.59516,-51.0387 0,-22.70254 10.63306,-22.73994 10.63306,-21.975 0,6.11578 -2.98601,15.14359 -0.70887,21.975 4.26408,12.79223 12.75967,30.74334 12.75967,44.65886 0,0.31111 0.77788,4.25323 1.41775,4.25323 1.10376,0 -4.72568,-13.23213 -5.67097,-14.17742 -5.7945,-5.79449 -10.35842,-16.18898 -12.75968,-23.39274 -4.03749,-12.11247 -25.28772,-15.75424 -35.44354,-19.13951 -1.21127,-0.40376 -7.93246,-0.64143 -9.21532,0 -1.2336,0.6168 -3.51355,4.9929 -4.25322,4.25323 -3.84294,-3.84294 -13.53477,-29.45125 1.41774,-21.975 1.05109,0.52555 7.52295,9.21532 3.54435,9.21532 -0.65175,0 -4.92728,-13.43373 -6.37984,-14.88629 -4.9806,-4.9806 -13.72393,-5.44422 -19.84838,-8.50645 -3.02345,-1.51172 -14.0254,-36.30442 -16.30403,-34.0258 -3.13859,3.1386 8.32508,11.50669 9.21532,14.17742 1.97698,5.93093 -0.61534,16.49108 2.12662,21.975 2.10339,4.20678 15.59515,5.43143 15.59515,8.50645 0,7.99943 -26.56484,-10.96969 -28.35483,-12.75968 -14.79263,-14.79263 13.07589,-20.04471 -16.30403,-34.73467 -7.45411,-3.72706 -10.04884,12.0508 -13.46854,12.0508 -4.66806,0 11.95524,-25.6149 21.26612,-16.30402 0.34573,0.34572 2.83548,1.09745 2.83548,2.12661 0,3.55222 -7.08084,-0.70887 -10.63306,-0.70887 -5.65364,0 -10.45248,7.08871 -13.46854,7.08871 -1.17218,0 -5.84459,-5.75778 -7.08871,-6.37984 -6.01395,-3.00698 -25.85082,-8.17499 -31.19032,-2.83549 -4.26492,4.26492 -7.49054,9.61716 -11.34193,13.46855 -1.48501,1.485 -0.31818,16.30403 -2.83549,16.30403 -5.03332,0 -2.74469,-30.48145 13.46855,-30.48145"
       id="path6039"
       inkscape:connector-curvature="0"
       transform="matrix(0.02930894,0,0,0.02930894,202.52833,214.47065)" />
    <path
       style="fill:none;stroke:#fffc48;stroke-width:20;stroke-linecap:butt;stroke-linejoin:round;stroke-miterlimit:4;stroke-opacity:1;stroke-dasharray:20, 240;stroke-dashoffset:0;filter:url(#filter6067)"
       d="m 515.37202,593.77665 c 26.89011,-18.03107 4.81959,19.06825 26.22822,29.77257 3.73204,1.86602 9.17289,-1.37531 11.34193,-3.54435 4.10993,-4.10993 -14.11025,-19.20668 -10.63306,-22.68387 5.67516,-5.67516 26.6665,13.73913 37.57015,2.83548 5.53699,-5.53698 -21.99942,-14.81301 -29.77257,8.50645 -1.74044,5.22131 9.98937,-3.29991 12.75968,-4.96209 10.42531,-6.25519 22.5013,-14.3386 26.22822,-25.51935 6.75802,-20.27408 -48.24026,-31.8251 -41.11451,-46.07661 12.75627,-25.51255 39.25317,17.05639 45.36773,26.22822 0.90128,1.35192 8.01974,6.6232 5.67097,7.79758 -15.89946,7.94973 -52.27223,-40.49774 -31.19032,-51.0387 15.32864,-7.66431 25.44992,35.37412 31.89919,41.82338 3.56673,3.56673 8.79483,-19.42789 10.63306,-21.26612 3.78452,-3.78452 41.82338,-8.9997 41.82338,-6.37984 0,8.80943 -51.09792,16.89447 -45.36773,28.35483 2.28843,4.57686 36.91082,-9.21532 45.36773,-9.21532 31.73809,0 -25.3199,15.79461 -17.72177,23.39274 5.71157,5.71157 46.0766,-26.60446 46.0766,20.55725 0,12.11445 -28.13361,-9.70297 -30.48144,-12.0508 -3.92571,-3.92571 27.64596,-16.98245 27.64596,-0.70887 0,7.42801 7.39894,35.20002 11.34193,41.11451 0.80703,1.21054 7.52266,16.30403 7.08871,16.30403 -2.47846,0 -9.656,-17.74738 -11.34193,-20.55726 -4.60082,-7.66803 -7.5004,-14.96262 -12.75968,-21.97499 -7.46204,-9.94939 -47.13729,-46.964 -29.0637,-56.0008 11.74796,-5.87398 26.93709,38.73105 26.93709,48.91209 0,17.46109 4.59954,35.6167 21.26613,43.94999 2.50241,1.25121 9.19562,0.66947 10.63306,3.54435 1.47666,2.95334 -15.77146,7.44499 -10.63306,17.72178 0.54997,1.09995 5.46137,3.43955 7.0887,4.25322 1.99382,0.99691 5.67097,1.3152 5.67097,3.54435 0,1.25519 -7.87556,-14.49286 5.67097,-21.26612 0.21408,-0.10704 2.30563,-2.65646 2.83548,-2.12661 0.51141,0.5114 -8.87615,7.8281 -12.75967,15.59516 -2.10745,4.21488 5.65948,15.23498 9.21532,17.0129 35.53742,17.76871 27.12898,-5.67097 36.15241,-5.67097 5.68035,0 -2.20544,14.25624 -2.83548,14.88629 -12.0284,12.02839 -41.54398,9.08598 -34.73468,-11.34194 2.89818,-8.69453 20.00093,6.93617 32.60806,-5.67096 3.51544,-3.51544 8.09881,-12.15723 4.9621,-18.43065 -0.12056,-0.24111 -6.40198,-8.50645 -4.9621,-8.50645 2.57208,0 13.11612,16.30001 17.0129,8.50645 7.78405,-15.56808 -27.78447,-29.63406 -23.39273,-34.0258 6.95768,-6.95768 21.04437,13.99928 21.97499,17.72178"
       id="path6065"
       inkscape:connector-curvature="0"
       transform="matrix(0.02930894,0,0,0.02930894,202.52833,214.47065)" />
    <path
       style="fill:none;stroke:#fffc48;stroke-width:20;stroke-linecap:butt;stroke-linejoin:round;stroke-miterlimit:4;stroke-opacity:1;stroke-dasharray:20, 240;stroke-dashoffset:0;filter:url(#filter4438)"
       d="m 496.23251,743.34839 c -2.24819,3.74697 -2.12662,2.16656 -2.12662,4.25323 0,11.72481 -23.01138,-5.67097 -20.55725,-5.67097 3.57917,0 11.90528,8.36093 14.88629,11.34193 1.94877,1.94878 3.90261,3.72349 6.37984,4.9621 0.20027,0.10014 2.83548,-0.0767 2.83548,0 0,0.51629 -9.19946,-7.37543 -17.72177,-5.67097 -17.81783,3.56357 -35.83888,0.31353 -33.31693,2.83549 0.48444,0.48444 38.98789,-0.80408 38.98789,1.41774 0,0.12597 -9.78079,-6.51918 -10.63306,-7.79758 -4.22768,-6.34153 -15.94267,-10.28094 -23.39274,-7.79758 -6.75754,2.25252 -11.67834,10.59701 -14.88628,17.0129 -1.52403,3.04805 -9.0788,8.50645 -5.67097,8.50645 2.7876,0 11.96411,-7.63847 16.30403,-8.50645 10.49993,-2.09999 24.20513,0.60535 24.10161,0.70887 -0.0592,0.0592 -45.38496,9.90696 -38.9879,16.30403 0.53502,0.53502 20.95583,0 26.93709,0 0.46829,0 2.7265,0.81785 2.12662,1.41774 -18.66521,18.66521 -40.01375,10.92698 -57.41854,-2.12661 -1.23776,-0.92832 -20.08931,-14.64536 -18.43064,-16.30403 0.3341,-0.3341 10.46566,6.56295 11.34193,7.08871 8.81042,5.28625 17.84331,7.50391 26.93709,12.0508 5.23648,2.61824 7.79031,8.14838 12.75968,10.63306 0.86543,0.43272 -8.6001,-9.85733 -11.34194,-12.0508 -11.28504,-9.02804 -29.07825,-9.25897 -34.0258,-24.10161 -3.11958,-9.35875 7.79758,-17.52809 7.79758,-25.51935 0,-5.31824 -13.28348,12.72831 -14.17741,16.30403 -1.86074,7.44293 7.75805,15.59516 5.67096,15.59516 -9.71636,0 -5.8785,-21.45615 -4.25322,-25.51935 1.00332,-2.50831 6.496,-10.69115 6.37984,-10.63306 -34.10986,17.05492 -15.41436,42.35622 12.75967,51.74757 7.55825,2.51941 15.2562,9.92419 23.39274,9.92419 4.64676,0 9.16636,2.83548 11.34193,2.83548 2.69658,0 -7.76564,-15.39399 -9.92419,-17.0129 -2.47066,-1.85299 -6.65346,-1.69136 -8.50645,-3.54435 -5.71182,-5.71182 23.32716,0.12803 26.93709,2.83548 5.061,3.79575 15.15604,4.52298 19.13951,8.50645 0.61693,0.61693 5.10718,9.77912 6.37984,8.50645 9.07043,-9.07042 -23.79736,-16.10172 3.54436,-29.77257"
       id="path6071"
       inkscape:connector-curvature="0"
       transform="matrix(0.02930894,0,0,0.02930894,202.52833,214.47065)" />
    <path
       style="fill:none;stroke:#fffc48;stroke-width:20;stroke-linecap:butt;stroke-linejoin:round;stroke-miterlimit:4;stroke-opacity:1;stroke-dasharray:20, 240;stroke-dashoffset:0;filter:url(#filter6570)"
       d="m 399.1172,715.70243 c -0.65175,4.80531 2.00858,9.57008 3.54436,14.17742 3.25492,9.76478 -16.28951,12.78871 -11.34194,22.68386 1.57195,3.14389 17.07835,21.90956 21.26613,17.72177 4.77591,-4.77591 -22.9642,-12.75967 -1.41774,-12.75967 13.47142,0 18.84422,27.23238 26.93709,19.13951 3.85962,-3.85962 0.83929,-37.15051 15.59516,-29.77257 13.38738,6.69369 -12.65336,22.02815 -1.41774,27.64596 12.518,6.259 14.01434,-34.35195 21.97499,-18.43064 0.003,0.006 -9.57635,-4.36917 -12.0508,-3.54436 -5.87452,1.95818 -11.19034,9.67013 -9.21532,15.59516 2.85812,8.57436 23.32584,27.62924 31.89918,29.77258 6.75531,1.68882 16.30403,-4.22577 16.30403,-3.54436 0,7.27691 -39.955,-2.76963 -31.89918,-26.93709 6.87401,-20.62204 44.65886,1.15326 44.65886,1.41774 0,0.25133 -1.78758,-1.78757 -2.12661,-2.12661 -3.7117,-3.7117 -9.11935,-5.60699 -13.46855,-8.50645 -6.08175,-4.0545 -25.24564,-3.25425 -31.19032,0.70887 -24.11983,16.07989 7.64654,47.88654 29.06371,42.53225"
       id="path6085"
       inkscape:connector-curvature="0"
       transform="matrix(0.02930894,0,0,0.02930894,202.52833,214.47065)" />
    <path
       style="fill:none;stroke:#fffc48;stroke-width:20;stroke-linecap:butt;stroke-linejoin:round;stroke-miterlimit:4;stroke-opacity:1;stroke-dasharray:20, 240;stroke-dashoffset:0;filter:url(#filter6177)"
       d="m 495.52364,602.99197 c 1.2065,1.77631 42.3334,67.08771 43.24112,66.63386 7.4687,-3.73436 -38.27903,-54.10409 -38.27903,-58.12741 0,-6.89462 15.52255,6.7035 16.30403,7.79758 2.19547,3.07365 28.23674,43.35921 31.19032,40.40563 9.06518,-9.06518 -46.07661,-50.59316 -46.07661,-54.58305 0,-1.09755 2.93949,-1.82418 3.54436,-2.12661 12.1694,-6.08471 35.69914,32.35246 40.40564,27.64596 2.12494,-2.12495 -27.86162,-31.80666 -22.68387,-28.35483"
       id="path6103"
       inkscape:connector-curvature="0"
       transform="matrix(0.02930894,0,0,0.02930894,202.52833,214.47065)" />
    <path
       style="fill:none;stroke:#fffc48;stroke-width:20;stroke-linecap:butt;stroke-linejoin:round;stroke-miterlimit:4;stroke-opacity:1;stroke-dasharray:20, 240;stroke-dashoffset:0;filter:url(#filter6225)"
       d="m 756.3881,561.16859 c -34.39873,-9.93539 -23.87823,82.00564 2.83549,55.29192 17.70726,-17.70726 10.45304,-63.26579 -15.59516,-54.58305 -16.25034,5.41678 -5.86944,29.67334 4.25322,34.73467 20.28028,10.14014 14.34144,-27.37354 -4.96209,-17.72177 -1.84801,0.924 -2.12662,6.72841 -2.12662,8.50645 0,27.86429 29.52202,23.684 14.88629,-0.70887 -2.31313,-3.85521 -4.54072,-7.3762 -7.79758,-10.63306 -3.78064,-3.78065 -7.06462,-8.13395 -11.34193,-11.34194"
       id="path6207"
       inkscape:connector-curvature="0"
       transform="matrix(0.02930894,0,0,0.02930894,202.52833,214.47065)" />
    <path
       style="fill:none;stroke:#fffc48;stroke-width:20;stroke-linecap:butt;stroke-linejoin:round;stroke-miterlimit:4;stroke-opacity:1;stroke-dasharray:20, 240;stroke-dashoffset:0;filter:url(#filter6283)"
       d="m 558.61314,447.74925 c -1.21153,-4.10532 -31.42565,34.49934 -26.93709,38.9879 5.59908,5.59908 18.45205,-10.61165 19.13951,-9.92419 1.12954,1.12954 -8.25177,22.73903 -14.88629,2.83548 -0.5922,-1.7766 -3.63563,-4.07066 -2.83548,-5.67096 5.68751,-11.37503 15.51599,12.20914 22.68387,-2.12662 6.04791,-12.09582 -12.25991,-20.34815 -12.05081,-20.55725 1.52697,-1.52697 13.25251,-4.76969 14.88629,-3.54436 0.96388,0.72291 -0.94516,2.36291 -0.70887,3.54436 0.0805,0.40253 11.85739,5.86438 12.75967,4.96209 5.5546,-5.55459 -19.24888,-12.92305 -5.67096,-21.97499"
       id="path6231"
       inkscape:connector-curvature="0"
       transform="matrix(0.02930894,0,0,0.02930894,202.52833,214.47065)" />
    <path
       style="fill:none;stroke:#fffc48;stroke-width:20;stroke-linecap:butt;stroke-linejoin:round;stroke-miterlimit:4;stroke-opacity:1;stroke-dasharray:20, 240;stroke-dashoffset:0;filter:url(#filter6255)"
       d="m 579.87926,436.40732 c 3.49621,-3.95677 8.50645,-7.68038 8.50645,-13.46854 0,-3.9123 0.70888,-7.98609 0.70888,-12.05081 0,-1.63429 -3.06807,-17.48919 -4.25323,-16.30403 -4.68138,4.68138 -7.31274,32.60806 -7.79758,32.60806 -2.96071,0 3.31697,-4.9888 4.25323,-7.79758 1.54241,-4.62724 0.5554,-10.75729 2.83548,-14.17742"
       id="path6233"
       inkscape:connector-curvature="0"
       transform="matrix(0.02930894,0,0,0.02930894,202.52833,214.47065)" />
    <path
       style="fill:#ebe9cf;fill-opacity:1;stroke:none;display:inline"
       d="m 208.64346,229.78408 c -0.007,5.75358 6.16193,9.86064 11.43846,8.1833 -4.5951,0 -8.82939,-2.0812 -8.82617,-8.10685 0.004,-6.18072 3.73591,-8.63655 8.29317,-8.63655 -5.89566,-1.43134 -10.89805,2.85947 -10.90546,8.5601 z"
       id="path4481"
       inkscape:connector-curvature="0"
       sodipodi:nodetypes="scscs" />
    <path
       sodipodi:type="arc"
       style="fill:#b7b7a5;fill-opacity:1;fill-rule:evenodd;stroke:none;display:inline"
       id="path4470"
       sodipodi:cx="31.964285"
       sodipodi:cy="230.18564"
       sodipodi:rx="3.75"
       sodipodi:ry="9.8214283"
       d="m 35.714285,230.18564 c 0,5.42422 -1.678932,9.82143 -3.75,9.82143 -2.071068,0 -3.75,-4.39721 -3.75,-9.82143 0,-5.42423 1.678932,-9.82143 3.75,-9.82143 2.071068,0 3.75,4.3972 3.75,9.82143 z"
       transform="matrix(0.32010342,0.0822922,-0.13521798,0.22452897,232.47733,170.48314)"
       clip-path="none" />
    <path
       style="fill:#b7b7a5;fill-opacity:1;stroke:none;display:inline"
       d="M 78.473805,256.94705 C 59.164005,198.87414 48.381745,139.79191 106.80277,78.739877 127.22446,57.398501 99.849208,62.014145 99.849208,62.014145 106.05309,54.813737 111.206,44.33865 93.313858,58.935102 80.133498,69.814904 85.023428,69.732966 80.477738,70.49058 75.93206,71.248194 74.89127,73.926766 71.35573,77.4623 c -3.53553,3.535534 -1.37998,3.474258 -2.39014,6.252177 -1.01015,2.77792 -4.12726,8.007254 -5.89503,9.269944 -0.69634,-8.201594 -9.23931,5.734411 -10.24946,9.017409 -1.01015,3.28299 -10.18926,8.0246 -13.45105,13.30004 -4.25119,6.87563 -5.1173,14.10406 -4.35968,16.12437 0.75761,2.0203 -0.70903,5.96156 -1.46665,7.22425 -0.75761,1.26269 -0.69108,4.66298 -3.97408,11.73405 -3.28299,7.07108 -5.27266,27.45796 -2.74728,28.72065 2.52538,1.26269 2.49475,0.19126 5.95631,1.32396 3.26456,1.06824 -4.21918,8.3412 -1.44126,12.63434 2.77792,4.29315 4.31853,7.8751 3.73949,12.08901 -0.96812,7.04534 -0.97478,12.21462 0.94144,17.77702 3.10867,9.02385 6.42438,4.62881 8.06327,12.23387 9.34917,43.38363 34.392195,21.78366 34.392195,21.78366 z"
       id="path4472"
       inkscape:connector-curvature="0"
       sodipodi:nodetypes="csccssscsssssssssssc"
       clip-path="url(#clipPath4505)"
       transform="matrix(1.6985539,0,0,1.6985539,174.76389,184.92248)" />
    <path
       transform="matrix(0.02930894,0,0,0.02930894,203.98951,216.03781)"
       sodipodi:type="arc"
       style="fill:#ffff50;fill-opacity:1;stroke:#fffc48;stroke-width:20;stroke-linecap:butt;stroke-linejoin:round;stroke-miterlimit:4;stroke-opacity:1;stroke-dasharray:20, 240;stroke-dashoffset:0;filter:url(#filter4480)"
       id="path4442"
       sodipodi:cx="518.71332"
       sodipodi:cy="398.32343"
       sodipodi:rx="5.5558391"
       sodipodi:ry="6.0609155"
       d="m 524.26916,398.32343 c 0,3.34735 -2.48744,6.06091 -5.55584,6.06091 -3.06841,0 -5.55584,-2.71356 -5.55584,-6.06091 0,-3.34736 2.48743,-6.06092 5.55584,-6.06092 3.0684,0 5.55584,2.71356 5.55584,6.06092 z" />
    <path
       transform="matrix(0.02930894,0,0,0.02930894,203.98951,216.03781)"
       sodipodi:type="arc"
       style="fill:#ffff50;fill-opacity:1;fill-rule:evenodd;stroke:#fffc48;stroke-width:20;stroke-linecap:butt;stroke-linejoin:round;stroke-miterlimit:4;stroke-opacity:1;stroke-dasharray:20, 240;stroke-dashoffset:0;filter:url(#filter4490)"
       id="path4484"
       sodipodi:cx="671.24634"
       sodipodi:cy="616.51636"
       sodipodi:rx="7.5761442"
       sodipodi:ry="6.0609155"
       d="m 678.82248,616.51636 c 0,3.34735 -3.39195,6.06091 -7.57614,6.06091 -4.18419,0 -7.57615,-2.71356 -7.57615,-6.06091 0,-3.34735 3.39196,-6.06092 7.57615,-6.06092 4.18419,0 7.57614,2.71357 7.57614,6.06092 z" />
    <path
       sodipodi:type="arc"
       style="fill:#ffff50;fill-opacity:1;fill-rule:evenodd;stroke:#fffc48;stroke-width:7.83040333;stroke-miterlimit:4;stroke-opacity:1;stroke-dasharray:7.83040344, 93.96484125;stroke-dashoffset:0;filter:url(#filter4642)"
       id="path4494"
       sodipodi:cx="366.1803"
       sodipodi:cy="242.75993"
       sodipodi:rx="2.5253813"
       sodipodi:ry="4.0406103"
       d="m 368.70568,242.75993 c 0,2.23157 -1.13065,4.04061 -2.52538,4.04061 -1.39473,0 -2.52538,-1.80904 -2.52538,-4.04061 0,-2.23156 1.13065,-4.04061 2.52538,-4.04061 1.39473,0 2.52538,1.80905 2.52538,4.04061 z"
       transform="matrix(0.06132402,0.04459734,-0.04916359,0.05562833,204.19916,193.37453)" />
  </g>
</svg>
