<!-- Created with Inkscape (http://www.inkscape.org/) -->
<svg xmlns:rdf="http://www.w3.org/1999/02/22-rdf-syntax-ns#" xmlns="http://www.w3.org/2000/svg" version="1.1" xmlns:cc="http://creativecommons.org/ns#" xmlns:dc="http://purl.org/dc/elements/1.1/" viewBox="0 0 327 146">
<defs></defs>
<metadata>
<rdf:RDF>
<cc:Work rdf:about="">
<dc:format>image/svg+xml</dc:format>
<dc:type rdf:resource="http://purl.org/dc/dcmitype/StillImage"/>
<dc:title/>
</cc:Work>
</rdf:RDF>
</metadata>
<g transform="translate(-36.142792,-39.895809)">
<rect fill-rule="evenodd" ry="73.2" height="146" width="327" y="39.9" x="36.1" fill="#000"/>
</g>
<g fill-rule="nonzero" transform="translate(-36.142792,-39.895809)" fill="#ffff4f">
<path d="m29,54.4c0,0.837-0.678,1.52-1.52,1.52-0.837,0-1.52-0.678-1.52-1.52,0-0.837,0.678-1.52,1.52-1.52,0.837,0,1.52,0.678,1.52,1.52z" transform="matrix(0.49497477,0,0,0.49497477,108.11348,49.969525)"/>
<path d="m29,54.4c0,0.837-0.678,1.52-1.52,1.52-0.837,0-1.52-0.678-1.52-1.52,0-0.837,0.678-1.52,1.52-1.52,0.837,0,1.52,0.678,1.52,1.52z" transform="matrix(0.49497477,0,0,0.49497477,113.26353,53.737087)"/>
<path d="m29,54.4c0,0.837-0.678,1.52-1.52,1.52-0.837,0-1.52-0.678-1.52-1.52,0-0.837,0.678-1.52,1.52-1.52,0.837,0,1.52,0.678,1.52,1.52z" transform="matrix(0.49497477,0,0,0.49497477,109.71552,50.876743)"/>
<path d="m29,54.4c0,0.837-0.678,1.52-1.52,1.52-0.837,0-1.52-0.678-1.52-1.52,0-0.837,0.678-1.52,1.52-1.52,0.837,0,1.52,0.678,1.52,1.52z" transform="matrix(0.49497477,0,0,0.49497477,118.99285,53.301008)"/>
<path d="m29,54.4c0,0.837-0.678,1.52-1.52,1.52-0.837,0-1.52-0.678-1.52-1.52,0-0.837,0.678-1.52,1.52-1.52,0.837,0,1.52,0.678,1.52,1.52z" transform="matrix(0.49497477,0,0,0.49497477,63.96948,46.06121)"/>
<path d="m29,54.4c0,0.837-0.678,1.52-1.52,1.52-0.837,0-1.52-0.678-1.52-1.52,0-0.837,0.678-1.52,1.52-1.52,0.837,0,1.52,0.678,1.52,1.52z" transform="matrix(0.49497477,0,0,0.49497477,107.53863,103.42447)"/>
<path d="m29,54.4c0,0.837-0.678,1.52-1.52,1.52-0.837,0-1.52-0.678-1.52-1.52,0-0.837,0.678-1.52,1.52-1.52,0.837,0,1.52,0.678,1.52,1.52z" transform="matrix(0.49497477,0,0,0.49497477,100.97554,118.77413)"/>
<path d="m29,54.4c0,0.837-0.678,1.52-1.52,1.52-0.837,0-1.52-0.678-1.52-1.52,0-0.837,0.678-1.52,1.52-1.52,0.837,0,1.52,0.678,1.52,1.52z" transform="matrix(0.49497477,0,0,0.49497477,111.98282,136.66312)"/>
<path d="m29,54.4c0,0.837-0.678,1.52-1.52,1.52-0.837,0-1.52-0.678-1.52-1.52,0-0.837,0.678-1.52,1.52-1.52,0.837,0,1.52,0.678,1.52,1.52z" transform="matrix(0.49497477,0,0,0.49497477,59.1307,133.5388)"/>
<path d="m29,54.4c0,0.837-0.678,1.52-1.52,1.52-0.837,0-1.52-0.678-1.52-1.52,0-0.837,0.678-1.52,1.52-1.52,0.837,0,1.52,0.678,1.52,1.52z" transform="matrix(0.49497477,0,0,0.49497477,61.480526,126.14229)"/>
<path d="m29,54.4c0,0.837-0.678,1.52-1.52,1.52-0.837,0-1.52-0.678-1.52-1.52,0-0.837,0.678-1.52,1.52-1.52,0.837,0,1.52,0.678,1.52,1.52z" transform="matrix(0.49497477,0,0,0.49497477,94.947076,140.64138)"/>
<path d="m29,54.4c0,0.837-0.678,1.52-1.52,1.52-0.837,0-1.52-0.678-1.52-1.52,0-0.837,0.678-1.52,1.52-1.52,0.837,0,1.52,0.678,1.52,1.52z" transform="matrix(0.49497477,0,0,0.49497477,79.742306,85.10945)"/>
<path d="m29,54.4c0,0.837-0.678,1.52-1.52,1.52-0.837,0-1.52-0.678-1.52-1.52,0-0.837,0.678-1.52,1.52-1.52,0.837,0,1.52,0.678,1.52,1.52z" transform="matrix(0.49497477,0,0,0.49497477,65.443245,138.10344)"/>
<path d="m29,54.4c0,0.837-0.678,1.52-1.52,1.52-0.837,0-1.52-0.678-1.52-1.52,0-0.837,0.678-1.52,1.52-1.52,0.837,0,1.52,0.678,1.52,1.52z" transform="matrix(0.49497477,0,0,0.49497477,72.579518,132.88188)"/>
<path d="m29,54.4c0,0.837-0.678,1.52-1.52,1.52-0.837,0-1.52-0.678-1.52-1.52,0-0.837,0.678-1.52,1.52-1.52,0.837,0,1.52,0.678,1.52,1.52z" transform="matrix(0.49497477,0,0,0.49497477,81.382506,83.90632)"/>
<path d="m29,54.4c0,0.837-0.678,1.52-1.52,1.52-0.837,0-1.52-0.678-1.52-1.52,0-0.837,0.678-1.52,1.52-1.52,0.837,0,1.52,0.678,1.52,1.52z" transform="matrix(0.49497477,0,0,0.49497477,148.96823,100.97778)"/>
<path d="m29,54.4c0,0.837-0.678,1.52-1.52,1.52-0.837,0-1.52-0.678-1.52-1.52,0-0.837,0.678-1.52,1.52-1.52,0.837,0,1.52,0.678,1.52,1.52z" transform="matrix(0.49497477,0,0,0.49497477,140.26818,114.66577)"/>
<path d="m29,54.4c0,0.837-0.678,1.52-1.52,1.52-0.837,0-1.52-0.678-1.52-1.52,0-0.837,0.678-1.52,1.52-1.52,0.837,0,1.52,0.678,1.52,1.52z" transform="matrix(0.49497477,0,0,0.49497477,131.3103,107.83722)"/>
<path d="m29,54.4c0,0.837-0.678,1.52-1.52,1.52-0.837,0-1.52-0.678-1.52-1.52,0-0.837,0.678-1.52,1.52-1.52,0.837,0,1.52,0.678,1.52,1.52z" transform="matrix(0.49497477,0,0,0.49497477,116.67786,100.20279)"/>
<path d="m29,54.4c0,0.837-0.678,1.52-1.52,1.52-0.837,0-1.52-0.678-1.52-1.52,0-0.837,0.678-1.52,1.52-1.52,0.837,0,1.52,0.678,1.52,1.52z" transform="matrix(0.49497477,0,0,0.49497477,129.17381,112.08925)"/>
<path d="m29,54.4c0,0.837-0.678,1.52-1.52,1.52-0.837,0-1.52-0.678-1.52-1.52,0-0.837,0.678-1.52,1.52-1.52,0.837,0,1.52,0.678,1.52,1.52z" transform="matrix(0.49497477,0,0,0.49497477,137.31285,103.42885)"/>
<path d="m29,54.4c0,0.837-0.678,1.52-1.52,1.52-0.837,0-1.52-0.678-1.52-1.52,0-0.837,0.678-1.52,1.52-1.52,0.837,0,1.52,0.678,1.52,1.52z" transform="matrix(0.49497477,0,0,0.49497477,151.22579,98.748187)"/>
<path d="m29,54.4c0,0.837-0.678,1.52-1.52,1.52-0.837,0-1.52-0.678-1.52-1.52,0-0.837,0.678-1.52,1.52-1.52,0.837,0,1.52,0.678,1.52,1.52z" transform="matrix(0.49497477,0,0,0.49497477,145.77194,69.101363)"/>
<path d="m29,54.4c0,0.837-0.678,1.52-1.52,1.52-0.837,0-1.52-0.678-1.52-1.52,0-0.837,0.678-1.52,1.52-1.52,0.837,0,1.52,0.678,1.52,1.52z" transform="matrix(0.49497477,0,0,0.49497477,144.94857,65.874359)"/>
<path d="m29,54.4c0,0.837-0.678,1.52-1.52,1.52-0.837,0-1.52-0.678-1.52-1.52,0-0.837,0.678-1.52,1.52-1.52,0.837,0,1.52,0.678,1.52,1.52z" transform="matrix(0.49497477,0,0,0.49497477,146.23207,58.690155)"/>
<path d="m29,54.4c0,0.837-0.678,1.52-1.52,1.52-0.837,0-1.52-0.678-1.52-1.52,0-0.837,0.678-1.52,1.52-1.52,0.837,0,1.52,0.678,1.52,1.52z" transform="matrix(0.49497477,0,0,0.49497477,153.46439,60.150653)"/>
<path d="m29,54.4c0,0.837-0.678,1.52-1.52,1.52-0.837,0-1.52-0.678-1.52-1.52,0-0.837,0.678-1.52,1.52-1.52,0.837,0,1.52,0.678,1.52,1.52z" transform="matrix(0.49497477,0,0,0.49497477,147.41102,65.769227)"/>
<path d="m29,54.4c0,0.837-0.678,1.52-1.52,1.52-0.837,0-1.52-0.678-1.52-1.52,0-0.837,0.678-1.52,1.52-1.52,0.837,0,1.52,0.678,1.52,1.52z" transform="matrix(0.49497477,0,0,0.49497477,73.798501,35.873306)"/>
<path d="m29,54.4c0,0.837-0.678,1.52-1.52,1.52-0.837,0-1.52-0.678-1.52-1.52,0-0.837,0.678-1.52,1.52-1.52,0.837,0,1.52,0.678,1.52,1.52z" transform="matrix(0.49497477,0,0,0.49497477,74.497984,30.184796)"/>
<path d="m29,54.4c0,0.837-0.678,1.52-1.52,1.52-0.837,0-1.52-0.678-1.52-1.52,0-0.837,0.678-1.52,1.52-1.52,0.837,0,1.52,0.678,1.52,1.52z" transform="matrix(0.49497477,0,0,0.49497477,69.790632,34.613147)"/>
<path d="m29,54.4c0,0.837-0.678,1.52-1.52,1.52-0.837,0-1.52-0.678-1.52-1.52,0-0.837,0.678-1.52,1.52-1.52,0.837,0,1.52,0.678,1.52,1.52z" transform="matrix(0.49497477,0,0,0.49497477,59.249341,41.760319)"/>
<path d="m29,54.4c0,0.837-0.678,1.52-1.52,1.52-0.837,0-1.52-0.678-1.52-1.52,0-0.837,0.678-1.52,1.52-1.52,0.837,0,1.52,0.678,1.52,1.52z" transform="matrix(0.49497477,0,0,0.49497477,65.191498,46.423167)"/>
<path d="m29,54.4c0,0.837-0.678,1.52-1.52,1.52-0.837,0-1.52-0.678-1.52-1.52,0-0.837,0.678-1.52,1.52-1.52,0.837,0,1.52,0.678,1.52,1.52z" transform="matrix(0.49497477,0,0,0.49497477,56.564188,44.281245)"/>
<path d="m29,54.4c0,0.837-0.678,1.52-1.52,1.52-0.837,0-1.52-0.678-1.52-1.52,0-0.837,0.678-1.52,1.52-1.52,0.837,0,1.52,0.678,1.52,1.52z" transform="matrix(0.49497477,0,0,0.49497477,118.21321,97.154134)"/>
<path d="m29,54.4c0,0.837-0.678,1.52-1.52,1.52-0.837,0-1.52-0.678-1.52-1.52,0-0.837,0.678-1.52,1.52-1.52,0.837,0,1.52,0.678,1.52,1.52z" transform="matrix(0.49497477,0,0,0.49497477,121.31191,101.11723)"/>
<path d="m29,54.4c0,0.837-0.678,1.52-1.52,1.52-0.837,0-1.52-0.678-1.52-1.52,0-0.837,0.678-1.52,1.52-1.52,0.837,0,1.52,0.678,1.52,1.52z" transform="matrix(0.49497477,0,0,0.49497477,108.24241,87.68755)"/>
<path d="m29,54.4c0,0.837-0.678,1.52-1.52,1.52-0.837,0-1.52-0.678-1.52-1.52,0-0.837,0.678-1.52,1.52-1.52,0.837,0,1.52,0.678,1.52,1.52z" transform="matrix(0.49497477,0,0,0.49497477,109.16165,88.581135)"/>
<path d="m29,54.4c0,0.837-0.678,1.52-1.52,1.52-0.837,0-1.52-0.678-1.52-1.52,0-0.837,0.678-1.52,1.52-1.52,0.837,0,1.52,0.678,1.52,1.52z" transform="matrix(0.49497477,0,0,0.49497477,109.78068,69.706464)"/>
<path d="m29,54.4c0,0.837-0.678,1.52-1.52,1.52-0.837,0-1.52-0.678-1.52-1.52,0-0.837,0.678-1.52,1.52-1.52,0.837,0,1.52,0.678,1.52,1.52z" transform="matrix(0.49497477,0,0,0.49497477,121.33733,55.87959)"/>
<path d="m29,54.4c0,0.837-0.678,1.52-1.52,1.52-0.837,0-1.52-0.678-1.52-1.52,0-0.837,0.678-1.52,1.52-1.52,0.837,0,1.52,0.678,1.52,1.52z" transform="matrix(0.49497477,0,0,0.49497477,127.25237,56.605015)"/>
<path d="m29,54.4c0,0.837-0.678,1.52-1.52,1.52-0.837,0-1.52-0.678-1.52-1.52,0-0.837,0.678-1.52,1.52-1.52,0.837,0,1.52,0.678,1.52,1.52z" transform="matrix(0.49497477,0,0,0.49497477,126.4076,53.671508)"/>
<path d="m29,54.4c0,0.837-0.678,1.52-1.52,1.52-0.837,0-1.52-0.678-1.52-1.52,0-0.837,0.678-1.52,1.52-1.52,0.837,0,1.52,0.678,1.52,1.52z" transform="matrix(0.49497477,0,0,0.49497477,121.09406,54.294434)"/>
<path d="m29,54.4c0,0.837-0.678,1.52-1.52,1.52-0.837,0-1.52-0.678-1.52-1.52,0-0.837,0.678-1.52,1.52-1.52,0.837,0,1.52,0.678,1.52,1.52z" transform="matrix(0.49497477,0,0,0.49497477,124.35763,53.244177)"/>
<path d="m29,54.4c0,0.837-0.678,1.52-1.52,1.52-0.837,0-1.52-0.678-1.52-1.52,0-0.837,0.678-1.52,1.52-1.52,0.837,0,1.52,0.678,1.52,1.52z" transform="matrix(0.49497477,0,0,0.49497477,127.69047,55.042596)"/>
<path d="m29,54.4c0,0.837-0.678,1.52-1.52,1.52-0.837,0-1.52-0.678-1.52-1.52,0-0.837,0.678-1.52,1.52-1.52,0.837,0,1.52,0.678,1.52,1.52z" transform="matrix(0.49497477,0,0,0.49497477,120.37445,50.217598)"/>
<path d="m29,54.4c0,0.837-0.678,1.52-1.52,1.52-0.837,0-1.52-0.678-1.52-1.52,0-0.837,0.678-1.52,1.52-1.52,0.837,0,1.52,0.678,1.52,1.52z" transform="matrix(0.49497477,0,0,0.49497477,120.19976,55.053234)"/>
<path d="m29,54.4c0,0.837-0.678,1.52-1.52,1.52-0.837,0-1.52-0.678-1.52-1.52,0-0.837,0.678-1.52,1.52-1.52,0.837,0,1.52,0.678,1.52,1.52z" transform="matrix(0.49497477,0,0,0.49497477,117.06476,51.007394)"/>
<path d="m29,54.4c0,0.837-0.678,1.52-1.52,1.52-0.837,0-1.52-0.678-1.52-1.52,0-0.837,0.678-1.52,1.52-1.52,0.837,0,1.52,0.678,1.52,1.52z" transform="matrix(0.49497477,0,0,0.49497477,112.82665,55.676307)"/>
<path d="m29,54.4c0,0.837-0.678,1.52-1.52,1.52-0.837,0-1.52-0.678-1.52-1.52,0-0.837,0.678-1.52,1.52-1.52,0.837,0,1.52,0.678,1.52,1.52z" transform="matrix(0.49497477,0,0,0.49497477,113.39296,54.777715)"/>
<path d="m29,54.4c0,0.837-0.678,1.52-1.52,1.52-0.837,0-1.52-0.678-1.52-1.52,0-0.837,0.678-1.52,1.52-1.52,0.837,0,1.52,0.678,1.52,1.52z" transform="matrix(0.49497477,0,0,0.49497477,102.87201,60.900567)"/>
<path d="m29,54.4c0,0.837-0.678,1.52-1.52,1.52-0.837,0-1.52-0.678-1.52-1.52,0-0.837,0.678-1.52,1.52-1.52,0.837,0,1.52,0.678,1.52,1.52z" transform="matrix(0.49497477,0,0,0.49497477,111.1377,87.343322)"/>
<path d="m29,54.4c0,0.837-0.678,1.52-1.52,1.52-0.837,0-1.52-0.678-1.52-1.52,0-0.837,0.678-1.52,1.52-1.52,0.837,0,1.52,0.678,1.52,1.52z" transform="matrix(0.49497477,0,0,0.49497477,108.71,87.278991)"/>
<path d="m29,54.4c0,0.837-0.678,1.52-1.52,1.52-0.837,0-1.52-0.678-1.52-1.52,0-0.837,0.678-1.52,1.52-1.52,0.837,0,1.52,0.678,1.52,1.52z" transform="matrix(0.49497477,0,0,0.49497477,123.37511,112.53249)"/>
<path d="m29,54.4c0,0.837-0.678,1.52-1.52,1.52-0.837,0-1.52-0.678-1.52-1.52,0-0.837,0.678-1.52,1.52-1.52,0.837,0,1.52,0.678,1.52,1.52z" transform="matrix(0.49497477,0,0,0.49497477,114.5924,97.385311)"/>
<path d="m29,54.4c0,0.837-0.678,1.52-1.52,1.52-0.837,0-1.52-0.678-1.52-1.52,0-0.837,0.678-1.52,1.52-1.52,0.837,0,1.52,0.678,1.52,1.52z" transform="matrix(0.49497477,0,0,0.49497477,117.61317,100.50229)"/>
<path d="m29,54.4c0,0.837-0.678,1.52-1.52,1.52-0.837,0-1.52-0.678-1.52-1.52,0-0.837,0.678-1.52,1.52-1.52,0.837,0,1.52,0.678,1.52,1.52z" transform="matrix(0.49497477,0,0,0.49497477,114.0738,97.522178)"/>
<path d="m29,54.4c0,0.837-0.678,1.52-1.52,1.52-0.837,0-1.52-0.678-1.52-1.52,0-0.837,0.678-1.52,1.52-1.52,0.837,0,1.52,0.678,1.52,1.52z" transform="matrix(0.49497477,0,0,0.49497477,109.43311,96.021167)"/>
<path d="m29,54.4c0,0.837-0.678,1.52-1.52,1.52-0.837,0-1.52-0.678-1.52-1.52,0-0.837,0.678-1.52,1.52-1.52,0.837,0,1.52,0.678,1.52,1.52z" transform="matrix(0.49497477,0,0,0.49497477,121.40299,105.50846)"/>
<path d="m29,54.4c0,0.837-0.678,1.52-1.52,1.52-0.837,0-1.52-0.678-1.52-1.52,0-0.837,0.678-1.52,1.52-1.52,0.837,0,1.52,0.678,1.52,1.52z" transform="matrix(0.49497477,0,0,0.49497477,107.48266,100.8104)"/>
<path d="m29,54.4c0,0.837-0.678,1.52-1.52,1.52-0.837,0-1.52-0.678-1.52-1.52,0-0.837,0.678-1.52,1.52-1.52,0.837,0,1.52,0.678,1.52,1.52z" transform="matrix(0.49497477,0,0,0.49497477,108.69157,103.47318)"/>
<path d="m29,54.4c0,0.837-0.678,1.52-1.52,1.52-0.837,0-1.52-0.678-1.52-1.52,0-0.837,0.678-1.52,1.52-1.52,0.837,0,1.52,0.678,1.52,1.52z" transform="matrix(0.49497477,0,0,0.49497477,104.80063,101.10326)"/>
<path d="m29,54.4c0,0.837-0.678,1.52-1.52,1.52-0.837,0-1.52-0.678-1.52-1.52,0-0.837,0.678-1.52,1.52-1.52,0.837,0,1.52,0.678,1.52,1.52z" transform="matrix(0.49497477,0,0,0.49497477,101.7386,115.20222)"/>
<path d="m29,54.4c0,0.837-0.678,1.52-1.52,1.52-0.837,0-1.52-0.678-1.52-1.52,0-0.837,0.678-1.52,1.52-1.52,0.837,0,1.52,0.678,1.52,1.52z" transform="matrix(0.49497477,0,0,0.49497477,98.130496,129.30288)"/>
<path d="m29,54.4c0,0.837-0.678,1.52-1.52,1.52-0.837,0-1.52-0.678-1.52-1.52,0-0.837,0.678-1.52,1.52-1.52,0.837,0,1.52,0.678,1.52,1.52z" transform="matrix(0.49497477,0,0,0.49497477,92.154396,132.66827)"/>
<path d="m29,54.4c0,0.837-0.678,1.52-1.52,1.52-0.837,0-1.52-0.678-1.52-1.52,0-0.837,0.678-1.52,1.52-1.52,0.837,0,1.52,0.678,1.52,1.52z" transform="matrix(0.49497477,0,0,0.49497477,92.564006,139.82027)"/>
<path d="m29,54.4c0,0.837-0.678,1.52-1.52,1.52-0.837,0-1.52-0.678-1.52-1.52,0-0.837,0.678-1.52,1.52-1.52,0.837,0,1.52,0.678,1.52,1.52z" transform="matrix(0.49497477,0,0,0.49497477,96.475776,134.79413)"/>
<path d="m29,54.4c0,0.837-0.678,1.52-1.52,1.52-0.837,0-1.52-0.678-1.52-1.52,0-0.837,0.678-1.52,1.52-1.52,0.837,0,1.52,0.678,1.52,1.52z" transform="matrix(0.49497477,0,0,0.49497477,96.838086,125.83372)"/>
<path d="m29,54.4c0,0.837-0.678,1.52-1.52,1.52-0.837,0-1.52-0.678-1.52-1.52,0-0.837,0.678-1.52,1.52-1.52,0.837,0,1.52,0.678,1.52,1.52z" transform="matrix(0.49497477,0,0,0.49497477,100.49776,119.59874)"/>
<path d="m29,54.4c0,0.837-0.678,1.52-1.52,1.52-0.837,0-1.52-0.678-1.52-1.52,0-0.837,0.678-1.52,1.52-1.52,0.837,0,1.52,0.678,1.52,1.52z" transform="matrix(0.49497477,0,0,0.49497477,91.846206,135.14994)"/>
<path d="m29,54.4c0,0.837-0.678,1.52-1.52,1.52-0.837,0-1.52-0.678-1.52-1.52,0-0.837,0.678-1.52,1.52-1.52,0.837,0,1.52,0.678,1.52,1.52z" transform="matrix(0.49497477,0,0,0.49497477,94.388596,120.8651)"/>
<path d="m29,54.4c0,0.837-0.678,1.52-1.52,1.52-0.837,0-1.52-0.678-1.52-1.52,0-0.837,0.678-1.52,1.52-1.52,0.837,0,1.52,0.678,1.52,1.52z" transform="matrix(0.49497477,0,0,0.49497477,88.545826,132.98776)"/>
<path d="m29,54.4c0,0.837-0.678,1.52-1.52,1.52-0.837,0-1.52-0.678-1.52-1.52,0-0.837,0.678-1.52,1.52-1.52,0.837,0,1.52,0.678,1.52,1.52z" transform="matrix(0.49497477,0,0,0.49497477,64.625376,41.43156)"/>
<path d="m29,54.4c0,0.837-0.678,1.52-1.52,1.52-0.837,0-1.52-0.678-1.52-1.52,0-0.837,0.678-1.52,1.52-1.52,0.837,0,1.52,0.678,1.52,1.52z" transform="matrix(0.49497477,0,0,0.49497477,147.97755,69.40133)"/>
<path d="m29,54.4c0,0.837-0.678,1.52-1.52,1.52-0.837,0-1.52-0.678-1.52-1.52,0-0.837,0.678-1.52,1.52-1.52,0.837,0,1.52,0.678,1.52,1.52z" transform="matrix(0.49497477,0,0,0.49497477,75.137583,134.70154)"/>
<path d="m29,54.4c0,0.837-0.678,1.52-1.52,1.52-0.837,0-1.52-0.678-1.52-1.52,0-0.837,0.678-1.52,1.52-1.52,0.837,0,1.52,0.678,1.52,1.52z" transform="matrix(0.49497477,0,0,0.49497477,76.337566,134.99141)"/>
<path d="m29,54.4c0,0.837-0.678,1.52-1.52,1.52-0.837,0-1.52-0.678-1.52-1.52,0-0.837,0.678-1.52,1.52-1.52,0.837,0,1.52,0.678,1.52,1.52z" transform="matrix(0.49497477,0,0,0.49497477,87.076686,131.56621)"/>
<path d="m29,54.4c0,0.837-0.678,1.52-1.52,1.52-0.837,0-1.52-0.678-1.52-1.52,0-0.837,0.678-1.52,1.52-1.52,0.837,0,1.52,0.678,1.52,1.52z" transform="matrix(0.49497477,0,0,0.49497477,90.241676,138.69304)"/>
<path d="m29,54.4c0,0.837-0.678,1.52-1.52,1.52-0.837,0-1.52-0.678-1.52-1.52,0-0.837,0.678-1.52,1.52-1.52,0.837,0,1.52,0.678,1.52,1.52z" transform="matrix(0.49497477,0,0,0.49497477,89.213206,132.05244)"/>
<path d="m29,54.4c0,0.837-0.678,1.52-1.52,1.52-0.837,0-1.52-0.678-1.52-1.52,0-0.837,0.678-1.52,1.52-1.52,0.837,0,1.52,0.678,1.52,1.52z" transform="matrix(0.49497477,0,0,0.49497477,73.483336,131.62014)"/>
<path d="m29,54.4c0,0.837-0.678,1.52-1.52,1.52-0.837,0-1.52-0.678-1.52-1.52,0-0.837,0.678-1.52,1.52-1.52,0.837,0,1.52,0.678,1.52,1.52z" transform="matrix(0.49497477,0,0,0.49497477,76.378476,134.14462)"/>
<path d="m29,54.4c0,0.837-0.678,1.52-1.52,1.52-0.837,0-1.52-0.678-1.52-1.52,0-0.837,0.678-1.52,1.52-1.52,0.837,0,1.52,0.678,1.52,1.52z" transform="matrix(0.49497477,0,0,0.49497477,77.291826,130.5995)"/>
<path d="m29,54.4c0,0.837-0.678,1.52-1.52,1.52-0.837,0-1.52-0.678-1.52-1.52,0-0.837,0.678-1.52,1.52-1.52,0.837,0,1.52,0.678,1.52,1.52z" transform="matrix(0.49497477,0,0,0.49497477,99.364606,115.84436)"/>
<path d="m29,54.4c0,0.837-0.678,1.52-1.52,1.52-0.837,0-1.52-0.678-1.52-1.52,0-0.837,0.678-1.52,1.52-1.52,0.837,0,1.52,0.678,1.52,1.52z" transform="matrix(0.49497477,0,0,0.49497477,101.52437,119.87594)"/>
<path d="m29,54.4c0,0.837-0.678,1.52-1.52,1.52-0.837,0-1.52-0.678-1.52-1.52,0-0.837,0.678-1.52,1.52-1.52,0.837,0,1.52,0.678,1.52,1.52z" transform="matrix(0.49497477,0,0,0.49497477,99.365936,117.08499)"/>
<path d="m29,54.4c0,0.837-0.678,1.52-1.52,1.52-0.837,0-1.52-0.678-1.52-1.52,0-0.837,0.678-1.52,1.52-1.52,0.837,0,1.52,0.678,1.52,1.52z" transform="matrix(0.49497477,0,0,0.49497477,97.637746,121.48921)"/>
<path d="m29,54.4c0,0.837-0.678,1.52-1.52,1.52-0.837,0-1.52-0.678-1.52-1.52,0-0.837,0.678-1.52,1.52-1.52,0.837,0,1.52,0.678,1.52,1.52z" transform="matrix(0.49497477,0,0,0.49497477,96.467026,123.54815)"/>
<path d="m29,54.4c0,0.837-0.678,1.52-1.52,1.52-0.837,0-1.52-0.678-1.52-1.52,0-0.837,0.678-1.52,1.52-1.52,0.837,0,1.52,0.678,1.52,1.52z" transform="matrix(0.49497477,0,0,0.49497477,100.96004,125.91045)"/>
<path d="m29,54.4c0,0.837-0.678,1.52-1.52,1.52-0.837,0-1.52-0.678-1.52-1.52,0-0.837,0.678-1.52,1.52-1.52,0.837,0,1.52,0.678,1.52,1.52z" transform="matrix(0.49497477,0,0,0.49497477,106.27031,121.94295)"/>
</g>
<g stroke-linejoin="round" stroke-linecap="butt" stroke-miterlimit="4" fill-rule="nonzero" stroke-dasharray="none" fill="#FF0" transform="translate(-36.142792,-39.895809)" stroke-dashoffset="0">
<path d="m223,64.7c0,0.542-0.44,0.982-0.982,0.982s-0.982-0.44-0.982-0.982,0.44-0.982,0.982-0.982,0.982,0.44,0.982,0.982z" stroke-opacity="0.19838059" transform="matrix(1.3071982,0,0,1.3071982,-184.63568,80.913639)" stroke="#FFF" stroke-width="2.29498482"/>
<path d="m223,64.7c0,0.542-0.44,0.982-0.982,0.982s-0.982-0.44-0.982-0.982,0.44-0.982,0.982-0.982,0.982,0.44,0.982,0.982z" stroke-opacity="0.19838059" transform="matrix(1.3071982,0,0,1.3071982,-174.33174,66.906534)" stroke="#FFF" stroke-width="2.29498482"/>
<path d="m223,64.7c0,0.542-0.44,0.982-0.982,0.982s-0.982-0.44-0.982-0.982,0.44-0.982,0.982-0.982,0.982,0.44,0.982,0.982z" stroke-opacity="0.19838059" transform="matrix(1.3071982,0,0,1.3071982,-181.72529,61.84972)" stroke="#FFF" stroke-width="2.29498482"/>
<path d="m223,64.7c0,0.542-0.44,0.982-0.982,0.982s-0.982-0.44-0.982-0.982,0.44-0.982,0.982-0.982,0.982,0.44,0.982,0.982z" stroke-opacity="0.19838059" transform="matrix(1.3071982,0,0,1.3071982,-148.44701,47.38982)" stroke="#FFF" stroke-width="2.29498482"/>
<path d="m223,64.7c0,0.542-0.44,0.982-0.982,0.982s-0.982-0.44-0.982-0.982,0.44-0.982,0.982-0.982,0.982,0.44,0.982,0.982z" stroke-opacity="0.19838059" transform="matrix(1.3071982,0,0,1.3071982,-196.35462,25.057162)" stroke="#FFF" stroke-width="2.29498482"/>
<path d="m223,64.7c0,0.542-0.44,0.982-0.982,0.982s-0.982-0.44-0.982-0.982,0.44-0.982,0.982-0.982,0.982,0.44,0.982,0.982z" stroke-opacity="0.19838059" transform="matrix(1.3071982,0,0,1.3071982,-174.4712,-0.945204)" stroke="#FFF" stroke-width="2.29498482"/>
<path d="m223,64.7c0,0.542-0.44,0.982-0.982,0.982s-0.982-0.44-0.982-0.982,0.44-0.982,0.982-0.982,0.982,0.44,0.982,0.982z" stroke-opacity="0.19838059" transform="matrix(1.3071982,0,0,1.3071982,-167.82775,5.489739)" stroke="#FFF" stroke-width="2.29498482"/>
<path d="m223,64.7c0,0.542-0.44,0.982-0.982,0.982s-0.982-0.44-0.982-0.982,0.44-0.982,0.982-0.982,0.982,0.44,0.982,0.982z" stroke-opacity="0.19838059" transform="matrix(1.3071982,0,0,1.3071982,-125.76847,9.72281)" stroke="#FFF" stroke-width="2.29498482"/>
<path d="m223,64.7c0,0.542-0.44,0.982-0.982,0.982s-0.982-0.44-0.982-0.982,0.44-0.982,0.982-0.982,0.982,0.44,0.982,0.982z" stroke-opacity="0.19838059" transform="matrix(1.3071982,0,0,1.3071982,-209.37846,-16.740655)" stroke="#FFF" stroke-width="2.29498482"/>
<path d="m223,64.7c0,0.542-0.44,0.982-0.982,0.982s-0.982-0.44-0.982-0.982,0.44-0.982,0.982-0.982,0.982,0.44,0.982,0.982z" stroke-opacity="0.19838059" transform="matrix(1.3071982,0,0,1.3071982,-161.17769,32.417533)" stroke="#FFF" stroke-width="2.29498482"/>
<path d="m223,64.7c0,0.542-0.44,0.982-0.982,0.982s-0.982-0.44-0.982-0.982,0.44-0.982,0.982-0.982,0.982,0.44,0.982,0.982z" stroke-opacity="0.19838059" transform="matrix(1.3071982,0,0,1.3071982,-127.40811,46.214303)" stroke="#FFF" stroke-width="2.29498482"/>
<path d="m223,64.7c0,0.542-0.44,0.982-0.982,0.982s-0.982-0.44-0.982-0.982,0.44-0.982,0.982-0.982,0.982,0.44,0.982,0.982z" stroke-opacity="0.19838059" transform="matrix(1.3071982,0,0,1.3071982,-128.89185,14.561653)" stroke="#FFF" stroke-width="2.29498482"/>
<path d="m223,64.7c0,0.542-0.44,0.982-0.982,0.982s-0.982-0.44-0.982-0.982,0.44-0.982,0.982-0.982,0.982,0.44,0.982,0.982z" stroke-opacity="0.19838059" transform="matrix(1.3071982,0,0,1.3071982,-177.3489,-22.10399)" stroke="#FFF" stroke-width="2.29498482"/>
<path d="m223,64.7c0,0.542-0.44,0.982-0.982,0.982s-0.982-0.44-0.982-0.982,0.44-0.982,0.982-0.982,0.982,0.44,0.982,0.982z" stroke-opacity="0.19838059" transform="matrix(1.3071982,0,0,1.3071982,-134.25711,-9.065061)" stroke="#FFF" stroke-width="2.29498482"/>
<path d="m223,64.7c0,0.542-0.44,0.982-0.982,0.982s-0.982-0.44-0.982-0.982,0.44-0.982,0.982-0.982,0.982,0.44,0.982,0.982z" stroke-opacity="0.19838059" transform="matrix(1.3071982,0,0,1.3071982,-152.84573,-3.067046)" stroke="#FFF" stroke-width="2.29498482"/>
<path d="m223,64.7c0,0.542-0.44,0.982-0.982,0.982s-0.982-0.44-0.982-0.982,0.44-0.982,0.982-0.982,0.982,0.44,0.982,0.982z" stroke-opacity="0.19838059" transform="matrix(1.3071982,0,0,1.3071982,-155.0223,-12.895167)" stroke="#FFF" stroke-width="2.29498482"/>
<path d="m223,64.7c0,0.542-0.44,0.982-0.982,0.982s-0.982-0.44-0.982-0.982,0.44-0.982,0.982-0.982,0.982,0.44,0.982,0.982z" stroke-opacity="0.19838059" transform="matrix(1.3071982,0,0,1.3071982,-205.97961,81.309709)" stroke="#FFF" stroke-width="2.29498482"/>
<path d="m223,64.7c0,0.542-0.44,0.982-0.982,0.982s-0.982-0.44-0.982-0.982,0.44-0.982,0.982-0.982,0.982,0.44,0.982,0.982z" stroke-opacity="0.19838059" transform="matrix(1.3071982,0,0,1.3071982,-156.3211,-15.970467)" stroke="#FFF" stroke-width="2.29498482"/>
<path d="m223,64.7c0,0.542-0.44,0.982-0.982,0.982s-0.982-0.44-0.982-0.982,0.44-0.982,0.982-0.982,0.982,0.44,0.982,0.982z" stroke-opacity="0.19838059" transform="matrix(1.3071982,0,0,1.3071982,-178.07778,59.094025)" stroke="#FFF" stroke-width="2.29498482"/>
<path d="m223,64.7c0,0.542-0.44,0.982-0.982,0.982s-0.982-0.44-0.982-0.982,0.44-0.982,0.982-0.982,0.982,0.44,0.982,0.982z" stroke-opacity="0.19838059" transform="matrix(1.3071982,0,0,1.3071982,-175.91258,71.782749)" stroke="#FFF" stroke-width="2.29498482"/>
<path d="m218,50.9c0,0.345-0.28,0.625-0.625,0.625s-0.625-0.28-0.625-0.625,0.28-0.625,0.625-0.625,0.625,0.28,0.625,0.625z" stroke-opacity="0.36842107" transform="matrix(1.0930095,0,0,1.0930095,-114.39876,20.596156)" stroke="#ffec00" stroke-width="1.82981026"/>
<path d="m218,50.9c0,0.345-0.28,0.625-0.625,0.625s-0.625-0.28-0.625-0.625,0.28-0.625,0.625-0.625,0.625,0.28,0.625,0.625z" stroke-opacity="0.36842107" transform="matrix(1.0930095,0,0,1.0930095,-122.56326,32.884601)" stroke="#ffec00" stroke-width="1.82981026"/>
<path d="m218,50.9c0,0.345-0.28,0.625-0.625,0.625s-0.625-0.28-0.625-0.625,0.28-0.625,0.625-0.625,0.625,0.28,0.625,0.625z" stroke-opacity="0.36842107" transform="matrix(1.0930095,0,0,1.0930095,-105.85518,19.417876)" stroke="#ffec00" stroke-width="1.82981026"/>
<path d="m218,50.9c0,0.345-0.28,0.625-0.625,0.625s-0.625-0.28-0.625-0.625,0.28-0.625,0.625-0.625,0.625,0.28,0.625,0.625z" stroke-opacity="0.36842107" transform="matrix(1.0930095,0,0,1.0930095,-82.32305,95.173887)" stroke="#ffec00" stroke-width="1.82981026"/>
<path d="m218,50.9c0,0.345-0.28,0.625-0.625,0.625s-0.625-0.28-0.625-0.625,0.28-0.625,0.625-0.625,0.625,0.28,0.625,0.625z" stroke-opacity="0.36842107" transform="matrix(1.0930095,0,0,1.0930095,-99.58736,72.78724)" stroke="#ffec00" stroke-width="1.82981026"/>
<path d="m218,50.9c0,0.345-0.28,0.625-0.625,0.625s-0.625-0.28-0.625-0.625,0.28-0.625,0.625-0.625,0.625,0.28,0.625,0.625z" stroke-opacity="0.36842107" transform="matrix(1.0930095,0,0,1.0930095,-107.81079,69.072602)" stroke="#ffec00" stroke-width="1.82981026"/>
<path d="m218,50.9c0,0.345-0.28,0.625-0.625,0.625s-0.625-0.28-0.625-0.625,0.28-0.625,0.625-0.625,0.625,0.28,0.625,0.625z" stroke-opacity="0.36842107" transform="matrix(1.0930095,0,0,1.0930095,-89.51902,74.961658)" stroke="#ffec00" stroke-width="1.82981026"/>
<path d="m218,50.9c0,0.345-0.28,0.625-0.625,0.625s-0.625-0.28-0.625-0.625,0.28-0.625,0.625-0.625,0.625,0.28,0.625,0.625z" stroke-opacity="0.36842107" transform="matrix(1.0930095,0,0,1.0930095,-102.49111,73.890166)" stroke="#ffec00" stroke-width="1.82981026"/>
<path d="m218,50.9c0,0.345-0.28,0.625-0.625,0.625s-0.625-0.28-0.625-0.625,0.28-0.625,0.625-0.625,0.625,0.28,0.625,0.625z" stroke-opacity="0.36842107" transform="matrix(1.0930095,0,0,1.0930095,-124.20204,76.290851)" stroke="#ffec00" stroke-width="1.82981026"/>
<path d="m218,50.9c0,0.345-0.28,0.625-0.625,0.625s-0.625-0.28-0.625-0.625,0.28-0.625,0.625-0.625,0.625,0.28,0.625,0.625z" stroke-opacity="0.36842107" transform="matrix(1.0930095,0,0,1.0930095,-120.12938,78.629277)" stroke="#ffec00" stroke-width="1.82981026"/>
<path d="m218,50.9c0,0.345-0.28,0.625-0.625,0.625s-0.625-0.28-0.625-0.625,0.28-0.625,0.625-0.625,0.625,0.28,0.625,0.625z" stroke-opacity="0.36842107" transform="matrix(1.0930095,0,0,1.0930095,-124.54447,92.625617)" stroke="#ffec00" stroke-width="1.82981026"/>
<path d="m218,50.9c0,0.345-0.28,0.625-0.625,0.625s-0.625-0.28-0.625-0.625,0.28-0.625,0.625-0.625,0.625,0.28,0.625,0.625z" stroke-opacity="0.36842107" transform="matrix(1.0930095,0,0,1.0930095,-84.15262,88.765107)" stroke="#ffec00" stroke-width="1.82981026"/>
<path d="m218,50.9c0,0.345-0.28,0.625-0.625,0.625s-0.625-0.28-0.625-0.625,0.28-0.625,0.625-0.625,0.625,0.28,0.625,0.625z" stroke-opacity="0.36842107" transform="matrix(1.0930095,0,0,1.0930095,-163.86945,93.98534)" stroke="#ffec00" stroke-width="1.82981026"/>
<path d="m218,50.9c0,0.345-0.28,0.625-0.625,0.625s-0.625-0.28-0.625-0.625,0.28-0.625,0.625-0.625,0.625,0.28,0.625,0.625z" stroke-opacity="0.36842107" transform="matrix(1.0930095,0,0,1.0930095,-148.11735,115.88353)" stroke="#ffec00" stroke-width="1.82981026"/>
<path d="m218,50.9c0,0.345-0.28,0.625-0.625,0.625s-0.625-0.28-0.625-0.625,0.28-0.625,0.625-0.625,0.625,0.28,0.625,0.625z" stroke-opacity="0.36842107" transform="matrix(1.0930095,0,0,1.0930095,-130.33358,106.21256)" stroke="#ffec00" stroke-width="1.82981026"/>
<path d="m218,50.9c0,0.345-0.28,0.625-0.625,0.625s-0.625-0.28-0.625-0.625,0.28-0.625,0.625-0.625,0.625,0.28,0.625,0.625z" stroke-opacity="0.36842107" transform="matrix(1.0930095,0,0,1.0930095,-148.68282,111.72419)" stroke="#ffec00" stroke-width="1.82981026"/>
<path d="m218,50.9c0,0.345-0.28,0.625-0.625,0.625s-0.625-0.28-0.625-0.625,0.28-0.625,0.625-0.625,0.625,0.28,0.625,0.625z" stroke-opacity="0.36842107" transform="matrix(1.0930095,0,0,1.0930095,-140.91099,3.769859)" stroke="#ffec00" stroke-width="1.82981026"/>
<path d="m218,50.9c0,0.345-0.28,0.625-0.625,0.625s-0.625-0.28-0.625-0.625,0.28-0.625,0.625-0.625,0.625,0.28,0.625,0.625z" stroke-opacity="0.36842107" transform="matrix(1.0930095,0,0,1.0930095,-127.08029,6.70765)" stroke="#ffec00" stroke-width="1.82981026"/>
<path d="m218,50.9c0,0.345-0.28,0.625-0.625,0.625s-0.625-0.28-0.625-0.625,0.28-0.625,0.625-0.625,0.625,0.28,0.625,0.625z" stroke-opacity="0.36842107" transform="matrix(1.0930095,0,0,1.0930095,-129.11483,5.613343)" stroke="#ffec00" stroke-width="1.82981026"/>
</g>
<g transform="translate(339.39438,-155.33407)">
<path fill="#ebe9cf" d="m-335,228c-0.0429,39.5,31.6,70.1,69.7,70-26.3,0-58.7-27.7-58.7-69.1,0.0189-42.4,32.6-70.3,58.7-70.3-37.3,0.133-69.7,30.2-69.7,69.4z"/>
<g fill="#a0a091">
<path d="m35.7,230c0,5.42-1.68,9.82-3.75,9.82s-3.75-4.4-3.75-9.82,1.68-9.82,3.75-9.82,3.75,4.4,3.75,9.82z" clip-path="none" fill-rule="evenodd" transform="matrix(0.32790531,-0.10651501,0.09712413,0.35961033,-363.35782,162.50846)"/>
<path d="M58.3,262c-16.7-52-16.5-130,33.6-186,19.1-22.2,7.9-13.5,7.9-13.5,6.2-7.2,11.2-17.7-6.5-3.1-13.2,10.9-8.3,10.8-12.8,11.6-4.6,0.7-5.6,3.4-9.1,7-3.54,3.54-1.38,3.47-2.39,6.25s-4.13,8.01-5.9,9.27c-0.696-8.2-9.24,5.73-10.2,9.02-1.01,3.28-10.2,8.02-13.5,13.3-4.25,6.88-5.12,14.1-4.36,16.1,0.758,2.02-0.709,5.96-1.47,7.22-0.758,1.26-0.691,4.66-3.97,11.7-3.28,7.07-5.27,27.5-2.75,28.7,2.53,1.26,2.49,0.191,5.96,1.32,3.26,1.07-4.22,8.34-1.44,12.6,2.78,4.29,4.32,7.88,3.74,12.1-0.968,7.05-0.975,12.2,0.941,17.8,3.11,9.02,6.42,4.63,8.06,12.2,9.35,43.4,14.3,26.6,14.3,26.6z" clip-path="none" mask="none" transform="matrix(0.39707321,0,0,0.39616491,-342.64819,150.41476)"/>
</g>
<path d="m-335,228c-0.0429,39.5,31.6,70.1,69.7,70-26.3,0-58.7-27.7-58.7-69.1,0.0189-42.4,32.6-70.3,58.7-70.3-37.3,0.133-69.7,30.2-69.7,69.4z" fill-opacity="0.23744291" display="none" fill="#e1e1c8"/>
<g transform="matrix(0.39707321,0,0,0.39616491,-343.80872,-21.806507)" stroke="#e1e1c8" stroke-dasharray="none" stroke-miterlimit="4" stroke-width="0.29436806" fill="#ebe9cf">
<g stroke="#e1e1c8" stroke-dasharray="none" stroke-miterlimit="4" stroke-width="0.29436806" fill="#ebe9cf">
<path d="m248,624c0,19.5-16.1,35.7-35.7,35.7-19.9,0-35.8-16.1-35.8-36.2,0-19.2,16.4-35.4,35.8-35.4,19.6,0,35.7,16.1,35.7,35.8zm-65.4-0.296c0,16.5,13.3,29.8,29.6,29.8,16.1,0,29.5-13.4,29.5-29.4,0-16.3-13.4-29.7-29.5-29.7-16,0-29.6,13.4-29.6,29.3zm159,0.296c0,19.5-16.1,35.7-35.7,35.7-19.9,0-35.8-16.1-35.8-36.2,0-19.2,16.4-35.4,35.8-35.4,19.6,0,35.7,16.1,35.7,35.8zm-65.4-0.296c0,16.5,13.3,29.8,29.6,29.8,16.1,0,29.5-13.4,29.5-29.4,0-16.3-13.4-29.7-29.5-29.7-16,0-29.6,13.4-29.6,29.3zm90.3-34,8.61,0,38.1,56.8,0-56.8,6.23,0,0,68.5-6.23,0-40.5-60.2,0,60.2-6.23,0zm77.9-0.327,6.4,0,16.4,56.4,15.5-56.3,6.55,0,15.2,57.2,16.8-57.1,6.2,0-19.4,68.5-6.84-0.105-15.3-56.2-15.1,56.2-7.02-0.074zm120,0.327,7.73,0,29.7,68.5-7.55,0-10-23.3-32.1,0-10.1,23.3-7.28,0zm17.2,38.9-13.3-31.2-13.5,31.2zm85.1,29.6-7.91,0-23.1-31c7.61,0,12.1-0.358,15.3-1.18,6.88-1.88,10.4-6.66,10.4-14.4,0-6.21-2.6-10.8-7.25-13.1-3.72-1.77-8.53-2.49-15.8-2.49h-9.65v62.2h-6.23v-68.5h16.3c8.78,0,14.6,1.03,18.8,3.33,6.51,3.63,10,10.1,10,18.8,0,12.1-6.82,19.5-19.5,20.8zm24.3-68.5,15.7,0c12.5,0,19.7,1.48,26.2,5.37,10.2,6.04,15.6,16.2,15.6,29.1,0,12.8-5.48,22.8-15.9,28.9-6.05,3.52-13.3,5.1-23.6,5.1h-18.1zm16,62.2c12.5,0,19.7-1.74,25.3-6.1,6.44-5.07,10.1-13,10.1-21.9,0-10.2-4.64-18.8-12.7-23.5-5.29-3.17-12-4.45-22.6-4.45h-9.77v56zm70-12.6c0.586,4.28,1.7,6.61,4.22,9.04,3.25,3.16,8.69,5.14,14.4,5.14,10.3,0,17.9-5.76,17.9-13.7,0-4.2-2.14-7.73-6.1-9.87-2.87-1.6-6.69-2.89-13.6-4.58-10.2-2.43-13-3.45-16.5-6.07-3.96-2.89-6.22-7.45-6.22-12.2,0-10.9,10.1-18.9,24-18.9,14.4,0,24.2,7.61,24.6,19h-8.63c-0.606-7.75-7.01-12.8-16.2-12.8-9.07,0-15.7,5.35-15.7,12.5,0,3.16,1.68,6.24,4.2,8.01,2.36,1.59,5.01,2.41,13,4.28,9.09,2.15,12.8,3.45,16.4,5.49,5.64,3.27,8.85,8.68,8.85,14.7,0,11.7-11.2,20.3-26.2,20.3-15.7,0-26.4-8.08-27.2-20.4z"/>
<path d="m77.1,659,6.58,0,16.4-56.4,15.5,56.3,6.55,0,15.2-57.2,16.8,57.1,6.38,0-19.5-68.5-6.93,0.105-15.3,56.2-15.1-56.2-7.11,0.074z"/>
</g>
</g>
</g>
</svg>
