<?xml version="1.0" encoding="UTF-8" standalone="no"?>
<!-- Created with Inkscape (http://www.inkscape.org/) -->
<svg id="svg4136" xmlns:rdf="http://www.w3.org/1999/02/22-rdf-syntax-ns#" xmlns="http://www.w3.org/2000/svg" height="300" width="1.2e3" version="1.1" xmlns:cc="http://creativecommons.org/ns#" xmlns:dc="http://purl.org/dc/elements/1.1/" viewBox="0 0 1200 300">
<path id="path4414" d="m4.39 227c-0.0429 39.5 31.6 70.1 69.7 70-26.3 0-58.7-27.7-58.7-69.1 0.0189-42.4 32.6-70.3 58.7-70.3-37.3 0.133-69.7 30.2-69.7 69.4z" fill-opacity=".237" display="none" fill="#e1e1c8"/>
<g id="layer1" transform="translate(0,150)">
<g fill="#ffff4f">
<path id="path4148-2" d="m882 23.9c-0.13-2.07 1.44-3.87 3.53-4 2.07-0.13 3.87 1.44 4 3.53 0.13 2.07-1.44 3.87-3.53 4-2.07 0.13-3.87-1.44-4-3.53z"/>
<path id="path4150-9" d="m855 6.71c-0.13-2.07 1.44-3.87 3.53-4 2.07-0.13 3.87 1.44 4 3.53 0.13 2.07-1.44 3.87-3.53 4-2.07 0.13-3.87-1.44-4-3.53z"/>
<path id="path4152-9" d="m874 19.9c-0.13-2.07 1.44-3.87 3.53-4 2.07-0.13 3.87 1.44 4 3.53 0.13 2.07-1.44 3.87-3.53 4-2.07 0.13-3.87-1.44-4-3.53z"/>
<path id="path4154-0" d="m827 10.7c-0.13-2.07 1.44-3.87 3.53-4 2.07-0.13 3.87 1.44 4 3.53 0.13 2.07-1.44 3.87-3.53 4-2.07 0.13-3.87-1.44-4-3.53z"/>
<path id="path4156-8" d="m1.1e3 29.6c-0.13-2.07 1.44-3.87 3.53-4 2.07-0.13 3.87 1.44 4 3.53 0.13 2.07-1.44 3.87-3.53 4-2.07 0.13-3.87-1.44-4-3.53z"/>
<path id="path4158-1" d="m251 38.5c-0.13-2.07 1.44-3.87 3.53-4 2.07-0.13 3.87 1.44 4 3.53 0.13 2.07-1.44 3.87-3.53 4-2.07 0.13-3.87-1.44-4-3.53z"/>
<path id="path4160-3" d="m279-40.3c-0.13-2.07 1.44-3.87 3.53-4 2.07-0.13 3.87 1.44 4 3.53 0.13 2.07-1.44 3.87-3.53 4-2.07 0.13-3.87-1.44-4-3.53z"/>
<path id="path4162-1" d="m219-126c-0.13-2.07 1.44-3.87 3.53-4 2.07-0.13 3.87 1.44 4 3.53 0.13 2.07-1.44 3.87-3.53 4-2.07 0.13-3.87-1.44-4-3.53z"/>
<path id="path4164-1" d="m484-127c-0.13-2.07 1.44-3.87 3.53-4 2.07-0.13 3.87 1.44 4 3.53 0.13 2.07-1.44 3.87-3.53 4-2.07 0.13-3.87-1.44-4-3.53z"/>
<path id="path4166-0" d="m474-89.5c-0.13-2.07 1.44-3.87 3.53-4 2.07-0.13 3.87 1.44 4 3.53 0.13 2.07-1.44 3.87-3.53 4-2.07 0.13-3.87-1.44-4-3.53z"/>
<path id="path4168-3" d="m302-152c-0.13-2.07 1.44-3.87 3.53-4 2.07-0.13 3.87 1.44 4 3.53 0.13 2.07-1.44 3.87-3.53 4-2.07 0.13-3.87-1.44-4-3.53z"/>
<path id="path4170-4" d="m396 121c-0.13-2.07 1.44-3.87 3.53-4 2.07-0.13 3.87 1.44 4 3.53 0.13 2.07-1.44 3.87-3.53 4-2.07 0.13-3.87-1.44-4-3.53z"/>
<path id="path4172-0" d="m451-148c-0.13-2.07 1.44-3.87 3.53-4 2.07-0.13 3.87 1.44 4 3.53 0.13 2.07-1.44 3.87-3.53 4-2.07 0.13-3.87-1.44-4-3.53z"/>
<path id="path4174-3" d="m417-120c-0.13-2.07 1.44-3.87 3.53-4 2.07-0.13 3.87 1.44 4 3.53 0.13 2.07-1.44 3.87-3.53 4-2.07 0.13-3.87-1.44-4-3.53z"/>
<path id="path4176-9" d="m388 128c-0.13-2.07 1.44-3.87 3.53-4 2.07-0.13 3.87 1.44 4 3.53 0.13 2.07-1.44 3.87-3.53 4-2.07 0.13-3.87-1.44-4-3.53z"/>
<path id="path4178-1" d="m44.8 63.7c-0.13-2.07 1.44-3.87 3.53-4 2.07-0.13 3.87 1.44 4 3.53 0.13 2.07-1.44 3.87-3.53 4-2.07 0.13-3.87-1.44-4-3.53z"/>
<path id="path4180-9" d="m84-7.43c-0.13-2.07 1.44-3.87 3.53-4 2.07-0.13 3.87 1.44 4 3.53 0.13 2.07-1.44 3.87-3.53 4-2.07 0.13-3.87-1.44-4-3.53z"/>
<path id="path4182-6" d="m131 23.9c-0.13-2.07 1.44-3.87 3.53-4 2.07-0.13 3.87 1.44 4 3.53 0.13 2.07-1.44 3.87-3.53 4-2.07 0.13-3.87-1.44-4-3.53z"/>
<path id="path4184-9" d="m206 57.5c-0.13-2.07 1.44-3.87 3.53-4 2.07-0.13 3.87 1.44 4 3.53 0.13 2.07-1.44 3.87-3.53 4-2.07 0.13-3.87-1.44-4-3.53z"/>
<path id="path4186-3" d="m140 1.97c-0.13-2.07 1.44-3.87 3.53-4 2.07-0.13 3.87 1.44 4 3.53 0.13 2.07-1.44 3.87-3.53 4-2.07 0.13-3.87-1.44-4-3.53z"/>
<path id="path4188-3" d="m102 47.8c-0.13-2.07 1.44-3.87 3.53-4 2.07-0.13 3.87 1.44 4 3.53 0.13 2.07-1.44 3.87-3.53 4-2.07 0.13-3.87-1.44-4-3.53z"/>
<path id="path4190-8" d="m34.2 75.6c-0.13-2.07 1.44-3.87 3.53-4 2.07-0.13 3.87 1.44 4 3.53 0.13 2.07-1.44 3.87-3.53 4-2.07 0.13-3.87-1.44-4-3.53z"/>
<path id="path4192-0" d="m688-59.9c-0.13-2.07 1.44-3.87 3.53-4 2.07-0.13 3.87 1.44 4 3.53 0.13 2.07-1.44 3.87-3.53 4-2.07 0.13-3.87-1.44-4-3.53z"/>
<path id="path4194-5" d="m693-44c-0.13-2.07 1.44-3.87 3.53-4 2.07-0.13 3.87 1.44 4 3.53 0.13 2.07-1.44 3.87-3.53 4-2.07 0.13-3.87-1.44-4-3.53z"/>
<path id="path4196-6" d="m689-7.71c-0.13-2.07 1.44-3.87 3.53-4 2.07-0.13 3.87 1.44 4 3.53 0.13 2.07-1.44 3.87-3.53 4-2.07 0.13-3.87-1.44-4-3.53z"/>
<path id="path4198-6" d="m652-12.7c-0.13-2.07 1.44-3.87 3.53-4 2.07-0.13 3.87 1.44 4 3.53 0.13 2.07-1.44 3.87-3.53 4-2.07 0.13-3.87-1.44-4-3.53z"/>
<path id="path4200-4" d="m681-42.7c-0.13-2.07 1.44-3.87 3.53-4 2.07-0.13 3.87 1.44 4 3.53 0.13 2.07-1.44 3.87-3.53 4-2.07 0.13-3.87-1.44-4-3.53z"/>
<path id="path4202-0" d="m1.06e3 83.6c-0.13-2.07 1.44-3.87 3.53-4 2.07-0.13 3.87 1.44 4 3.53 0.13 2.07-1.44 3.87-3.53 4-2.07 0.13-3.87-1.44-4-3.53z"/>
<path id="path4204-0" d="m1.06e3 112c-0.13-2.07 1.44-3.87 3.53-4 2.07-0.13 3.87 1.44 4 3.53 0.13 2.07-1.44 3.87-3.53 4-2.07 0.13-3.87-1.44-4-3.53z"/>
<path id="path4206-4" d="m1.08e3 88.7c-0.13-2.07 1.44-3.87 3.53-4 2.07-0.13 3.87 1.44 4 3.53 0.13 2.07-1.44 3.87-3.53 4-2.07 0.13-3.87-1.44-4-3.53z"/>
<path id="path4208-6" d="m1.13e3 49.6c-0.13-2.07 1.44-3.87 3.53-4 2.07-0.13 3.87 1.44 4 3.53 0.13 2.07-1.44 3.87-3.53 4-2.07 0.13-3.87-1.44-4-3.53z"/>
<path id="path4210-2" d="m1.1e3 28.2c-0.13-2.07 1.44-3.87 3.53-4 2.07-0.13 3.87 1.44 4 3.53 0.13 2.07-1.44 3.87-3.53 4-2.07 0.13-3.87-1.44-4-3.53z"/>
<path id="path4212-6" d="m1.14e3 36.2c-0.13-2.07 1.44-3.87 3.53-4 2.07-0.13 3.87 1.44 4 3.53 0.13 2.07-1.44 3.87-3.53 4-2.07 0.13-3.87-1.44-4-3.53z"/>
<path id="path4214-7" d="m200 73.2c-0.13-2.07 1.44-3.87 3.53-4 2.07-0.13 3.87 1.44 4 3.53 0.13 2.07-1.44 3.87-3.53 4-2.07 0.13-3.87-1.44-4-3.53z"/>
<path id="path4216-5" d="m183 54.4c-0.13-2.07 1.44-3.87 3.53-4 2.07-0.13 3.87 1.44 4 3.53 0.13 2.07-1.44 3.87-3.53 4-2.07 0.13-3.87-1.44-4-3.53z"/>
<path id="path4218-6" d="m253 117c-0.13-2.07 1.44-3.87 3.53-4 2.07-0.13 3.87 1.44 4 3.53 0.13 2.07-1.44 3.87-3.53 4-2.07 0.13-3.87-1.44-4-3.53z"/>
<path id="path4220-9" d="m248 113c-0.13-2.07 1.44-3.87 3.53-4 2.07-0.13 3.87 1.44 4 3.53 0.13 2.07-1.44 3.87-3.53 4-2.07 0.13-3.87-1.44-4-3.53z"/>
<path id="path4222-8" d="m868-74.2c-0.13-2.07 1.44-3.87 3.53-4 2.07-0.13 3.87 1.44 4 3.53 0.13 2.07-1.44 3.87-3.53 4-2.07 0.13-3.87-1.44-4-3.53z"/>
<path id="path4224-7" d="m814-1.47c-0.13-2.07 1.44-3.87 3.53-4 2.07-0.13 3.87 1.44 4 3.53 0.13 2.07-1.44 3.87-3.53 4-2.07 0.13-3.87-1.44-4-3.53z"/>
<path id="path4226-2" d="m784-3.24c-0.13-2.07 1.44-3.87 3.53-4 2.07-0.13 3.87 1.44 4 3.53 0.13 2.07-1.44 3.87-3.53 4-2.07 0.13-3.87-1.44-4-3.53z"/>
<path id="path4228-8" d="m789 11.2c-0.13-2.07 1.44-3.87 3.53-4 2.07-0.13 3.87 1.44 4 3.53 0.13 2.07-1.44 3.87-3.53 4-2.07 0.13-3.87-1.44-4-3.53z"/>
<path id="path4230-2" d="m816 6.38c-0.13-2.07 1.44-3.87 3.53-4 2.07-0.13 3.87 1.44 4 3.53 0.13 2.07-1.44 3.87-3.53 4-2.07 0.13-3.87-1.44-4-3.53z"/>
<path id="path4232-9" d="m800 12.7c-0.13-2.07 1.44-3.87 3.53-4 2.07-0.13 3.87 1.44 4 3.53 0.13 2.07-1.44 3.87-3.53 4-2.07 0.13-3.87-1.44-4-3.53z"/>
<path id="path4234-9" d="m783 4.71c-0.13-2.07 1.44-3.87 3.53-4 2.07-0.13 3.87 1.44 4 3.53 0.13 2.07-1.44 3.87-3.53 4-2.07 0.13-3.87-1.44-4-3.53z"/>
<path id="path4236-6" d="m821 26.5c-0.13-2.07 1.44-3.87 3.53-4 2.07-0.13 3.87 1.44 4 3.53 0.13 2.07-1.44 3.87-3.53 4-2.07 0.13-3.87-1.44-4-3.53z"/>
<path id="path4238-0" d="m820 2.31c-0.13-2.07 1.44-3.87 3.53-4 2.07-0.13 3.87 1.44 4 3.53 0.13 2.07-1.44 3.87-3.53 4-2.07 0.13-3.87-1.44-4-3.53z"/>
<path id="path4240-2" d="m837 21.5c-0.13-2.07 1.44-3.87 3.53-4 2.07-0.13 3.87 1.44 4 3.53 0.13 2.07-1.44 3.87-3.53 4-2.07 0.13-3.87-1.44-4-3.53z"/>
<path id="path4242-7" d="m857-3.12c-0.13-2.07 1.44-3.87 3.53-4 2.07-0.13 3.87 1.44 4 3.53 0.13 2.07-1.44 3.87-3.53 4-2.07 0.13-3.87-1.44-4-3.53z"/>
<path id="path4244-6" d="m854 1.55c-0.13-2.07 1.44-3.87 3.53-4 2.07-0.13 3.87 1.44 4 3.53 0.13 2.07-1.44 3.87-3.53 4-2.07 0.13-3.87-1.44-4-3.53z"/>
<path id="path4246-1" d="m905-32.4c-0.13-2.07 1.44-3.87 3.53-4 2.07-0.13 3.87 1.44 4 3.53 0.13 2.07-1.44 3.87-3.53 4-2.07 0.13-3.87-1.44-4-3.53z"/>
<path id="path4248-3" d="m238 120c-0.13-2.07 1.44-3.87 3.53-4 2.07-0.13 3.87 1.44 4 3.53 0.13 2.07-1.44 3.87-3.53 4-2.07 0.13-3.87-1.44-4-3.53z"/>
<path id="path4250-2" d="m250 120c-0.13-2.07 1.44-3.87 3.53-4 2.07-0.13 3.87 1.44 4 3.53 0.13 2.07-1.44 3.87-3.53 4-2.07 0.13-3.87-1.44-4-3.53z"/>
<path id="path4252-1" d="m169-2.06c-0.13-2.07 1.44-3.87 3.53-4 2.07-0.13 3.87 1.44 4 3.53 0.13 2.07-1.44 3.87-3.53 4-2.07 0.13-3.87-1.44-4-3.53z"/>
<path id="path4254-5" d="m218 70.9c-0.13-2.07 1.44-3.87 3.53-4 2.07-0.13 3.87 1.44 4 3.53 0.13 2.07-1.44 3.87-3.53 4-2.07 0.13-3.87-1.44-4-3.53z"/>
<path id="path4256-9" d="m202 56.3c-0.13-2.07 1.44-3.87 3.53-4 2.07-0.13 3.87 1.44 4 3.53 0.13 2.07-1.44 3.87-3.53 4-2.07 0.13-3.87-1.44-4-3.53z"/>
<path id="path4258-9" d="m220 70.1c-0.13-2.07 1.44-3.87 3.53-4 2.07-0.13 3.87 1.44 4 3.53 0.13 2.07-1.44 3.87-3.53 4-2.07 0.13-3.87-1.44-4-3.53z"/>
<path id="path4260-1" d="m244 76.1c-0.13-2.07 1.44-3.87 3.53-4 2.07-0.13 3.87 1.44 4 3.53 0.13 2.07-1.44 3.87-3.53 4-2.07 0.13-3.87-1.44-4-3.53z"/>
<path id="path4262-4" d="m181 32.4c-0.13-2.07 1.44-3.87 3.53-4 2.07-0.13 3.87 1.44 4 3.53 0.13 2.07-1.44 3.87-3.53 4-2.07 0.13-3.87-1.44-4-3.53z"/>
<path id="path4264-9" d="m252 51.6c-0.13-2.07 1.44-3.87 3.53-4 2.07-0.13 3.87 1.44 4 3.53 0.13 2.07-1.44 3.87-3.53 4-2.07 0.13-3.87-1.44-4-3.53z"/>
<path id="path4266-1" d="m245 38.6c-0.13-2.07 1.44-3.87 3.53-4 2.07-0.13 3.87 1.44 4 3.53 0.13 2.07-1.44 3.87-3.53 4-2.07 0.13-3.87-1.44-4-3.53z"/>
<path id="path4268-0" d="m266 49.3c-0.13-2.07 1.44-3.87 3.53-4 2.07-0.13 3.87 1.44 4 3.53 0.13 2.07-1.44 3.87-3.53 4-2.07 0.13-3.87-1.44-4-3.53z"/>
<path id="path4270-7" d="m276-22.2c-0.13-2.07 1.44-3.87 3.53-4 2.07-0.13 3.87 1.44 4 3.53 0.13 2.07-1.44 3.87-3.53 4-2.07 0.13-3.87-1.44-4-3.53z"/>
<path id="path4272-5" d="m290-93.8c-0.13-2.07 1.44-3.87 3.53-4 2.07-0.13 3.87 1.44 4 3.53 0.13 2.07-1.44 3.87-3.53 4-2.07 0.13-3.87-1.44-4-3.53z"/>
<path id="path4274-8" d="m319-113c-0.13-2.07 1.44-3.87 3.53-4 2.07-0.13 3.87 1.44 4 3.53 0.13 2.07-1.44 3.87-3.53 4-2.07 0.13-3.87-1.44-4-3.53z"/>
<path id="path4276-7" d="m315-148c-0.13-2.07 1.44-3.87 3.53-4 2.07-0.13 3.87 1.44 4 3.53 0.13 2.07-1.44 3.87-3.53 4-2.07 0.13-3.87-1.44-4-3.53z"/>
<path id="path4278-0" d="m297-122c-0.13-2.07 1.44-3.87 3.53-4 2.07-0.13 3.87 1.44 4 3.53 0.13 2.07-1.44 3.87-3.53 4-2.07 0.13-3.87-1.44-4-3.53z"/>
<path id="path4280-4" d="m298-76.9c-0.13-2.07 1.44-3.87 3.53-4 2.07-0.13 3.87 1.44 4 3.53 0.13 2.07-1.44 3.87-3.53 4-2.07 0.13-3.87-1.44-4-3.53z"/>
<path id="path4282-8" d="m281-44.6c-0.13-2.07 1.44-3.87 3.53-4 2.07-0.13 3.87 1.44 4 3.53 0.13 2.07-1.44 3.87-3.53 4-2.07 0.13-3.87-1.44-4-3.53z"/>
<path id="path4284-0" d="m320-125c-0.13-2.07 1.44-3.87 3.53-4 2.07-0.13 3.87 1.44 4 3.53 0.13 2.07-1.44 3.87-3.53 4-2.07 0.13-3.87-1.44-4-3.53z"/>
<path id="path4286-4" d="m311-52.8c-0.13-2.07 1.44-3.87 3.53-4 2.07-0.13 3.87 1.44 4 3.53 0.13 2.07-1.44 3.87-3.53 4-2.07 0.13-3.87-1.44-4-3.53z"/>
<path id="path4288-2" d="m337-115c-0.13-2.07 1.44-3.87 3.53-4 2.07-0.13 3.87 1.44 4 3.53 0.13 2.07-1.44 3.87-3.53 4-2.07 0.13-3.87-1.44-4-3.53z"/>
<path id="path4290-9" d="m1.1e3 53c-0.13-2.07 1.44-3.87 3.53-4 2.07-0.13 3.87 1.44 4 3.53 0.13 2.07-1.44 3.87-3.53 4-2.07 0.13-3.87-1.44-4-3.53z"/>
<path id="path4292-6" d="m677-60.7c-0.13-2.07 1.44-3.87 3.53-4 2.07-0.13 3.87 1.44 4 3.53 0.13 2.07-1.44 3.87-3.53 4-2.07 0.13-3.87-1.44-4-3.53z"/>
<path id="path4294-1" d="m403-128c-0.13-2.07 1.44-3.87 3.53-4 2.07-0.13 3.87 1.44 4 3.53 0.13 2.07-1.44 3.87-3.53 4-2.07 0.13-3.87-1.44-4-3.53z"/>
<path id="path4296-0" d="m397-129c-0.13-2.07 1.44-3.87 3.53-4 2.07-0.13 3.87 1.44 4 3.53 0.13 2.07-1.44 3.87-3.53 4-2.07 0.13-3.87-1.44-4-3.53z"/>
<path id="path4298-4" d="m345-109c-0.13-2.07 1.44-3.87 3.53-4 2.07-0.13 3.87 1.44 4 3.53 0.13 2.07-1.44 3.87-3.53 4-2.07 0.13-3.87-1.44-4-3.53z"/>
<path id="path4300-2" d="m327-143c-0.13-2.07 1.44-3.87 3.53-4 2.07-0.13 3.87 1.44 4 3.53 0.13 2.07-1.44 3.87-3.53 4-2.07 0.13-3.87-1.44-4-3.53z"/>
<path id="path4302-2" d="m334-110c-0.13-2.07 1.44-3.87 3.53-4 2.07-0.13 3.87 1.44 4 3.53 0.13 2.07-1.44 3.87-3.53 4-2.07 0.13-3.87-1.44-4-3.53z"/>
<path id="path4304-2" d="m413-113c-0.13-2.07 1.44-3.87 3.53-4 2.07-0.13 3.87 1.44 4 3.53 0.13 2.07-1.44 3.87-3.53 4-2.07 0.13-3.87-1.44-4-3.53z"/>
<path id="path4306-0" d="m397-125c-0.13-2.07 1.44-3.87 3.53-4 2.07-0.13 3.87 1.44 4 3.53 0.13 2.07-1.44 3.87-3.53 4-2.07 0.13-3.87-1.44-4-3.53z"/>
<path id="path4308-5" d="m394-107c-0.13-2.07 1.44-3.87 3.53-4 2.07-0.13 3.87 1.44 4 3.53 0.13 2.07-1.44 3.87-3.53 4-2.07 0.13-3.87-1.44-4-3.53z"/>
<path id="path4310-5" d="m288-26.2c-0.13-2.07 1.44-3.87 3.53-4 2.07-0.13 3.87 1.44 4 3.53 0.13 2.07-1.44 3.87-3.53 4-2.07 0.13-3.87-1.44-4-3.53z"/>
<path id="path4312-2" d="m276-45.6c-0.13-2.07 1.44-3.87 3.53-4 2.07-0.13 3.87 1.44 4 3.53 0.13 2.07-1.44 3.87-3.53 4-2.07 0.13-3.87-1.44-4-3.53z"/>
<path id="path4314-9" d="m288-32.4c-0.13-2.07 1.44-3.87 3.53-4 2.07-0.13 3.87 1.44 4 3.53 0.13 2.07-1.44 3.87-3.53 4-2.07 0.13-3.87-1.44-4-3.53z"/>
<path id="path4316-0" d="m295-54.9c-0.13-2.07 1.44-3.87 3.53-4 2.07-0.13 3.87 1.44 4 3.53 0.13 2.07-1.44 3.87-3.53 4-2.07 0.13-3.87-1.44-4-3.53z"/>
<path id="path4318-2" d="m300-65.6c-0.13-2.07 1.44-3.87 3.53-4 2.07-0.13 3.87 1.44 4 3.53 0.13 2.07-1.44 3.87-3.53 4-2.07 0.13-3.87-1.44-4-3.53z"/>
<path id="path4320-8" d="m277-76c-0.13-2.07 1.44-3.87 3.53-4 2.07-0.13 3.87 1.44 4 3.53 0.13 2.07-1.44 3.87-3.53 4-2.07 0.13-3.87-1.44-4-3.53z"/>
<path id="path4322-3" d="m252-54.5c-0.13-2.07 1.44-3.87 3.53-4 2.07-0.13 3.87 1.44 4 3.53 0.13 2.07-1.44 3.87-3.53 4-2.07 0.13-3.87-1.44-4-3.53z"/>
</g>
<g stroke-linejoin="round" fill="#ff0">
<g stroke-opacity=".198" stroke="#fff" stroke-width="15">
<path id="path4326-4" d="m315-142c-0.222-3.54 2.47-6.6 6.01-6.82 3.54-0.222 6.6 2.47 6.82 6.01 0.222 3.54-2.47 6.6-6.01 6.82-3.54 0.222-6.6-2.47-6.82-6.01z"/>
<path id="path4328-0" d="m268-68.6c-0.222-3.54 2.47-6.6 6.01-6.82 3.54-0.222 6.6 2.47 6.82 6.01 0.222 3.54-2.47 6.6-6.01 6.82-3.54 0.222-6.6-2.47-6.82-6.01z"/>
<path id="path4330-9" d="m307-45.7c-0.222-3.54 2.47-6.6 6.01-6.82 3.54-0.222 6.6 2.47 6.82 6.01 0.222 3.54-2.47 6.6-6.01 6.82-3.54 0.222-6.6-2.47-6.82-6.01z"/>
<path id="path4332-1" d="m145 37.1c-0.222-3.54 2.47-6.6 6.01-6.82 3.54-0.222 6.6 2.47 6.82 6.01 0.222 3.54-2.47 6.6-6.01 6.82-3.54 0.222-6.6-2.47-6.82-6.01z"/>
<path id="path4334-9" d="m391 134c-0.222-3.54 2.47-6.6 6.01-6.82 3.54-0.222 6.6 2.47 6.82 6.01 0.222 3.54-2.47 6.6-6.01 6.82-3.54 0.222-6.6-2.47-6.82-6.01z"/>
<path id="path4336-6" d="m907-11.4c-0.222-3.54 2.47-6.6 6.01-6.82 3.54-0.222 6.6 2.47 6.82 6.01 0.222 3.54-2.47 6.6-6.01 6.82-3.54 0.222-6.6-2.47-6.82-6.01z"/>
<path id="path4338-2" d="m872-41.5c-0.222-3.54 2.47-6.6 6.01-6.82 3.54-0.222 6.6 2.47 6.82 6.01 0.222 3.54-2.47 6.6-6.01 6.82-3.54 0.222-6.6-2.47-6.82-6.01z"/>
<path id="path4340-5" d="m660-49.5c-0.222-3.54 2.47-6.6 6.01-6.82 3.54-0.222 6.6 2.47 6.82 6.01 0.222 3.54-2.47 6.6-6.01 6.82-3.54 0.222-6.6-2.47-6.82-6.01z"/>
<path id="path4342-4" d="m1.09e3 56.6c-0.222-3.54 2.47-6.6 6.01-6.82 3.54-0.222 6.6 2.47 6.82 6.01 0.222 3.54-2.47 6.6-6.01 6.82-3.54 0.222-6.6-2.47-6.82-6.01z"/>
<path id="path4344-4" d="m213 108c-0.222-3.54 2.47-6.6 6.01-6.82 3.54-0.222 6.6 2.47 6.82 6.01 0.222 3.54-2.47 6.6-6.01 6.82-3.54 0.222-6.6-2.47-6.82-6.01z"/>
<path id="path4346-9" d="m40 49.6c-0.222-3.54 2.47-6.6 6.01-6.82 3.54-0.222 6.6 2.47 6.82 6.01 0.222 3.54-2.47 6.6-6.01 6.82-3.54 0.222-6.6-2.47-6.82-6.01z"/>
<path id="path4348-9" d="m674-74.7c-0.222-3.54 2.47-6.6 6.01-6.82 3.54-0.222 6.6 2.47 6.82 6.01 0.222 3.54-2.47 6.6-6.01 6.82-3.54 0.222-6.6-2.47-6.82-6.01z"/>
<path id="path4350-3" d="m928 93.4c-0.222-3.54 2.47-6.6 6.01-6.82 3.54-0.222 6.6 2.47 6.82 6.01 0.222 3.54-2.47 6.6-6.01 6.82-3.54 0.222-6.6-2.47-6.82-6.01z"/>
<path id="path4352-6" d="m709 41.8c-0.222-3.54 2.47-6.6 6.01-6.82 3.54-0.222 6.6 2.47 6.82 6.01 0.222 3.54-2.47 6.6-6.01 6.82-3.54 0.222-6.6-2.47-6.82-6.01z"/>
<path id="path4354-0" d="m800 5.95c-0.222-3.54 2.47-6.6 6.01-6.82 3.54-0.222 6.6 2.47 6.82 6.01 0.222 3.54-2.47 6.6-6.01 6.82-3.54 0.222-6.6-2.47-6.82-6.01z"/>
<path id="path4356-5" d="m814 54.4c-0.222-3.54 2.47-6.6 6.01-6.82 3.54-0.222 6.6 2.47 6.82 6.01 0.222 3.54-2.47 6.6-6.01 6.82-3.54 0.222-6.6-2.47-6.82-6.01z"/>
<path id="path4358-0" d="m422-151c-0.222-3.54 2.47-6.6 6.01-6.82 3.54-0.222 6.6 2.47 6.82 6.01 0.222 3.54-2.47 6.6-6.01 6.82-3.54 0.222-6.6-2.47-6.82-6.01z"/>
<path id="path4360-2" d="m821 69.4c-0.222-3.54 2.47-6.6 6.01-6.82 3.54-0.222 6.6 2.47 6.82 6.01 0.222 3.54-2.47 6.6-6.01 6.82-3.54 0.222-6.6-2.47-6.82-6.01z"/>
<path id="path4362-9" d="m289-30.7c-0.222-3.54 2.47-6.6 6.01-6.82 3.54-0.222 6.6 2.47 6.82 6.01 0.222 3.54-2.47 6.6-6.01 6.82-3.54 0.222-6.6-2.47-6.82-6.01z"/>
<path id="path4364-4" d="m274-93.5c-0.222-3.54 2.47-6.6 6.01-6.82 3.54-0.222 6.6 2.47 6.82 6.01 0.222 3.54-2.47 6.6-6.01 6.82-3.54 0.222-6.6-2.47-6.82-6.01z"/>
</g>
<g stroke-opacity=".368" stroke="#ffec00" stroke-width="10">
<path id="path4366-3" d="m875 27.7c-0.118-1.89 1.32-3.51 3.2-3.63 1.89-0.118 3.51 1.32 3.63 3.2 0.118 1.89-1.32 3.51-3.2 3.63-1.89 0.118-3.51-1.32-3.63-3.2z"/>
<path id="path4368-5" d="m912-36.3c-0.118-1.89 1.32-3.51 3.2-3.63 1.89-0.118 3.51 1.32 3.63 3.2 0.118 1.89-1.32 3.51-3.2 3.63-1.89 0.118-3.51-1.32-3.63-3.2z"/>
<path id="path4370-1" d="m833 36.3c-0.118-1.89 1.32-3.51 3.2-3.63 1.89-0.118 3.51 1.32 3.63 3.2 0.118 1.89-1.32 3.51-3.2 3.63-1.89 0.118-3.51-1.32-3.63-3.2z"/>
<path id="path4372-7" d="m74.5-53.1c-0.118-1.89 1.32-3.51 3.2-3.63 1.89-0.118 3.51 1.32 3.63 3.2 0.118 1.89-1.32 3.51-3.2 3.63-1.89 0.118-3.51-1.32-3.63-3.2z"/>
<path id="path4374-4" d="m168 53.4c-0.118-1.89 1.32-3.51 3.2-3.63 1.89-0.118 3.51 1.32 3.63 3.2 0.118 1.89-1.32 3.51-3.2 3.63-1.89 0.118-3.51-1.32-3.63-3.2z"/>
<path id="path4376-3" d="m210 69.4c-0.118-1.89 1.32-3.51 3.2-3.63 1.89-0.118 3.51 1.32 3.63 3.2 0.118 1.89-1.32 3.51-3.2 3.63-1.89 0.118-3.51-1.32-3.63-3.2z"/>
<path id="path4378-1" d="m117 45.7c-0.118-1.89 1.32-3.51 3.2-3.63 1.89-0.118 3.51 1.32 3.63 3.2 0.118 1.89-1.32 3.51-3.2 3.63-1.89 0.118-3.51-1.32-3.63-3.2z"/>
<path id="path4380-4" d="m182 47c-0.118-1.89 1.32-3.51 3.2-3.63 1.89-0.118 3.51 1.32 3.63 3.2 0.118 1.89-1.32 3.51-3.2 3.63-1.89 0.118-3.51-1.32-3.63-3.2z"/>
<path id="path4382-6" d="m290 28.2c-0.118-1.89 1.32-3.51 3.2-3.63 1.89-0.118 3.51 1.32 3.63 3.2 0.118 1.89-1.32 3.51-3.2 3.63-1.89 0.118-3.51-1.32-3.63-3.2z"/>
<path id="path4384-9" d="m269 17.8c-0.118-1.89 1.32-3.51 3.2-3.63 1.89-0.118 3.51 1.32 3.63 3.2 0.118 1.89-1.32 3.51-3.2 3.63-1.89 0.118-3.51-1.32-3.63-3.2z"/>
<path id="path4386-4" d="m286-53.6c-0.118-1.89 1.32-3.51 3.2-3.63 1.89-0.118 3.51 1.32 3.63 3.2 0.118 1.89-1.32 3.51-3.2 3.63-1.89 0.118-3.51-1.32-3.63-3.2z"/>
<path id="path4388-2" d="m85.6-21.6c-0.118-1.89 1.32-3.51 3.2-3.63 1.89-0.118 3.51 1.32 3.63 3.2 0.118 1.89-1.32 3.51-3.2 3.63-1.89 0.118-3.51-1.32-3.63-3.2z"/>
<path id="path4390-2" d="m483-72.7c-0.118-1.89 1.32-3.51 3.2-3.63 1.89-0.118 3.51 1.32 3.63 3.2 0.118 1.89-1.32 3.51-3.2 3.63-1.89 0.118-3.51-1.32-3.63-3.2z"/>
<path id="path4392-6" d="m-2.62-116c-0.118-1.89 1.32-3.51 3.2-3.63 1.89-0.118 3.51 1.32 3.63 3.2 0.118 1.89-1.32 3.51-3.2 3.63-1.89 0.118-3.51-1.32-3.63-3.2z"/>
<path id="path4394-4" d="m311-123c-0.118-1.89 1.32-3.51 3.2-3.63 1.89-0.118 3.51 1.32 3.63 3.2 0.118 1.89-1.32 3.51-3.2 3.63-1.89 0.118-3.51-1.32-3.63-3.2z"/>
<path id="path4396-1" d="m1.02e3 -146c-0.118-1.89 1.32-3.51 3.2-3.63 1.89-0.118 3.51 1.32 3.63 3.2 0.118 1.89-1.32 3.51-3.2 3.63-1.89 0.118-3.51-1.32-3.63-3.2z"/>
<path id="path4398-2" d="m1.01e3 104c-0.118-1.89 1.32-3.51 3.2-3.63 1.89-0.118 3.51 1.32 3.63 3.2 0.118 1.89-1.32 3.51-3.2 3.63-1.89 0.118-3.51-1.32-3.63-3.2z"/>
<path id="path4400-8" d="m943 93.2c-0.118-1.89 1.32-3.51 3.2-3.63 1.89-0.118 3.51 1.32 3.63 3.2 0.118 1.89-1.32 3.51-3.2 3.63-1.89 0.118-3.51-1.32-3.63-3.2z"/>
<path id="path4402-8" d="m953 98c-0.118-1.89 1.32-3.51 3.2-3.63 1.89-0.118 3.51 1.32 3.63 3.2 0.118 1.89-1.32 3.51-3.2 3.63-1.89 0.118-3.51-1.32-3.63-3.2z"/>
</g>
</g>
<text id="text5180" style="word-spacing:0px;letter-spacing:0px;text-anchor:end;text-align:end" xml:space="preserve" font-size="12.5px" line-height="125%" y="42" x="23" font-family="&apos;Titillium Web&apos;" fill="#000000"><tspan id="tspan5182" x="23" y="42"/></text>
<text id="text5184" style="word-spacing:0px;letter-spacing:0px;text-anchor:end;text-align:end" xml:space="preserve" font-size="12.5px" line-height="125%" y="-148" x="23" font-family="&apos;Titillium Web&apos;" fill="#000000"><tspan id="tspan5190" x="23" y="-148"/></text>
<g>
<path id="path4698" stroke-linejoin="round" d="m422 151c-0.222-3.54 2.47-6.6 6.01-6.82 3.54-0.222 6.6 2.47 6.82 6.01 0.222 3.54-2.47 6.6-6.01 6.82-3.54 0.222-6.6-2.47-6.82-6.01z" stroke-opacity=".198" stroke="#fff" stroke-width="15" fill="#ff0"/>
<path id="path4700" d="m451 154c-0.13-2.07 1.44-3.87 3.53-4 2.07-0.13 3.87 1.44 4 3.53 0.13 2.07-1.44 3.87-3.53 4-2.07 0.13-3.87-1.44-4-3.53z" fill="#ffff4f"/>
<path id="path4702" stroke-linejoin="round" d="m315 161c-0.222-3.54 2.47-6.6 6.01-6.82 3.54-0.222 6.6 2.47 6.82 6.01 0.222 3.54-2.47 6.6-6.01 6.82-3.54 0.222-6.6-2.47-6.82-6.01z" stroke-opacity=".198" stroke="#fff" stroke-width="15" fill="#ff0"/>
<path id="path4704" d="m302 150c-0.13-2.07 1.44-3.87 3.53-4 2.07-0.13 3.87 1.44 4 3.53 0.13 2.07-1.44 3.87-3.53 4-2.07 0.13-3.87-1.44-4-3.53z" fill="#ffff4f"/>
<path id="path4706" d="m315 153c-0.13-2.07 1.44-3.87 3.53-4 2.07-0.13 3.87 1.44 4 3.53 0.13 2.07-1.44 3.87-3.53 4-2.07 0.13-3.87-1.44-4-3.53z" fill="#ffff4f"/>
<path id="path4708" stroke-linejoin="round" d="m1.2e3 -116c-0.118-1.89 1.32-3.51 3.2-3.63 1.89-0.118 3.51 1.32 3.63 3.2 0.118 1.89-1.32 3.51-3.2 3.63-1.89 0.118-3.51-1.32-3.63-3.2z" stroke-opacity=".368" stroke="#ffec00" stroke-width="10" fill="#ff0"/>
<path id="path4710" stroke-linejoin="round" d="m1.02e3 157c-0.118-1.89 1.32-3.51 3.2-3.63 1.89-0.118 3.51 1.32 3.63 3.2 0.118 1.89-1.32 3.51-3.2 3.63-1.89 0.118-3.51-1.32-3.63-3.2z" stroke-opacity=".368" stroke="#ffec00" stroke-width="10" fill="#ff0"/>
</g>
</g>
</svg>
