<?xml version="1.0" encoding="UTF-8" standalone="no"?>
<!-- Created with Inkscape (http://www.inkscape.org/) -->

<svg
   xmlns:osb="http://www.openswatchbook.org/uri/2009/osb"
   xmlns:dc="http://purl.org/dc/elements/1.1/"
   xmlns:cc="http://creativecommons.org/ns#"
   xmlns:rdf="http://www.w3.org/1999/02/22-rdf-syntax-ns#"
   xmlns:svg="http://www.w3.org/2000/svg"
   xmlns="http://www.w3.org/2000/svg"
   xmlns:sodipodi="http://sodipodi.sourceforge.net/DTD/sodipodi-0.dtd"
   xmlns:inkscape="http://www.inkscape.org/namespaces/inkscape"
   width="125.00038"
   height="124.95145"
   viewBox="0 0 125.00037 124.95145"
   id="svg2"
   version="1.1"
   inkscape:version="0.91 r13725"
   sodipodi:docname="FaviconMoonwards.svg">
  <defs
     id="defs4">
    <linearGradient
       id="linearGradient8080"
       osb:paint="solid">
      <stop
         style="stop-color:#5d6546;stop-opacity:1;"
         offset="0"
         id="stop8082" />
    </linearGradient>
  </defs>
  <sodipodi:namedview
     id="base"
     pagecolor="#ffffff"
     bordercolor="#666666"
     borderopacity="1.0"
     inkscape:pageopacity="0.0"
     inkscape:pageshadow="2"
     inkscape:zoom="0.98994949"
     inkscape:cx="-191.16239"
     inkscape:cy="54.824676"
     inkscape:document-units="px"
     inkscape:current-layer="layer1"
     showgrid="false"
     inkscape:window-width="1403"
     inkscape:window-height="616"
     inkscape:window-x="805"
     inkscape:window-y="318"
     inkscape:window-maximized="0"
     fit-margin-top="0"
     fit-margin-left="0"
     fit-margin-right="0"
     fit-margin-bottom="0"
     units="px" />
  <metadata
     id="metadata7">
    <rdf:RDF>
      <cc:Work
         rdf:about="">
        <dc:format>image/svg+xml</dc:format>
        <dc:type
           rdf:resource="http://purl.org/dc/dcmitype/StillImage" />
        <dc:title></dc:title>
      </cc:Work>
    </rdf:RDF>
  </metadata>
  <g
     inkscape:label="Layer 1"
     inkscape:groupmode="layer"
     id="layer1"
     transform="translate(-204.71426,-136.98218)">
    <ellipse
       style="fill:#ede9d8;fill-opacity:1;stroke:#000000;stroke-width:2.26054621;stroke-miterlimit:4;stroke-dasharray:none;stroke-dashoffset:0;stroke-opacity:1"
       id="path8068"
       cx="267.21445"
       cy="199.4579"
       rx="61.369911"
       ry="61.345448" />
    <path
       style="fill:#000000;fill-opacity:1;fill-rule:evenodd;stroke:none;stroke-width:1px;stroke-linecap:butt;stroke-linejoin:miter;stroke-opacity:1"
       d="m 269.23323,137.30528 c -55.24013,19.79613 -51.89675,118.36328 -5.65249,123.0945 30.28119,-0.4036 63.05169,-18.82302 65.00365,-61.74904 2.01875,-44.39474 -35.60733,-58.42411 -59.35116,-61.34546 z"
       id="path8074"
       inkscape:connector-curvature="0"
       sodipodi:nodetypes="ccsc" />
    <path
       style="fill:#f6e300;fill-opacity:1;stroke:none;stroke-width:4;stroke-miterlimit:4;stroke-dasharray:none;stroke-dashoffset:0;stroke-opacity:0.60240933"
       id="path8078"
       sodipodi:type="arc"
       sodipodi:cx="260.35077"
       sodipodi:cy="172.01389"
       sodipodi:rx="6.7628031"
       sodipodi:ry="6.7601075"
       sodipodi:start="0"
       sodipodi:end="6.282352"
       d="m 267.11357,172.01389 a 6.7628031,6.7601075 0 0 1 -6.76139,6.7601 6.7628031,6.7601075 0 0 1 -6.76421,-6.75729 6.7628031,6.7601075 0 0 1 6.75857,-6.76292 6.7628031,6.7601075 0 0 1 6.76703,6.75447"
       sodipodi:open="true" />
    <path
       sodipodi:open="true"
       d="m 301.12434,183.00101 a 4.9441361,4.9421649 0 0 1 -4.9431,4.94216 4.9441361,4.9421649 0 0 1 -4.94517,-4.9401 4.9441361,4.9421649 0 0 1 4.94105,-4.94423 4.9441361,4.9421649 0 0 1 4.94722,4.93805"
       sodipodi:end="6.282352"
       sodipodi:start="0"
       sodipodi:ry="4.9421649"
       sodipodi:rx="4.9441361"
       sodipodi:cy="183.00101"
       sodipodi:cx="296.18021"
       sodipodi:type="arc"
       id="path8086"
       style="fill:#f6e300;fill-opacity:1;stroke:none;stroke-width:2.92431188;stroke-miterlimit:4;stroke-dasharray:none;stroke-dashoffset:0;stroke-opacity:0.60240933" />
    <path
       style="fill:#f6e300;fill-opacity:1;stroke:none;stroke-width:3.43051815;stroke-miterlimit:4;stroke-dasharray:none;stroke-dashoffset:0;stroke-opacity:0.60240933"
       id="path8088"
       sodipodi:type="arc"
       sodipodi:cx="274.18878"
       sodipodi:cy="205.08163"
       sodipodi:rx="9.2259073"
       sodipodi:ry="9.222229"
       sodipodi:start="0"
       sodipodi:end="6.282352"
       d="m 283.41469,205.08163 a 9.2259073,9.222229 0 0 1 -9.22399,9.22223 9.2259073,9.222229 0 0 1 -9.22782,-9.21838 9.2259073,9.222229 0 0 1 9.22014,-9.22607 9.2259073,9.222229 0 0 1 9.23167,9.21454"
       sodipodi:open="true" />
    <path
       style="fill:#f6e300;fill-opacity:1;stroke:none;stroke-width:2.92431188;stroke-miterlimit:4;stroke-dasharray:none;stroke-dashoffset:0;stroke-opacity:0.60240933"
       id="path8090"
       sodipodi:type="arc"
       sodipodi:cx="307.74203"
       sodipodi:cy="207.39334"
       sodipodi:rx="8.5778809"
       sodipodi:ry="8.5744619"
       sodipodi:start="0"
       sodipodi:end="6.282352"
       d="m 316.31992,207.39334 a 8.5778809,8.5744619 0 0 1 -8.5761,8.57446 8.5778809,8.5744619 0 0 1 -8.57967,-8.57089 8.5778809,8.5744619 0 0 1 8.57252,-8.57803 8.5778809,8.5744619 0 0 1 8.58324,8.56732"
       sodipodi:open="true" />
    <path
       sodipodi:open="true"
       d="m 263.47648,224.40984 a 7.905683,7.9025326 0 0 1 -7.90403,7.90253 7.905683,7.9025326 0 0 1 -7.90733,-7.89924 7.905683,7.9025326 0 0 1 7.90074,-7.90583 7.905683,7.9025326 0 0 1 7.91062,7.89595"
       sodipodi:end="6.282352"
       sodipodi:start="0"
       sodipodi:ry="7.9025326"
       sodipodi:rx="7.905683"
       sodipodi:cy="224.40984"
       sodipodi:cx="255.5708"
       sodipodi:type="arc"
       id="path8092"
       style="fill:#f6e300;fill-opacity:1;stroke:none;stroke-width:2.16500258;stroke-miterlimit:4;stroke-dasharray:none;stroke-dashoffset:0;stroke-opacity:0.60240933" />
  </g>
</svg>
