<?xml version="1.0" encoding="UTF-8"?>
<svg xmlns="http://www.w3.org/2000/svg" version="1.1" width="700" height="700" viewBox="0 0 700 700">
	<rect x="0" y="0" width="100%" height="100%"/>
	<g fill="none" stroke="grey" stroke-width="1">
		<circle cx="350" cy="334" r="72.5"/>
		<circle cx="350" cy="350" r="145"/>
		<circle cx="350" cy="350" r="200"/>
		<circle cx="378.5" cy="350" r="305"/>
	</g>
	<g stroke="white" stroke-width="2">
		<g>
			<g>
				<circle cx="350" cy="406.5" r="10" fill="grey"/>
				<g>
					<path d="M359 406.5a9 9 0 0 1 -18 0z" fill="#1a1a1a" stroke="none"/>
					<animateTransform
						attributeName="transform"
						attributeType="XML"
						type="rotate"
						from="0 350 406.5"
						to="-360 350 406.5"
						dur="2.41s"
						repeatCount="indefinite"/>
				</g>
				<animateTransform
					attributeName="transform"
					attributeType="XML"
					type="rotate"
					from="0 350 422.5"
					to="360 350 422.5"
					dur="2.41s"
					repeatCount="indefinite"/>
			</g>
			<animateTransform
				attributeName="transform"
				attributeType="XML"
				type="rotate"
				from="0 350 350"
				to="-360 350 350"
				dur="2.41s"
				repeatCount="indefinite"/>
		</g>
		<g>
			<circle cx="350" cy="205" r="10" fill="#E0E530"/>
			<path d="M359 205a9 9 0 0 0 -18 0z" fill="#20200D" stroke="none"/>
			<animateTransform
				attributeName="transform"
				attributeType="XML"
				type="rotate"
				from="0 350 350"
				to="-360 350 350"
				dur="6.15s"
				repeatCount="indefinite"/>
		</g>
		<circle cx="350" cy="350" r="20" fill="yellow"/>
		<g>
			<circle cx="550" cy="350" r="10" fill="blue"/>
			<path d="M550 359a9 9 0 0 0 0 -18z" fill="#000050" stroke="none"/>
			<circle cx="550" cy="350" r="20" fill="none" stroke="grey" stroke-width="1"/>
			<g>
				<circle cx="570" cy="350" r="5" fill="grey" stroke-width="1.5"/>
				<animateTransform
					attributeName="transform"
					attributeType="XML"
					type="rotate"
					from="0 550 350"
					to="-360 550 350"
					dur="0.748s"
					repeatCount="indefinite"/>
			</g>
			<animateTransform
				attributeName="transform"
				attributeType="XML"
				type="rotate"
				from="0 350 350"
				to="-360 350 350"
				dur="10s"
				repeatCount="indefinite"/>
		</g>
		<g>
			<g>
				<circle cx="73.5" cy="350" r="10" fill="red"/>
				<g>
					<path d="M73.5 359a9 9 0 0 1 0 -18z" fill="#500000" stroke="none"/>
					<animateTransform
						attributeName="transform"
						attributeType="XML"
						type="rotate"
						from="0 73.5 350"
						to="-360 73.5 350"
						dur="18.81s"
						repeatCount="indefinite"/>
				</g>
				<animateTransform
					attributeName="transform"
					attributeType="XML"
					type="rotate"
					from="0 45 350"
					to="360 45 350"
					dur="18.81s"
					repeatCount="indefinite"/>
			</g>
			<animateTransform
				attributeName="transform"
				attributeType="XML"
				type="rotate"
				from="0 350 350"
				to="-360 350 350"
				dur="18.81s"
				repeatCount="indefinite"/>
		</g>
	</g>
</svg>
