<?xml version="1.0" encoding="UTF-8" standalone="no"?>
<!-- Created with Inkscape (http://www.inkscape.org/) -->

<svg
   xmlns:dc="http://purl.org/dc/elements/1.1/"
   xmlns:cc="http://creativecommons.org/ns#"
   xmlns:rdf="http://www.w3.org/1999/02/22-rdf-syntax-ns#"
   xmlns:svg="http://www.w3.org/2000/svg"
   xmlns="http://www.w3.org/2000/svg"
   xmlns:sodipodi="http://sodipodi.sourceforge.net/DTD/sodipodi-0.dtd"
   xmlns:inkscape="http://www.inkscape.org/namespaces/inkscape"
   width="400.00012"
   height="214"
   id="svg3178"
   version="1.1"
   inkscape:version="0.91 r13725"
   sodipodi:docname="MoonwardsLogoMasterNew.svg">
  <defs
     id="defs3180">
    <inkscape:path-effect
       effect="spiro"
       id="path-effect12084"
       is_visible="true" />
  </defs>
  <sodipodi:namedview
     id="base"
     pagecolor="#1b1b1b"
     bordercolor="#666666"
     borderopacity="1.0"
     inkscape:pageopacity="0"
     inkscape:pageshadow="2"
     inkscape:zoom="5.3282903"
     inkscape:cx="70.649864"
     inkscape:cy="149.65226"
     inkscape:document-units="px"
     inkscape:current-layer="layer1"
     showgrid="false"
     fit-margin-top="0"
     fit-margin-left="0"
     fit-margin-right="0"
     fit-margin-bottom="0"
     showborder="false"
     inkscape:showpageshadow="false"
     inkscape:window-width="1817"
     inkscape:window-height="1028"
     inkscape:window-x="76"
     inkscape:window-y="24"
     inkscape:window-maximized="0"
     inkscape:snap-global="false" />
  <metadata
     id="metadata3183">
    <rdf:RDF>
      <cc:Work
         rdf:about="">
        <dc:format>image/svg+xml</dc:format>
        <dc:type
           rdf:resource="http://purl.org/dc/dcmitype/StillImage" />
        <dc:title />
      </cc:Work>
    </rdf:RDF>
  </metadata>
  <g
     inkscape:groupmode="layer"
     id="layer5"
     inkscape:label="Layer#3"
     style="display:inline"
     transform="translate(1.8572102,-5.3713269)">
    <rect
       style="fill:#000000;fill-opacity:1;fill-rule:evenodd;stroke:none;display:inline"
       id="rect8326"
       width="400.00012"
       height="214.47552"
       x="-1.8572102"
       y="4.8958106"
       ry="40.50182" />
  </g>
  <g
     inkscape:groupmode="layer"
     id="layer2"
     inkscape:label="Layer"
     style="display:inline"
     transform="translate(1.8572102,-5.3713269)">
    <path
       transform="matrix(0.49497477,0,0,0.49497477,108.11348,49.969525)"
       d="m 29.041886,54.366486 a 1.5152287,1.5152287 0 0 1 -1.515229,1.515228 1.5152287,1.5152287 0 0 1 -1.515229,-1.515228 1.5152287,1.5152287 0 0 1 1.515229,-1.515229 1.5152287,1.5152287 0 0 1 1.515229,1.515229 z"
       sodipodi:ry="1.5152287"
       sodipodi:rx="1.5152287"
       sodipodi:cy="54.366486"
       sodipodi:cx="27.526657"
       id="use13039"
       style="fill:#ffff4f;fill-opacity:1;fill-rule:nonzero;stroke:none"
       sodipodi:type="arc" />
    <path
       transform="matrix(0.49497477,0,0,0.49497477,113.26353,53.737087)"
       d="m 29.041886,54.366486 a 1.5152287,1.5152287 0 0 1 -1.515229,1.515228 1.5152287,1.5152287 0 0 1 -1.515229,-1.515228 1.5152287,1.5152287 0 0 1 1.515229,-1.515229 1.5152287,1.5152287 0 0 1 1.515229,1.515229 z"
       sodipodi:ry="1.5152287"
       sodipodi:rx="1.5152287"
       sodipodi:cy="54.366486"
       sodipodi:cx="27.526657"
       id="use13041"
       style="fill:#ffff4f;fill-opacity:1;fill-rule:nonzero;stroke:none"
       sodipodi:type="arc" />
    <path
       transform="matrix(0.49497477,0,0,0.49497477,109.71552,50.876743)"
       d="m 29.041886,54.366486 a 1.5152287,1.5152287 0 0 1 -1.515229,1.515228 1.5152287,1.5152287 0 0 1 -1.515229,-1.515228 1.5152287,1.5152287 0 0 1 1.515229,-1.515229 1.5152287,1.5152287 0 0 1 1.515229,1.515229 z"
       sodipodi:ry="1.5152287"
       sodipodi:rx="1.5152287"
       sodipodi:cy="54.366486"
       sodipodi:cx="27.526657"
       id="use13043"
       style="fill:#ffff4f;fill-opacity:1;fill-rule:nonzero;stroke:none"
       sodipodi:type="arc" />
    <path
       transform="matrix(0.49497477,0,0,0.49497477,118.99285,53.301008)"
       d="m 29.041886,54.366486 a 1.5152287,1.5152287 0 0 1 -1.515229,1.515228 1.5152287,1.5152287 0 0 1 -1.515229,-1.515228 1.5152287,1.5152287 0 0 1 1.515229,-1.515229 1.5152287,1.5152287 0 0 1 1.515229,1.515229 z"
       sodipodi:ry="1.5152287"
       sodipodi:rx="1.5152287"
       sodipodi:cy="54.366486"
       sodipodi:cx="27.526657"
       id="use13045"
       style="fill:#ffff4f;fill-opacity:1;fill-rule:nonzero;stroke:none"
       sodipodi:type="arc" />
    <path
       transform="matrix(0.49497477,0,0,0.49497477,63.96948,46.06121)"
       d="m 29.041886,54.366486 a 1.5152287,1.5152287 0 0 1 -1.515229,1.515228 1.5152287,1.5152287 0 0 1 -1.515229,-1.515228 1.5152287,1.5152287 0 0 1 1.515229,-1.515229 1.5152287,1.5152287 0 0 1 1.515229,1.515229 z"
       sodipodi:ry="1.5152287"
       sodipodi:rx="1.5152287"
       sodipodi:cy="54.366486"
       sodipodi:cx="27.526657"
       id="use13047"
       style="fill:#ffff4f;fill-opacity:1;fill-rule:nonzero;stroke:none"
       sodipodi:type="arc" />
    <path
       transform="matrix(0.49497477,0,0,0.49497477,107.53863,103.42447)"
       d="m 29.041886,54.366486 a 1.5152287,1.5152287 0 0 1 -1.515229,1.515228 1.5152287,1.5152287 0 0 1 -1.515229,-1.515228 1.5152287,1.5152287 0 0 1 1.515229,-1.515229 1.5152287,1.5152287 0 0 1 1.515229,1.515229 z"
       sodipodi:ry="1.5152287"
       sodipodi:rx="1.5152287"
       sodipodi:cy="54.366486"
       sodipodi:cx="27.526657"
       id="use13049"
       style="fill:#ffff4f;fill-opacity:1;fill-rule:nonzero;stroke:none"
       sodipodi:type="arc" />
    <path
       transform="matrix(0.49497477,0,0,0.49497477,100.97554,118.77413)"
       d="m 29.041886,54.366486 a 1.5152287,1.5152287 0 0 1 -1.515229,1.515228 1.5152287,1.5152287 0 0 1 -1.515229,-1.515228 1.5152287,1.5152287 0 0 1 1.515229,-1.515229 1.5152287,1.5152287 0 0 1 1.515229,1.515229 z"
       sodipodi:ry="1.5152287"
       sodipodi:rx="1.5152287"
       sodipodi:cy="54.366486"
       sodipodi:cx="27.526657"
       id="use13051"
       style="fill:#ffff4f;fill-opacity:1;fill-rule:nonzero;stroke:none"
       sodipodi:type="arc" />
    <path
       transform="matrix(0.49497477,0,0,0.49497477,111.98282,136.66312)"
       d="m 29.041886,54.366486 a 1.5152287,1.5152287 0 0 1 -1.515229,1.515228 1.5152287,1.5152287 0 0 1 -1.515229,-1.515228 1.5152287,1.5152287 0 0 1 1.515229,-1.515229 1.5152287,1.5152287 0 0 1 1.515229,1.515229 z"
       sodipodi:ry="1.5152287"
       sodipodi:rx="1.5152287"
       sodipodi:cy="54.366486"
       sodipodi:cx="27.526657"
       id="use13053"
       style="fill:#ffff4f;fill-opacity:1;fill-rule:nonzero;stroke:none"
       sodipodi:type="arc" />
    <path
       transform="matrix(0.49497477,0,0,0.49497477,59.1307,133.5388)"
       d="m 29.041886,54.366486 a 1.5152287,1.5152287 0 0 1 -1.515229,1.515228 1.5152287,1.5152287 0 0 1 -1.515229,-1.515228 1.5152287,1.5152287 0 0 1 1.515229,-1.515229 1.5152287,1.5152287 0 0 1 1.515229,1.515229 z"
       sodipodi:ry="1.5152287"
       sodipodi:rx="1.5152287"
       sodipodi:cy="54.366486"
       sodipodi:cx="27.526657"
       id="use13055"
       style="fill:#ffff4f;fill-opacity:1;fill-rule:nonzero;stroke:none"
       sodipodi:type="arc" />
    <path
       transform="matrix(0.49497477,0,0,0.49497477,61.480526,126.14229)"
       d="m 29.041886,54.366486 a 1.5152287,1.5152287 0 0 1 -1.515229,1.515228 1.5152287,1.5152287 0 0 1 -1.515229,-1.515228 1.5152287,1.5152287 0 0 1 1.515229,-1.515229 1.5152287,1.5152287 0 0 1 1.515229,1.515229 z"
       sodipodi:ry="1.5152287"
       sodipodi:rx="1.5152287"
       sodipodi:cy="54.366486"
       sodipodi:cx="27.526657"
       id="use13057"
       style="fill:#ffff4f;fill-opacity:1;fill-rule:nonzero;stroke:none"
       sodipodi:type="arc" />
    <path
       transform="matrix(0.49497477,0,0,0.49497477,94.947076,140.64138)"
       d="m 29.041886,54.366486 a 1.5152287,1.5152287 0 0 1 -1.515229,1.515228 1.5152287,1.5152287 0 0 1 -1.515229,-1.515228 1.5152287,1.5152287 0 0 1 1.515229,-1.515229 1.5152287,1.5152287 0 0 1 1.515229,1.515229 z"
       sodipodi:ry="1.5152287"
       sodipodi:rx="1.5152287"
       sodipodi:cy="54.366486"
       sodipodi:cx="27.526657"
       id="use13059"
       style="fill:#ffff4f;fill-opacity:1;fill-rule:nonzero;stroke:none"
       sodipodi:type="arc" />
    <path
       transform="matrix(0.49497477,0,0,0.49497477,79.742306,85.10945)"
       d="m 29.041886,54.366486 a 1.5152287,1.5152287 0 0 1 -1.515229,1.515228 1.5152287,1.5152287 0 0 1 -1.515229,-1.515228 1.5152287,1.5152287 0 0 1 1.515229,-1.515229 1.5152287,1.5152287 0 0 1 1.515229,1.515229 z"
       sodipodi:ry="1.5152287"
       sodipodi:rx="1.5152287"
       sodipodi:cy="54.366486"
       sodipodi:cx="27.526657"
       id="use13061"
       style="fill:#ffff4f;fill-opacity:1;fill-rule:nonzero;stroke:none"
       sodipodi:type="arc" />
    <path
       transform="matrix(0.49497477,0,0,0.49497477,65.443245,138.10344)"
       d="m 29.041886,54.366486 a 1.5152287,1.5152287 0 0 1 -1.515229,1.515228 1.5152287,1.5152287 0 0 1 -1.515229,-1.515228 1.5152287,1.5152287 0 0 1 1.515229,-1.515229 1.5152287,1.5152287 0 0 1 1.515229,1.515229 z"
       sodipodi:ry="1.5152287"
       sodipodi:rx="1.5152287"
       sodipodi:cy="54.366486"
       sodipodi:cx="27.526657"
       id="use13063"
       style="fill:#ffff4f;fill-opacity:1;fill-rule:nonzero;stroke:none"
       sodipodi:type="arc" />
    <path
       transform="matrix(0.49497477,0,0,0.49497477,72.579518,132.88188)"
       d="m 29.041886,54.366486 a 1.5152287,1.5152287 0 0 1 -1.515229,1.515228 1.5152287,1.5152287 0 0 1 -1.515229,-1.515228 1.5152287,1.5152287 0 0 1 1.515229,-1.515229 1.5152287,1.5152287 0 0 1 1.515229,1.515229 z"
       sodipodi:ry="1.5152287"
       sodipodi:rx="1.5152287"
       sodipodi:cy="54.366486"
       sodipodi:cx="27.526657"
       id="use13065"
       style="fill:#ffff4f;fill-opacity:1;fill-rule:nonzero;stroke:none"
       sodipodi:type="arc" />
    <path
       transform="matrix(0.49497477,0,0,0.49497477,81.382506,83.90632)"
       d="m 29.041886,54.366486 a 1.5152287,1.5152287 0 0 1 -1.515229,1.515228 1.5152287,1.5152287 0 0 1 -1.515229,-1.515228 1.5152287,1.5152287 0 0 1 1.515229,-1.515229 1.5152287,1.5152287 0 0 1 1.515229,1.515229 z"
       sodipodi:ry="1.5152287"
       sodipodi:rx="1.5152287"
       sodipodi:cy="54.366486"
       sodipodi:cx="27.526657"
       id="use13067"
       style="fill:#ffff4f;fill-opacity:1;fill-rule:nonzero;stroke:none"
       sodipodi:type="arc" />
    <path
       transform="matrix(0.49497477,0,0,0.49497477,148.96823,100.97778)"
       d="m 29.041886,54.366486 a 1.5152287,1.5152287 0 0 1 -1.515229,1.515228 1.5152287,1.5152287 0 0 1 -1.515229,-1.515228 1.5152287,1.5152287 0 0 1 1.515229,-1.515229 1.5152287,1.5152287 0 0 1 1.515229,1.515229 z"
       sodipodi:ry="1.5152287"
       sodipodi:rx="1.5152287"
       sodipodi:cy="54.366486"
       sodipodi:cx="27.526657"
       id="use13069"
       style="fill:#ffff4f;fill-opacity:1;fill-rule:nonzero;stroke:none"
       sodipodi:type="arc" />
    <path
       transform="matrix(0.49497477,0,0,0.49497477,140.26818,114.66577)"
       d="m 29.041886,54.366486 a 1.5152287,1.5152287 0 0 1 -1.515229,1.515228 1.5152287,1.5152287 0 0 1 -1.515229,-1.515228 1.5152287,1.5152287 0 0 1 1.515229,-1.515229 1.5152287,1.5152287 0 0 1 1.515229,1.515229 z"
       sodipodi:ry="1.5152287"
       sodipodi:rx="1.5152287"
       sodipodi:cy="54.366486"
       sodipodi:cx="27.526657"
       id="use13071"
       style="fill:#ffff4f;fill-opacity:1;fill-rule:nonzero;stroke:none"
       sodipodi:type="arc" />
    <path
       transform="matrix(0.49497477,0,0,0.49497477,131.3103,107.83722)"
       d="m 29.041886,54.366486 a 1.5152287,1.5152287 0 0 1 -1.515229,1.515228 1.5152287,1.5152287 0 0 1 -1.515229,-1.515228 1.5152287,1.5152287 0 0 1 1.515229,-1.515229 1.5152287,1.5152287 0 0 1 1.515229,1.515229 z"
       sodipodi:ry="1.5152287"
       sodipodi:rx="1.5152287"
       sodipodi:cy="54.366486"
       sodipodi:cx="27.526657"
       id="use13073"
       style="fill:#ffff4f;fill-opacity:1;fill-rule:nonzero;stroke:none"
       sodipodi:type="arc" />
    <path
       transform="matrix(0.49497477,0,0,0.49497477,116.67786,100.20279)"
       d="m 29.041886,54.366486 a 1.5152287,1.5152287 0 0 1 -1.515229,1.515228 1.5152287,1.5152287 0 0 1 -1.515229,-1.515228 1.5152287,1.5152287 0 0 1 1.515229,-1.515229 1.5152287,1.5152287 0 0 1 1.515229,1.515229 z"
       sodipodi:ry="1.5152287"
       sodipodi:rx="1.5152287"
       sodipodi:cy="54.366486"
       sodipodi:cx="27.526657"
       id="use13075"
       style="fill:#ffff4f;fill-opacity:1;fill-rule:nonzero;stroke:none"
       sodipodi:type="arc" />
    <path
       transform="matrix(0.49497477,0,0,0.49497477,129.17381,112.08925)"
       d="m 29.041886,54.366486 a 1.5152287,1.5152287 0 0 1 -1.515229,1.515228 1.5152287,1.5152287 0 0 1 -1.515229,-1.515228 1.5152287,1.5152287 0 0 1 1.515229,-1.515229 1.5152287,1.5152287 0 0 1 1.515229,1.515229 z"
       sodipodi:ry="1.5152287"
       sodipodi:rx="1.5152287"
       sodipodi:cy="54.366486"
       sodipodi:cx="27.526657"
       id="use13077"
       style="fill:#ffff4f;fill-opacity:1;fill-rule:nonzero;stroke:none"
       sodipodi:type="arc" />
    <path
       transform="matrix(0.49497477,0,0,0.49497477,137.31285,103.42885)"
       d="m 29.041886,54.366486 a 1.5152287,1.5152287 0 0 1 -1.515229,1.515228 1.5152287,1.5152287 0 0 1 -1.515229,-1.515228 1.5152287,1.5152287 0 0 1 1.515229,-1.515229 1.5152287,1.5152287 0 0 1 1.515229,1.515229 z"
       sodipodi:ry="1.5152287"
       sodipodi:rx="1.5152287"
       sodipodi:cy="54.366486"
       sodipodi:cx="27.526657"
       id="use13079"
       style="fill:#ffff4f;fill-opacity:1;fill-rule:nonzero;stroke:none"
       sodipodi:type="arc" />
    <path
       transform="matrix(0.49497477,0,0,0.49497477,151.22579,98.748187)"
       d="m 29.041886,54.366486 a 1.5152287,1.5152287 0 0 1 -1.515229,1.515228 1.5152287,1.5152287 0 0 1 -1.515229,-1.515228 1.5152287,1.5152287 0 0 1 1.515229,-1.515229 1.5152287,1.5152287 0 0 1 1.515229,1.515229 z"
       sodipodi:ry="1.5152287"
       sodipodi:rx="1.5152287"
       sodipodi:cy="54.366486"
       sodipodi:cx="27.526657"
       id="use13081"
       style="fill:#ffff4f;fill-opacity:1;fill-rule:nonzero;stroke:none"
       sodipodi:type="arc" />
    <path
       transform="matrix(0.49497477,0,0,0.49497477,145.77194,69.101363)"
       d="m 29.041886,54.366486 a 1.5152287,1.5152287 0 0 1 -1.515229,1.515228 1.5152287,1.5152287 0 0 1 -1.515229,-1.515228 1.5152287,1.5152287 0 0 1 1.515229,-1.515229 1.5152287,1.5152287 0 0 1 1.515229,1.515229 z"
       sodipodi:ry="1.5152287"
       sodipodi:rx="1.5152287"
       sodipodi:cy="54.366486"
       sodipodi:cx="27.526657"
       id="use13083"
       style="fill:#ffff4f;fill-opacity:1;fill-rule:nonzero;stroke:none"
       sodipodi:type="arc" />
    <path
       transform="matrix(0.49497477,0,0,0.49497477,144.94857,65.874359)"
       d="m 29.041886,54.366486 a 1.5152287,1.5152287 0 0 1 -1.515229,1.515228 1.5152287,1.5152287 0 0 1 -1.515229,-1.515228 1.5152287,1.5152287 0 0 1 1.515229,-1.515229 1.5152287,1.5152287 0 0 1 1.515229,1.515229 z"
       sodipodi:ry="1.5152287"
       sodipodi:rx="1.5152287"
       sodipodi:cy="54.366486"
       sodipodi:cx="27.526657"
       id="use13085"
       style="fill:#ffff4f;fill-opacity:1;fill-rule:nonzero;stroke:none"
       sodipodi:type="arc" />
    <path
       transform="matrix(0.49497477,0,0,0.49497477,146.23207,58.690155)"
       d="m 29.041886,54.366486 a 1.5152287,1.5152287 0 0 1 -1.515229,1.515228 1.5152287,1.5152287 0 0 1 -1.515229,-1.515228 1.5152287,1.5152287 0 0 1 1.515229,-1.515229 1.5152287,1.5152287 0 0 1 1.515229,1.515229 z"
       sodipodi:ry="1.5152287"
       sodipodi:rx="1.5152287"
       sodipodi:cy="54.366486"
       sodipodi:cx="27.526657"
       id="use13087"
       style="fill:#ffff4f;fill-opacity:1;fill-rule:nonzero;stroke:none"
       sodipodi:type="arc" />
    <path
       transform="matrix(0.49497477,0,0,0.49497477,153.46439,60.150653)"
       d="m 29.041886,54.366486 a 1.5152287,1.5152287 0 0 1 -1.515229,1.515228 1.5152287,1.5152287 0 0 1 -1.515229,-1.515228 1.5152287,1.5152287 0 0 1 1.515229,-1.515229 1.5152287,1.5152287 0 0 1 1.515229,1.515229 z"
       sodipodi:ry="1.5152287"
       sodipodi:rx="1.5152287"
       sodipodi:cy="54.366486"
       sodipodi:cx="27.526657"
       id="use13089"
       style="fill:#ffff4f;fill-opacity:1;fill-rule:nonzero;stroke:none"
       sodipodi:type="arc" />
    <path
       transform="matrix(0.49497477,0,0,0.49497477,147.41102,65.769227)"
       d="m 29.041886,54.366486 a 1.5152287,1.5152287 0 0 1 -1.515229,1.515228 1.5152287,1.5152287 0 0 1 -1.515229,-1.515228 1.5152287,1.5152287 0 0 1 1.515229,-1.515229 1.5152287,1.5152287 0 0 1 1.515229,1.515229 z"
       sodipodi:ry="1.5152287"
       sodipodi:rx="1.5152287"
       sodipodi:cy="54.366486"
       sodipodi:cx="27.526657"
       id="use13091"
       style="fill:#ffff4f;fill-opacity:1;fill-rule:nonzero;stroke:none"
       sodipodi:type="arc" />
    <path
       transform="matrix(0.49497477,0,0,0.49497477,73.798501,35.873306)"
       d="m 29.041886,54.366486 a 1.5152287,1.5152287 0 0 1 -1.515229,1.515228 1.5152287,1.5152287 0 0 1 -1.515229,-1.515228 1.5152287,1.5152287 0 0 1 1.515229,-1.515229 1.5152287,1.5152287 0 0 1 1.515229,1.515229 z"
       sodipodi:ry="1.5152287"
       sodipodi:rx="1.5152287"
       sodipodi:cy="54.366486"
       sodipodi:cx="27.526657"
       id="use13093"
       style="fill:#ffff4f;fill-opacity:1;fill-rule:nonzero;stroke:none"
       sodipodi:type="arc" />
    <path
       transform="matrix(0.49497477,0,0,0.49497477,74.497984,30.184796)"
       d="m 29.041886,54.366486 a 1.5152287,1.5152287 0 0 1 -1.515229,1.515228 1.5152287,1.5152287 0 0 1 -1.515229,-1.515228 1.5152287,1.5152287 0 0 1 1.515229,-1.515229 1.5152287,1.5152287 0 0 1 1.515229,1.515229 z"
       sodipodi:ry="1.5152287"
       sodipodi:rx="1.5152287"
       sodipodi:cy="54.366486"
       sodipodi:cx="27.526657"
       id="use13095"
       style="fill:#ffff4f;fill-opacity:1;fill-rule:nonzero;stroke:none"
       sodipodi:type="arc" />
    <path
       transform="matrix(0.49497477,0,0,0.49497477,69.790632,34.613147)"
       d="m 29.041886,54.366486 a 1.5152287,1.5152287 0 0 1 -1.515229,1.515228 1.5152287,1.5152287 0 0 1 -1.515229,-1.515228 1.5152287,1.5152287 0 0 1 1.515229,-1.515229 1.5152287,1.5152287 0 0 1 1.515229,1.515229 z"
       sodipodi:ry="1.5152287"
       sodipodi:rx="1.5152287"
       sodipodi:cy="54.366486"
       sodipodi:cx="27.526657"
       id="use13097"
       style="fill:#ffff4f;fill-opacity:1;fill-rule:nonzero;stroke:none"
       sodipodi:type="arc" />
    <path
       transform="matrix(0.49497477,0,0,0.49497477,59.249341,41.760319)"
       d="m 29.041886,54.366486 a 1.5152287,1.5152287 0 0 1 -1.515229,1.515228 1.5152287,1.5152287 0 0 1 -1.515229,-1.515228 1.5152287,1.5152287 0 0 1 1.515229,-1.515229 1.5152287,1.5152287 0 0 1 1.515229,1.515229 z"
       sodipodi:ry="1.5152287"
       sodipodi:rx="1.5152287"
       sodipodi:cy="54.366486"
       sodipodi:cx="27.526657"
       id="use13099"
       style="fill:#ffff4f;fill-opacity:1;fill-rule:nonzero;stroke:none"
       sodipodi:type="arc" />
    <path
       transform="matrix(0.49497477,0,0,0.49497477,65.191498,46.423167)"
       d="m 29.041886,54.366486 a 1.5152287,1.5152287 0 0 1 -1.515229,1.515228 1.5152287,1.5152287 0 0 1 -1.515229,-1.515228 1.5152287,1.5152287 0 0 1 1.515229,-1.515229 1.5152287,1.5152287 0 0 1 1.515229,1.515229 z"
       sodipodi:ry="1.5152287"
       sodipodi:rx="1.5152287"
       sodipodi:cy="54.366486"
       sodipodi:cx="27.526657"
       id="use13101"
       style="fill:#ffff4f;fill-opacity:1;fill-rule:nonzero;stroke:none"
       sodipodi:type="arc" />
    <path
       transform="matrix(0.49497477,0,0,0.49497477,56.564188,44.281245)"
       d="m 29.041886,54.366486 a 1.5152287,1.5152287 0 0 1 -1.515229,1.515228 1.5152287,1.5152287 0 0 1 -1.515229,-1.515228 1.5152287,1.5152287 0 0 1 1.515229,-1.515229 1.5152287,1.5152287 0 0 1 1.515229,1.515229 z"
       sodipodi:ry="1.5152287"
       sodipodi:rx="1.5152287"
       sodipodi:cy="54.366486"
       sodipodi:cx="27.526657"
       id="use13103"
       style="fill:#ffff4f;fill-opacity:1;fill-rule:nonzero;stroke:none"
       sodipodi:type="arc" />
    <path
       transform="matrix(0.49497477,0,0,0.49497477,118.21321,97.154134)"
       d="m 29.041886,54.366486 a 1.5152287,1.5152287 0 0 1 -1.515229,1.515228 1.5152287,1.5152287 0 0 1 -1.515229,-1.515228 1.5152287,1.5152287 0 0 1 1.515229,-1.515229 1.5152287,1.5152287 0 0 1 1.515229,1.515229 z"
       sodipodi:ry="1.5152287"
       sodipodi:rx="1.5152287"
       sodipodi:cy="54.366486"
       sodipodi:cx="27.526657"
       id="use13105"
       style="fill:#ffff4f;fill-opacity:1;fill-rule:nonzero;stroke:none"
       sodipodi:type="arc" />
    <path
       transform="matrix(0.49497477,0,0,0.49497477,121.31191,101.11723)"
       d="m 29.041886,54.366486 a 1.5152287,1.5152287 0 0 1 -1.515229,1.515228 1.5152287,1.5152287 0 0 1 -1.515229,-1.515228 1.5152287,1.5152287 0 0 1 1.515229,-1.515229 1.5152287,1.5152287 0 0 1 1.515229,1.515229 z"
       sodipodi:ry="1.5152287"
       sodipodi:rx="1.5152287"
       sodipodi:cy="54.366486"
       sodipodi:cx="27.526657"
       id="use13107"
       style="fill:#ffff4f;fill-opacity:1;fill-rule:nonzero;stroke:none"
       sodipodi:type="arc" />
    <path
       transform="matrix(0.49497477,0,0,0.49497477,108.24241,87.68755)"
       d="m 29.041886,54.366486 a 1.5152287,1.5152287 0 0 1 -1.515229,1.515228 1.5152287,1.5152287 0 0 1 -1.515229,-1.515228 1.5152287,1.5152287 0 0 1 1.515229,-1.515229 1.5152287,1.5152287 0 0 1 1.515229,1.515229 z"
       sodipodi:ry="1.5152287"
       sodipodi:rx="1.5152287"
       sodipodi:cy="54.366486"
       sodipodi:cx="27.526657"
       id="use13109"
       style="fill:#ffff4f;fill-opacity:1;fill-rule:nonzero;stroke:none"
       sodipodi:type="arc" />
    <path
       transform="matrix(0.49497477,0,0,0.49497477,109.16165,88.581135)"
       d="m 29.041886,54.366486 a 1.5152287,1.5152287 0 0 1 -1.515229,1.515228 1.5152287,1.5152287 0 0 1 -1.515229,-1.515228 1.5152287,1.5152287 0 0 1 1.515229,-1.515229 1.5152287,1.5152287 0 0 1 1.515229,1.515229 z"
       sodipodi:ry="1.5152287"
       sodipodi:rx="1.5152287"
       sodipodi:cy="54.366486"
       sodipodi:cx="27.526657"
       id="use13111"
       style="fill:#ffff4f;fill-opacity:1;fill-rule:nonzero;stroke:none"
       sodipodi:type="arc" />
    <path
       transform="matrix(0.49497477,0,0,0.49497477,109.78068,69.706464)"
       d="m 29.041886,54.366486 a 1.5152287,1.5152287 0 0 1 -1.515229,1.515228 1.5152287,1.5152287 0 0 1 -1.515229,-1.515228 1.5152287,1.5152287 0 0 1 1.515229,-1.515229 1.5152287,1.5152287 0 0 1 1.515229,1.515229 z"
       sodipodi:ry="1.5152287"
       sodipodi:rx="1.5152287"
       sodipodi:cy="54.366486"
       sodipodi:cx="27.526657"
       id="use13150"
       style="fill:#ffff4f;fill-opacity:1;fill-rule:nonzero;stroke:none"
       sodipodi:type="arc" />
    <path
       transform="matrix(0.49497477,0,0,0.49497477,121.33733,55.87959)"
       d="m 29.041886,54.366486 a 1.5152287,1.5152287 0 0 1 -1.515229,1.515228 1.5152287,1.5152287 0 0 1 -1.515229,-1.515228 1.5152287,1.5152287 0 0 1 1.515229,-1.515229 1.5152287,1.5152287 0 0 1 1.515229,1.515229 z"
       sodipodi:ry="1.5152287"
       sodipodi:rx="1.5152287"
       sodipodi:cy="54.366486"
       sodipodi:cx="27.526657"
       id="use13152"
       style="fill:#ffff4f;fill-opacity:1;fill-rule:nonzero;stroke:none"
       sodipodi:type="arc" />
    <path
       transform="matrix(0.49497477,0,0,0.49497477,127.25237,56.605015)"
       d="m 29.041886,54.366486 a 1.5152287,1.5152287 0 0 1 -1.515229,1.515228 1.5152287,1.5152287 0 0 1 -1.515229,-1.515228 1.5152287,1.5152287 0 0 1 1.515229,-1.515229 1.5152287,1.5152287 0 0 1 1.515229,1.515229 z"
       sodipodi:ry="1.5152287"
       sodipodi:rx="1.5152287"
       sodipodi:cy="54.366486"
       sodipodi:cx="27.526657"
       id="use13154"
       style="fill:#ffff4f;fill-opacity:1;fill-rule:nonzero;stroke:none"
       sodipodi:type="arc" />
    <path
       transform="matrix(0.49497477,0,0,0.49497477,126.4076,53.671508)"
       d="m 29.041886,54.366486 a 1.5152287,1.5152287 0 0 1 -1.515229,1.515228 1.5152287,1.5152287 0 0 1 -1.515229,-1.515228 1.5152287,1.5152287 0 0 1 1.515229,-1.515229 1.5152287,1.5152287 0 0 1 1.515229,1.515229 z"
       sodipodi:ry="1.5152287"
       sodipodi:rx="1.5152287"
       sodipodi:cy="54.366486"
       sodipodi:cx="27.526657"
       id="use13156"
       style="fill:#ffff4f;fill-opacity:1;fill-rule:nonzero;stroke:none"
       sodipodi:type="arc" />
    <path
       transform="matrix(0.49497477,0,0,0.49497477,121.09406,54.294434)"
       d="m 29.041886,54.366486 a 1.5152287,1.5152287 0 0 1 -1.515229,1.515228 1.5152287,1.5152287 0 0 1 -1.515229,-1.515228 1.5152287,1.5152287 0 0 1 1.515229,-1.515229 1.5152287,1.5152287 0 0 1 1.515229,1.515229 z"
       sodipodi:ry="1.5152287"
       sodipodi:rx="1.5152287"
       sodipodi:cy="54.366486"
       sodipodi:cx="27.526657"
       id="use13158"
       style="fill:#ffff4f;fill-opacity:1;fill-rule:nonzero;stroke:none"
       sodipodi:type="arc" />
    <path
       transform="matrix(0.49497477,0,0,0.49497477,124.35763,53.244177)"
       d="m 29.041886,54.366486 a 1.5152287,1.5152287 0 0 1 -1.515229,1.515228 1.5152287,1.5152287 0 0 1 -1.515229,-1.515228 1.5152287,1.5152287 0 0 1 1.515229,-1.515229 1.5152287,1.5152287 0 0 1 1.515229,1.515229 z"
       sodipodi:ry="1.5152287"
       sodipodi:rx="1.5152287"
       sodipodi:cy="54.366486"
       sodipodi:cx="27.526657"
       id="use13160"
       style="fill:#ffff4f;fill-opacity:1;fill-rule:nonzero;stroke:none"
       sodipodi:type="arc" />
    <path
       transform="matrix(0.49497477,0,0,0.49497477,127.69047,55.042596)"
       d="m 29.041886,54.366486 a 1.5152287,1.5152287 0 0 1 -1.515229,1.515228 1.5152287,1.5152287 0 0 1 -1.515229,-1.515228 1.5152287,1.5152287 0 0 1 1.515229,-1.515229 1.5152287,1.5152287 0 0 1 1.515229,1.515229 z"
       sodipodi:ry="1.5152287"
       sodipodi:rx="1.5152287"
       sodipodi:cy="54.366486"
       sodipodi:cx="27.526657"
       id="use13162"
       style="fill:#ffff4f;fill-opacity:1;fill-rule:nonzero;stroke:none"
       sodipodi:type="arc" />
    <path
       transform="matrix(0.49497477,0,0,0.49497477,120.37445,50.217598)"
       d="m 29.041886,54.366486 a 1.5152287,1.5152287 0 0 1 -1.515229,1.515228 1.5152287,1.5152287 0 0 1 -1.515229,-1.515228 1.5152287,1.5152287 0 0 1 1.515229,-1.515229 1.5152287,1.5152287 0 0 1 1.515229,1.515229 z"
       sodipodi:ry="1.5152287"
       sodipodi:rx="1.5152287"
       sodipodi:cy="54.366486"
       sodipodi:cx="27.526657"
       id="use13164"
       style="fill:#ffff4f;fill-opacity:1;fill-rule:nonzero;stroke:none"
       sodipodi:type="arc" />
    <path
       transform="matrix(0.49497477,0,0,0.49497477,120.19976,55.053234)"
       d="m 29.041886,54.366486 a 1.5152287,1.5152287 0 0 1 -1.515229,1.515228 1.5152287,1.5152287 0 0 1 -1.515229,-1.515228 1.5152287,1.5152287 0 0 1 1.515229,-1.515229 1.5152287,1.5152287 0 0 1 1.515229,1.515229 z"
       sodipodi:ry="1.5152287"
       sodipodi:rx="1.5152287"
       sodipodi:cy="54.366486"
       sodipodi:cx="27.526657"
       id="use13166"
       style="fill:#ffff4f;fill-opacity:1;fill-rule:nonzero;stroke:none"
       sodipodi:type="arc" />
    <path
       transform="matrix(0.49497477,0,0,0.49497477,117.06476,51.007394)"
       d="m 29.041886,54.366486 a 1.5152287,1.5152287 0 0 1 -1.515229,1.515228 1.5152287,1.5152287 0 0 1 -1.515229,-1.515228 1.5152287,1.5152287 0 0 1 1.515229,-1.515229 1.5152287,1.5152287 0 0 1 1.515229,1.515229 z"
       sodipodi:ry="1.5152287"
       sodipodi:rx="1.5152287"
       sodipodi:cy="54.366486"
       sodipodi:cx="27.526657"
       id="use13168"
       style="fill:#ffff4f;fill-opacity:1;fill-rule:nonzero;stroke:none"
       sodipodi:type="arc" />
    <path
       transform="matrix(0.49497477,0,0,0.49497477,112.82665,55.676307)"
       d="m 29.041886,54.366486 a 1.5152287,1.5152287 0 0 1 -1.515229,1.515228 1.5152287,1.5152287 0 0 1 -1.515229,-1.515228 1.5152287,1.5152287 0 0 1 1.515229,-1.515229 1.5152287,1.5152287 0 0 1 1.515229,1.515229 z"
       sodipodi:ry="1.5152287"
       sodipodi:rx="1.5152287"
       sodipodi:cy="54.366486"
       sodipodi:cx="27.526657"
       id="use13170"
       style="fill:#ffff4f;fill-opacity:1;fill-rule:nonzero;stroke:none"
       sodipodi:type="arc" />
    <path
       transform="matrix(0.49497477,0,0,0.49497477,113.39296,54.777715)"
       d="m 29.041886,54.366486 a 1.5152287,1.5152287 0 0 1 -1.515229,1.515228 1.5152287,1.5152287 0 0 1 -1.515229,-1.515228 1.5152287,1.5152287 0 0 1 1.515229,-1.515229 1.5152287,1.5152287 0 0 1 1.515229,1.515229 z"
       sodipodi:ry="1.5152287"
       sodipodi:rx="1.5152287"
       sodipodi:cy="54.366486"
       sodipodi:cx="27.526657"
       id="use13172"
       style="fill:#ffff4f;fill-opacity:1;fill-rule:nonzero;stroke:none"
       sodipodi:type="arc" />
    <path
       transform="matrix(0.49497477,0,0,0.49497477,102.87201,60.900567)"
       d="m 29.041886,54.366486 a 1.5152287,1.5152287 0 0 1 -1.515229,1.515228 1.5152287,1.5152287 0 0 1 -1.515229,-1.515228 1.5152287,1.5152287 0 0 1 1.515229,-1.515229 1.5152287,1.5152287 0 0 1 1.515229,1.515229 z"
       sodipodi:ry="1.5152287"
       sodipodi:rx="1.5152287"
       sodipodi:cy="54.366486"
       sodipodi:cx="27.526657"
       id="use13174"
       style="fill:#ffff4f;fill-opacity:1;fill-rule:nonzero;stroke:none"
       sodipodi:type="arc" />
    <path
       transform="matrix(0.49497477,0,0,0.49497477,111.1377,87.343322)"
       d="m 29.041886,54.366486 a 1.5152287,1.5152287 0 0 1 -1.515229,1.515228 1.5152287,1.5152287 0 0 1 -1.515229,-1.515228 1.5152287,1.5152287 0 0 1 1.515229,-1.515229 1.5152287,1.5152287 0 0 1 1.515229,1.515229 z"
       sodipodi:ry="1.5152287"
       sodipodi:rx="1.5152287"
       sodipodi:cy="54.366486"
       sodipodi:cx="27.526657"
       id="use13176"
       style="fill:#ffff4f;fill-opacity:1;fill-rule:nonzero;stroke:none"
       sodipodi:type="arc" />
    <path
       transform="matrix(0.49497477,0,0,0.49497477,108.71,87.278991)"
       d="m 29.041886,54.366486 a 1.5152287,1.5152287 0 0 1 -1.515229,1.515228 1.5152287,1.5152287 0 0 1 -1.515229,-1.515228 1.5152287,1.5152287 0 0 1 1.515229,-1.515229 1.5152287,1.5152287 0 0 1 1.515229,1.515229 z"
       sodipodi:ry="1.5152287"
       sodipodi:rx="1.5152287"
       sodipodi:cy="54.366486"
       sodipodi:cx="27.526657"
       id="use13178"
       style="fill:#ffff4f;fill-opacity:1;fill-rule:nonzero;stroke:none"
       sodipodi:type="arc" />
    <path
       transform="matrix(0.49497477,0,0,0.49497477,123.37511,112.53249)"
       d="m 29.041886,54.366486 a 1.5152287,1.5152287 0 0 1 -1.515229,1.515228 1.5152287,1.5152287 0 0 1 -1.515229,-1.515228 1.5152287,1.5152287 0 0 1 1.515229,-1.515229 1.5152287,1.5152287 0 0 1 1.515229,1.515229 z"
       sodipodi:ry="1.5152287"
       sodipodi:rx="1.5152287"
       sodipodi:cy="54.366486"
       sodipodi:cx="27.526657"
       id="use13180"
       style="fill:#ffff4f;fill-opacity:1;fill-rule:nonzero;stroke:none"
       sodipodi:type="arc" />
    <path
       transform="matrix(0.49497477,0,0,0.49497477,114.5924,97.385311)"
       d="m 29.041886,54.366486 a 1.5152287,1.5152287 0 0 1 -1.515229,1.515228 1.5152287,1.5152287 0 0 1 -1.515229,-1.515228 1.5152287,1.5152287 0 0 1 1.515229,-1.515229 1.5152287,1.5152287 0 0 1 1.515229,1.515229 z"
       sodipodi:ry="1.5152287"
       sodipodi:rx="1.5152287"
       sodipodi:cy="54.366486"
       sodipodi:cx="27.526657"
       id="use13182"
       style="fill:#ffff4f;fill-opacity:1;fill-rule:nonzero;stroke:none"
       sodipodi:type="arc" />
    <path
       transform="matrix(0.49497477,0,0,0.49497477,117.61317,100.50229)"
       d="m 29.041886,54.366486 a 1.5152287,1.5152287 0 0 1 -1.515229,1.515228 1.5152287,1.5152287 0 0 1 -1.515229,-1.515228 1.5152287,1.5152287 0 0 1 1.515229,-1.515229 1.5152287,1.5152287 0 0 1 1.515229,1.515229 z"
       sodipodi:ry="1.5152287"
       sodipodi:rx="1.5152287"
       sodipodi:cy="54.366486"
       sodipodi:cx="27.526657"
       id="use13184"
       style="fill:#ffff4f;fill-opacity:1;fill-rule:nonzero;stroke:none"
       sodipodi:type="arc" />
    <path
       transform="matrix(0.49497477,0,0,0.49497477,114.0738,97.522178)"
       d="m 29.041886,54.366486 a 1.5152287,1.5152287 0 0 1 -1.515229,1.515228 1.5152287,1.5152287 0 0 1 -1.515229,-1.515228 1.5152287,1.5152287 0 0 1 1.515229,-1.515229 1.5152287,1.5152287 0 0 1 1.515229,1.515229 z"
       sodipodi:ry="1.5152287"
       sodipodi:rx="1.5152287"
       sodipodi:cy="54.366486"
       sodipodi:cx="27.526657"
       id="use13186"
       style="fill:#ffff4f;fill-opacity:1;fill-rule:nonzero;stroke:none"
       sodipodi:type="arc" />
    <path
       transform="matrix(0.49497477,0,0,0.49497477,109.43311,96.021167)"
       d="m 29.041886,54.366486 a 1.5152287,1.5152287 0 0 1 -1.515229,1.515228 1.5152287,1.5152287 0 0 1 -1.515229,-1.515228 1.5152287,1.5152287 0 0 1 1.515229,-1.515229 1.5152287,1.5152287 0 0 1 1.515229,1.515229 z"
       sodipodi:ry="1.5152287"
       sodipodi:rx="1.5152287"
       sodipodi:cy="54.366486"
       sodipodi:cx="27.526657"
       id="use13188"
       style="fill:#ffff4f;fill-opacity:1;fill-rule:nonzero;stroke:none"
       sodipodi:type="arc" />
    <path
       transform="matrix(0.49497477,0,0,0.49497477,121.40299,105.50846)"
       d="m 29.041886,54.366486 a 1.5152287,1.5152287 0 0 1 -1.515229,1.515228 1.5152287,1.5152287 0 0 1 -1.515229,-1.515228 1.5152287,1.5152287 0 0 1 1.515229,-1.515229 1.5152287,1.5152287 0 0 1 1.515229,1.515229 z"
       sodipodi:ry="1.5152287"
       sodipodi:rx="1.5152287"
       sodipodi:cy="54.366486"
       sodipodi:cx="27.526657"
       id="use13190"
       style="fill:#ffff4f;fill-opacity:1;fill-rule:nonzero;stroke:none"
       sodipodi:type="arc" />
    <path
       transform="matrix(0.49497477,0,0,0.49497477,107.48266,100.8104)"
       d="m 29.041886,54.366486 a 1.5152287,1.5152287 0 0 1 -1.515229,1.515228 1.5152287,1.5152287 0 0 1 -1.515229,-1.515228 1.5152287,1.5152287 0 0 1 1.515229,-1.515229 1.5152287,1.5152287 0 0 1 1.515229,1.515229 z"
       sodipodi:ry="1.5152287"
       sodipodi:rx="1.5152287"
       sodipodi:cy="54.366486"
       sodipodi:cx="27.526657"
       id="use13192"
       style="fill:#ffff4f;fill-opacity:1;fill-rule:nonzero;stroke:none"
       sodipodi:type="arc" />
    <path
       transform="matrix(0.49497477,0,0,0.49497477,108.69157,103.47318)"
       d="m 29.041886,54.366486 a 1.5152287,1.5152287 0 0 1 -1.515229,1.515228 1.5152287,1.5152287 0 0 1 -1.515229,-1.515228 1.5152287,1.5152287 0 0 1 1.515229,-1.515229 1.5152287,1.5152287 0 0 1 1.515229,1.515229 z"
       sodipodi:ry="1.5152287"
       sodipodi:rx="1.5152287"
       sodipodi:cy="54.366486"
       sodipodi:cx="27.526657"
       id="use13194"
       style="fill:#ffff4f;fill-opacity:1;fill-rule:nonzero;stroke:none"
       sodipodi:type="arc" />
    <path
       transform="matrix(0.49497477,0,0,0.49497477,104.80063,101.10326)"
       d="m 29.041886,54.366486 a 1.5152287,1.5152287 0 0 1 -1.515229,1.515228 1.5152287,1.5152287 0 0 1 -1.515229,-1.515228 1.5152287,1.5152287 0 0 1 1.515229,-1.515229 1.5152287,1.5152287 0 0 1 1.515229,1.515229 z"
       sodipodi:ry="1.5152287"
       sodipodi:rx="1.5152287"
       sodipodi:cy="54.366486"
       sodipodi:cx="27.526657"
       id="use13196"
       style="fill:#ffff4f;fill-opacity:1;fill-rule:nonzero;stroke:none"
       sodipodi:type="arc" />
    <path
       transform="matrix(0.49497477,0,0,0.49497477,101.7386,115.20222)"
       d="m 29.041886,54.366486 a 1.5152287,1.5152287 0 0 1 -1.515229,1.515228 1.5152287,1.5152287 0 0 1 -1.515229,-1.515228 1.5152287,1.5152287 0 0 1 1.515229,-1.515229 1.5152287,1.5152287 0 0 1 1.515229,1.515229 z"
       sodipodi:ry="1.5152287"
       sodipodi:rx="1.5152287"
       sodipodi:cy="54.366486"
       sodipodi:cx="27.526657"
       id="use13198"
       style="fill:#ffff4f;fill-opacity:1;fill-rule:nonzero;stroke:none"
       sodipodi:type="arc" />
    <path
       transform="matrix(0.49497477,0,0,0.49497477,98.130496,129.30288)"
       d="m 29.041886,54.366486 a 1.5152287,1.5152287 0 0 1 -1.515229,1.515228 1.5152287,1.5152287 0 0 1 -1.515229,-1.515228 1.5152287,1.5152287 0 0 1 1.515229,-1.515229 1.5152287,1.5152287 0 0 1 1.515229,1.515229 z"
       sodipodi:ry="1.5152287"
       sodipodi:rx="1.5152287"
       sodipodi:cy="54.366486"
       sodipodi:cx="27.526657"
       id="use13200"
       style="fill:#ffff4f;fill-opacity:1;fill-rule:nonzero;stroke:none"
       sodipodi:type="arc" />
    <path
       transform="matrix(0.49497477,0,0,0.49497477,92.154396,132.66827)"
       d="m 29.041886,54.366486 a 1.5152287,1.5152287 0 0 1 -1.515229,1.515228 1.5152287,1.5152287 0 0 1 -1.515229,-1.515228 1.5152287,1.5152287 0 0 1 1.515229,-1.515229 1.5152287,1.5152287 0 0 1 1.515229,1.515229 z"
       sodipodi:ry="1.5152287"
       sodipodi:rx="1.5152287"
       sodipodi:cy="54.366486"
       sodipodi:cx="27.526657"
       id="use13202"
       style="fill:#ffff4f;fill-opacity:1;fill-rule:nonzero;stroke:none"
       sodipodi:type="arc" />
    <path
       transform="matrix(0.49497477,0,0,0.49497477,92.564006,139.82027)"
       d="m 29.041886,54.366486 a 1.5152287,1.5152287 0 0 1 -1.515229,1.515228 1.5152287,1.5152287 0 0 1 -1.515229,-1.515228 1.5152287,1.5152287 0 0 1 1.515229,-1.515229 1.5152287,1.5152287 0 0 1 1.515229,1.515229 z"
       sodipodi:ry="1.5152287"
       sodipodi:rx="1.5152287"
       sodipodi:cy="54.366486"
       sodipodi:cx="27.526657"
       id="use13204"
       style="fill:#ffff4f;fill-opacity:1;fill-rule:nonzero;stroke:none"
       sodipodi:type="arc" />
    <path
       transform="matrix(0.49497477,0,0,0.49497477,96.475776,134.79413)"
       d="m 29.041886,54.366486 a 1.5152287,1.5152287 0 0 1 -1.515229,1.515228 1.5152287,1.5152287 0 0 1 -1.515229,-1.515228 1.5152287,1.5152287 0 0 1 1.515229,-1.515229 1.5152287,1.5152287 0 0 1 1.515229,1.515229 z"
       sodipodi:ry="1.5152287"
       sodipodi:rx="1.5152287"
       sodipodi:cy="54.366486"
       sodipodi:cx="27.526657"
       id="use13206"
       style="fill:#ffff4f;fill-opacity:1;fill-rule:nonzero;stroke:none"
       sodipodi:type="arc" />
    <path
       transform="matrix(0.49497477,0,0,0.49497477,96.838086,125.83372)"
       d="m 29.041886,54.366486 a 1.5152287,1.5152287 0 0 1 -1.515229,1.515228 1.5152287,1.5152287 0 0 1 -1.515229,-1.515228 1.5152287,1.5152287 0 0 1 1.515229,-1.515229 1.5152287,1.5152287 0 0 1 1.515229,1.515229 z"
       sodipodi:ry="1.5152287"
       sodipodi:rx="1.5152287"
       sodipodi:cy="54.366486"
       sodipodi:cx="27.526657"
       id="use13208"
       style="fill:#ffff4f;fill-opacity:1;fill-rule:nonzero;stroke:none"
       sodipodi:type="arc" />
    <path
       transform="matrix(0.49497477,0,0,0.49497477,100.49776,119.59874)"
       d="m 29.041886,54.366486 a 1.5152287,1.5152287 0 0 1 -1.515229,1.515228 1.5152287,1.5152287 0 0 1 -1.515229,-1.515228 1.5152287,1.5152287 0 0 1 1.515229,-1.515229 1.5152287,1.5152287 0 0 1 1.515229,1.515229 z"
       sodipodi:ry="1.5152287"
       sodipodi:rx="1.5152287"
       sodipodi:cy="54.366486"
       sodipodi:cx="27.526657"
       id="use13210"
       style="fill:#ffff4f;fill-opacity:1;fill-rule:nonzero;stroke:none"
       sodipodi:type="arc" />
    <path
       transform="matrix(0.49497477,0,0,0.49497477,91.846206,135.14994)"
       d="m 29.041886,54.366486 a 1.5152287,1.5152287 0 0 1 -1.515229,1.515228 1.5152287,1.5152287 0 0 1 -1.515229,-1.515228 1.5152287,1.5152287 0 0 1 1.515229,-1.515229 1.5152287,1.5152287 0 0 1 1.515229,1.515229 z"
       sodipodi:ry="1.5152287"
       sodipodi:rx="1.5152287"
       sodipodi:cy="54.366486"
       sodipodi:cx="27.526657"
       id="use13212"
       style="fill:#ffff4f;fill-opacity:1;fill-rule:nonzero;stroke:none"
       sodipodi:type="arc" />
    <path
       transform="matrix(0.49497477,0,0,0.49497477,94.388596,120.8651)"
       d="m 29.041886,54.366486 a 1.5152287,1.5152287 0 0 1 -1.515229,1.515228 1.5152287,1.5152287 0 0 1 -1.515229,-1.515228 1.5152287,1.5152287 0 0 1 1.515229,-1.515229 1.5152287,1.5152287 0 0 1 1.515229,1.515229 z"
       sodipodi:ry="1.5152287"
       sodipodi:rx="1.5152287"
       sodipodi:cy="54.366486"
       sodipodi:cx="27.526657"
       id="use13214"
       style="fill:#ffff4f;fill-opacity:1;fill-rule:nonzero;stroke:none"
       sodipodi:type="arc" />
    <path
       transform="matrix(0.49497477,0,0,0.49497477,88.545826,132.98776)"
       d="m 29.041886,54.366486 a 1.5152287,1.5152287 0 0 1 -1.515229,1.515228 1.5152287,1.5152287 0 0 1 -1.515229,-1.515228 1.5152287,1.5152287 0 0 1 1.515229,-1.515229 1.5152287,1.5152287 0 0 1 1.515229,1.515229 z"
       sodipodi:ry="1.5152287"
       sodipodi:rx="1.5152287"
       sodipodi:cy="54.366486"
       sodipodi:cx="27.526657"
       id="use13216"
       style="fill:#ffff4f;fill-opacity:1;fill-rule:nonzero;stroke:none"
       sodipodi:type="arc" />
    <path
       transform="matrix(0.49497477,0,0,0.49497477,64.625376,41.43156)"
       d="m 29.041886,54.366486 a 1.5152287,1.5152287 0 0 1 -1.515229,1.515228 1.5152287,1.5152287 0 0 1 -1.515229,-1.515228 1.5152287,1.5152287 0 0 1 1.515229,-1.515229 1.5152287,1.5152287 0 0 1 1.515229,1.515229 z"
       sodipodi:ry="1.5152287"
       sodipodi:rx="1.5152287"
       sodipodi:cy="54.366486"
       sodipodi:cx="27.526657"
       id="use13218"
       style="fill:#ffff4f;fill-opacity:1;fill-rule:nonzero;stroke:none"
       sodipodi:type="arc" />
    <path
       transform="matrix(0.49497477,0,0,0.49497477,147.97755,69.40133)"
       d="m 29.041886,54.366486 a 1.5152287,1.5152287 0 0 1 -1.515229,1.515228 1.5152287,1.5152287 0 0 1 -1.515229,-1.515228 1.5152287,1.5152287 0 0 1 1.515229,-1.515229 1.5152287,1.5152287 0 0 1 1.515229,1.515229 z"
       sodipodi:ry="1.5152287"
       sodipodi:rx="1.5152287"
       sodipodi:cy="54.366486"
       sodipodi:cx="27.526657"
       id="use13220"
       style="fill:#ffff4f;fill-opacity:1;fill-rule:nonzero;stroke:none"
       sodipodi:type="arc" />
    <path
       transform="matrix(0.49497477,0,0,0.49497477,75.137583,134.70154)"
       d="m 29.041886,54.366486 a 1.5152287,1.5152287 0 0 1 -1.515229,1.515228 1.5152287,1.5152287 0 0 1 -1.515229,-1.515228 1.5152287,1.5152287 0 0 1 1.515229,-1.515229 1.5152287,1.5152287 0 0 1 1.515229,1.515229 z"
       sodipodi:ry="1.5152287"
       sodipodi:rx="1.5152287"
       sodipodi:cy="54.366486"
       sodipodi:cx="27.526657"
       id="use13222"
       style="fill:#ffff4f;fill-opacity:1;fill-rule:nonzero;stroke:none"
       sodipodi:type="arc" />
    <path
       transform="matrix(0.49497477,0,0,0.49497477,76.337566,134.99141)"
       d="m 29.041886,54.366486 a 1.5152287,1.5152287 0 0 1 -1.515229,1.515228 1.5152287,1.5152287 0 0 1 -1.515229,-1.515228 1.5152287,1.5152287 0 0 1 1.515229,-1.515229 1.5152287,1.5152287 0 0 1 1.515229,1.515229 z"
       sodipodi:ry="1.5152287"
       sodipodi:rx="1.5152287"
       sodipodi:cy="54.366486"
       sodipodi:cx="27.526657"
       id="use13224"
       style="fill:#ffff4f;fill-opacity:1;fill-rule:nonzero;stroke:none"
       sodipodi:type="arc" />
    <path
       transform="matrix(0.49497477,0,0,0.49497477,87.076686,131.56621)"
       d="m 29.041886,54.366486 a 1.5152287,1.5152287 0 0 1 -1.515229,1.515228 1.5152287,1.5152287 0 0 1 -1.515229,-1.515228 1.5152287,1.5152287 0 0 1 1.515229,-1.515229 1.5152287,1.5152287 0 0 1 1.515229,1.515229 z"
       sodipodi:ry="1.5152287"
       sodipodi:rx="1.5152287"
       sodipodi:cy="54.366486"
       sodipodi:cx="27.526657"
       id="use13226"
       style="fill:#ffff4f;fill-opacity:1;fill-rule:nonzero;stroke:none"
       sodipodi:type="arc" />
    <path
       transform="matrix(0.49497477,0,0,0.49497477,90.241676,138.69304)"
       d="m 29.041886,54.366486 a 1.5152287,1.5152287 0 0 1 -1.515229,1.515228 1.5152287,1.5152287 0 0 1 -1.515229,-1.515228 1.5152287,1.5152287 0 0 1 1.515229,-1.515229 1.5152287,1.5152287 0 0 1 1.515229,1.515229 z"
       sodipodi:ry="1.5152287"
       sodipodi:rx="1.5152287"
       sodipodi:cy="54.366486"
       sodipodi:cx="27.526657"
       id="use13228"
       style="fill:#ffff4f;fill-opacity:1;fill-rule:nonzero;stroke:none"
       sodipodi:type="arc" />
    <path
       transform="matrix(0.49497477,0,0,0.49497477,89.213206,132.05244)"
       d="m 29.041886,54.366486 a 1.5152287,1.5152287 0 0 1 -1.515229,1.515228 1.5152287,1.5152287 0 0 1 -1.515229,-1.515228 1.5152287,1.5152287 0 0 1 1.515229,-1.515229 1.5152287,1.5152287 0 0 1 1.515229,1.515229 z"
       sodipodi:ry="1.5152287"
       sodipodi:rx="1.5152287"
       sodipodi:cy="54.366486"
       sodipodi:cx="27.526657"
       id="use13230"
       style="fill:#ffff4f;fill-opacity:1;fill-rule:nonzero;stroke:none"
       sodipodi:type="arc" />
    <path
       transform="matrix(0.49497477,0,0,0.49497477,73.483336,131.62014)"
       d="m 29.041886,54.366486 a 1.5152287,1.5152287 0 0 1 -1.515229,1.515228 1.5152287,1.5152287 0 0 1 -1.515229,-1.515228 1.5152287,1.5152287 0 0 1 1.515229,-1.515229 1.5152287,1.5152287 0 0 1 1.515229,1.515229 z"
       sodipodi:ry="1.5152287"
       sodipodi:rx="1.5152287"
       sodipodi:cy="54.366486"
       sodipodi:cx="27.526657"
       id="use13232"
       style="fill:#ffff4f;fill-opacity:1;fill-rule:nonzero;stroke:none"
       sodipodi:type="arc" />
    <path
       transform="matrix(0.49497477,0,0,0.49497477,76.378476,134.14462)"
       d="m 29.041886,54.366486 a 1.5152287,1.5152287 0 0 1 -1.515229,1.515228 1.5152287,1.5152287 0 0 1 -1.515229,-1.515228 1.5152287,1.5152287 0 0 1 1.515229,-1.515229 1.5152287,1.5152287 0 0 1 1.515229,1.515229 z"
       sodipodi:ry="1.5152287"
       sodipodi:rx="1.5152287"
       sodipodi:cy="54.366486"
       sodipodi:cx="27.526657"
       id="use13234"
       style="fill:#ffff4f;fill-opacity:1;fill-rule:nonzero;stroke:none"
       sodipodi:type="arc" />
    <path
       transform="matrix(0.49497477,0,0,0.49497477,77.291826,130.5995)"
       d="m 29.041886,54.366486 a 1.5152287,1.5152287 0 0 1 -1.515229,1.515228 1.5152287,1.5152287 0 0 1 -1.515229,-1.515228 1.5152287,1.5152287 0 0 1 1.515229,-1.515229 1.5152287,1.5152287 0 0 1 1.515229,1.515229 z"
       sodipodi:ry="1.5152287"
       sodipodi:rx="1.5152287"
       sodipodi:cy="54.366486"
       sodipodi:cx="27.526657"
       id="use13236"
       style="fill:#ffff4f;fill-opacity:1;fill-rule:nonzero;stroke:none"
       sodipodi:type="arc" />
    <path
       transform="matrix(0.49497477,0,0,0.49497477,99.364606,115.84436)"
       d="m 29.041886,54.366486 a 1.5152287,1.5152287 0 0 1 -1.515229,1.515228 1.5152287,1.5152287 0 0 1 -1.515229,-1.515228 1.5152287,1.5152287 0 0 1 1.515229,-1.515229 1.5152287,1.5152287 0 0 1 1.515229,1.515229 z"
       sodipodi:ry="1.5152287"
       sodipodi:rx="1.5152287"
       sodipodi:cy="54.366486"
       sodipodi:cx="27.526657"
       id="use13238"
       style="fill:#ffff4f;fill-opacity:1;fill-rule:nonzero;stroke:none"
       sodipodi:type="arc" />
    <path
       transform="matrix(0.49497477,0,0,0.49497477,101.52437,119.87594)"
       d="m 29.041886,54.366486 a 1.5152287,1.5152287 0 0 1 -1.515229,1.515228 1.5152287,1.5152287 0 0 1 -1.515229,-1.515228 1.5152287,1.5152287 0 0 1 1.515229,-1.515229 1.5152287,1.5152287 0 0 1 1.515229,1.515229 z"
       sodipodi:ry="1.5152287"
       sodipodi:rx="1.5152287"
       sodipodi:cy="54.366486"
       sodipodi:cx="27.526657"
       id="use13240"
       style="fill:#ffff4f;fill-opacity:1;fill-rule:nonzero;stroke:none"
       sodipodi:type="arc" />
    <path
       transform="matrix(0.49497477,0,0,0.49497477,99.365936,117.08499)"
       d="m 29.041886,54.366486 a 1.5152287,1.5152287 0 0 1 -1.515229,1.515228 1.5152287,1.5152287 0 0 1 -1.515229,-1.515228 1.5152287,1.5152287 0 0 1 1.515229,-1.515229 1.5152287,1.5152287 0 0 1 1.515229,1.515229 z"
       sodipodi:ry="1.5152287"
       sodipodi:rx="1.5152287"
       sodipodi:cy="54.366486"
       sodipodi:cx="27.526657"
       id="use13242"
       style="fill:#ffff4f;fill-opacity:1;fill-rule:nonzero;stroke:none"
       sodipodi:type="arc" />
    <path
       transform="matrix(0.49497477,0,0,0.49497477,97.637746,121.48921)"
       d="m 29.041886,54.366486 a 1.5152287,1.5152287 0 0 1 -1.515229,1.515228 1.5152287,1.5152287 0 0 1 -1.515229,-1.515228 1.5152287,1.5152287 0 0 1 1.515229,-1.515229 1.5152287,1.5152287 0 0 1 1.515229,1.515229 z"
       sodipodi:ry="1.5152287"
       sodipodi:rx="1.5152287"
       sodipodi:cy="54.366486"
       sodipodi:cx="27.526657"
       id="use13244"
       style="fill:#ffff4f;fill-opacity:1;fill-rule:nonzero;stroke:none"
       sodipodi:type="arc" />
    <path
       transform="matrix(0.49497477,0,0,0.49497477,96.467026,123.54815)"
       d="m 29.041886,54.366486 a 1.5152287,1.5152287 0 0 1 -1.515229,1.515228 1.5152287,1.5152287 0 0 1 -1.515229,-1.515228 1.5152287,1.5152287 0 0 1 1.515229,-1.515229 1.5152287,1.5152287 0 0 1 1.515229,1.515229 z"
       sodipodi:ry="1.5152287"
       sodipodi:rx="1.5152287"
       sodipodi:cy="54.366486"
       sodipodi:cx="27.526657"
       id="use13246"
       style="fill:#ffff4f;fill-opacity:1;fill-rule:nonzero;stroke:none"
       sodipodi:type="arc" />
    <path
       transform="matrix(0.49497477,0,0,0.49497477,100.96004,125.91045)"
       d="m 29.041886,54.366486 a 1.5152287,1.5152287 0 0 1 -1.515229,1.515228 1.5152287,1.5152287 0 0 1 -1.515229,-1.515228 1.5152287,1.5152287 0 0 1 1.515229,-1.515229 1.5152287,1.5152287 0 0 1 1.515229,1.515229 z"
       sodipodi:ry="1.5152287"
       sodipodi:rx="1.5152287"
       sodipodi:cy="54.366486"
       sodipodi:cx="27.526657"
       id="use13248"
       style="fill:#ffff4f;fill-opacity:1;fill-rule:nonzero;stroke:none"
       sodipodi:type="arc" />
    <path
       transform="matrix(0.49497477,0,0,0.49497477,106.27031,121.94295)"
       d="m 29.041886,54.366486 a 1.5152287,1.5152287 0 0 1 -1.515229,1.515228 1.5152287,1.5152287 0 0 1 -1.515229,-1.515228 1.5152287,1.5152287 0 0 1 1.515229,-1.515229 1.5152287,1.5152287 0 0 1 1.515229,1.515229 z"
       sodipodi:ry="1.5152287"
       sodipodi:rx="1.5152287"
       sodipodi:cy="54.366486"
       sodipodi:cx="27.526657"
       id="use13250"
       style="fill:#ffff4f;fill-opacity:1;fill-rule:nonzero;stroke:none"
       sodipodi:type="arc" />
  </g>
  <g
     inkscape:groupmode="layer"
     id="layer4"
     inkscape:label="Layer#2"
     style="display:inline"
     transform="translate(1.8572102,-5.3713269)" />
  <g
     inkscape:groupmode="layer"
     id="layer3"
     inkscape:label="Layer#1"
     style="display:inline"
     transform="translate(1.8572102,-5.3713269)">
    <path
       transform="matrix(1.3071982,0,0,1.3071982,-184.63568,80.913639)"
       d="m 223.21429,64.651421 a 0.98214287,0.98214287 0 0 1 -0.98214,0.982142 0.98214287,0.98214287 0 0 1 -0.98215,-0.982142 0.98214287,0.98214287 0 0 1 0.98215,-0.982143 0.98214287,0.98214287 0 0 1 0.98214,0.982143 z"
       sodipodi:ry="0.98214287"
       sodipodi:rx="0.98214287"
       sodipodi:cy="64.651421"
       sodipodi:cx="222.23215"
       id="use12917"
       style="fill:#ffff00;fill-opacity:1;fill-rule:nonzero;stroke:#ffffff;stroke-width:2.29498482;stroke-linecap:butt;stroke-linejoin:round;stroke-miterlimit:4;stroke-opacity:0.19838059;stroke-dasharray:none;stroke-dashoffset:0"
       sodipodi:type="arc" />
    <path
       transform="matrix(1.3071982,0,0,1.3071982,-174.33174,66.906534)"
       d="m 223.21429,64.651421 a 0.98214287,0.98214287 0 0 1 -0.98214,0.982142 0.98214287,0.98214287 0 0 1 -0.98215,-0.982142 0.98214287,0.98214287 0 0 1 0.98215,-0.982143 0.98214287,0.98214287 0 0 1 0.98214,0.982143 z"
       sodipodi:ry="0.98214287"
       sodipodi:rx="0.98214287"
       sodipodi:cy="64.651421"
       sodipodi:cx="222.23215"
       id="use12919"
       style="fill:#ffff00;fill-opacity:1;fill-rule:nonzero;stroke:#ffffff;stroke-width:2.29498482;stroke-linecap:butt;stroke-linejoin:round;stroke-miterlimit:4;stroke-opacity:0.19838059;stroke-dasharray:none;stroke-dashoffset:0"
       sodipodi:type="arc" />
    <path
       transform="matrix(1.3071982,0,0,1.3071982,-181.72529,61.84972)"
       d="m 223.21429,64.651421 a 0.98214287,0.98214287 0 0 1 -0.98214,0.982142 0.98214287,0.98214287 0 0 1 -0.98215,-0.982142 0.98214287,0.98214287 0 0 1 0.98215,-0.982143 0.98214287,0.98214287 0 0 1 0.98214,0.982143 z"
       sodipodi:ry="0.98214287"
       sodipodi:rx="0.98214287"
       sodipodi:cy="64.651421"
       sodipodi:cx="222.23215"
       id="use12921"
       style="fill:#ffff00;fill-opacity:1;fill-rule:nonzero;stroke:#ffffff;stroke-width:2.29498482;stroke-linecap:butt;stroke-linejoin:round;stroke-miterlimit:4;stroke-opacity:0.19838059;stroke-dasharray:none;stroke-dashoffset:0"
       sodipodi:type="arc" />
    <path
       transform="matrix(1.3071982,0,0,1.3071982,-148.44701,47.38982)"
       d="m 223.21429,64.651421 a 0.98214287,0.98214287 0 0 1 -0.98214,0.982142 0.98214287,0.98214287 0 0 1 -0.98215,-0.982142 0.98214287,0.98214287 0 0 1 0.98215,-0.982143 0.98214287,0.98214287 0 0 1 0.98214,0.982143 z"
       sodipodi:ry="0.98214287"
       sodipodi:rx="0.98214287"
       sodipodi:cy="64.651421"
       sodipodi:cx="222.23215"
       id="use12923"
       style="fill:#ffff00;fill-opacity:1;fill-rule:nonzero;stroke:#ffffff;stroke-width:2.29498482;stroke-linecap:butt;stroke-linejoin:round;stroke-miterlimit:4;stroke-opacity:0.19838059;stroke-dasharray:none;stroke-dashoffset:0"
       sodipodi:type="arc" />
    <path
       transform="matrix(1.3071982,0,0,1.3071982,-196.35462,25.057162)"
       d="m 223.21429,64.651421 a 0.98214287,0.98214287 0 0 1 -0.98214,0.982142 0.98214287,0.98214287 0 0 1 -0.98215,-0.982142 0.98214287,0.98214287 0 0 1 0.98215,-0.982143 0.98214287,0.98214287 0 0 1 0.98214,0.982143 z"
       sodipodi:ry="0.98214287"
       sodipodi:rx="0.98214287"
       sodipodi:cy="64.651421"
       sodipodi:cx="222.23215"
       id="use12925"
       style="fill:#ffff00;fill-opacity:1;fill-rule:nonzero;stroke:#ffffff;stroke-width:2.29498482;stroke-linecap:butt;stroke-linejoin:round;stroke-miterlimit:4;stroke-opacity:0.19838059;stroke-dasharray:none;stroke-dashoffset:0"
       sodipodi:type="arc" />
    <path
       transform="matrix(1.3071982,0,0,1.3071982,-174.4712,-0.945204)"
       d="m 223.21429,64.651421 a 0.98214287,0.98214287 0 0 1 -0.98214,0.982142 0.98214287,0.98214287 0 0 1 -0.98215,-0.982142 0.98214287,0.98214287 0 0 1 0.98215,-0.982143 0.98214287,0.98214287 0 0 1 0.98214,0.982143 z"
       sodipodi:ry="0.98214287"
       sodipodi:rx="0.98214287"
       sodipodi:cy="64.651421"
       sodipodi:cx="222.23215"
       id="use12927"
       style="fill:#ffff00;fill-opacity:1;fill-rule:nonzero;stroke:#ffffff;stroke-width:2.29498482;stroke-linecap:butt;stroke-linejoin:round;stroke-miterlimit:4;stroke-opacity:0.19838059;stroke-dasharray:none;stroke-dashoffset:0"
       sodipodi:type="arc" />
    <path
       transform="matrix(1.3071982,0,0,1.3071982,-167.82775,5.489739)"
       d="m 223.21429,64.651421 a 0.98214287,0.98214287 0 0 1 -0.98214,0.982142 0.98214287,0.98214287 0 0 1 -0.98215,-0.982142 0.98214287,0.98214287 0 0 1 0.98215,-0.982143 0.98214287,0.98214287 0 0 1 0.98214,0.982143 z"
       sodipodi:ry="0.98214287"
       sodipodi:rx="0.98214287"
       sodipodi:cy="64.651421"
       sodipodi:cx="222.23215"
       id="use12929"
       style="fill:#ffff00;fill-opacity:1;fill-rule:nonzero;stroke:#ffffff;stroke-width:2.29498482;stroke-linecap:butt;stroke-linejoin:round;stroke-miterlimit:4;stroke-opacity:0.19838059;stroke-dasharray:none;stroke-dashoffset:0"
       sodipodi:type="arc" />
    <path
       transform="matrix(1.3071982,0,0,1.3071982,-125.76847,9.72281)"
       d="m 223.21429,64.651421 a 0.98214287,0.98214287 0 0 1 -0.98214,0.982142 0.98214287,0.98214287 0 0 1 -0.98215,-0.982142 0.98214287,0.98214287 0 0 1 0.98215,-0.982143 0.98214287,0.98214287 0 0 1 0.98214,0.982143 z"
       sodipodi:ry="0.98214287"
       sodipodi:rx="0.98214287"
       sodipodi:cy="64.651421"
       sodipodi:cx="222.23215"
       id="use12931"
       style="fill:#ffff00;fill-opacity:1;fill-rule:nonzero;stroke:#ffffff;stroke-width:2.29498482;stroke-linecap:butt;stroke-linejoin:round;stroke-miterlimit:4;stroke-opacity:0.19838059;stroke-dasharray:none;stroke-dashoffset:0"
       sodipodi:type="arc" />
    <path
       transform="matrix(1.3071982,0,0,1.3071982,-209.37846,-16.740655)"
       d="m 223.21429,64.651421 a 0.98214287,0.98214287 0 0 1 -0.98214,0.982142 0.98214287,0.98214287 0 0 1 -0.98215,-0.982142 0.98214287,0.98214287 0 0 1 0.98215,-0.982143 0.98214287,0.98214287 0 0 1 0.98214,0.982143 z"
       sodipodi:ry="0.98214287"
       sodipodi:rx="0.98214287"
       sodipodi:cy="64.651421"
       sodipodi:cx="222.23215"
       id="use12933"
       style="fill:#ffff00;fill-opacity:1;fill-rule:nonzero;stroke:#ffffff;stroke-width:2.29498482;stroke-linecap:butt;stroke-linejoin:round;stroke-miterlimit:4;stroke-opacity:0.19838059;stroke-dasharray:none;stroke-dashoffset:0"
       sodipodi:type="arc" />
    <path
       transform="matrix(1.3071982,0,0,1.3071982,-161.17769,32.417533)"
       d="m 223.21429,64.651421 a 0.98214287,0.98214287 0 0 1 -0.98214,0.982142 0.98214287,0.98214287 0 0 1 -0.98215,-0.982142 0.98214287,0.98214287 0 0 1 0.98215,-0.982143 0.98214287,0.98214287 0 0 1 0.98214,0.982143 z"
       sodipodi:ry="0.98214287"
       sodipodi:rx="0.98214287"
       sodipodi:cy="64.651421"
       sodipodi:cx="222.23215"
       id="use12935"
       style="fill:#ffff00;fill-opacity:1;fill-rule:nonzero;stroke:#ffffff;stroke-width:2.29498482;stroke-linecap:butt;stroke-linejoin:round;stroke-miterlimit:4;stroke-opacity:0.19838059;stroke-dasharray:none;stroke-dashoffset:0"
       sodipodi:type="arc" />
    <path
       transform="matrix(1.3071982,0,0,1.3071982,-127.40811,46.214303)"
       d="m 223.21429,64.651421 a 0.98214287,0.98214287 0 0 1 -0.98214,0.982142 0.98214287,0.98214287 0 0 1 -0.98215,-0.982142 0.98214287,0.98214287 0 0 1 0.98215,-0.982143 0.98214287,0.98214287 0 0 1 0.98214,0.982143 z"
       sodipodi:ry="0.98214287"
       sodipodi:rx="0.98214287"
       sodipodi:cy="64.651421"
       sodipodi:cx="222.23215"
       id="use12937"
       style="fill:#ffff00;fill-opacity:1;fill-rule:nonzero;stroke:#ffffff;stroke-width:2.29498482;stroke-linecap:butt;stroke-linejoin:round;stroke-miterlimit:4;stroke-opacity:0.19838059;stroke-dasharray:none;stroke-dashoffset:0"
       sodipodi:type="arc" />
    <path
       transform="matrix(1.3071982,0,0,1.3071982,-128.89185,14.561653)"
       d="m 223.21429,64.651421 a 0.98214287,0.98214287 0 0 1 -0.98214,0.982142 0.98214287,0.98214287 0 0 1 -0.98215,-0.982142 0.98214287,0.98214287 0 0 1 0.98215,-0.982143 0.98214287,0.98214287 0 0 1 0.98214,0.982143 z"
       sodipodi:ry="0.98214287"
       sodipodi:rx="0.98214287"
       sodipodi:cy="64.651421"
       sodipodi:cx="222.23215"
       id="use12939"
       style="fill:#ffff00;fill-opacity:1;fill-rule:nonzero;stroke:#ffffff;stroke-width:2.29498482;stroke-linecap:butt;stroke-linejoin:round;stroke-miterlimit:4;stroke-opacity:0.19838059;stroke-dasharray:none;stroke-dashoffset:0"
       sodipodi:type="arc" />
    <path
       transform="matrix(1.3071982,0,0,1.3071982,-177.3489,-22.10399)"
       d="m 223.21429,64.651421 a 0.98214287,0.98214287 0 0 1 -0.98214,0.982142 0.98214287,0.98214287 0 0 1 -0.98215,-0.982142 0.98214287,0.98214287 0 0 1 0.98215,-0.982143 0.98214287,0.98214287 0 0 1 0.98214,0.982143 z"
       sodipodi:ry="0.98214287"
       sodipodi:rx="0.98214287"
       sodipodi:cy="64.651421"
       sodipodi:cx="222.23215"
       id="use12941"
       style="fill:#ffff00;fill-opacity:1;fill-rule:nonzero;stroke:#ffffff;stroke-width:2.29498482;stroke-linecap:butt;stroke-linejoin:round;stroke-miterlimit:4;stroke-opacity:0.19838059;stroke-dasharray:none;stroke-dashoffset:0"
       sodipodi:type="arc" />
    <path
       transform="matrix(1.3071982,0,0,1.3071982,-134.25711,-9.065061)"
       d="m 223.21429,64.651421 a 0.98214287,0.98214287 0 0 1 -0.98214,0.982142 0.98214287,0.98214287 0 0 1 -0.98215,-0.982142 0.98214287,0.98214287 0 0 1 0.98215,-0.982143 0.98214287,0.98214287 0 0 1 0.98214,0.982143 z"
       sodipodi:ry="0.98214287"
       sodipodi:rx="0.98214287"
       sodipodi:cy="64.651421"
       sodipodi:cx="222.23215"
       id="use12977"
       style="fill:#ffff00;fill-opacity:1;fill-rule:nonzero;stroke:#ffffff;stroke-width:2.29498482;stroke-linecap:butt;stroke-linejoin:round;stroke-miterlimit:4;stroke-opacity:0.19838059;stroke-dasharray:none;stroke-dashoffset:0"
       sodipodi:type="arc" />
    <path
       transform="matrix(1.3071982,0,0,1.3071982,-152.84573,-3.067046)"
       d="m 223.21429,64.651421 a 0.98214287,0.98214287 0 0 1 -0.98214,0.982142 0.98214287,0.98214287 0 0 1 -0.98215,-0.982142 0.98214287,0.98214287 0 0 1 0.98215,-0.982143 0.98214287,0.98214287 0 0 1 0.98214,0.982143 z"
       sodipodi:ry="0.98214287"
       sodipodi:rx="0.98214287"
       sodipodi:cy="64.651421"
       sodipodi:cx="222.23215"
       id="use12979"
       style="fill:#ffff00;fill-opacity:1;fill-rule:nonzero;stroke:#ffffff;stroke-width:2.29498482;stroke-linecap:butt;stroke-linejoin:round;stroke-miterlimit:4;stroke-opacity:0.19838059;stroke-dasharray:none;stroke-dashoffset:0"
       sodipodi:type="arc" />
    <path
       transform="matrix(1.3071982,0,0,1.3071982,-155.0223,-12.895167)"
       d="m 223.21429,64.651421 a 0.98214287,0.98214287 0 0 1 -0.98214,0.982142 0.98214287,0.98214287 0 0 1 -0.98215,-0.982142 0.98214287,0.98214287 0 0 1 0.98215,-0.982143 0.98214287,0.98214287 0 0 1 0.98214,0.982143 z"
       sodipodi:ry="0.98214287"
       sodipodi:rx="0.98214287"
       sodipodi:cy="64.651421"
       sodipodi:cx="222.23215"
       id="use12981"
       style="fill:#ffff00;fill-opacity:1;fill-rule:nonzero;stroke:#ffffff;stroke-width:2.29498482;stroke-linecap:butt;stroke-linejoin:round;stroke-miterlimit:4;stroke-opacity:0.19838059;stroke-dasharray:none;stroke-dashoffset:0"
       sodipodi:type="arc" />
    <path
       transform="matrix(1.3071982,0,0,1.3071982,-205.97961,81.309709)"
       d="m 223.21429,64.651421 a 0.98214287,0.98214287 0 0 1 -0.98214,0.982142 0.98214287,0.98214287 0 0 1 -0.98215,-0.982142 0.98214287,0.98214287 0 0 1 0.98215,-0.982143 0.98214287,0.98214287 0 0 1 0.98214,0.982143 z"
       sodipodi:ry="0.98214287"
       sodipodi:rx="0.98214287"
       sodipodi:cy="64.651421"
       sodipodi:cx="222.23215"
       id="use12983"
       style="fill:#ffff00;fill-opacity:1;fill-rule:nonzero;stroke:#ffffff;stroke-width:2.29498482;stroke-linecap:butt;stroke-linejoin:round;stroke-miterlimit:4;stroke-opacity:0.19838059;stroke-dasharray:none;stroke-dashoffset:0"
       sodipodi:type="arc" />
    <path
       transform="matrix(1.3071982,0,0,1.3071982,-156.3211,-15.970467)"
       d="m 223.21429,64.651421 a 0.98214287,0.98214287 0 0 1 -0.98214,0.982142 0.98214287,0.98214287 0 0 1 -0.98215,-0.982142 0.98214287,0.98214287 0 0 1 0.98215,-0.982143 0.98214287,0.98214287 0 0 1 0.98214,0.982143 z"
       sodipodi:ry="0.98214287"
       sodipodi:rx="0.98214287"
       sodipodi:cy="64.651421"
       sodipodi:cx="222.23215"
       id="use12985"
       style="fill:#ffff00;fill-opacity:1;fill-rule:nonzero;stroke:#ffffff;stroke-width:2.29498482;stroke-linecap:butt;stroke-linejoin:round;stroke-miterlimit:4;stroke-opacity:0.19838059;stroke-dasharray:none;stroke-dashoffset:0"
       sodipodi:type="arc" />
    <path
       transform="matrix(1.3071982,0,0,1.3071982,-178.07778,59.094025)"
       d="m 223.21429,64.651421 a 0.98214287,0.98214287 0 0 1 -0.98214,0.982142 0.98214287,0.98214287 0 0 1 -0.98215,-0.982142 0.98214287,0.98214287 0 0 1 0.98215,-0.982143 0.98214287,0.98214287 0 0 1 0.98214,0.982143 z"
       sodipodi:ry="0.98214287"
       sodipodi:rx="0.98214287"
       sodipodi:cy="64.651421"
       sodipodi:cx="222.23215"
       id="use12987"
       style="fill:#ffff00;fill-opacity:1;fill-rule:nonzero;stroke:#ffffff;stroke-width:2.29498482;stroke-linecap:butt;stroke-linejoin:round;stroke-miterlimit:4;stroke-opacity:0.19838059;stroke-dasharray:none;stroke-dashoffset:0"
       sodipodi:type="arc" />
    <path
       transform="matrix(1.3071982,0,0,1.3071982,-175.91258,71.782749)"
       d="m 223.21429,64.651421 a 0.98214287,0.98214287 0 0 1 -0.98214,0.982142 0.98214287,0.98214287 0 0 1 -0.98215,-0.982142 0.98214287,0.98214287 0 0 1 0.98215,-0.982143 0.98214287,0.98214287 0 0 1 0.98214,0.982143 z"
       sodipodi:ry="0.98214287"
       sodipodi:rx="0.98214287"
       sodipodi:cy="64.651421"
       sodipodi:cx="222.23215"
       id="use12989"
       style="fill:#ffff00;fill-opacity:1;fill-rule:nonzero;stroke:#ffffff;stroke-width:2.29498482;stroke-linecap:butt;stroke-linejoin:round;stroke-miterlimit:4;stroke-opacity:0.19838059;stroke-dasharray:none;stroke-dashoffset:0"
       sodipodi:type="arc" />
    <path
       transform="matrix(1.0930095,0,0,1.0930095,-114.39876,20.596156)"
       d="m 217.5,50.901424 a 0.625,0.625 0 0 1 -0.625,0.625 0.625,0.625 0 0 1 -0.625,-0.625 0.625,0.625 0 0 1 0.625,-0.625 0.625,0.625 0 0 1 0.625,0.625 z"
       sodipodi:ry="0.625"
       sodipodi:rx="0.625"
       sodipodi:cy="50.901424"
       sodipodi:cx="216.875"
       id="use12991"
       style="fill:#ffff00;fill-opacity:1;fill-rule:nonzero;stroke:#ffec00;stroke-width:1.82981026;stroke-linecap:butt;stroke-linejoin:round;stroke-miterlimit:4;stroke-opacity:0.36842107;stroke-dasharray:none;stroke-dashoffset:0"
       sodipodi:type="arc" />
    <path
       transform="matrix(1.0930095,0,0,1.0930095,-122.56326,32.884601)"
       d="m 217.5,50.901424 a 0.625,0.625 0 0 1 -0.625,0.625 0.625,0.625 0 0 1 -0.625,-0.625 0.625,0.625 0 0 1 0.625,-0.625 0.625,0.625 0 0 1 0.625,0.625 z"
       sodipodi:ry="0.625"
       sodipodi:rx="0.625"
       sodipodi:cy="50.901424"
       sodipodi:cx="216.875"
       id="use12993"
       style="fill:#ffff00;fill-opacity:1;fill-rule:nonzero;stroke:#ffec00;stroke-width:1.82981026;stroke-linecap:butt;stroke-linejoin:round;stroke-miterlimit:4;stroke-opacity:0.36842107;stroke-dasharray:none;stroke-dashoffset:0"
       sodipodi:type="arc" />
    <path
       transform="matrix(1.0930095,0,0,1.0930095,-105.85518,19.417876)"
       d="m 217.5,50.901424 a 0.625,0.625 0 0 1 -0.625,0.625 0.625,0.625 0 0 1 -0.625,-0.625 0.625,0.625 0 0 1 0.625,-0.625 0.625,0.625 0 0 1 0.625,0.625 z"
       sodipodi:ry="0.625"
       sodipodi:rx="0.625"
       sodipodi:cy="50.901424"
       sodipodi:cx="216.875"
       id="use12995"
       style="fill:#ffff00;fill-opacity:1;fill-rule:nonzero;stroke:#ffec00;stroke-width:1.82981026;stroke-linecap:butt;stroke-linejoin:round;stroke-miterlimit:4;stroke-opacity:0.36842107;stroke-dasharray:none;stroke-dashoffset:0"
       sodipodi:type="arc" />
    <path
       transform="matrix(1.0930095,0,0,1.0930095,-82.32305,95.173887)"
       d="m 217.5,50.901424 a 0.625,0.625 0 0 1 -0.625,0.625 0.625,0.625 0 0 1 -0.625,-0.625 0.625,0.625 0 0 1 0.625,-0.625 0.625,0.625 0 0 1 0.625,0.625 z"
       sodipodi:ry="0.625"
       sodipodi:rx="0.625"
       sodipodi:cy="50.901424"
       sodipodi:cx="216.875"
       id="use12997"
       style="fill:#ffff00;fill-opacity:1;fill-rule:nonzero;stroke:#ffec00;stroke-width:1.82981026;stroke-linecap:butt;stroke-linejoin:round;stroke-miterlimit:4;stroke-opacity:0.36842107;stroke-dasharray:none;stroke-dashoffset:0"
       sodipodi:type="arc" />
    <path
       transform="matrix(1.0930095,0,0,1.0930095,-99.58736,72.78724)"
       d="m 217.5,50.901424 a 0.625,0.625 0 0 1 -0.625,0.625 0.625,0.625 0 0 1 -0.625,-0.625 0.625,0.625 0 0 1 0.625,-0.625 0.625,0.625 0 0 1 0.625,0.625 z"
       sodipodi:ry="0.625"
       sodipodi:rx="0.625"
       sodipodi:cy="50.901424"
       sodipodi:cx="216.875"
       id="use12999"
       style="fill:#ffff00;fill-opacity:1;fill-rule:nonzero;stroke:#ffec00;stroke-width:1.82981026;stroke-linecap:butt;stroke-linejoin:round;stroke-miterlimit:4;stroke-opacity:0.36842107;stroke-dasharray:none;stroke-dashoffset:0"
       sodipodi:type="arc" />
    <path
       transform="matrix(1.0930095,0,0,1.0930095,-107.81079,69.072602)"
       d="m 217.5,50.901424 a 0.625,0.625 0 0 1 -0.625,0.625 0.625,0.625 0 0 1 -0.625,-0.625 0.625,0.625 0 0 1 0.625,-0.625 0.625,0.625 0 0 1 0.625,0.625 z"
       sodipodi:ry="0.625"
       sodipodi:rx="0.625"
       sodipodi:cy="50.901424"
       sodipodi:cx="216.875"
       id="use13001"
       style="fill:#ffff00;fill-opacity:1;fill-rule:nonzero;stroke:#ffec00;stroke-width:1.82981026;stroke-linecap:butt;stroke-linejoin:round;stroke-miterlimit:4;stroke-opacity:0.36842107;stroke-dasharray:none;stroke-dashoffset:0"
       sodipodi:type="arc" />
    <path
       transform="matrix(1.0930095,0,0,1.0930095,-89.51902,74.961658)"
       d="m 217.5,50.901424 a 0.625,0.625 0 0 1 -0.625,0.625 0.625,0.625 0 0 1 -0.625,-0.625 0.625,0.625 0 0 1 0.625,-0.625 0.625,0.625 0 0 1 0.625,0.625 z"
       sodipodi:ry="0.625"
       sodipodi:rx="0.625"
       sodipodi:cy="50.901424"
       sodipodi:cx="216.875"
       id="use13003"
       style="fill:#ffff00;fill-opacity:1;fill-rule:nonzero;stroke:#ffec00;stroke-width:1.82981026;stroke-linecap:butt;stroke-linejoin:round;stroke-miterlimit:4;stroke-opacity:0.36842107;stroke-dasharray:none;stroke-dashoffset:0"
       sodipodi:type="arc" />
    <path
       transform="matrix(1.0930095,0,0,1.0930095,-102.49111,73.890166)"
       d="m 217.5,50.901424 a 0.625,0.625 0 0 1 -0.625,0.625 0.625,0.625 0 0 1 -0.625,-0.625 0.625,0.625 0 0 1 0.625,-0.625 0.625,0.625 0 0 1 0.625,0.625 z"
       sodipodi:ry="0.625"
       sodipodi:rx="0.625"
       sodipodi:cy="50.901424"
       sodipodi:cx="216.875"
       id="use13005"
       style="fill:#ffff00;fill-opacity:1;fill-rule:nonzero;stroke:#ffec00;stroke-width:1.82981026;stroke-linecap:butt;stroke-linejoin:round;stroke-miterlimit:4;stroke-opacity:0.36842107;stroke-dasharray:none;stroke-dashoffset:0"
       sodipodi:type="arc" />
    <path
       transform="matrix(1.0930095,0,0,1.0930095,-124.20204,76.290851)"
       d="m 217.5,50.901424 a 0.625,0.625 0 0 1 -0.625,0.625 0.625,0.625 0 0 1 -0.625,-0.625 0.625,0.625 0 0 1 0.625,-0.625 0.625,0.625 0 0 1 0.625,0.625 z"
       sodipodi:ry="0.625"
       sodipodi:rx="0.625"
       sodipodi:cy="50.901424"
       sodipodi:cx="216.875"
       id="use13007"
       style="fill:#ffff00;fill-opacity:1;fill-rule:nonzero;stroke:#ffec00;stroke-width:1.82981026;stroke-linecap:butt;stroke-linejoin:round;stroke-miterlimit:4;stroke-opacity:0.36842107;stroke-dasharray:none;stroke-dashoffset:0"
       sodipodi:type="arc" />
    <path
       transform="matrix(1.0930095,0,0,1.0930095,-120.12938,78.629277)"
       d="m 217.5,50.901424 a 0.625,0.625 0 0 1 -0.625,0.625 0.625,0.625 0 0 1 -0.625,-0.625 0.625,0.625 0 0 1 0.625,-0.625 0.625,0.625 0 0 1 0.625,0.625 z"
       sodipodi:ry="0.625"
       sodipodi:rx="0.625"
       sodipodi:cy="50.901424"
       sodipodi:cx="216.875"
       id="use13009"
       style="fill:#ffff00;fill-opacity:1;fill-rule:nonzero;stroke:#ffec00;stroke-width:1.82981026;stroke-linecap:butt;stroke-linejoin:round;stroke-miterlimit:4;stroke-opacity:0.36842107;stroke-dasharray:none;stroke-dashoffset:0"
       sodipodi:type="arc" />
    <path
       transform="matrix(1.0930095,0,0,1.0930095,-124.54447,92.625617)"
       d="m 217.5,50.901424 a 0.625,0.625 0 0 1 -0.625,0.625 0.625,0.625 0 0 1 -0.625,-0.625 0.625,0.625 0 0 1 0.625,-0.625 0.625,0.625 0 0 1 0.625,0.625 z"
       sodipodi:ry="0.625"
       sodipodi:rx="0.625"
       sodipodi:cy="50.901424"
       sodipodi:cx="216.875"
       id="use13011"
       style="fill:#ffff00;fill-opacity:1;fill-rule:nonzero;stroke:#ffec00;stroke-width:1.82981026;stroke-linecap:butt;stroke-linejoin:round;stroke-miterlimit:4;stroke-opacity:0.36842107;stroke-dasharray:none;stroke-dashoffset:0"
       sodipodi:type="arc" />
    <path
       transform="matrix(1.0930095,0,0,1.0930095,-84.15262,88.765107)"
       d="m 217.5,50.901424 a 0.625,0.625 0 0 1 -0.625,0.625 0.625,0.625 0 0 1 -0.625,-0.625 0.625,0.625 0 0 1 0.625,-0.625 0.625,0.625 0 0 1 0.625,0.625 z"
       sodipodi:ry="0.625"
       sodipodi:rx="0.625"
       sodipodi:cy="50.901424"
       sodipodi:cx="216.875"
       id="use13021"
       style="fill:#ffff00;fill-opacity:1;fill-rule:nonzero;stroke:#ffec00;stroke-width:1.82981026;stroke-linecap:butt;stroke-linejoin:round;stroke-miterlimit:4;stroke-opacity:0.36842107;stroke-dasharray:none;stroke-dashoffset:0"
       sodipodi:type="arc" />
    <path
       transform="matrix(1.0930095,0,0,1.0930095,-163.86945,93.98534)"
       d="m 217.5,50.901424 a 0.625,0.625 0 0 1 -0.625,0.625 0.625,0.625 0 0 1 -0.625,-0.625 0.625,0.625 0 0 1 0.625,-0.625 0.625,0.625 0 0 1 0.625,0.625 z"
       sodipodi:ry="0.625"
       sodipodi:rx="0.625"
       sodipodi:cy="50.901424"
       sodipodi:cx="216.875"
       id="use13023"
       style="fill:#ffff00;fill-opacity:1;fill-rule:nonzero;stroke:#ffec00;stroke-width:1.82981026;stroke-linecap:butt;stroke-linejoin:round;stroke-miterlimit:4;stroke-opacity:0.36842107;stroke-dasharray:none;stroke-dashoffset:0"
       sodipodi:type="arc" />
    <path
       transform="matrix(1.0930095,0,0,1.0930095,-148.11735,115.88353)"
       d="m 217.5,50.901424 a 0.625,0.625 0 0 1 -0.625,0.625 0.625,0.625 0 0 1 -0.625,-0.625 0.625,0.625 0 0 1 0.625,-0.625 0.625,0.625 0 0 1 0.625,0.625 z"
       sodipodi:ry="0.625"
       sodipodi:rx="0.625"
       sodipodi:cy="50.901424"
       sodipodi:cx="216.875"
       id="use13025"
       style="fill:#ffff00;fill-opacity:1;fill-rule:nonzero;stroke:#ffec00;stroke-width:1.82981026;stroke-linecap:butt;stroke-linejoin:round;stroke-miterlimit:4;stroke-opacity:0.36842107;stroke-dasharray:none;stroke-dashoffset:0"
       sodipodi:type="arc" />
    <path
       transform="matrix(1.0930095,0,0,1.0930095,-130.33358,106.21256)"
       d="m 217.5,50.901424 a 0.625,0.625 0 0 1 -0.625,0.625 0.625,0.625 0 0 1 -0.625,-0.625 0.625,0.625 0 0 1 0.625,-0.625 0.625,0.625 0 0 1 0.625,0.625 z"
       sodipodi:ry="0.625"
       sodipodi:rx="0.625"
       sodipodi:cy="50.901424"
       sodipodi:cx="216.875"
       id="use13027"
       style="fill:#ffff00;fill-opacity:1;fill-rule:nonzero;stroke:#ffec00;stroke-width:1.82981026;stroke-linecap:butt;stroke-linejoin:round;stroke-miterlimit:4;stroke-opacity:0.36842107;stroke-dasharray:none;stroke-dashoffset:0"
       sodipodi:type="arc" />
    <path
       transform="matrix(1.0930095,0,0,1.0930095,-148.68282,111.72419)"
       d="m 217.5,50.901424 a 0.625,0.625 0 0 1 -0.625,0.625 0.625,0.625 0 0 1 -0.625,-0.625 0.625,0.625 0 0 1 0.625,-0.625 0.625,0.625 0 0 1 0.625,0.625 z"
       sodipodi:ry="0.625"
       sodipodi:rx="0.625"
       sodipodi:cy="50.901424"
       sodipodi:cx="216.875"
       id="use13029"
       style="fill:#ffff00;fill-opacity:1;fill-rule:nonzero;stroke:#ffec00;stroke-width:1.82981026;stroke-linecap:butt;stroke-linejoin:round;stroke-miterlimit:4;stroke-opacity:0.36842107;stroke-dasharray:none;stroke-dashoffset:0"
       sodipodi:type="arc" />
    <path
       transform="matrix(1.0930095,0,0,1.0930095,-140.91099,3.769859)"
       d="m 217.5,50.901424 a 0.625,0.625 0 0 1 -0.625,0.625 0.625,0.625 0 0 1 -0.625,-0.625 0.625,0.625 0 0 1 0.625,-0.625 0.625,0.625 0 0 1 0.625,0.625 z"
       sodipodi:ry="0.625"
       sodipodi:rx="0.625"
       sodipodi:cy="50.901424"
       sodipodi:cx="216.875"
       id="use13031"
       style="fill:#ffff00;fill-opacity:1;fill-rule:nonzero;stroke:#ffec00;stroke-width:1.82981026;stroke-linecap:butt;stroke-linejoin:round;stroke-miterlimit:4;stroke-opacity:0.36842107;stroke-dasharray:none;stroke-dashoffset:0"
       sodipodi:type="arc" />
    <path
       transform="matrix(1.0930095,0,0,1.0930095,-127.08029,6.70765)"
       d="m 217.5,50.901424 a 0.625,0.625 0 0 1 -0.625,0.625 0.625,0.625 0 0 1 -0.625,-0.625 0.625,0.625 0 0 1 0.625,-0.625 0.625,0.625 0 0 1 0.625,0.625 z"
       sodipodi:ry="0.625"
       sodipodi:rx="0.625"
       sodipodi:cy="50.901424"
       sodipodi:cx="216.875"
       id="use13033"
       style="fill:#ffff00;fill-opacity:1;fill-rule:nonzero;stroke:#ffec00;stroke-width:1.82981026;stroke-linecap:butt;stroke-linejoin:round;stroke-miterlimit:4;stroke-opacity:0.36842107;stroke-dasharray:none;stroke-dashoffset:0"
       sodipodi:type="arc" />
    <path
       transform="matrix(1.0930095,0,0,1.0930095,-129.11483,5.613343)"
       d="m 217.5,50.901424 a 0.625,0.625 0 0 1 -0.625,0.625 0.625,0.625 0 0 1 -0.625,-0.625 0.625,0.625 0 0 1 0.625,-0.625 0.625,0.625 0 0 1 0.625,0.625 z"
       sodipodi:ry="0.625"
       sodipodi:rx="0.625"
       sodipodi:cy="50.901424"
       sodipodi:cx="216.875"
       id="use13035"
       style="fill:#ffff00;fill-opacity:1;fill-rule:nonzero;stroke:#ffec00;stroke-width:1.82981026;stroke-linecap:butt;stroke-linejoin:round;stroke-miterlimit:4;stroke-opacity:0.36842107;stroke-dasharray:none;stroke-dashoffset:0"
       sodipodi:type="arc" />
  </g>
  <g
     inkscape:label="Layer 1"
     inkscape:groupmode="layer"
     id="layer1"
     transform="translate(377.39438,-120.80959)"
     style="display:inline">
    <path
       style="fill:#ebe9cf;fill-opacity:1;stroke:none;display:inline"
       d="m -334.72809,227.78554 c -0.0429,39.50804 31.55843,70.14955 69.74537,70.01647 -26.31555,0 -58.70326,-27.70866 -58.68482,-69.0849 0.0189,-42.44109 32.58553,-70.28263 58.68431,-70.28263 -37.32423,0.13308 -69.70238,30.20661 -69.74486,69.35106 z"
       id="path4481"
       inkscape:connector-curvature="0"
       sodipodi:nodetypes="scscs" />
    <g
       id="g3899"
       style="fill:#a0a091;fill-opacity:1">
      <path
         clip-path="none"
         transform="matrix(0.32790531,-0.10651501,0.09712413,0.35961033,-363.35782,162.50846)"
         d="m 35.714285,230.18564 a 3.75,9.8214283 0 0 1 -3.75,9.82143 3.75,9.8214283 0 0 1 -3.75,-9.82143 3.75,9.8214283 0 0 1 3.75,-9.82143 3.75,9.8214283 0 0 1 3.75,9.82143 z"
         sodipodi:ry="9.8214283"
         sodipodi:rx="3.75"
         sodipodi:cy="230.18564"
         sodipodi:cx="31.964285"
         id="path4470"
         style="fill:#a0a091;fill-opacity:1;fill-rule:evenodd;stroke:none;display:inline"
         sodipodi:type="arc" />
      <path
         mask="none"
         transform="matrix(0.39707321,0,0,0.39616491,-342.64819,150.41476)"
         clip-path="none"
         sodipodi:nodetypes="csccssscsssssssssssc"
         inkscape:connector-curvature="0"
         id="path4472"
         d="M 58.637338,261.48136 C 40.782497,210.74507 41.619309,132.13959 91.698046,75.189384 111.20539,53.005369 99.849208,62.014145 99.849208,62.014145 106.05309,54.813737 111.206,44.33865 93.313858,58.935102 80.133498,69.814904 85.023428,69.732966 80.477738,70.49058 75.93206,71.248194 74.89127,73.926766 71.35573,77.4623 c -3.53553,3.535534 -1.37998,3.474258 -2.39014,6.252177 -1.01015,2.77792 -4.12726,8.007254 -5.89503,9.269944 -0.69634,-8.201594 -9.23931,5.734411 -10.24946,9.017409 -1.01015,3.28299 -10.18926,8.0246 -13.45105,13.30004 -4.25119,6.87563 -5.1173,14.10406 -4.35968,16.12437 0.75761,2.0203 -0.70903,5.96156 -1.46665,7.22425 -0.75761,1.26269 -0.69108,4.66298 -3.97408,11.73405 -3.28299,7.07108 -5.27266,27.45796 -2.74728,28.72065 2.52538,1.26269 2.49475,0.19126 5.95631,1.32396 3.26456,1.06824 -4.21918,8.3412 -1.44126,12.63434 2.77792,4.29315 4.31853,7.8751 3.73949,12.08901 -0.96812,7.04534 -0.97478,12.21462 0.94144,17.77702 3.10867,9.02385 6.42438,4.62881 8.06327,12.23387 9.34917,43.38363 14.555728,26.31797 14.555728,26.31797 z"
         style="display:inline;fill:#a0a091;fill-opacity:1;stroke:none" />
    </g>
    <path
       style="fill:#e1e1c8;fill-opacity:0.23744291;stroke:none;display:none"
       d="m -334.69768,227.69633 c -0.0429,39.50804 31.55843,70.14955 69.74537,70.01647 -26.31555,0 -58.70326,-27.70865 -58.68482,-69.0849 0.0189,-42.44109 32.58553,-70.28263 58.68431,-70.28263 -37.32424,0.13309 -69.70237,30.20662 -69.74486,69.35106 z"
       id="path4507"
       inkscape:connector-curvature="0"
       sodipodi:nodetypes="scscs" />
    <g
       style="fill:#ebe9cf;fill-opacity:1;stroke:#e1e1c8;stroke-width:0.29436806;stroke-miterlimit:4;stroke-opacity:1;stroke-dasharray:none;display:inline"
       id="g3576"
       transform="matrix(0.39707321,0,0,0.39616491,-343.80872,-21.806507)">
      <g
         id="g3580"
         style="fill:#ebe9cf;fill-opacity:1;stroke:#e1e1c8;stroke-width:0.29436806;stroke-miterlimit:4;stroke-opacity:1;stroke-dasharray:none">
        <path
           d="m 247.94455,624.40282 c 0,19.54684 -16.12305,35.74769 -35.7477,35.74769 -19.88922,0 -35.84105,-16.0919 -35.84105,-36.21458 0,-19.17331 16.41873,-35.37416 35.84105,-35.37416 19.62465,0 35.7477,16.0919 35.7477,35.84105 z m -65.36365,-0.29568 c 0,16.4654 13.30618,29.81827 29.61595,29.81827 16.12303,0 29.52258,-13.35287 29.52258,-29.42921 0,-16.26309 -13.39955,-29.70933 -29.52258,-29.70933 -16.02964,0 -29.61595,13.44624 -29.61595,29.32027 z m 158.74026,0.29568 c 0,19.54684 -16.12303,35.74769 -35.74769,35.74769 -19.88921,0 -35.84105,-16.0919 -35.84105,-36.21458 0,-19.17331 16.41872,-35.37416 35.84105,-35.37416 19.62466,0 35.74769,16.0919 35.74769,35.84105 z m -65.36364,-0.29568 c 0,16.4654 13.30618,29.81827 29.61595,29.81827 16.12303,0 29.52258,-13.35287 29.52258,-29.42921 0,-16.26309 -13.39955,-29.70933 -29.52258,-29.70933 -16.02964,0 -29.61595,13.44624 -29.61595,29.32027 z m 90.26405,-33.98909 8.60622,0 38.08211,56.80411 0,-56.80411 6.2251,0 0,68.47618 -6.2251,0 -40.46321,-60.22792 0,60.22792 -6.22512,0 z m 77.88195,-0.32653 6.39789,0 16.4155,56.36525 15.51751,-56.29128 6.55192,0 15.17544,57.17888 16.81597,-57.07428 6.20377,0 -19.42015,68.47618 -6.83837,-0.1046 -15.32934,-56.15047 -15.11145,56.15047 -7.0196,-0.074 z m 119.52906,0.32654 7.7347,0 29.67822,68.47618 -7.54796,0 -10.00686,-23.34416 -32.12155,0 -10.06912,23.34416 -7.28336,0 z m 17.16575,38.90692 -13.25949,-31.17222 -13.53959,31.17222 z m 85.11278,29.56926 -7.90589,0 -23.12627,-31.03216 c 7.6102,0 12.0767,-0.35794 15.31375,-1.18277 6.87875,-1.8831 10.41152,-6.66087 10.41152,-14.44224 0,-6.20956 -2.599,-10.84726 -7.25226,-13.07274 -3.7195,-1.77415 -8.5284,-2.49004 -15.78065,-2.49004 l -9.64892,0 0,62.21995 -6.2251,0 0,-68.47618 16.34091,0 c 8.7774,0 14.56675,1.02714 18.75313,3.33043 6.50523,3.62613 10.03798,10.11579 10.03798,18.75314 0,12.1234 -6.81649,19.45346 -19.50015,20.83854 z m 24.26238,-68.47618 15.73391,0 c 12.45026,0 19.71809,1.47846 26.20769,5.36915 10.24036,6.03836 15.64067,16.23196 15.64067,29.11794 0,12.79259 -5.47812,22.78389 -15.87405,28.8845 -6.05397,3.5172 -13.30624,5.10459 -23.62433,5.10459 l -18.08389,0 z m 15.99854,62.21995 c 12.45019,0 19.67134,-1.74304 25.28953,-6.10061 6.44292,-5.07348 10.06901,-12.96379 10.06901,-21.92795 0,-10.19361 -4.63764,-18.7687 -12.74582,-23.48421 -5.29136,-3.1748 -11.96779,-4.45095 -22.61272,-4.45095 l -9.77344,0 0,55.96372 z m 69.98188,-12.59027 c 0.58612,4.27975 1.69756,6.61416 4.2237,9.04195 3.25354,3.15925 8.68969,5.13573 14.36836,5.13573 10.28618,0 17.90478,-5.75823 17.90478,-13.69524 0,-4.20195 -2.14218,-7.73471 -6.10304,-9.86681 -2.86952,-1.60296 -6.68902,-2.89466 -13.64073,-4.57544 -10.2459,-2.4278 -12.99424,-3.45494 -16.47013,-6.06949 -3.96093,-2.89466 -6.2243,-7.45456 -6.2243,-12.21677 0,-10.94062 10.06397,-18.93989 24.02821,-18.93989 14.36829,0 24.23009,7.61019 24.5737,19.03326 l -8.62903,0 c -0.6063,-7.75025 -7.01245,-12.80816 -16.18726,-12.80816 -9.07373,0 -15.70208,5.3536 -15.70208,12.52803 0,3.15924 1.67732,6.24067 4.20331,8.01483 2.36453,1.58741 5.01185,2.41224 13.01448,4.27977 9.09375,2.14766 12.77181,3.45493 16.36904,5.49365 5.63818,3.26819 8.8513,8.68402 8.8513,14.73796 0,11.67206 -11.17541,20.3094 -26.23084,20.3094 -15.66173,0 -26.37228,-8.07709 -27.20085,-20.40278 z"
           id="Path"
           inkscape:connector-curvature="0"
           style="fill:#ebe9cf;fill-opacity:1;stroke:#e1e1c8;stroke-width:0.29436806;stroke-miterlimit:4;stroke-opacity:1;stroke-dasharray:none"
           sodipodi:nodetypes="ssssssssssssssssssssccccccccccccccccccccccccccccccccccccccccccscsccccscscccscscsccscscsccsccsscccssccsscccsscc" />
        <path
           sodipodi:nodetypes="cccccccccccccc"
           style="fill:#ebe9cf;fill-opacity:1;stroke:#e1e1c8;stroke-width:0.29436806;stroke-miterlimit:4;stroke-opacity:1;stroke-dasharray:none"
           inkscape:connector-curvature="0"
           id="path3603"
           d="m 77.141574,658.73327 6.576466,0 16.4155,-56.36525 15.51751,56.29128 6.55192,0 15.17544,-57.17888 16.81597,57.07428 6.38234,0 -19.50364,-68.47618 -6.93345,0.1046 -15.32934,56.15046 -15.11145,-56.15046 -7.114945,0.074 z" />
      </g>
    </g>
  </g>
</svg>
